<?xml version="1.0" encoding="utf-8"?>
<!-- Generator: Adobe Illustrator 21.1.0, SVG Export Plug-In . SVG Version: 6.00 Build 0)  -->
<svg version="1.1" id="d6147fb8-5a87-4dd3-b5f0-ace64eac798a"
	 xmlns="http://www.w3.org/2000/svg" xmlns:xlink="http://www.w3.org/1999/xlink" x="0px" y="0px" viewBox="0 0 1057.2 835.5"
	 style="enable-background:new 0 0 1057.2 835.5;" xml:space="preserve">
<style type="text/css">
	.st0{fill:#FAFAFC;}
	.st1{fill:#6C63FF;}
	.st2{fill:none;stroke:#535461;stroke-miterlimit:10;}
	.st3{fill:none;stroke:#535461;stroke-width:2;stroke-miterlimit:10;}
	.st4{fill:#2F2F44;}
	.st5{fill:#373751;}
	.st6{opacity:0.1;enable-background:new    ;}
	.st7{fill:#EBECF0;}
	.st8{fill:#F8F9FA;}
	.st9{fill:#FFD5D8;}
	.st10{fill:#FF7C5E;}
	.st11{fill:#EA3333;}
	.st12{fill:#FC9A9A;}
	.st13{fill:#F7AAAA;}
	.st14{opacity:5.000000e-02;enable-background:new    ;}
	.st15{fill:#DD2424;}
	.st16{fill:#0B252E;}
	.st17{fill:#171726;}
</style>
<path class="st0" d="M473.6,103.9c-7.4-1-14.9,1.1-20.8,5.8c-3,2.4-5.9,5-8.8,7.5c-51.2,45.1-114.3,65.9-173.2,71
	c-25,2.2-65.5,11-78.7,37.2c-7.1,14.1,3.6,24.6,2.3,39.3c-2.5,30.7-19.1,63.2-43.3,85c-27.5,24.8-66,38.9-81,73.1
	c-9.2,21-5.9,43-1.9,62.7c6.3,30.8,14,60.9,23.1,90.2c6.1,19.7,13.2,39.7,27.8,52c12.8,10.8,30.2,14.5,47,18
	c14.7,3.1,29.9,6.1,46,2.7c10.5-2.3,21-7.2,31.3-7.8c24.2-1.4,38.7,20.6,52.8,38.5c33.3,42.2,88,45.7,142.6,53.2
	c83.6,11.5,170.6,1.4,255.7,7.9c36.6,2.8,82.4-25,120.2-28c21.6-1.9,42.9-7.5,62.7-16.7c39.6-18.1,65.8-12.4,89.8-52.9
	c24-40.5,34.1-88.8,24.4-128.1c-10.3-42.1-40.9-70.2-61.4-105.5c-21.2-36.5-3.7-67.3-23.8-104.7c-33.1-61.2-88-96.2-157-103.5
	c-46.8-5-120.3,0.7-160.1-22.5C562.4,162.5,530.6,111.6,473.6,103.9z"/>
<title>sleep analysis</title>
<g>
	<g>
		<path class="st1" d="M210.1,307.8c3.7,9.6-2.8,44-2.8,44s-28.1-21-31.9-30.5c-4-9.4,0.3-20.4,9.8-24.4s20.4,0.3,24.4,9.8
			C209.8,307,209.9,307.4,210.1,307.8z"/>
		<path class="st1" d="M259.4,349.6c-2.1,10.1-26.3,35.5-26.3,35.5s-12.2-32.9-10.2-43c1.8-10.1,11.5-16.8,21.6-15
			s16.8,11.5,15,21.6C259.5,348.9,259.4,349.2,259.4,349.6L259.4,349.6z"/>
		<path class="st1" d="M293.5,440.6c-6.9,7.6-40.6,17.4-40.6,17.4s6.1-34.6,12.9-42.2c7-7.5,18.7-8,26.3-1.1
			C299.5,421.5,300.1,433,293.5,440.6z"/>
		<path class="st1" d="M303.7,515.2c-5.5,8.7-37.1,24-37.1,24s0.1-35.1,5.6-43.8c5.3-8.8,16.7-11.6,25.5-6.4
			c8.8,5.3,11.6,16.7,6.4,25.5C304,514.8,303.9,515,303.7,515.2L303.7,515.2z"/>
		<path class="st1" d="M197.5,401.1c9.5,4,44.1-1.6,44.1-1.6s-20.2-28.7-29.6-32.7c-9.5-4-20.4,0.4-24.4,9.9
			C183.5,386.2,188,397.1,197.5,401.1z"/>
		<path class="st1" d="M210.6,488.3c10.2,1,41.6-14.7,41.6-14.7s-27.9-21.3-38.1-22.3c-10.2-1.2-19.5,6-20.7,16.2s6,19.5,16.2,20.7
			C210,488.2,210.3,488.2,210.6,488.3L210.6,488.3z"/>
		<g>
			<path class="st1" d="M181,532.7c0,0-49.6,77.4,112.9,78.8c0,0,2.4-67.4-50.7-95.1c-21.4-11.2-47.8-4.7-61.4,15.2L181,532.7z"/>
			<path class="st2" d="M181.3,531.4c0,0,83.2,16.4,112.6,80.1"/>
			<g>
				<path class="st3" d="M301.2,601c0,0-53.4-69.1-48.6-137.1c2-28.6-4.7-57.1-20.2-81.2c-7.4-11.4-15.8-22.1-25.1-32"/>
			</g>
		</g>
	</g>
	<polygon class="st4" points="285.3,271.1 285.3,538.6 641.1,469.4 634.3,264.3 	"/>
	<polygon class="st5" points="954.2,586.4 954.2,674.8 577.9,784.8 574.1,782.8 276.5,628.4 276.5,262.9 644.8,251 647.1,453.8 
		632.3,458.4 626.7,268.6 302.5,279.9 300.3,554.7 582.5,678.2 582.7,678.2 	"/>
	<polygon class="st6" points="954.2,586.4 954.2,674.8 577.9,784.8 574.1,782.8 582.7,678.2 	"/>
	<path class="st7" d="M500.6,458.1c0,0-182.2,18.2-199.9,44.5c-17.7,26.3-0.1,58.6-0.1,58.6l281.6,122.4l382-98.6
		c0,0-10.2-69.1-41.9-77.1c-31.7-7.9-284.5-62.3-284.5-62.3S535.7,439.4,500.6,458.1z"/>
	<path class="st8" d="M300.6,502.8L587.9,602c0,0,306.5-92.9,349.9-84.2c0,0-214.4-76.7-300-73.4c-68.2,2.7-139.7,13.9-139.7,13.9
		S308.5,477.4,300.6,502.8z"/>
	<path class="st9" d="M477,446.7c0,0-7.3-9.9-11.2-9.6s-3.3,16.8-3.3,16.8L477,446.7z"/>
	<path class="st10" d="M570.3,453.3c0,0-77.2,6.3-91.7-6.9c0,0-13.5-3.6-16.8,1.3s2.6,14.8,6.6,16.5s25.7,1,40.6,11.9
		c14.8,10.9,53.8,2,53.8,2l16.2-6.3L570.3,453.3z"/>
	<path class="st11" d="M570.3,453.3c0,0-77.2,6.3-91.7-6.9c0,0-13.5-3.6-16.8,1.3s2.6,14.8,6.6,16.5s25.7,1,40.6,11.9
		c14.8,10.9,53.8,2,53.8,2l16.2-6.3L570.3,453.3z"/>
	<path class="st9" d="M680.8,490.2c0,0-16.5-11.9-50.5,3S511.6,516,511.6,516s-28.4,28.4,4,39.9c32.4,11.5,154.4,2,154.4,2
		s49.8,3.3,65.3,6.9c9.4,2.2,2-8.4-5.3-17.1c-5.2-6.2-12.6-10-20.6-10.7c-9.7-0.8-23.3-3.9-29.4-14c0,0-11.9-5.9-29.7,11.9l-17.2-7
		c0,0,47.2-14.8,48.8-24.7C683.5,493.2,680.8,490.2,680.8,490.2z"/>
	<path class="st12" d="M680.8,490.2c0,0-16.5-11.9-50.5,3S511.6,516,511.6,516s-28.4,28.4,4,39.9c32.4,11.5,154.4,2,154.4,2
		s49.8,3.3,65.3,6.9c8.2,1.9,3.5-6-2.6-13.8c-6.2-7.9-15.4-13.1-25.4-14.2c-9.5-1.1-21.6-4.4-27.4-13.8c0,0-11.9-5.9-29.7,11.9
		l-17.2-7c0,0,47.2-14.8,48.8-24.7C683.5,493.2,680.8,490.2,680.8,490.2z"/>
	<path class="st13" d="M681.1,443.4c0,0-20.8-33-69.9-4.3l-63,35c0,0-35,22.1-38.3,33.3s-8.3,30.3,26.1,37.6s114.1,16.5,130.9,24.7
		c0,0,14.8,2,20.8,5.6s16.8,2.6,16.8,2.6s21.1,3.6,25.7,8.3s12.5-7.9,2.6-13.8s-32.3-21.8-32-28s-7.6-17.2-15.2-18.6
		s-17.5,9.9-17.5,9.9s-12.5,2-20.1-3c0,0-38.9-8.9-42.9-11.5s-31-12.9-31-12.9s64-0.7,82.8-17.8c0,0,7.3-5.3,13.2-3.6
		C670.3,486.9,699.6,475.7,681.1,443.4z"/>
	<path class="st9" d="M494.1,381.4c0,0,18.8,13.2,33.3,0s6.3,40.6,6.3,40.6s-20.1-26.7-50.1-9.2L494.1,381.4z"/>
	<path class="st12" d="M494.1,381.4c0,0,18.8,13.2,33.3,0s6.3,40.6,6.3,40.6s-20.1-26.7-50.1-9.2L494.1,381.4z"/>
	<path class="st8" d="M413.7,494.5c0,0,19.8-16.8,31-17.2c3.3-0.1,7.2-3.5,11-8.2c9.8-12.2,25.5-17.9,40.8-15
		c6.4,1.2,14.2,1.2,23.8-1.2c34.6-8.6,17.5-30,17.5-30l-10.9-9.2c0,0-14.8-10.2-20.5-9.6s-20.1,15.5-21.8,13.9s-21.8-16.5-25.1-20.5
		s-29.7-16.8-23.1-20.5s39.9-17.1,33.3-19.8s-42.2-6.6-56.1,9.9S406.7,485,413.7,494.5z"/>
	<path class="st14" d="M413.7,494.5c0,0,19.8-16.8,31-17.2c3.3-0.1,7.2-3.5,11-8.2c9.8-12.2,25.5-17.9,40.8-15
		c6.4,1.2,14.2,1.2,23.8-1.2c34.6-8.6,17.5-30,17.5-30l-10.9-9.2c0,0-14.8-10.2-20.5-9.6s-20.1,15.5-21.8,13.9s-21.8-16.5-25.1-20.5
		s-29.7-16.8-23.1-20.5s39.9-17.1,33.3-19.8s-42.2-6.6-56.1,9.9S406.7,485,413.7,494.5z"/>
	<path class="st8" d="M415,492.2c0,0,19.8-16.8,31-17.2c3.3-0.1,7.2-3.5,11-8.2c9.8-12.1,25.4-17.9,40.7-15
		c6.4,1.2,14.2,1.1,23.8-1.2c34.6-8.6,17.5-30,17.5-30l-10.9-9.2c0,0-14.8-10.2-20.4-9.6s-20.1,15.5-21.8,13.9s-21.8-16.5-25.1-20.5
		s-29.6-16.8-23.1-20.4s39.9-17.1,33.3-19.8s-42.2-6.6-56.1,9.9S408.1,482.7,415,492.2z"/>
	<path class="st13" d="M511.6,380.7c0,0,5.3-25.1,43.9-15.2s57.7,31.3,57.7,31.3l-35,16.2l-42.9-14.5
		C535.3,398.6,511.3,398.8,511.6,380.7z"/>
	<path class="st14" d="M582.2,374.5c0,0,37.1,8,40.6,13.5c0.1,0.1,0.2,0.2,0.3,0.3c1,0.7,2.6,16.5,13.2,14.5s34,16.2,34,16.2
		s16.2,1.6,21.8,16.8s15.2,44.9,21.4,48.5s-2.6,29.4-9.9,32s-33.3,8.9-35.6,5.6s-22.4-6.9-21.1-17.5c1.3-10.5,9.2-20.5,3-26.7
		s-10.2-22.8-19.5-26.1s-25.7-4.3-35.6,2.3c-9.9,6.6-21.8,6.9-21.8,6.9s-20.5-11.9-23.8-20.1c-2.2-5.6-13.3-14.9-20.3-20.3
		c-3.7-2.9-5.9-7.3-6.1-12c-0.3-8.1-0.5-20.1,0.3-22.1c1.3-3,19.5-20.8,19.5-20.8L582.2,374.5z"/>
	<path class="st11" d="M583.5,373.8c0,0,37.1,8,40.6,13.5c0.1,0.1,0.2,0.2,0.3,0.3c1,0.7,2.6,16.5,13.2,14.5s34,16.2,34,16.2
		s16.2,1.6,21.8,16.8s15.2,44.9,21.4,48.5s-2.6,29.4-9.9,32s-33.3,8.9-35.6,5.6s-22.4-6.9-21.1-17.5c1.3-10.5,9.2-20.5,3-26.7
		s-10.2-22.7-19.5-26s-25.7-4.3-35.6,2.3c-9.9,6.6-22.9,7.8-22.9,7.8s-19.3-12.7-22.6-20.9c-2.2-5.6-13.3-14.9-20.3-20.3
		c-3.7-2.9-5.9-7.3-6.1-12c-0.3-8.1-0.5-20.1,0.3-22.1c1.3-3,19.5-20.8,19.5-20.8L583.5,373.8z"/>
	<path class="st9" d="M498.1,445.4c-0.3,0.3-5.9,8.6,0.7,13.2c3.7,2.7,8.5,3.6,12.9,2.3L498.1,445.4z"/>
	<path class="st6" d="M529.7,373.5c0,0,8.9-17.8,28-13.2c19.1,4.6,46.8,21.4,53.4,38.3s-25,37.3-25,37.3l-37.6,17.5
		c0,0-11.5,4.6-14.8,3s-19.1,12.5-19.1,12.5s-17.8-17.1-17.8-23.1s27.7-14.9,27.7-14.9s33-6.3,32.6-12.5c0,0,5.6-6.6,2.6-8.6
		S525,398.4,525,398.4S523.8,377.4,529.7,373.5z"/>
	<path class="st15" d="M528.7,372.5c0,0,8.9-17.8,28-13.2c19.1,4.6,46.8,21.4,53.4,38.3s-25,37.3-25,37.3l-37.6,17.5
		c0,0-11.5,4.6-14.8,3s-19.1,12.5-19.1,12.5s-17.8-17.1-17.8-23.1s27.7-14.9,27.7-14.9s33-6.3,32.7-12.5c0,0,5.6-6.6,2.6-8.6
		S524,397.4,524,397.4S522.8,376.5,528.7,372.5z"/>
	<path class="st6" d="M486.6,409.4c5.3-3.3,11.4-5.3,17.6-5.8c1.8-3.5-2.9-7.3-2.9-11.5c0-3.5-1.3-4.9-2.6-7.9
		c-4.7-1.7-1.5-6.1-1.5-6.1L486.6,409.4z"/>
	<circle class="st13" cx="478.6" cy="395.3" r="25.4"/>
	<path class="st16" d="M459.6,405.7c5.7-4.4,13-5.9,20.2-6.5c4.5-0.4,9-0.5,13.3-1.9c2.5-0.9,4.8-1.9,7.1-3.2
		c3.1-1.6,6.2-3.2,8.3-5.9c3.3-4.3,3.2-10.2,5.2-15.1c3.7-9,13.9-13.7,23.5-14.9c5.6-0.7,11.7-0.7,16.2-4.2c2.3-1.8,3.8-4.4,4.4-7.3
		c0.2-0.6,0.1-1.3-0.2-1.9c-0.3-0.4-0.6-0.7-1.1-0.9c-5.8-3.1-12.8-2.3-19.3-2.4c-10.7-0.2-21.1-3.2-31.5-5.9
		c-4.4-1.1-9.1-2.3-13.3-0.6c-4,1.5-6.7,5.2-9.9,8c-13.1,11.6-34.9,9.9-46.6,22.9c-2.7,3-4.7,7.1-3.7,11.1c0.4,1.6,1.3,3.1,1.6,4.7
		c0.6,3.2-1.3,6.3-2.8,9.2s-2.9,6.4-1.5,9.3c2.2,4.5,9,4.1,12.5,7.7c1.6,1.6,2.4,4,4.1,5.6c2.7,2.5,6.9,2.3,10.6,2
		c2-0.2,5.3-0.9,4.7-3.5C461,409.7,457.8,408.7,459.6,405.7z"/>
	<path class="st8" d="M450.7,420.8c0,0,17.3-13,28.2-8.7s13.9,6.6,20.8,4s9.9,5.3,9.9,5.3l-43.2,12.5L450.7,420.8z"/>
	<path class="st14" d="M602.5,441.9c0,0,28-13.5,46.8-12.2s22.1-10.5,22.1-10.5"/>
	<path class="st1" d="M481.4,779.5c-2.3-2.2-4.5-4.7-5.2-7.8s0.6-6.8,3.6-8c3.3-1.3,6.9,1,9.6,3.4s5.8,5,9.3,4.5
		c-3.7-3.4-5.4-8.4-4.4-13.3c0.2-1,0.6-1.9,1.2-2.7c1.9-2,5.2-1.1,7.4,0.4c7,5,9,14.5,9,23.2c0.7-3.1,0.1-6.3,0.1-9.5
		s0.9-6.7,3.6-8.4c1.7-0.9,3.6-1.3,5.5-1.3c3.2-0.1,6.7,0.2,8.9,2.5c2.7,2.9,2,7.7-0.4,10.9c-2.3,3.2-5.9,5.2-9.2,7.3
		c-2.6,1.6-4.9,3.7-6.5,6.3c-0.2,0.4-0.4,0.7-0.5,1.1h-19.8C489.2,785.7,485,782.8,481.4,779.5z"/>
	<path class="st1" d="M939.9,690.3c-1.5-1.3-2.7-3-3.2-4.9c-0.4-1.9,0.4-4.3,2.3-5c2.1-0.8,4.3,0.6,6,2.1s3.6,3.1,5.8,2.8
		c-2.3-2.1-3.3-5.2-2.7-8.3c0.1-0.6,0.4-1.2,0.8-1.7c1.2-1.2,3.2-0.7,4.6,0.3c4.4,3.1,5.6,9,5.6,14.4c0.4-1.9,0.1-4,0.1-5.9
		s0.5-4.2,2.2-5.2c1-0.6,2.2-0.8,3.4-0.8c2-0.1,4.2,0.1,5.5,1.6c1.7,1.8,1.2,4.8-0.2,6.8s-3.7,3.2-5.7,4.6c-1.6,1-3,2.3-4.1,3.9
		c-0.1,0.2-0.2,0.5-0.3,0.7h-12.4C944.7,694.2,942.2,692.4,939.9,690.3z"/>
</g>
<g>
	<path class="st17" d="M321.2,222.3c-10.5-4.9-13.4,6.3-13.4,6.3s-6.4,0.2-9.3,5.4s-6.9,5.2-6.9,5.2s-4.6,2.4-4.9,2.9
		c-0.4,0.7-1,1.2-1.7,1.6c-0.1,0-5.3,3.9-4.8,4.1c0.3,0.1,0.6,0.2,0.9,0.3c-1.2,1.3-0.2,1.9-0.2,1.9l-10.1,4.9
		c-0.9,0.4-1.7,1-2.3,1.8c-1.1,0.3-1.9,1.2-2.1,2.3l2.4-0.2c-1.8,1.2-2,2.3-1.8,2.3s3.4-1.6,3.4-1.6c0,0.4,6.4-0.7,6.4-0.7
		s-3.1,2.2-3.3,3c-0.3,0.8-0.7,1.6-1.2,2.3c2.3,1.2,6.6-2.8,6.6-2.8s1.2-1.6,2.2-1.8c1.5-0.6,2.9-1.4,4.2-2.3c1.9,0.9,7.1-1,7.9-1.4
		c0.8-0.3,1.3-0.2,1.5,0.1c0.2,0.3-1.1,0.2-1.1,0.2v0.5c0,0-0.5,0.7-0.3,0.8c0.4,0.1,0.8,0.1,1.2,0.1c0,0-0.8,0.4-0.5,0.5
		s1.2-0.3,1.2-0.3v0.5l0.8-0.7l1.8,3.7c0,0,1.4,1,2.1,0.7l2.1-0.6l-2.5-0.1c0,0-2-3.9-1.8-4c0.3-0.1,0.5,0.2,0.8-0.1
		c0.2-0.1,0.4-0.2,0.7-0.3c0.4-0.3,0.8-0.5,1.3-0.6l3.5,5.1c1.7,0.1,3.4,0.2,5,0.1c-0.9-0.3-1.8-0.5-2.7-0.6l-4.5-5.6
		c0,0,0.3-1.2,4.2-2.1c3.9-0.9,8.2-6,8.2-6h0.6c1-0.5,4-7.1,4-7.1c0.9-1.5,1.4-3.2,1.5-5l0.2,0.2l0.2-2.8c0,0,0.6-0.6,0.5-0.9
		c-0.1-0.3,0.4-1.2,0.4-1.2s0.3,0.4,0.4,0c0.1-0.3,0.3-0.5,0.6-0.6l0.4-0.2l0.3-0.2l0.3-0.4c0.8-0.9,4.3,0.1,4.9,0.3s0.7,0,0.7,0
		c-0.6-1.4-7.3-3.5-7.3-3.5c2.1-1.6,8-0.7,8-0.7C328.6,223.2,321.3,222.4,321.2,222.3z"/>
</g>
</svg>
