<?xml version="1.0" encoding="utf-8"?>
<!-- Generator: Adobe Illustrator 21.1.0, SVG Export Plug-In . SVG Version: 6.00 Build 0)  -->
<svg version="1.1" id="affc39e2-7da3-4bf1-9ead-1f378b7c269e"
	 xmlns="http://www.w3.org/2000/svg" xmlns:xlink="http://www.w3.org/1999/xlink" x="0px" y="0px" viewBox="0 0 1088 688"
	 style="enable-background:new 0 0 1088 688;" xml:space="preserve">
<style type="text/css">
	.st0{fill:#FAFAFC;}
	.st1{fill:#0B252E;}
	.st2{opacity:0.1;enable-background:new    ;}
	.st3{fill:#F2F2F2;}
	.st4{fill:#3F3D56;}
	.st5{fill:#FF6584;}
	.st6{fill:#2F2E41;}
	.st7{fill:#6C63FF;}
	.st8{fill:#A8A8A8;}
	.st9{opacity:0.2;enable-background:new    ;}
	.st10{fill:#FFBFC5;}
	.st11{fill:#F1F1F1;}
	.st12{fill:#575A89;}
	.st13{fill:#171726;}
</style>
<title>into the night</title>
<path class="st0" d="M923.9,443c7.5,40.1,0.8,81.8-19.7,117c-1.1,1.9-2.3,3.8-3.5,5.7c-18.9,29.7-51.2,41.6-80,54
	c-8.3,3.6-17,6.7-25.9,9.2c-52.5,14.8-111.3,10.9-157.4,3.1c-32.4-5.5-65.2-8.9-98.3-10.1c-9.4-0.3-18.9-0.5-28.3-0.5
	c-14.6,0-276.7,4.1-340.5-101.2c-15.8-26-26.6-57.7-30.4-96.4c-9.8-97.4,58.5-149.6,109.4-206.8c16.2-18.2,36.2-32.7,58.5-42.5
	c139.5-61.4,306.5-26,482.2,82.5C877.3,311.8,903.9,335.3,923.9,443z"/>
<path class="st1" d="M908.9,552.4c-18.9,36.4-44.6,60.5-73.4,75.8c-8.3,4.4-17,8.2-25.9,11.3c-52.5,18.2-111.3,13.4-157.4,3.8
	c-32.4-6.8-65.2-10.9-98.3-12.4c-9.4-0.4-18.9-0.6-28.3-0.6c-14.6,0-29.1,0.6-43.7,1.6c-94.6,6.9-239.6-6.1-303.4-135.3l159.7-309.3
	l59.4,152.6l19,48.7l52.3-71.7l27-37l122.9,140.9l34.7-76.7L894,540.3l13.4,10.9L908.9,552.4z"/>
<polygon class="st2" points="315.5,286.4 340.1,232.6 374.1,310.9 344.8,254.3 "/>
<path class="st2" d="M553.9,630.8c-9.4-0.4-18.9-0.6-28.3-0.6l-109-241.6L553.9,630.8z"/>
<polygon class="st2" points="468.9,316.8 495.9,295.8 618.6,437.4 494,316.6 "/>
<path class="st2" d="M835.5,628.2c-8.3,4.4-17,8.2-25.9,11.3L618.8,420.7L835.5,628.2z"/>
<circle class="st3" cx="485.5" cy="115.5" r="2.8"/>
<circle class="st3" cx="407.1" cy="212.7" r="2.8"/>
<circle class="st3" cx="598.8" cy="229.7" r="1.9"/>
<circle class="st3" cx="202.3" cy="272.2" r="1.9"/>
<circle class="st3" cx="610.1" cy="112.7" r="1.9"/>
<circle class="st3" cx="727.1" cy="203.3" r="1.9"/>
<circle class="st3" cx="842.3" cy="346.8" r="1.9"/>
<polygon class="st3" points="319.3,133.7 316.7,133.7 316.7,131.1 315.3,131.1 315.3,133.7 312.7,133.7 312.7,135.1 315.3,135.1 
	315.3,137.7 316.7,137.7 316.7,135.1 319.3,135.1 "/>
<polygon class="st3" points="831,419.7 828.4,419.7 828.4,417.1 827,417.1 827,419.7 824.4,419.7 824.4,421.1 827,421.1 827,423.7 
	828.4,423.7 828.4,421.1 831,421.1 "/>
<path class="st4" d="M1057.6,598.9c0,15.6-229.9,69.9-513.6,69.9S30.4,614.5,30.4,598.9s229.9,13.2,513.6,13.2
	S1057.6,583.2,1057.6,598.9z"/>
<path class="st2" d="M1057.6,598.9c0,15.6-229.9,69.9-513.6,69.9S30.4,614.5,30.4,598.9s229.9,13.2,513.6,13.2
	S1057.6,583.2,1057.6,598.9z"/>
<ellipse class="st4" cx="544" cy="598.9" rx="513.6" ry="28.3"/>
<path class="st5" d="M566.7,559.2c0,31.3-13.9,22.7-31.2,22.7s-31.2,8.6-31.2-22.7s31.2-90.6,31.2-90.6S566.7,527.9,566.7,559.2z"/>
<path class="st2" d="M549.7,571.2c0,14.2-6.3,10.3-14.2,10.3c-7.8,0-14.2,3.9-14.2-10.3s14.2-41.2,14.2-41.2S549.7,557,549.7,571.2z
	"/>
<path class="st6" d="M500.6,590.4h69.9c4.7,0,8.5,3.8,8.5,8.5l0,0c0,4.7-3.8,8.5-8.5,8.5h-69.9c-4.7,0-8.5-3.8-8.5-8.5l0,0
	C492.1,594.2,495.9,590.4,500.6,590.4z"/>
<path class="st6" d="M500.6,573.4h69.9c4.7,0,8.5,3.8,8.5,8.5l0,0c0,4.7-3.8,8.5-8.5,8.5h-69.9c-4.7,0-8.5-3.8-8.5-8.5l0,0
	C492.1,577.2,495.9,573.4,500.6,573.4z"/>
<path class="st4" d="M159.8,482.3c0,52.2,32.8,94.5,73.3,94.5"/>
<path class="st7" d="M233.1,576.9c0-52.8,36.6-95.6,81.8-95.6"/>
<path class="st7" d="M186.3,487.1c0,49.6,20.9,89.8,46.7,89.8"/>
<path class="st4" d="M233.1,576.9c0-67.5,42.3-122.1,94.5-122.1"/>
<path class="st8" d="M217.6,577.5c0,0,10.4-0.3,13.5-2.6c3.1-2.2,16-4.9,16.8-1.3s15.6,17.8,3.9,17.9c-11.7,0.1-27.3-1.8-30.4-3.7
	S217.6,577.5,217.6,577.5z"/>
<path class="st9" d="M252,590.3c-11.7,0.1-27.3-1.8-30.4-3.7c-2.4-1.5-3.3-6.7-3.6-9.1c-0.2,0-0.3,0-0.3,0s0.7,8.4,3.8,10.3
	c3.1,1.9,18.7,3.8,30.4,3.7c3.4,0,4.6-1.2,4.5-3C255.8,589.6,254.5,590.3,252,590.3z"/>
<path class="st4" d="M711.5,516.8c0,35.9,22.5,65,50.4,65"/>
<path class="st7" d="M761.9,581.8c0-36.3,25.1-65.7,56.2-65.7"/>
<path class="st7" d="M729.7,520.1c0,34.1,14.4,61.7,32.1,61.7"/>
<path class="st4" d="M761.9,581.8c0-46.4,29.1-83.9,65-83.9"/>
<path class="st8" d="M751.3,582.2c0,0,7.1-0.2,9.3-1.8s11-3.4,11.5-0.9s10.7,12.2,2.7,12.3c-8.1,0.1-18.7-1.3-20.9-2.6
	C751.7,588,751.3,582.2,751.3,582.2z"/>
<path class="st9" d="M774.9,591c-8.1,0.1-18.7-1.3-20.9-2.6c-1.6-1-2.3-4.6-2.5-6.2c-0.2,0-0.2,0-0.2,0s0.5,5.8,2.6,7.1
	s12.8,2.6,20.9,2.6c2.3,0,3.1-0.8,3.1-2.1C777.5,590.5,776.6,591,774.9,591z"/>
<path class="st8" d="M874.2,603.3c0,0,10.7-1.6,13.7-4.3s15.9-7.1,17.2-3.5s18.4,16.5,6.3,18c-12.1,1.6-28.5,1.5-31.9-0.1
	S874.2,603.3,874.2,603.3z"/>
<path class="st9" d="M911.5,612.3c-12.1,1.6-28.5,1.5-31.9-0.1c-2.6-1.2-4.3-6.5-4.9-8.9c-0.2,0-0.4,0.1-0.4,0.1s1.7,8.6,5.2,10.2
	s19.8,1.6,31.9,0.1c3.5-0.5,4.6-1.8,4.3-3.7C915.3,611.1,914.1,611.9,911.5,612.3z"/>
<path class="st8" d="M610.3,602.6c0,0,9.1-1.4,11.6-3.7s13.5-6,14.5-2.9s15.5,13.9,5.3,15.2s-24,1.3-27-0.1
	C611.8,609.8,610.3,602.6,610.3,602.6z"/>
<path class="st9" d="M641.7,610.1c-10.2,1.3-24,1.3-27-0.1c-2.2-1-3.6-5.5-4.1-7.5c-0.2,0-0.3,0-0.3,0s1.5,7.3,4.4,8.6
	s16.7,1.4,27,0.1c3-0.4,3.9-1.6,3.6-3.1C645,609.1,643.9,609.8,641.7,610.1z"/>
<path class="st8" d="M146,598c0,0,7-1.1,9-2.8c1.9-1.8,10.5-4.6,11.3-2.3s12.1,10.8,4.1,11.9c-8,1-18.7,1-21,0
	C147.1,603.7,146,598,146,598z"/>
<path class="st9" d="M170.4,603.9c-8,1-18.7,1-21,0c-1.7-0.8-2.8-4.3-3.2-5.9c-0.1,0-0.2,0-0.2,0s1.1,5.6,3.4,6.7c2.3,1,13,1.1,21,0
	c2.3-0.3,3-1.2,2.8-2.4C173,603.1,172.1,603.7,170.4,603.9z"/>
<path class="st2" d="M392.7,586.9c0,28.5-39.8,19.7-88.5,19.7s-87.9,8.8-87.9-19.7s39.8-34.7,88.5-34.7S392.7,558.4,392.7,586.9z"/>
<path class="st4" d="M392.7,579.9c0,28.5-39.8,19.7-88.5,19.7s-87.9,8.8-87.9-19.7s39.8-34.7,88.5-34.7S392.7,551.4,392.7,579.9z"/>
<path class="st10" d="M400.2,449.2c-2.3,1.2-4.6,2.6-6.7,4.2s-3.7,3.8-4.6,6.3c-1.2-2.7-2.1-5.6-2.9-8.5c-1.7-5.2-3.6-10.3-5.9-15.3
	c3.7-1.4,6.9-3.9,9.2-7.1c4.5,4.5,9.2,9.2,11.4,15.2c0.4,1,1.5,2.1,1.8,3.1C403,448.4,401.2,448.6,400.2,449.2z"/>
<path class="st11" d="M442.9,559.2c4.9,1.6,9.6,4,13.6,7.3c0.3,0.2,0.5,0.5,0.6,0.8c0.1,0.8-0.9,1.1-1.7,1.3
	c-2.2,0.6-3.7,2.7-5.3,4.4s-4.3,2.9-6.2,1.6c-0.5-0.4-0.9-0.8-1.3-1.4l-8.1-10.6c2.7-1.5,5.6-2.8,8.6-3.8"/>
<path class="st12" d="M457.5,561.4c1.1,1.1,1.5,2.7,2.6,3.8c0.7,0.7,1.5,1.2,2.4,1.7l6.2,3.4c1,0.6,2,1,3,1.4
	c1.2,0.3,2.4,0.6,3.6,0.7c1.7,0.3,3.4,0.8,5,1.5c1.2,0.5,2.6,1.4,2.6,2.7c0,0.6-0.3,1.2-0.7,1.7c-2.4,3.1-6.8,3.8-10.7,4.2
	c-8.5,0.9-17.1,1.6-25.4-0.4c-1.6-0.3-3.1-1-4.5-1.9c-2.5-2.1-3-5.8-2.1-8.9c0.3-1.2,1-2.2,2-2.9c1.3-0.8,2.9-0.4,4.5-0.5
	c1.6-0.2,3.2-0.7,4.6-1.5c0.9-0.4,2-1,2.2-2.1c0.2-1-1-2.1-0.8-3C452.5,559,456.5,560.3,457.5,561.4z"/>
<path class="st2" d="M457.5,561.4c1.1,1.1,1.5,2.7,2.6,3.8c0.7,0.7,1.5,1.2,2.4,1.7l6.2,3.4c1,0.6,2,1,3,1.4
	c1.2,0.3,2.4,0.6,3.6,0.7c1.7,0.3,3.4,0.8,5,1.5c1.2,0.5,2.6,1.4,2.6,2.7c0,0.6-0.3,1.2-0.7,1.7c-2.4,3.1-6.8,3.8-10.7,4.2
	c-8.5,0.9-17.1,1.6-25.4-0.4c-1.6-0.3-3.1-1-4.5-1.9c-2.5-2.1-3-5.8-2.1-8.9c0.3-1.2,1-2.2,2-2.9c1.3-0.8,2.9-0.4,4.5-0.5
	c1.6-0.2,3.2-0.7,4.6-1.5c0.9-0.4,2-1,2.2-2.1c0.2-1-1-2.1-0.8-3C452.5,559,456.5,560.3,457.5,561.4z"/>
<path class="st11" d="M471.9,595.2c0.9,0.6,1.7,1.1,2.6,1.7c0.8,0.4,1.5,1.1,1.9,1.9c0.6,1.3-0.2,2.8-1,4c-2.6,3.5-6,6.2-10,7.8
	c-1.4,0.6-2.9,0.9-4.4,1.1c-0.3,0.1-0.7,0-1-0.1c-0.8-0.4-0.7-1.6-0.7-2.5c0-2.6-2-4.7-3.8-6.6s-3.6-4.3-3.2-6.8
	c0.4-1.5,1.1-2.9,2.2-4c1-1.2,2.1-2.3,3.4-3.2c1.8-1.2,2.5-0.6,4.2,0.5C465.4,591,468.6,593.1,471.9,595.2z"/>
<path class="st12" d="M463.4,607.9c1.4,0.4,3,0,4.1-0.9s2-2.1,2.7-3.4c0.6-1.2,1.2-2.4,1.7-3.6c0.5-1.5,1.1-3.1,2.3-4
	c1.6-1.1,3.7-0.7,5.3,0.4c1.5,1.2,2.9,2.5,4.1,3.9c3.3,3.1,7.3,5.3,11.6,6.5c4.3,1.2,8.7,2.1,13.1,2.8c0.9,0.1,1.7,0.4,2.5,0.8
	c1.8,1.1,2.4,3.5,1.9,5.5c-0.6,2-1.8,3.8-3.3,5.2c-1.2,1.4-2.7,2.6-4.3,3.4c-1.4,0.5-2.9,0.8-4.4,0.8c-7.3,0.5-14.6-0.1-21.7-1.7
	c-2.6-0.7-5.3-1.2-8-1.6c-1.6-0.1-3.3-0.1-4.9-0.2c-3.3-0.2-6.4-1.1-9.4-2.5c-0.7-0.3-1.3-0.8-1.7-1.4c-0.2-0.6-0.3-1.3-0.1-1.9
	l1.1-9.5c0.1-0.8,0.4-1.9,1.2-2c0.8-0.1,1.4,0.7,1.8,1.3c2,2.4,5.3,3.1,8.1,1.8"/>
<path class="st12" d="M400.4,488c4.8-0.5,10.3-0.6,13.5,2.9c2,2.2,2.6,5.2,3.3,8.1c1.1,4.8,2.8,9.5,5.2,13.8
	c1.5,2.7,3.4,5.2,4.5,8.1c1.2,2.9,1.6,6.1,2.3,9.2c2.8,12.2,9.6,23,19.4,30.8c-1.7,4.7-6.7,7.4-11.6,8.6c-2.1,0.9-4.6,0.2-5.9-1.6
	c-2.3-2.4-4.4-5-6.3-7.7c-7-9.3-14.1-18.9-17.9-29.9c-1.3-3.9-2.7-8.4-6.4-10c-2.1-0.9-4.6-0.6-6.9-0.2c-5.1,0.9-10.2,2.2-15.1,3.9
	c-5.2,1.8-11.3,4.1-16.1,1.3c-2.9-1.7-4.6-4.9-5.2-8.1c-0.5-3.3-0.5-6.6,0-9.9c0-1.5,0.4-3,1-4.3c0.7-1,1.5-1.9,2.5-2.5
	c4.3-3.3,9.1-5.8,14.1-7.6c4.9-1.7,10.1-2.3,15.1-3.1C393.5,488.8,396.9,488.3,400.4,488z"/>
<path class="st2" d="M400.4,488c4.8-0.5,10.3-0.6,13.5,2.9c2,2.2,2.6,5.2,3.3,8.1c1.1,4.8,2.8,9.5,5.2,13.8c1.5,2.7,3.4,5.2,4.5,8.1
	c1.2,2.9,1.6,6.1,2.3,9.2c2.8,12.2,9.6,23,19.4,30.8c-1.7,4.7-6.7,7.4-11.6,8.6c-2.1,0.9-4.6,0.2-5.9-1.6c-2.3-2.4-4.4-5-6.3-7.7
	c-7-9.3-14.1-18.9-17.9-29.9c-1.3-3.9-2.7-8.4-6.4-10c-2.1-0.9-4.6-0.6-6.9-0.2c-5.1,0.9-10.2,2.2-15.1,3.9
	c-5.2,1.8-11.3,4.1-16.1,1.3c-2.9-1.7-4.6-4.9-5.2-8.1c-0.5-3.3-0.5-6.6,0-9.9c0-1.5,0.4-3,1-4.3c0.7-1,1.5-1.9,2.5-2.5
	c4.3-3.3,9.1-5.8,14.1-7.6c4.9-1.7,10.1-2.3,15.1-3.1C393.5,488.8,396.9,488.3,400.4,488z"/>
<path class="st10" d="M427.7,522.4c2.2,1.1,4.2,2.6,6,4.3c1.8,2.2,3.2,4.7,4.1,7.4c0.4,0.9,0.6,1.9,0.7,2.8c0.1,1-0.3,2-1.1,2.6
	c-0.9,0.6-1.9,0.8-3,0.7c-1.4,0-2.8,0-4.2-0.1c-0.8,0-1.7-0.2-2.5-0.5c-0.7-0.4-1.4-0.9-1.9-1.5c-2.4-2.3-4.4-5-5.9-7.9
	c-1-2.2-2.7-7.3-1.1-9.6C420.7,518.3,426,521.4,427.7,522.4z"/>
<path class="st12" d="M360.8,521.6c7.1,2.3,14.6,2.5,22,3.2c12.4,1.2,24.7,3.6,36.6,7.2c2.5,0.6,4.8,1.7,6.9,3.2
	c1.6,1.5,2.9,3.2,4,5.1c1.9,3,3.7,6,5.3,9.2c1.3,2.9,2.4,5.9,3.6,8.8c4.2,9.7,10.8,18.2,19.2,24.7c1.5,1.2,3.3,2.4,3.7,4.3
	c0.2,1.2,0,2.5-0.6,3.6c-1.8,4.2-5.6,7.3-9.6,9.7c-1.7,1-3.6,2-4.4,3.8c-6-2.5-10.5-7.8-14.2-13.1s-7-11.1-11.8-15.5
	c-2.1-2-4.5-3.7-6.2-6c-2.5-3.6-3.2-8.5-6.6-11.2c-3.4-2.8-8.3-2.4-12.7-2c-22.5,2.2-45.2,2-67.6-0.7c-4.7-0.6-9.5-1.3-13.5-3.7
	s-7.2-6.9-6.6-11.6c0.5-4.4,4.2-7.8,8.2-9.5c4.1-1.7,8.5-2,12.9-2.5C340,527.5,350.6,525.1,360.8,521.6z"/>
<path class="st7" d="M296.2,530.7c0.6-3.7,2-7.2,2.9-10.8c0.5-2.3,1-4.5,1.7-6.8c0-0.1,0-0.1,0.1-0.2c0.5,0,0.9-0.3,1.2-0.7
	c0.1-0.3,0.2-0.7,0.1-1c0-0.4,0-0.7,0-1.1c1.5-2.5,3.1-4.9,4.8-7.2c3.1-4.3,5.7-8.9,8.4-13.5c2.2-3.8,4.3-7.5,6.1-11.5
	c1.3-3,2.5-6,4-8.9c5.3-10.3,14.8-17.9,25-23.4c9.8-5.2,20.4-8.8,30.8-12.9c0.3,0.3,0.5,0.5,0.7,0.8c5.6,7.6,6.2,17.6,8.5,26.8
	c0.9,3.7,2.2,7.4,2.2,11.2c0,5.6-2.7,10.9-5.4,15.8c-2.4,4.7-5.2,9.2-8.4,13.5c-1.6,2-3.3,3.8-4.9,5.7c-6.5,8-10.3,17.8-13.9,27.4
	c-2.1,5.6-5.6,10.5-7.9,16c-0.9,2.1-1.4,4.4-2.5,6.4s-3.1,3.8-5.4,3.8c-0.7,0-1.3-0.1-2-0.3c-8.3-2.1-15.2-7.6-22.1-12.7
	c-1.2-0.9-2.5-1.8-3.8-2.6s-2.7-1.6-4-2.3c-1-0.6-2.1-1.1-3.1-1.7c-3.4-1.8-6.7-3.7-10.2-5.2c-1.1-0.4-2.1-0.9-3-1.6
	C296,532.6,296,531.6,296.2,530.7z"/>
<circle class="st10" cx="404.6" cy="429.4" r="19.1"/>
<path class="st6" d="M417.5,420.5c0.9,1.7,2.8,2.5,4.7,2.2c1.8-0.4,3.4-1.5,4.4-3.1c0.9-1.6,1.5-3.4,1.6-5.3c0.3-1.4,0-2.9-0.8-4.2
	c-0.7-0.7-1.5-1.3-2.4-1.7c-1.2-0.8-2.3-1.8-3-3.1c-0.5-0.9-0.9-1.8-1.4-2.8c-1.7-3.3-5.1-6-8.8-5.9c-1.8,0.1-3.5,0.7-5.3,1
	c-5.9,1-12.4-2.1-17.9,0.3c-1.4,0.7-2.6,1.5-3.7,2.5c-1.5,1.3-3,2.6-4.5,4c-1.2,1.1-2.2,2.4-2.7,4c-0.7,2.8,1,5.9-0.1,8.6
	c-0.4,0.8-0.8,1.5-1.4,2.2c-1.2,1.8,0.1,9,0,11.2c-0.2,1.1,0.1,2.2,0.8,3.1c0.9,1,2.4,1.1,3.8,1.1h2.5c0.4,0,0.7,0,1.1-0.1
	c0.5-0.2,0.9-0.5,1.2-1c2.1-2.2,2.5-9.3,5.5-9.3c0.5,0,0.9,0.1,1.3,0.3c0.5,0.4,0.7,1.1,1.1,1.7c0.9,1.1,2.4,1.4,3.7,0.9
	c1.2-0.6,2.3-1.4,3.1-2.5c0.8-1.1,1.8-2,2.9-2.8c1.6-0.9,3.4-1.3,5-2.4c1.3-0.9,2-2.2,3.2-3.1c1-0.8,2.4-0.9,3.4-0.2
	C416.6,417.3,416.6,418.8,417.5,420.5z"/>
<path class="st2" d="M373.3,454.2c4.5-0.6,9-0.3,13.3,1.1c1.4,0.3,2.7,1.1,3.7,2.2c0.6,0.8,0.9,1.8,1.1,2.8
	c0.9,4.6,0.3,9.3-1.6,13.5c-0.3,0.4-0.4,1-0.2,1.4c0.2,0.3,0.4,0.5,0.7,0.7c1,1,1.1,2.7,0.1,3.7c-0.1,0.1-0.2,0.1-0.2,0.2
	c-0.4,0.3-0.8,0.5-0.9,0.9c-0.1,0.5,0.4,0.8,0.7,1.2c1,1,1.5,2.5,1.2,3.9c-0.2,0.6-0.3,1.1-0.4,1.7c0.1,0.7,0.3,1.4,0.6,2.1
	c0.6,1.4,0.8,3,0.6,4.5c-0.2,0.7-0.2,1.5-0.1,2.2c0.2,0.5,0.5,0.9,0.8,1.3c1.4,1.9,1.7,5-0.3,6.1c1.7,0.9,2.7,2.8,2.5,4.7
	c1.2-0.6,2.6,0.2,3.6,1.1s2,2,3.4,2.1c0.9,0,1.9-0.4,2.8-0.1c1.3,0.6,1.3,2.7,2.5,3.3c1.1,0.6,2.7-0.4,3.6,0.5
	c0.3,0.3,0.5,0.7,0.8,1c0.7,0.7,1.9,0.4,2.8,0.3c2.4,0.1,4.5,1.4,5.7,3.5c1.1,2.1,1.8,4.3,1.9,6.7c0.3,1.3,0.2,2.6-0.1,3.8
	c-0.3,1.3-1.4,2.2-2.7,2.4c-11.7,0.8-23.3-2.1-34.7-4.8c-3.4-0.8-6.8-1.8-9.6-3.8c-2.5-1.8-4.4-4.4-6.2-7c-3.4-4.7-6.7-9.4-9.1-14.7
	c-3.1-6.8-4.5-14.2-5.8-21.5c-0.5-2-0.6-4-0.5-6c0.4-2.4,1.3-4.6,2.6-6.6c1.6-2.6,3.4-5.1,5.3-7.5
	C364.4,457.6,368.6,455,373.3,454.2z"/>
<path class="st7" d="M374.1,453.4c4.5-0.6,9-0.3,13.3,1.1c1.4,0.3,2.7,1.1,3.7,2.2c0.6,0.8,0.9,1.8,1.1,2.8
	c0.9,4.6,0.3,9.3-1.6,13.5c-0.3,0.4-0.4,1-0.2,1.4c0.2,0.3,0.4,0.5,0.7,0.7c1,1,1.1,2.7,0.1,3.7c-0.1,0.1-0.2,0.1-0.2,0.2
	c-0.4,0.3-0.8,0.5-0.9,0.9c-0.1,0.5,0.4,0.8,0.7,1.2c1,1,1.5,2.5,1.2,3.9c-0.2,0.6-0.3,1.1-0.4,1.7c0.1,0.7,0.3,1.4,0.6,2.1
	c0.6,1.4,0.8,3,0.6,4.5c-0.2,0.7-0.2,1.5-0.1,2.2c0.2,0.5,0.5,0.9,0.8,1.3c1.4,1.9,1.7,5-0.3,6.1c1.7,0.9,2.7,2.8,2.5,4.7
	c1.2-0.6,2.6,0.2,3.6,1.1s2,2,3.4,2.1c0.9,0,1.9-0.4,2.8-0.1c1.3,0.6,1.3,2.7,2.5,3.3c1.1,0.6,2.7-0.4,3.6,0.5
	c0.3,0.3,0.5,0.7,0.8,1c0.7,0.7,1.9,0.4,2.8,0.3c2.4,0.1,4.5,1.4,5.7,3.5c1.1,2.1,1.8,4.3,1.9,6.7c0.3,1.3,0.2,2.6-0.1,3.8
	c-0.3,1.3-1.4,2.2-2.7,2.4c-11.7,0.8-23.3-2.1-34.7-4.8c-3.4-0.8-6.8-1.8-9.6-3.8c-2.5-1.8-4.4-4.4-6.2-7c-3.4-4.7-6.7-9.4-9.1-14.7
	c-3.1-6.8-4.5-14.2-5.8-21.5c-0.5-2-0.6-4-0.5-6c0.4-2.4,1.3-4.6,2.6-6.6c1.6-2.6,3.4-5.1,5.3-7.5
	C365.1,456.8,369.4,454.3,374.1,453.4z"/>
<g>
	<path class="st13" d="M960.1,562c0,0,5.1-0.7,6.9,0.6c0,0-5.7,1.8-6.3,3.1c0,0,0.1,0.1,0.6,0s3.5-1,4.2-0.2l0.2,0.4l0.2,0.1
		l0.3,0.2c0.2,0.1,0.4,0.3,0.5,0.5c0.1,0.3,0.4,0,0.4,0s0.4,0.8,0.3,1s0.4,0.7,0.4,0.7l0.1,2.4l0.2-0.2c0.1,1.5,0.6,3,1.3,4.3
		c0,0,2.6,5.7,3.4,6.1h0.5c0,0,3.7,4.4,7.1,5.2c3.4,0.8,3.6,1.8,3.6,1.8l-3.9,4.8c-0.8,0.1-1.6,0.3-2.3,0.5c1.4,0.1,2.9,0.1,4.3-0.1
		l3-4.4c0.4,0.1,0.8,0.2,1.1,0.5c0.2,0,0.4,0.1,0.6,0.2c0.3,0.2,0.5,0,0.7,0c0.2,0.1-1.5,3.4-1.5,3.4l-2.1,0.1l1.8,0.5
		c0.6,0.2,1.8-0.6,1.8-0.6l1.5-3.2l0.7,0.6v-0.4c0,0,0.7,0.4,1,0.3c0.3-0.1-0.4-0.5-0.4-0.5c0.3,0,0.7,0,1-0.1
		c0.2-0.1-0.2-0.7-0.2-0.7v-0.4c0,0-1.1,0.1-1-0.2c0.1-0.2,0.5-0.4,1.3-0.1c0.7,0.3,5.2,2,6.8,1.2c1.1,0.8,2.3,1.4,3.6,2
		c0.8,0.1,1.9,1.5,1.9,1.5s3.7,3.4,5.7,2.4c-0.4-0.6-0.8-1.3-1-1.9s-2.8-2.6-2.8-2.6s5.5,1,5.5,0.6c0,0,2.8,1.4,2.9,1.4
		s-0.1-0.9-1.6-2l2.1,0.2c-0.1-1-0.8-1.8-1.8-2c-0.5-0.7-1.2-1.2-2-1.6l-8.7-4.2c0,0,0.8-0.5-0.2-1.6c0.3-0.1,0.5-0.2,0.8-0.3
		c0.5-0.1-4-3.5-4.1-3.5c-0.6-0.4-1.1-0.8-1.4-1.4c-0.2-0.4-4.2-2.5-4.2-2.5s-3.4,0-5.9-4.5s-8-4.7-8-4.7s-2.5-9.6-11.5-5.4
		C967.3,559.6,961,560.3,960.1,562z"/>
</g>
</svg>
