<?xml version="1.0" encoding="utf-8"?>
<!-- Generator: Adobe Illustrator 21.1.0, SVG Export Plug-In . SVG Version: 6.00 Build 0)  -->
<svg version="1.1" id="d6af144a-e925-4ddf-847c-b38e3205da29"
	 xmlns="http://www.w3.org/2000/svg" xmlns:xlink="http://www.w3.org/1999/xlink" x="0px" y="0px" viewBox="0 0 903.8 657.1"
	 style="enable-background:new 0 0 903.8 657.1;" xml:space="preserve">
<style type="text/css">
	.st0{fill:#FAFAFC;}
	.st1{fill:#0B252E;}
	.st2{opacity:0.1;enable-background:new    ;}
	.st3{fill:#F2F2F2;}
	.st4{fill:#3F3D56;}
	.st5{fill:#FF6584;}
	.st6{fill:#2F2E41;}
	.st7{fill:#6C63FF;}
	.st8{fill:#A8A8A8;}
	.st9{opacity:0.2;enable-background:new    ;}
	.st10{fill:#FFBFC5;}
	.st11{fill:#F1F1F1;}
	.st12{fill:#575A89;}
	.st13{fill:#171726;}
</style>
<title>eating_together</title>
<path class="st0" d="M858.6,403.1c-1.5,44.8-9.3,81.3-21.7,110.9c-16.5,39.5-48.9,57.5-77.6,75.9c-8.3,5.3-17,10-26,14
	c-53.1,23.5-114.6,23.5-163.5,17.5c-34.3-4.2-68.8-5.7-103.3-4.5c-9.8,0.4-19.7,1-29.5,1.8c-15.1,1.3-287.5,29-365-100
	c-19.1-31.8-33.7-71.4-41.8-120.4C7.2,259.5,62.4,162.6,138.4,96c143.9-126,354.3-138.6,514.8-34.7
	C760.2,130.4,864.1,240,858.6,403.1z"/>
<path class="st1" d="M749.8,517.6c-16.4,31.6-38.7,52.5-63.7,65.8c-7.2,3.8-14.8,7.1-22.5,9.8c-45.5,15.8-96.5,11.6-136.6,3.3
	c-28.1-5.9-56.6-9.5-85.3-10.8c-8.2-0.4-16.4-0.6-24.5-0.5c-12.6,0-25.3,0.5-37.9,1.4c-82,6-207.9-5.3-263.3-117.4l138.5-268.3
	l51.6,132.4l16.5,42.3l45.4-62.2l23.4-32.1l106.6,122.3l30.1-66.6L736.9,507l11.6,9.5L749.8,517.6z"/>
<polygon class="st2" points="235,286.8 256.3,240.1 285.8,308.1 260.4,258.9 "/>
<path class="st2" d="M441.8,585.6c-8.2-0.4-16.4-0.6-24.5-0.5l-94.6-209.6L441.8,585.6z"/>
<polygon class="st2" points="368,313.2 391.4,295 497.9,417.8 389.8,313 "/>
<path class="st2" d="M686.1,583.3c-7.2,3.8-14.8,7.1-22.5,9.8L498.1,403.3L686.1,583.3z"/>
<circle class="st3" cx="382.4" cy="138.5" r="2.5"/>
<circle class="st3" cx="314.5" cy="222.9" r="2.5"/>
<circle class="st3" cx="480.7" cy="237.6" r="1.6"/>
<circle class="st3" cx="136.7" cy="274.5" r="1.6"/>
<circle class="st3" cx="490.6" cy="136.1" r="1.6"/>
<circle class="st3" cx="592.1" cy="214.7" r="1.6"/>
<circle class="st3" cx="692" cy="339.2" r="1.6"/>
<polygon class="st3" points="238.3,154.3 236,154.3 236,152 234.8,152 234.8,154.3 232.5,154.3 232.5,155.5 234.8,155.5 
	234.8,157.8 236,157.8 236,155.5 238.3,155.5 "/>
<polygon class="st3" points="682.2,402.5 680,402.5 680,400.2 678.7,400.2 678.7,402.5 676.5,402.5 676.5,403.7 678.7,403.7 
	678.7,405.9 680,405.9 680,403.7 682.2,403.7 "/>
<path class="st4" d="M878.8,557.9c0,13.6-199.5,60.6-445.6,60.6s-445.6-47-445.6-60.6s199.5,11.5,445.6,11.5
	S878.8,544.3,878.8,557.9z"/>
<path class="st2" d="M878.8,557.9c0,13.6-199.5,60.6-445.6,60.6s-445.6-47-445.6-60.6s199.5,11.5,445.6,11.5
	S878.8,544.3,878.8,557.9z"/>
<ellipse class="st4" cx="433.2" cy="557.9" rx="445.6" ry="24.6"/>
<path class="st5" d="M452.9,523.5c0,27.1-12.1,19.7-27,19.7c-14.9,0-27,7.5-27-19.7c0-27.1,27-78.6,27-78.6S452.9,496.3,452.9,523.5
	z"/>
<path class="st2" d="M438.1,533.9c0,12.3-5.5,8.9-12.3,8.9s-12.3,3.4-12.3-8.9c0-12.3,12.3-35.7,12.3-35.7S438.1,521.5,438.1,533.9z
	"/>
<path class="st6" d="M395.5,550.5h60.6c4.1,0,7.4,3.3,7.4,7.4l0,0c0,4.1-3.3,7.4-7.4,7.4h-60.6c-4.1,0-7.4-3.3-7.4-7.4l0,0
	C388.2,553.8,391.5,550.5,395.5,550.5z"/>
<path class="st6" d="M395.5,535.8h60.6c4.1,0,7.4,3.3,7.4,7.4l0,0c0,4.1-3.3,7.4-7.4,7.4h-60.6c-4.1,0-7.4-3.3-7.4-7.4l0,0
	C388.2,539.1,391.5,535.8,395.5,535.8z"/>
<path class="st4" d="M99.9,456.8c0,45.3,28.4,82,63.6,82"/>
<path class="st7" d="M163.4,538.8c0-45.8,31.7-82.9,71-82.9"/>
<path class="st7" d="M122.9,460.9c0,43.1,18.1,77.9,40.5,77.9"/>
<path class="st4" d="M163.4,538.8c0-58.6,36.7-106,82-106"/>
<path class="st8" d="M150.1,539.4c0,0,9-0.3,11.7-2.2c2.7-1.9,13.9-4.2,14.5-1.1s13.6,15.4,3.4,15.5s-23.7-1.6-26.4-3.2
	S150.1,539.4,150.1,539.4z"/>
<path class="st9" d="M179.9,550.4c-10.2,0.1-23.7-1.6-26.4-3.2c-2.1-1.3-2.9-5.8-3.2-7.9c-0.2,0-0.3,0-0.3,0s0.6,7.3,3.3,8.9
	c2.7,1.7,16.2,3.3,26.4,3.2c2.9,0,4-1.1,3.9-2.6C183.2,549.8,182.1,550.4,179.9,550.4z"/>
<path class="st4" d="M578.5,486.7c0,31.1,19.5,56.4,43.7,56.4"/>
<path class="st7" d="M622.2,543.1c0-31.5,21.8-57,48.8-57"/>
<path class="st7" d="M594.4,489.5c0,29.6,12.5,53.5,27.9,53.5"/>
<path class="st4" d="M622.2,543.1c0-40.2,25.2-72.8,56.4-72.8"/>
<path class="st8" d="M613,543.5c0,0,6.2-0.2,8.1-1.5s9.5-2.9,10-0.8c0.5,2.1,9.3,10.6,2.3,10.7s-16.3-1.1-18.1-2.2
	S613,543.5,613,543.5z"/>
<path class="st9" d="M633.5,551.1c-7,0.1-16.3-1.1-18.1-2.2c-1.4-0.9-2-4-2.2-5.4c-0.1,0-0.2,0-0.2,0s0.4,5,2.3,6.1
	s11.1,2.3,18.1,2.2c2,0,2.7-0.7,2.7-1.8C635.8,550.7,635,551.1,633.5,551.1z"/>
<path class="st8" d="M719.7,561.8c0,0,9.3-1.4,11.9-3.8c2.6-2.3,13.8-6.1,14.9-3s16,14.3,5.4,15.6c-10.5,1.4-24.7,1.3-27.7-0.1
	C721.2,569.2,719.7,561.8,719.7,561.8z"/>
<path class="st9" d="M752,569.5c-10.5,1.4-24.7,1.3-27.7-0.1c-2.3-1-3.7-5.6-4.3-7.7c-0.2,0-0.3,0-0.3,0s1.5,7.5,4.5,8.8
	c3,1.4,17.2,1.4,27.7,0.1c3-0.4,4-1.6,3.7-3.2C755.4,568.5,754.3,569.2,752,569.5z"/>
<path class="st8" d="M490.8,561.1c0,0,7.9-1.2,10-3.2c2.2-2,11.7-5.2,12.6-2.5s13.5,12.1,4.6,13.2c-8.9,1.1-20.8,1.1-23.4,0
	C492,567.4,490.8,561.1,490.8,561.1z"/>
<path class="st9" d="M518,567.6c-8.9,1.1-20.8,1.1-23.4,0c-1.9-0.9-3.1-4.7-3.6-6.5c-0.2,0-0.3,0-0.3,0s1.3,6.3,3.8,7.5
	c2.5,1.2,14.5,1.2,23.4,0c2.6-0.3,3.3-1.4,3.1-2.7C520.8,566.7,519.9,567.4,518,567.6z"/>
<path class="st8" d="M87.9,557.2c0,0,6.1-0.9,7.8-2.5c1.7-1.5,9.1-4,9.8-2c0.7,2.1,10.5,9.4,3.6,10.3c-6.9,0.9-16.2,0.9-18.2,0
	C88.9,562.1,87.9,557.2,87.9,557.2z"/>
<path class="st9" d="M109.1,562.3c-6.9,0.9-16.2,0.9-18.2,0c-1.5-0.7-2.4-3.7-2.8-5.1c-0.1,0-0.2,0-0.2,0s1,4.9,3,5.8
	c2,0.9,11.3,0.9,18.2,0c2-0.3,2.6-1.1,2.4-2.1C111.3,561.6,110.6,562.1,109.1,562.3z"/>
<path class="st2" d="M301.9,547.5c0,24.8-34.5,17.1-76.7,17.1s-76.2,7.7-76.2-17.1s34.5-30.1,76.7-30.1S301.9,522.8,301.9,547.5z"/>
<path class="st4" d="M301.9,541.4c0,24.8-34.5,17.1-76.7,17.1s-76.2,7.7-76.2-17.1s34.5-30.1,76.7-30.1S301.9,516.7,301.9,541.4z"/>
<path class="st10" d="M308.5,428c-2,1-4,2.3-5.8,3.7c-1.8,1.4-3.2,3.3-4,5.4c-1-2.4-1.9-4.8-2.5-7.4c-1.4-4.5-3.1-8.9-5.1-13.2
	c3.2-1.2,6-3.4,8-6.1c3.9,3.9,8,8,9.9,13.2c0.3,0.9,1.3,1.8,1.5,2.6C310.9,427.4,309.4,427.5,308.5,428z"/>
<path class="st11" d="M345.5,523.4c4.3,1.4,8.3,3.5,11.8,6.3c0.3,0.2,0.5,0.4,0.5,0.7c0.1,0.7-0.8,1-1.5,1.1
	c-1.9,0.6-3.2,2.4-4.6,3.8s-3.7,2.5-5.4,1.4c-0.4-0.3-0.8-0.7-1.1-1.2l-7-9.2c2.4-1.3,4.9-2.4,7.5-3.3"/>
<path class="st12" d="M358.1,525.3c0.9,1,1.3,2.3,2.2,3.3c0.6,0.6,1.3,1.1,2.1,1.4l5.4,3c0.8,0.5,1.7,0.9,2.6,1.2
	c1,0.3,2,0.5,3.1,0.6c1.5,0.3,3,0.7,4.4,1.3c1.1,0.4,2.2,1.2,2.2,2.3c0,0.6-0.3,1.1-0.6,1.5c-2.1,2.7-5.9,3.3-9.3,3.6
	c-7.3,0.8-14.9,1.4-22.1-0.4c-1.4-0.3-2.7-0.8-3.9-1.7c-2.2-1.8-2.6-5.1-1.8-7.8c0.2-1,0.8-1.9,1.7-2.5c1.1-0.7,2.6-0.3,3.9-0.5
	c1.4-0.2,2.7-0.6,4-1.3c0.8-0.4,1.8-0.8,1.9-1.8c0.2-0.9-0.9-1.8-0.7-2.6C353.8,523.3,357.3,524.5,358.1,525.3z"/>
<path class="st2" d="M358.1,525.3c0.9,1,1.3,2.3,2.2,3.3c0.6,0.6,1.3,1.1,2.1,1.4l5.4,3c0.8,0.5,1.7,0.9,2.6,1.2
	c1,0.3,2,0.5,3.1,0.6c1.5,0.3,3,0.7,4.4,1.3c1.1,0.4,2.2,1.2,2.2,2.3c0,0.6-0.3,1.1-0.6,1.5c-2.1,2.7-5.9,3.3-9.3,3.6
	c-7.3,0.8-14.9,1.4-22.1-0.4c-1.4-0.3-2.7-0.8-3.9-1.7c-2.2-1.8-2.6-5.1-1.8-7.8c0.2-1,0.8-1.9,1.7-2.5c1.1-0.7,2.6-0.3,3.9-0.5
	c1.4-0.2,2.7-0.6,4-1.3c0.8-0.4,1.8-0.8,1.9-1.8c0.2-0.9-0.9-1.8-0.7-2.6C353.8,523.3,357.3,524.5,358.1,525.3z"/>
<path class="st11" d="M370.6,554.7c0.8,0.5,1.5,1,2.3,1.5c0.7,0.4,1.3,0.9,1.6,1.6c0.5,1.2-0.2,2.5-0.9,3.5c-2.2,3-5.2,5.4-8.7,6.8
	c-1.2,0.5-2.5,0.8-3.8,0.9c-0.3,0-0.6,0-0.9-0.1c-0.7-0.4-0.6-1.3-0.6-2.1c0-2.3-1.7-4.1-3.3-5.8c-1.5-1.7-3.1-3.7-2.7-5.9
	c0.3-1.3,1-2.5,1.9-3.5c0.9-1.1,1.8-2,3-2.8c1.6-1,2.2-0.5,3.7,0.5C365,551.1,367.8,552.9,370.6,554.7z"/>
<path class="st12" d="M363.3,565.8c1.2,0.3,2.6,0,3.6-0.8c1-0.8,1.8-1.8,2.3-3c0.5-1,1-2.1,1.4-3.2c0.5-1.3,0.9-2.7,2-3.4
	c1.4-0.9,3.3-0.6,4.6,0.3c1.3,1,2.5,2.1,3.5,3.4c2.9,2.7,6.3,4.6,10.1,5.6c3.7,1,7.5,1.8,11.4,2.4c0.8,0.1,1.5,0.3,2.2,0.7
	c1.5,0.9,2.1,3,1.6,4.8c-0.5,1.7-1.5,3.3-2.8,4.5c-1,1.2-2.3,2.2-3.8,2.9c-1.2,0.4-2.5,0.7-3.8,0.7c-6.3,0.4-12.7-0.1-18.8-1.5
	c-2.3-0.6-4.6-1.1-6.9-1.4c-1.4-0.1-2.8-0.1-4.3-0.2c-2.8-0.2-5.6-0.9-8.1-2.1c-0.6-0.2-1.1-0.7-1.5-1.2c-0.2-0.5-0.2-1.1-0.1-1.6
	l0.9-8.3c0.1-0.7,0.3-1.6,1-1.7c0.7-0.1,1.2,0.6,1.6,1.1c1.7,2,4.6,2.7,7,1.5"/>
<path class="st12" d="M308.6,461.7c4.1-0.5,8.9-0.5,11.7,2.5c1.7,1.9,2.2,4.5,2.8,7c0.9,4.2,2.4,8.2,4.5,12c1.3,2.3,2.9,4.5,3.9,7
	c1,2.5,1.4,5.3,2,8c2.4,10.6,8.4,20,16.8,26.8c-1.5,4.1-5.8,6.4-10,7.4c-1.8,0.8-4,0.2-5.1-1.4c-2-2.1-3.8-4.4-5.5-6.7
	c-6.1-8.1-12.2-16.4-15.5-25.9c-1.2-3.4-2.3-7.3-5.6-8.7c-1.9-0.8-4-0.5-6-0.2c-4.5,0.8-8.8,1.9-13.1,3.4c-4.6,1.6-9.8,3.5-13.9,1.1
	c-2.5-1.5-4-4.2-4.5-7.1c-0.4-2.9-0.4-5.8,0-8.6c0-1.3,0.3-2.6,0.9-3.7c0.6-0.9,1.3-1.6,2.2-2.2c3.7-2.8,7.9-5.1,12.3-6.6
	c4.2-1.5,8.7-2,13.1-2.7C302.6,462.4,305.6,462,308.6,461.7z"/>
<path class="st2" d="M308.6,461.7c4.1-0.5,8.9-0.5,11.7,2.5c1.7,1.9,2.2,4.5,2.8,7c0.9,4.2,2.4,8.2,4.5,12c1.3,2.3,2.9,4.5,3.9,7
	c1,2.5,1.4,5.3,2,8c2.4,10.6,8.4,20,16.8,26.8c-1.5,4.1-5.8,6.4-10,7.4c-1.8,0.8-4,0.2-5.1-1.4c-2-2.1-3.8-4.4-5.5-6.7
	c-6.1-8.1-12.2-16.4-15.5-25.9c-1.2-3.4-2.3-7.3-5.6-8.7c-1.9-0.8-4-0.5-6-0.2c-4.5,0.8-8.8,1.9-13.1,3.4c-4.6,1.6-9.8,3.5-13.9,1.1
	c-2.5-1.5-4-4.2-4.5-7.1c-0.4-2.9-0.4-5.8,0-8.6c0-1.3,0.3-2.6,0.9-3.7c0.6-0.9,1.3-1.6,2.2-2.2c3.7-2.8,7.9-5.1,12.3-6.6
	c4.2-1.5,8.7-2,13.1-2.7C302.6,462.4,305.6,462,308.6,461.7z"/>
<path class="st10" d="M332.3,491.5c1.9,1,3.7,2.2,5.2,3.7c1.6,1.9,2.8,4.1,3.6,6.4c0.3,0.8,0.5,1.6,0.6,2.5c0.1,0.9-0.3,1.7-0.9,2.3
	c-0.8,0.5-1.7,0.7-2.6,0.6c-1.2,0-2.4,0-3.6-0.1c-0.7,0-1.5-0.1-2.1-0.4c-0.6-0.3-1.2-0.7-1.7-1.3c-2.1-2-3.8-4.3-5.1-6.9
	c-0.9-1.9-2.3-6.3-0.9-8.3C326.2,488,330.8,490.7,332.3,491.5z"/>
<path class="st12" d="M274.2,490.8c6.1,2,12.6,2.2,19.1,2.8c10.8,1,21.4,3.1,31.8,6.3c2.2,0.5,4.2,1.5,6,2.8
	c1.4,1.3,2.6,2.8,3.5,4.4c1.7,2.6,3.2,5.2,4.6,8c1.2,2.5,2.1,5.1,3.1,7.6c3.6,8.4,9.4,15.8,16.7,21.4c1.3,1,2.8,2.1,3.2,3.8
	c0.2,1.1,0,2.1-0.5,3.1c-1.6,3.7-4.9,6.4-8.3,8.4c-1.5,0.9-3.1,1.8-3.8,3.3c-5.2-2.2-9.1-6.8-12.4-11.4s-6.1-9.6-10.3-13.5
	c-1.8-1.7-3.9-3.2-5.3-5.2c-2.2-3.1-2.8-7.4-5.7-9.8c-3-2.4-7.2-2.1-11.1-1.7c-19.5,1.9-39.2,1.7-58.7-0.6
	c-4.1-0.5-8.2-1.1-11.7-3.2c-3.5-2.1-6.2-6-5.7-10c0.5-3.8,3.6-6.8,7.1-8.3c3.5-1.5,7.4-1.7,11.2-2.2
	C256.2,495.9,265.4,493.9,274.2,490.8z"/>
<path class="st7" d="M218.2,498.7c0.5-3.2,1.7-6.3,2.5-9.4c0.4-2,0.9-3.9,1.5-5.9c0-0.1,0-0.1,0.1-0.2c0.4,0,0.8-0.2,1-0.6
	c0.1-0.3,0.1-0.6,0.1-0.9c0-0.3,0-0.6,0-0.9c1.3-2.1,2.7-4.2,4.2-6.2c2.7-3.8,5-7.8,7.2-11.7c1.9-3.3,3.8-6.5,5.3-10
	c1.2-2.6,2.1-5.2,3.4-7.8c4.6-9,12.8-15.6,21.7-20.3c8.5-4.5,17.7-7.6,26.7-11.2c0.2,0.2,0.4,0.5,0.6,0.7c4.8,6.6,5.4,15.3,7.4,23.3
	c0.8,3.2,1.9,6.4,1.9,9.7c0,4.9-2.3,9.4-4.7,13.7c-2.1,4.1-4.5,8-7.3,11.7c-1.4,1.7-2.9,3.3-4.3,5c-5.6,6.9-8.9,15.4-12.1,23.8
	c-1.8,4.8-4.8,9.1-6.9,13.9c-0.8,1.8-1.2,3.8-2.2,5.5c-1,1.7-2.7,3.3-4.7,3.3c-0.6,0-1.2-0.1-1.7-0.3c-7.2-1.9-13.2-6.6-19.2-11
	c-1.1-0.8-2.1-1.6-3.3-2.3c-1.1-0.7-2.3-1.4-3.5-2c-0.9-0.5-1.8-1-2.7-1.5c-2.9-1.6-5.8-3.2-8.9-4.5c-0.9-0.4-1.8-0.8-2.6-1.3
	C218,500.4,218.1,499.6,218.2,498.7z"/>
<circle class="st10" cx="312.3" cy="410.9" r="16.6"/>
<path class="st6" d="M323.4,403.1c0.8,1.4,2.5,2.2,4.1,1.9c1.6-0.3,3-1.3,3.8-2.7c0.8-1.4,1.3-3,1.4-4.6c0.3-1.2,0-2.6-0.7-3.6
	c-0.6-0.6-1.3-1.1-2.1-1.5c-1.1-0.7-2-1.6-2.6-2.7c-0.5-0.8-0.8-1.6-1.2-2.4c-1.5-2.9-4.4-5.2-7.7-5.1c-1.6,0.1-3,0.6-4.6,0.9
	c-5.1,0.9-10.7-1.8-15.5,0.3c-1.2,0.6-2.3,1.3-3.2,2.2c-1.3,1.1-2.6,2.3-3.9,3.5c-1.1,0.9-1.9,2.1-2.4,3.4c-0.6,2.4,0.9,5.1-0.1,7.5
	c-0.3,0.7-0.7,1.3-1.2,1.9c-1.1,1.6,0.1,7.8,0,9.7c-0.1,0.9,0.1,1.9,0.7,2.7c0.8,0.9,2.1,0.9,3.3,1l2.2,0c0.3,0,0.6,0,1-0.1
	c0.4-0.2,0.8-0.5,1.1-0.8c1.8-1.9,2.2-8.1,4.8-8c0.4,0,0.8,0.1,1.1,0.3c0.5,0.3,0.6,1,0.9,1.5c0.8,0.9,2.1,1.2,3.2,0.7
	c1.1-0.5,2-1.3,2.7-2.2c0.7-0.9,1.6-1.8,2.5-2.4c1.4-0.8,3-1.2,4.3-2.1c1.1-0.8,1.8-1.9,2.8-2.7c0.8-0.7,2-0.8,2.9-0.2
	C322.6,400.3,322.7,401.7,323.4,403.1z"/>
<path class="st2" d="M285.1,432.3c3.9-0.6,7.8-0.2,11.6,0.9c1.2,0.3,2.4,1,3.2,1.9c0.5,0.7,0.8,1.5,0.9,2.4c0.8,4,0.3,8.1-1.4,11.7
	c-0.2,0.4-0.3,0.8-0.2,1.3c0.2,0.3,0.4,0.5,0.6,0.6c0.9,0.9,0.9,2.3,0.1,3.2c-0.1,0.1-0.1,0.1-0.2,0.2c-0.3,0.2-0.7,0.4-0.8,0.8
	c-0.1,0.4,0.3,0.7,0.6,1c0.9,0.9,1.3,2.2,1,3.4c-0.2,0.5-0.3,1-0.3,1.5c0.1,0.6,0.2,1.2,0.5,1.8c0.5,1.2,0.7,2.6,0.5,3.9
	c-0.2,0.6-0.2,1.3,0,1.9c0.2,0.4,0.4,0.8,0.7,1.2c1.2,1.6,1.5,4.3-0.3,5.3c1.5,0.8,2.4,2.4,2.1,4.1c1-0.6,2.3,0.2,3.1,0.9
	c0.9,0.8,1.7,1.8,2.9,1.8c0.8,0,1.7-0.4,2.4,0c1.1,0.5,1.1,2.3,2.2,2.9c1,0.5,2.3-0.3,3.2,0.4c0.3,0.2,0.4,0.6,0.7,0.9
	c0.6,0.6,1.6,0.3,2.5,0.3c2.1,0.1,3.9,1.2,4.9,3c1,1.8,1.5,3.8,1.7,5.8c0.2,1.1,0.2,2.2-0.1,3.3c-0.3,1.1-1.2,1.9-2.3,2.1
	c-10.2,0.7-20.2-1.8-30.1-4.2c-2.9-0.7-5.9-1.5-8.3-3.3c-2.2-1.6-3.8-3.8-5.4-6.1c-2.9-4.1-5.8-8.2-7.9-12.8
	c-2.7-5.9-3.9-12.3-5.1-18.6c-0.4-1.7-0.5-3.5-0.4-5.2c0.4-2,1.1-4,2.3-5.7c1.4-2.3,2.9-4.5,4.6-6.5
	C277.4,435.3,281,433.1,285.1,432.3z"/>
<path class="st7" d="M285.8,431.7c3.9-0.5,7.8-0.2,11.6,0.9c1.2,0.3,2.4,1,3.2,1.9c0.5,0.7,0.8,1.5,0.9,2.4c0.8,4,0.3,8.1-1.4,11.7
	c-0.2,0.4-0.3,0.8-0.2,1.3c0.2,0.3,0.4,0.5,0.6,0.6c0.9,0.9,0.9,2.3,0.1,3.2c-0.1,0.1-0.1,0.1-0.2,0.2c-0.3,0.2-0.7,0.4-0.8,0.8
	c-0.1,0.4,0.3,0.7,0.6,1c0.9,0.9,1.3,2.2,1,3.4c-0.2,0.5-0.3,1-0.3,1.5c0.1,0.6,0.2,1.2,0.5,1.8c0.5,1.2,0.7,2.6,0.5,3.9
	c-0.2,0.6-0.2,1.3,0,1.9c0.2,0.4,0.4,0.8,0.7,1.2c1.2,1.6,1.5,4.3-0.3,5.3c1.5,0.8,2.4,2.4,2.1,4.1c1-0.6,2.3,0.2,3.1,0.9
	c0.9,0.8,1.7,1.8,2.9,1.8c0.8,0,1.7-0.4,2.4,0c1.1,0.5,1.1,2.3,2.2,2.9c1,0.5,2.3-0.3,3.2,0.4c0.3,0.2,0.4,0.6,0.7,0.9
	c0.6,0.6,1.6,0.3,2.5,0.3c2.1,0.1,3.9,1.2,4.9,3c1,1.8,1.5,3.8,1.7,5.8c0.2,1.1,0.2,2.2-0.1,3.3c-0.3,1.1-1.2,1.9-2.3,2.1
	c-10.2,0.7-20.2-1.8-30.1-4.2c-2.9-0.7-5.9-1.5-8.3-3.3c-2.2-1.6-3.8-3.8-5.4-6.1c-2.9-4.1-5.8-8.2-7.9-12.8
	c-2.7-5.9-3.9-12.3-5.1-18.6c-0.4-1.7-0.5-3.5-0.4-5.2c0.4-2,1.1-4,2.3-5.7c1.4-2.3,2.9-4.5,4.6-6.5
	C278,434.6,281.7,432.4,285.8,431.7z"/>
<g>
	<path class="st13" d="M794.2,525.9c0,0,4.4-0.6,6,0.5c0,0-4.9,1.6-5.5,2.7c0,0,0.1,0.1,0.5,0c0.4-0.1,3-0.9,3.6-0.2l0.2,0.3
		l0.2,0.1l0.3,0.2c0.2,0.1,0.3,0.3,0.4,0.4c0.1,0.3,0.3,0,0.3,0s0.3,0.7,0.3,0.9s0.3,0.6,0.3,0.6l0.1,2.1l0.2-0.2
		c0.1,1.3,0.5,2.6,1.1,3.7c0,0,2.3,4.9,2.9,5.3h0.4c0,0,3.2,3.8,6.2,4.5c2.9,0.7,3.1,1.6,3.1,1.6l-3.4,4.2c-0.7,0.1-1.4,0.3-2,0.4
		c1.2,0.1,2.5,0.1,3.7-0.1l2.6-3.8c0.3,0.1,0.7,0.2,1,0.4c0.2,0,0.3,0.1,0.5,0.2c0.3,0.2,0.4,0,0.6,0c0.2,0.1-1.3,2.9-1.3,2.9
		l-1.8,0.1l1.6,0.4c0.5,0.2,1.6-0.5,1.6-0.5l1.3-2.8l0.6,0.5v-0.3c0,0,0.6,0.3,0.9,0.3c0.3-0.1-0.3-0.4-0.3-0.4c0.3,0,0.6,0,0.9-0.1
		c0.2-0.1-0.2-0.6-0.2-0.6v-0.3c0,0-1,0.1-0.9-0.2c0.1-0.2,0.4-0.3,1.1-0.1c0.6,0.3,4.5,1.7,5.9,1c1,0.7,2,1.2,3.1,1.7
		c0.7,0.1,1.6,1.3,1.6,1.3s3.2,2.9,4.9,2.1c-0.3-0.5-0.7-1.1-0.9-1.6c-0.2-0.5-2.4-2.3-2.4-2.3s4.8,0.9,4.8,0.5c0,0,2.4,1.2,2.5,1.2
		s-0.1-0.8-1.4-1.7l1.8,0.2c-0.1-0.9-0.7-1.6-1.6-1.7c-0.4-0.6-1-1-1.7-1.4l-7.5-3.6c0,0,0.7-0.4-0.2-1.4c0.3-0.1,0.4-0.2,0.7-0.3
		c0.4-0.1-3.5-3-3.6-3c-0.5-0.3-1-0.7-1.2-1.2c-0.2-0.3-3.6-2.2-3.6-2.2s-2.9,0-5.1-3.9c-2.2-3.9-6.9-4.1-6.9-4.1s-2.2-8.3-10-4.7
		C800.5,523.8,795,524.4,794.2,525.9z"/>
</g>
</svg>
