<?xml version="1.0" encoding="utf-8"?>
<!-- Generator: Adobe Illustrator 21.1.0, SVG Export Plug-In . SVG Version: 6.00 Build 0)  -->
<svg version="1.1" id="_x30_fa3c922-2890-4e83-a6a7-5bb6074ca9fa"
	 xmlns="http://www.w3.org/2000/svg" xmlns:xlink="http://www.w3.org/1999/xlink" x="0px" y="0px" viewBox="0 0 1059.1 789.4"
	 style="enable-background:new 0 0 1059.1 789.4;" xml:space="preserve">
<style type="text/css">
	.st0{fill:#FAFAFC;}
	.st1{opacity:0.1;fill:#6C63FF;enable-background:new    ;}
	.st2{fill:#65617D;}
	.st3{fill:url(#SVGID_1_);}
	.st4{fill:#F7AAAA;}
	.st5{fill:#DFE5EE;}
	.st6{fill:#DD2424;}
	.st7{fill:#D48A9B;}
	.st8{fill:#EFC6CD;}
	.st9{fill:#6C63FF;}
	.st10{fill:#FFFFFF;}
	.st11{opacity:0.1;enable-background:new    ;}
	.st12{fill:#FFD037;}
	.st13{fill:#2F2F44;}
	.st14{fill:#9D9CB5;}
	.st15{fill:#EE8E9E;}
	.st16{fill:#5C5C8E;}
	.st17{opacity:0.1;fill:#FFFFFF;enable-background:new    ;}
	.st18{fill:#EFC8C4;}
	.st19{fill:#727A9C;}
	.st20{fill:#171726;}
</style>
<title>studying</title>
<path class="st0" d="M931.2,360.8c-0.2,0.9-0.3,1.7-0.5,2.7c-5.3,29.9-14,58.7-26.9,85.2c-0.4,0.9-0.9,1.7-1.3,2.7
	c-8.3,16.7-18.4,32.4-30.3,46.7c-6.4,7.8-13.4,15.1-21.8,20.5c-11.7,7.5-25.3,10.5-38.7,12.9c-14,2.6-28.1,4.7-42.2,7.1
	c-5,0.8-10,1.6-14.9,2.6c-13.6,2.4-27.1,5.3-40.3,9.1c-16.3,4.7-32.2,10.7-47.1,19.4c-1.2,0.7-2.4,1.4-3.5,2.1s-2.4,1.4-3.5,2.2
	c-1.2,0.8-2.3,1.5-3.4,2.2l-1.7,1.2c-0.5,0.4-1.2,0.8-1.7,1.2c-1.6,1.2-3.4,2.4-5,3.5l-0.1,0.1c-1.1,0.8-2.2,1.6-3.3,2.4
	c-6.1,4.5-12.1,9.3-18,14l-3.8,3c-2,1.6-3.8,3.1-5.8,4.6c-1.2,0.9-2.3,1.8-3.5,2.7c-0.9,0.6-1.6,1.3-2.5,2
	c-4.2,3.3-8.5,6.5-12.9,9.6c-1,0.7-2.1,1.5-3.1,2.2c-8.8,6-18.1,11.1-27.8,15.4l-0.2,0.1c-4.8,2-9.7,3.8-14.8,5.1
	c-2.9,0.8-5.8,1.4-8.7,1.9c-7.8,1.3-15.8,1.5-23.7,0.4c-15.4-2.2-29.9-9.4-45.3-11.8c-31.8-4.9-62.7,11-92.5,23.4
	c-7.3,3.1-14.7,6-22.2,8.6c-4.9,1.8-10,3.5-14.9,5.1c-30.5,9.9-61.9,16.5-93.7,20.1c-13,1.4-26.6,2.1-39.8,1.1c-5-0.4-10-1-14.9-2
	c-16.8-3.1-32.4-9.8-45-22c-10.5-10-17.9-23-23.5-36.5c-2.3-5.5-4.2-11.1-6-16.7c-2.7-8.9-4.8-18-6.1-27.3c-0.3-2.1-0.5-4.2-0.8-6.3
	c-0.4-3.6-0.7-7.2-0.9-10.8c-1.1-19.3,0.8-38.6,5.6-57.2c5.3-20.7,14.3-40.5,18.2-61.4c0.2-0.9,0.3-1.7,0.5-2.7
	c0.5-3.1,0.9-6.4,1.2-9.6c2-25.6-5.6-50.6-11.7-75.6c-0.2-0.9-0.4-1.7-0.6-2.7c-0.6-2.7-1.3-5.6-1.9-8.3
	c-5.6-26.5-7.1-54.8-2.2-81.2c0.2-0.9,0.3-1.8,0.5-2.7c3.4-16.4,9.3-31.9,18.4-45.8c9.3-14.3,21.5-26.1,34.5-36.5
	c6.4-5.1,12.9-9.8,19.7-14.3c4.9-3.1,9.9-6.2,14.9-9c40.9-22.7,87.4-33.9,133.6-31.4c2.4,0.2,4.9,0.3,7.3,0.5
	c2.6,0.2,5.1,0.5,7.6,0.8c29.6,3.5,58.5,11.9,87.2,21.3c9.6,3.1,19.2,6.3,28.8,9.4c4.2,1.4,8.5,2.7,12.8,4.2
	c20.9,6.6,42.1,12.5,63.6,17c4.9,1,10,2,14.9,2.9c17.3,3.1,34.7,4.9,52.2,5.4c6.8,0.2,13.6,0.1,20.4-0.2c3.5-0.2,6.9-0.4,10.4-0.7
	c35.5-3.1,69.8-13.3,104.2-22.8c4.9-1.4,10-2.7,14.9-4.1c6.5-1.7,13.1-3.5,19.7-5c40.9-9.8,77.4-4.2,115.4,16.1
	c8.6,4.6,17.3,10.2,22.6,18.7c5.3,8.6,6.6,19.2,7.6,29.5c1.4,14.6,2.4,29.3,2.7,44.2c0,0.9,0,1.7,0.1,2.7
	C938.1,301.3,936.2,331.6,931.2,360.8z"/>
<path class="st1" d="M659.8,448.7h-2.7v1.2v1.5h3.1L659.8,448.7z M629.5,448.7L629.5,448.7l-0.2,2.3v0.2v0.2h23.2v-0.2l1.6-2.5
	L629.5,448.7L629.5,448.7z M567.4,448.7v-85.2h26.7c-0.3-0.2-0.5-0.5-0.9-0.7l-0.4-0.3c-0.2-0.2-0.3-0.2-0.5-0.4
	c-0.2-0.2-0.5-0.4-0.9-0.6s-0.5-0.3-0.8-0.5l-0.2-0.1l0,0h-23v-4.7l-0.6,0.3l-0.6,0.4h-0.1l-0.2,0.1l-0.4,0.2
	c-0.2,0.1-0.3,0.2-0.4,0.2c-0.4,0.3-0.8,0.5-1.2,0.9l-0.4,0.3c-0.2,0.2-0.5,0.4-0.8,0.6c-1,0.9-2,1.7-3.1,2.6
	c-0.2,0.2-0.5,0.4-0.8,0.6c-0.5,0.4-1.2,0.8-1.8,1.2c-0.2,0.2-0.5,0.3-0.8,0.4l-0.5,0.2l-0.4,0.2l0,0c-0.9,0.4-1.9,0.7-2.9,0.9v83.3
	h-40c0,0.1,0.1,0.2,0.1,0.2c0.2,0.8,0.5,1.6,0.6,2.4h39.3v91.4h0.6l0.7,0.1l1.3,0.1l2,0.2l0.9,0.1l1,0.2h0.2
	c0.6,0.1,1.2,0.2,1.8,0.2l0.4,0.1l0.9,0.2l1.3,0.2l0,0l3-0.2l0,0l0.4,0.1c0.2,0,0.3,0.1,0.5,0.1v-92.6h61.8v-0.2v-0.2l0.2-2.2v-0.1
	L567.4,448.7z M659.8,448.7h-2.7v1.2v1.5h3.1L659.8,448.7z M627.8,448.7l-0.2,2.7h25.8l1.7-2.7H627.8z M567.4,448.7v-85.2h26.7
	c-0.3-0.2-0.5-0.5-0.9-0.7l-0.4-0.3c-0.2-0.2-0.3-0.2-0.5-0.4c-0.2-0.2-0.5-0.4-0.9-0.6s-0.5-0.3-0.8-0.5l-0.2-0.1h-0.1h-23v-4.7
	l-0.6,0.3l-0.6,0.4h-0.1L566,357l-0.4,0.2c-0.2,0.1-0.3,0.2-0.4,0.2c-0.4,0.3-0.8,0.5-1.2,0.9l-0.4,0.3c-0.2,0.2-0.5,0.4-0.8,0.6
	c-1,0.9-2,1.7-3.1,2.6c-0.2,0.2-0.5,0.4-0.8,0.6c-0.5,0.4-1.2,0.8-1.8,1.2c-0.2,0.2-0.5,0.3-0.8,0.4l-0.5,0.2l-0.4,0.2l0,0
	c-0.9,0.4-1.9,0.7-2.9,0.9v83.3h-40c0,0.1,0.1,0.2,0.1,0.2c0.2,0.8,0.5,1.6,0.6,2.4h39.3v91.4h0.6l0.7,0.1l1.3,0.1l2,0.2l0.9,0.1
	l1,0.2h0.2c0.6,0.1,1.2,0.2,1.8,0.2l0.4,0.1l0.9,0.2l1.3,0.2l0,0l3-0.2l0,0l0.4,0.1c0.2,0,0.3,0.1,0.5,0.1v-92.6h60.1l0.3-2.7
	L567.4,448.7L567.4,448.7L567.4,448.7z M769.5,271.3h168c0-0.9,0-1.7-0.1-2.7H769.5V165.2c-5,1.3-10,2.7-14.9,4.1v99.4H571.9
	l-0.5-0.5l0.7-0.8l0,0l68-74.6c-6.8,0.3-13.6,0.4-20.4,0.2l-52.2,57.3v-62.7c-5-0.9-10-1.8-14.9-2.8v62.7l-76.5-83.9
	c-9.6-3.1-19.2-6.4-28.8-9.4l103.8,113.9l-0.5,0.5H360.1V132.9c-2.5-0.3-5.1-0.5-7.6-0.8c-2.4-0.2-4.9-0.4-7.3-0.5v136.9H211.6V163
	c-5.1,2.8-10,5.8-14.9,9v96.5h-72.6c-0.2,0.9-0.4,1.7-0.5,2.7h73.1v89.6h-69c0.2,0.9,0.4,1.7,0.6,2.7h68.5v85.2h-58
	c-0.2,0.9-0.3,1.7-0.5,2.7h58.4v238.3c4.9,0.9,9.9,1.6,14.9,2V451.3h133.6v219.1c5-1.6,10-3.3,14.9-5.1v-214h192.4v191.4
	c5-1.3,10-3.1,14.8-5.1l0.2-0.1V451.3h187.1v89.8c4.9-0.9,10-1.7,14.9-2.6v-87.2h133.1c0.5-0.9,0.9-1.7,1.3-2.7H769.5v-85.2h161.2
	c0.2-0.9,0.3-1.7,0.5-2.7H769.5V271.3z M211.6,271.3h133.6v89.6H211.6V271.3z M211.6,448.7v-85.2h133.6v85.2L211.6,448.7
	L211.6,448.7z M360.1,271.3h192.4v89.6H360.1V271.3z M360.1,448.7v-85.2h192.4v85.2L360.1,448.7L360.1,448.7z M754.6,448.7H567.4
	v-85.2h187.1V448.7z M754.6,360.9H567.4v-87.3l2.6-2.4h184.5V360.9z M629.5,448.7L629.5,448.7l-0.2,2.3v0.2v0.2h23.2v-0.2l1.6-2.5
	L629.5,448.7L629.5,448.7z M659.8,448.7h-2.7v1.2v1.5h3.1L659.8,448.7z M567.4,448.7v-85.2h26.7c-0.3-0.2-0.5-0.5-0.9-0.7l-0.4-0.3
	c-0.2-0.2-0.3-0.2-0.5-0.4c-0.2-0.2-0.5-0.4-0.9-0.6s-0.5-0.3-0.8-0.5l-0.2-0.1l0,0h-23.1v-4.7l-0.6,0.3l-0.6,0.4h-0.1L566,357
	l-0.4,0.2c-0.2,0.1-0.3,0.2-0.4,0.2c-0.4,0.3-0.8,0.5-1.2,0.9l-0.4,0.3c-0.2,0.2-0.5,0.4-0.8,0.6c-1,0.9-2,1.7-3.1,2.6
	c-0.2,0.2-0.5,0.4-0.8,0.6c-0.5,0.4-1.2,0.8-1.8,1.2c-0.2,0.2-0.5,0.3-0.8,0.4l-0.5,0.2l-0.4,0.2l0,0c-0.9,0.4-1.9,0.7-2.9,0.9v83.3
	h-40c0,0.1,0.1,0.2,0.1,0.2c0.2,0.8,0.5,1.6,0.6,2.4h39.3v91.4h0.6l0.7,0.1l1.3,0.1l2,0.2l0.9,0.1l1,0.2h0.2
	c0.6,0.1,1.2,0.2,1.8,0.2l0.4,0.1l0.9,0.2l1.3,0.2l0,0l3-0.2l0,0l0.4,0.1c0.2,0,0.3,0.1,0.5,0.1v-92.6h61.8v-0.2v-0.2l0.2-2.2v-0.1
	L567.4,448.7z"/>
<path class="st1" d="M275.8,209.6h1.2c-0.9-0.5-1.3-1.3-1.4-2.3l0,0c0-1.8,2.2-3.3,4.9-3.3h34.6c2.7,0,4.9,1.5,4.9,3.3l0,0
	c0,1.8-2.2,3.3-4.9,3.3h-1.2c0.9,0.5,1.3,1.3,1.4,2.3c0,1.6-1.6,2.8-3.8,3.2h10c2.7,0,4.9,1.5,4.9,3.3s-2.2,3.3-4.9,3.3h-34.7
	c-2.7,0-4.9-1.5-4.9-3.3c0-1.6,1.6-2.8,3.8-3.2h-9.9c-2.7,0-4.9-1.5-4.9-3.3S273.1,209.6,275.8,209.6z"/>
<path class="st1" d="M651.1,240.9h1.2c-0.9-0.5-1.3-1.3-1.4-2.3l0,0c0-1.8,2.2-3.3,4.9-3.3h34.7c2.7,0,4.9,1.5,4.9,3.3l0,0
	c0,1.8-2.2,3.3-4.9,3.3h-1.2c0.9,0.5,1.3,1.3,1.4,2.3c0,1.6-1.6,2.8-3.8,3.2h10c2.7,0,4.9,1.5,4.9,3.3s-2.2,3.3-4.9,3.3h-34.6
	c-2.7,0-4.9-1.5-4.9-3.3c0-1.6,1.6-2.8,3.8-3.2h-10c-2.7,0-4.9-1.5-4.9-3.3S648.4,240.9,651.1,240.9z"/>
<path class="st1" d="M222.7,375.4h1.2c-0.9-0.5-1.3-1.3-1.4-2.3l0,0c0-1.8,2.2-3.3,4.9-3.3h34.7c2.7,0,4.9,1.5,4.9,3.3l0,0
	c0,1.8-2.2,3.3-4.9,3.3h-1.2c0.9,0.5,1.3,1.3,1.4,2.3c0,1.6-1.6,2.8-3.8,3.2h10c2.7,0,4.9,1.5,4.9,3.3c0,1.8-2.2,3.3-4.9,3.3h-34.7
	c-2.7,0-4.9-1.5-4.9-3.3c0-1.6,1.6-2.8,3.8-3.2h-10c-2.7,0-4.9-1.5-4.9-3.3C217.8,376.9,220,375.4,222.7,375.4z"/>
<path class="st2" d="M623.1,601.3c-2,1.6-3.8,3.1-5.8,4.6c-1.2,0.9-2.3,1.8-3.5,2.7c-0.9,0.6-1.6,1.3-2.5,2
	c-4.2,3.3-8.5,6.5-12.9,9.6c-1,0.7-2.1,1.5-3.1,2.2c-8.8,6-18.1,11.1-27.8,15.4l-0.2,0.1v-36.4L623.1,601.3L623.1,601.3z"/>
<linearGradient id="SVGID_1_" gradientUnits="userSpaceOnUse" x1="602.0933" y1="919.5059" x2="602.0933" y2="1207.2744" gradientTransform="matrix(1 0 0 -1 -70.44 1474.71)">
	<stop  offset="0" style="stop-color:#808080;stop-opacity:0.25"/>
	<stop  offset="0.54" style="stop-color:#808080;stop-opacity:0.12"/>
	<stop  offset="1" style="stop-color:#808080;stop-opacity:0.1"/>
</linearGradient>
<path class="st3" d="M710.4,458.5l0.9-27.1c-0.5-0.4-1-0.8-1.6-1.2c0.2-8.1-0.2-16.2-1.4-24.2c-3.5-27.1-26.6-27.7-33.1-22.1
	c-0.9,0.7-1.8,1.4-2.8,2c0.6-3.8,1.3-7.8,1.8-11.6c2.8-20.6-1.6-43.8-17.6-57.2c-6.7-5.6-14.9-9-22.3-13.6
	c-13.2-8.3-23.6-20.6-36.9-28.7c-13.3-8.1-32.1-11.1-43.7-0.7c-4.5,4-7.5,9.6-12.1,13.5c-8.6,7.2-22.1,7.8-29.6,15.8l0,0
	c-0.4,0.4-0.7,0.8-1.1,1.3c-6.3,8.1-4.5,19.4-2.6,29.4c2.4,12,1.4,21.6,11.7,25.1c0,0.5,0.1,0.9,0.2,1.4
	c1.7,14.9,9.9,28.3,22.4,36.6l-1.6,0.6c-4.5,1.6-8.5,3.1-11.1,4.2c-9.4,3.8-29.3,8.9-29.3,8.9s-0.5,5.6-0.4,14
	c-6.6,7.1-17.6,19.8-20.9,27.3c-4.7,10.9-31.3,42.1-38.3,46.8s-14.7,10.3-14.7,10.3s-11.2,6.2-16.5,6.7c-3.7,0.4-15.1-1.8-15.1-1.8
	s-45.5-55.7-42.5-12.9c3,42.7,39.2,44.2,39.2,44.2l36.6-0.6c0,0,19.8,2.7,28.6-4.7c7.5-6.3,46.7-40.7,59.4-56.3
	c0.3,0.3,0.5,0.6,0.9,0.9c0,0,5-6.5,5.6,0c0.6,6.5-3.3,9.4-1.2,11.8c2.1,2.4,8.2,10.6,8.5,13.9c0.3,3.3-8.2,16.5,6.2,26.5
	c0.2,0.2,0.5,0.3,0.7,0.5c2.6,5.9,10.8,11.6,10.8,11.6l44.3-0.6l83.5,6.5c0,0,2.5-2.2,5.9-5.7c4.5,4.2,10.7,7.7,17.7,5.5
	c0,0,10-12.1,10.4-20c0,0-6.5-16.8-9.4-21.8c-2.9-5,2-15.9,2-15.9s3.5-10.6,5.6-10.6c2.1,0,0.6-7.1,0.6-7.1
	c-1.6-2.4-1.9-5.3-0.9-7.9C709.2,466.7,710.4,458.5,710.4,458.5z"/>
<path class="st4" d="M660.3,452.3l-3.1,3.7l0,0l-12.7,14.7l-16.5,1l-26.5,1.6c0,0-35.8-43.1-29-52.5c2.4-3.4,2.8-7.8,2.4-12.1
	c-0.1-0.5-0.2-1.2-0.2-1.7c-0.8-4.5-2.2-8.8-4.2-12.9l0.9-0.4l0.5-0.2l31.2-14.3l7.8-3.5c0.4,2.1,1.1,4.2,2.1,6.1
	c0.2,0.3,0.3,0.6,0.5,0.9c10.7,17.6,44.9,6.5,44.9,6.5L660.3,452.3z"/>
<path class="st4" d="M706.6,430.3c-0.2,10.7-2,15.3-2,15.3l-44.2,6.7l-1.6-11.4l-6.5-45.3l6.1-6.1c4.9,1.1,10.2-0.2,14-3.5
	c6.4-5.6,29.3-5,32.8,22C706.2,415.3,706.6,422.8,706.6,430.3z"/>
<path class="st5" d="M696.1,555.5c0,0,10-12,10.3-19.9l-10-16.7l-8.8-9.4l-16.4,31.7C671.2,541.1,682,559.9,696.1,555.5z"/>
<path class="st6" d="M696.1,555.5c0,0,10-12,10.3-19.9l-10-16.7l-8.8-9.4l-16.4,31.7C671.2,541.1,682,559.9,696.1,555.5z"/>
<path class="st7" d="M613.9,608.6c-0.9,0.6-1.6,1.3-2.5,2c-4.2,3.3-8.5,6.5-12.9,9.6c-1,0.7-2.1,1.5-3.1,2.2h-42.8H360.1h-15
	l-74-2.7l-59.5-0.5l-14.9-0.8l-74.3-3.9c-2.7-8.9-4.8-18.1-6.1-27.4c-0.3-2.1-0.5-4.2-0.8-6.3l81.2,4.5l14.9,0.9l133.6,7.5l14.9,0.9
	l192.4,10.6l14.8,0.9h0.2L613.9,608.6z"/>
<path class="st8" d="M714.3,550.2c-16.3,4.7-32.2,10.7-47.1,19.4c-1.2,0.7-2.4,1.4-3.5,2.1s-2.4,1.4-3.5,2.2s-2.3,1.5-3.4,2.2
	l-1.7,1.2l-1.7,1.2c-1.6,1.2-3.4,2.4-5,3.5l-0.1,0.1c-1.1,0.8-2.2,1.6-3.3,2.4c-6.1,4.5-12.1,9.3-18,14c-1.3,1-2.5,2-3.8,3l-5.8,4.6
	c-1.2,0.9-2.3,1.8-3.5,2.7c-0.9,0.6-1.6,1.3-2.5,2l-43.9-2.1h-0.2l-14.8-0.7l-192.5-9.1l-14.9-0.7l-133.6-6.4l-14.9-0.7l-80.3-3.9
	c-0.3-2.1-0.5-4.2-0.8-6.3c-0.4-3.6-0.7-7.2-0.9-10.8l82.2-29l14.9-5.3l13.6-4.8l24.6,1.3l57,2.9l0,0l38.3,2l14.9,0.8l9.6,0.5l0,0
	l2.3,0.2l0,0l80.3,4.2l0,0l0.9,0.1l0,0l35.8,1.9h0.4h0.2l0,0l3.6,0.2l0,0l12.2,0.6l15.3,0.8l0,0l5,0.2l0,0l0.9,0.1l7.1,0.4l0,0
	l2,0.1l0,0l6.8,0.4l0,0l2.7,0.2h0.1h0.5l0,0l6.4,0.3l9.9,0.5h0.1l3.1,0.2h0.3l1.8,0.1l4.5,0.2l0,0l3.9,0.2l0,0l4.4,0.2h0.1l3.4,0.2
	l0,0l2.6,0.2l9.1,0.5l0,0l1.6,0.1h0.5l0.8,0.1l0,0l2.7,0.2l0,0l1.2,0.1l0,0l9.3,0.5h0.9l13.6-0.2h0.1l51.9-0.4l0,0h1h1h3.1l0,0
	l16.7-0.2h2.5L714.3,550.2z"/>
<path class="st9" d="M363.7,551.2l4.9,25.7l131.4-2c0,0,9.9,2.8,9.6-5c0,0,20-18.9,121.2,3.1l-38.9-30.5l-106.3,5.7L362.4,545
	L363.7,551.2z"/>
<path class="st10" d="M366.1,545.1l4.6,27.9c0,0,112.9-3.3,130.7-0.2l-13.4-25.5C488,547.3,419.7,541,366.1,545.1z"/>
<path class="st11" d="M366.1,545.1l4.6,27.9c0,0,112.9-3.3,130.7-0.2l-13.4-25.5C488,547.3,419.7,541,366.1,545.1z"/>
<path class="st10" d="M367.8,545l4.5,26c0,0,111.5-3.1,129.1-0.2l-13.3-23.7C488.2,547.1,420.7,541.1,367.8,545z"/>
<path class="st11" d="M369.8,545.8l4.4,24.2c0,0,109-2.9,126.3-0.2l-12.9-22.2C487.6,547.7,421.6,542.1,369.8,545.8z"/>
<path class="st10" d="M370.7,545l4.5,24.3c0,0,109.1-2.9,126.3-0.2l-12.9-22.2C488.5,546.8,422.4,541.3,370.7,545z"/>
<path class="st9" d="M293.5,478.9c0,0,5.7,7.5-2.7,18.7c-8.3,11.3-15.2,20.8-12.5,27.8c0,0,12.5-20.9,22.8-21.2
	C311.5,504.1,304.8,491.6,293.5,478.9z"/>
<path class="st11" d="M293.5,478.9c0.5,0.7,0.9,1.5,1.2,2.4c10,11.8,15.3,22.7,5.7,23c-8.9,0.2-19.7,16.2-22.3,20.3
	c0.1,0.3,0.2,0.6,0.3,0.9c0.2,0.5,12.5-20.9,22.8-21.2S304.8,491.6,293.5,478.9z"/>
<path class="st12" d="M304.2,488.5c0,2.6-0.3,4.8-0.6,4.8s-0.6-2.1-0.6-4.8c0-2.6,0.4-1.4,0.7-1.4S304.2,485.8,304.2,488.5z"/>
<path class="st12" d="M307.8,491.6c-2.3,1.3-4.3,2-4.5,1.7c-0.2-0.3,1.6-1.6,3.8-2.8s1.4-0.3,1.6,0
	C308.9,490.8,310.1,490.3,307.8,491.6z"/>
<path class="st9" d="M263.4,478.9c0,0-5.7,7.5,2.7,18.7c8.3,11.3,15.2,20.8,12.5,27.8c0,0-12.5-20.9-22.8-21.2
	C245.4,504.1,252.1,491.6,263.4,478.9z"/>
<path class="st11" d="M263.4,478.9c-0.5,0.7-0.9,1.5-1.2,2.4c-10,11.8-15.3,22.7-5.7,23c8.9,0.2,19.7,16.2,22.3,20.3
	c-0.1,0.3-0.2,0.6-0.3,0.9c-0.2,0.5-12.5-20.9-22.8-21.2C245.4,504.1,252.1,491.6,263.4,478.9z"/>
<path class="st12" d="M252.8,488.5c0,2.6,0.3,4.8,0.6,4.8c0.3,0,0.6-2.1,0.6-4.8c0-2.6-0.4-1.4-0.7-1.4
	C253.1,487.1,252.8,485.8,252.8,488.5z"/>
<path class="st12" d="M249.2,491.6c2.3,1.3,4.3,2,4.5,1.7c0.2-0.3-1.6-1.6-3.8-2.8s-1.4-0.3-1.6,0
	C248.1,490.8,246.9,490.3,249.2,491.6z"/>
<path class="st13" d="M309.2,515.4l-0.3,2.4l-0.4,3.3l-0.2,1.4l-0.4,3.3l-0.2,1.4l-0.4,3.3l-4.5,37.4c-0.4,3.4-5.9,6-12.5,6h-23.7
	c-6.6,0-12.1-2.6-12.5-6l-4.5-37.4l-0.4-3.3l-0.2-1.4l-0.4-3.3l-0.2-1.4l-0.4-3.3l-0.3-2.4c-0.2-1.9,2.7-3.5,6.4-3.5h48.5
	C306.5,511.9,309.4,513.5,309.2,515.4z"/>
<polygon class="st14" points="308.9,517.8 308.5,521 248.5,521 248,517.8 "/>
<polygon class="st14" points="308.3,522.4 307.9,525.7 249.1,525.7 248.7,522.4 "/>
<polygon class="st14" points="307.8,527.1 307.4,530.4 249.6,530.4 249.2,527.1 "/>
<path class="st15" d="M381.6,512.4c0,0-15.2-14.7-14.7,4.4C367.5,535.9,381.6,512.4,381.6,512.4z"/>
<path class="st4" d="M518.3,479c-0.3,1.5-2,3.9-4.5,7c-13.2,15.9-50.8,48.9-58.1,55.1c-8.8,7.3-28.4,4.7-28.4,4.7l-36.3,0.6
	c0,0-36-1.5-39-43.9c-3-42.4,42.2,12.9,42.2,12.9s11.3,2.2,14.9,1.7c5.3-0.5,16.4-6.7,16.4-6.7s7.6-5.6,14.7-10.3
	s33.4-35.8,38.1-46.6c3-6.9,12.5-18.1,19.1-25.4c3.8-4.2,6.6-7.1,6.6-7.1S520.3,469.9,518.3,479z"/>
<path class="st11" d="M518.3,479c-0.3,1.5-2,3.9-4.5,7c-13.3-13.6-16.1-40.6-16.5-57.9c3.8-4.2,6.6-7.1,6.6-7.1
	S520.3,469.9,518.3,479z"/>
<path class="st11" d="M657.2,456L657.2,456l-12.7,14.7l-16.5,1l-26.5,1.6c0,0-35.8-43.1-29-52.5c2.4-3.4,2.8-7.8,2.4-12.1
	c-0.1-0.5-0.2-1.2-0.2-1.7c-0.8-4.5-2.2-8.8-4.2-12.9l0.9-0.4l0.5-0.2c1.4,3.9,2.4,7.9,2.9,12c0.1,0.5,0.2,1.2,0.2,1.7
	c0.2,2.1,0.5,4.5,0.8,7.1c2,23.7,16.9,32.6,23.7,35.4c2.2,0.9,4.3,2,6.4,3.1c6.5,3.6,14,4.9,21.3,3.8c16.6-2.2,30.2-14.3,30.2-14.3
	l0.1,11.8L657.2,456z"/>
<path class="st6" d="M657.7,548.1c0,0-108.9-0.3-123.3-10.3c-14.4-10-5.9-23.1-6.1-26.3c-0.2-3.2-6.4-11.4-8.5-13.8
	s1.7-5.3,1.2-11.7c-0.6-6.4-5.6,0-5.6,0c-20.5-20.8-16.1-73.5-16.1-73.5s19.6-4.9,29-8.8c2.6-1,6.5-2.5,11-4.1l1.6-0.6
	c11.5-4.2,25.2-8.8,25.2-8.8s2.6-1.9,5.3,3.7c1.2,2.6,2.4,6.7,3.4,13.3c0.1,0.5,0.2,1.2,0.2,1.7c0.2,2.1,0.5,4.5,0.8,7.1
	c2,23.7,16.9,32.6,23.7,35.4c2.2,0.9,4.3,2,6.4,3.1c6.5,3.6,14,4.9,21.3,3.8c16.6-2.2,30.2-14.3,30.2-14.3l0.1,11.9l0.2,35.7
	L657.7,548.1z"/>
<path class="st4" d="M653,501.8l-1.7,11.1c0,0-43.4,10.8-60.3,14c-16.9,3.2-53.6-0.9-56.2,6.1c-2.7,7,11.1,16.7,11.1,16.7l43.9-0.6
	l82.8,6.5c0,0,31.6-27.8,21.4-47.1C683.8,489.3,653,501.8,653,501.8z"/>
<path class="st11" d="M563.7,414c0,0-19.9,16.4-16.1,24.3C551.4,446.2,563.7,414,563.7,414z"/>
<path class="st11" d="M539.1,443.6c0,0-20.2,34.8-19.1,37.5c1.2,2.7,6.7,12,6.4,4.9C526.2,479,539.1,443.6,539.1,443.6z"/>
<path class="st11" d="M547.3,449.8c0,0-4.7,21.6-9.4,30.7C533.3,489.5,547.3,449.8,547.3,449.8z"/>
<path class="st11" d="M613.5,382.9c-7.8,14.4-22.2,24.2-38.5,26h-0.1c-12.6,1.5-25.3-1.9-35.7-9.3c11.8-4.2,26.8-9.3,26.8-9.3
	s2.6-1.9,5.3,3.7l39.5-18C611.3,378.4,612.1,380.7,613.5,382.9z"/>
<path class="st4" d="M619.6,356.9c0,8.8-2.3,17.5-6.7,25.2c-2.1,3.7-4.6,7.1-7.5,10c-8.2,8.5-19,13.9-30.7,15.2h-0.1
	c-1.9,0.2-3.8,0.3-5.6,0.3c-25.8,0-47.4-19.4-50.3-44.9c-0.2-1.9-0.3-3.8-0.3-5.7c0-28,22.7-50.7,50.7-50.7
	C596.9,306.2,619.6,328.9,619.6,356.9L619.6,356.9z"/>
<path class="st11" d="M652.5,452.7l4.7-7.1c0,0,25.8-30.7,51-11.1l-0.9,27c0,0-1.2,8.2-2.9,12.5c-1,2.6-0.7,5.6,0.9,7.9
	c0,0,1.5,7.1-0.5,7.1s-5.6,10.5-5.6,10.5s-4.9,10.8-2,15.8s9.4,21.6,9.4,21.6s-10.3-6.1-13.2-16.4c0,0-24.9-19.4-44.2-7.1
	L652.5,452.7z"/>
<path class="st11" d="M706.6,430.3c-0.2,10.7-2,15.3-2,15.3l-44.2,6.7l-1.6-11.4C664.5,434.9,685.5,415.6,706.6,430.3z"/>
<path class="st6" d="M652.5,451.2l4.7-7.1c0,0,25.8-30.7,51-11.1l-0.9,27c0,0-1.2,8.2-2.9,12.5c-1,2.6-0.7,5.6,0.9,7.9
	c0,0,1.5,7.1-0.5,7.1s-5.6,10.5-5.6,10.5s-4.9,10.8-2,15.8c2.9,5,9.4,21.6,9.4,21.6s-10.3-6.1-13.2-16.4c0,0-24.9-19.4-44.2-7.1
	L652.5,451.2z"/>
<path class="st11" d="M694,431.3c0,0-42.4,26-40.4,48.9C653.6,480.2,677.3,438.3,694,431.3z"/>
<path class="st11" d="M657.2,456l0.2,35.7c-8,0.4-15.6-0.7-21.6-5.9c-4.2-3.6-6.6-8.6-7.8-14c-0.9-4.4-1.3-8.9-1-13.3
	c0-0.1,0-0.1,0-0.2c0.5-9.9,2.7-19.7,1.6-29.5c-1.2-9.8-7.1-20.2-16.9-22.2c-1.9-0.4-4.1-0.5-5.4-2c-1.5-1.6-1.4-4-1.3-6.2l0.3-3.7
	c0.1-0.9,0.1-1.9,0.1-2.8c0-17.2-12.2-31.9-29-35.2l-0.3-0.1c-2.7-0.5-5.6-1.1-8.3-0.5c-5.2,1.2-8.5,6.3-13.3,8.6
	c-9.2,4.5-24.5-0.4-34.1-2c-0.6-0.1-1.3-0.2-1.8-0.4c-0.2-1.9-0.3-3.8-0.3-5.7c0-28,22.7-50.7,50.7-50.7s50.7,22.7,50.7,50.7
	c0,8.8-2.3,17.5-6.7,25.1c0.2,0.3,0.3,0.6,0.5,0.9c10.7,17.6,44.9,6.5,44.9,6.5l2,63L657.2,456z"/>
<path class="st13" d="M556.2,364c4.8-2.4,8.1-7.5,13.3-8.6c2.7-0.6,5.6-0.1,8.3,0.5l0.3,0.1c17.9,3.5,30.3,19.9,28.9,38l-0.3,3.7
	c-0.2,2.2-0.2,4.6,1.3,6.2c1.3,1.4,3.5,1.6,5.4,2c9.7,2,15.6,12.4,16.9,22.2c1.3,9.8-1.1,19.8-1.6,29.6s1.3,20.8,8.9,27.3
	c11.8,10.2,29.6,4.4,45.2,3.5c-6.9,0-12.1-7.1-12.4-14c-0.3-6.8,2.7-13.4,5.6-19.6c3-6.2,5.9-12.9,5.2-19.7
	c-0.9-9.4-8.3-16.9-11.1-26c-3.3-10.5-0.2-21.9,1.4-32.8c2.8-20.5-1.6-43.6-17.5-56.9c-6.7-5.6-14.7-8.9-22.1-13.6
	c-13.1-8.3-23.4-20.5-36.7-28.5c-13.3-8.1-31.8-11.1-43.4-0.7c-4.5,4-7.4,9.6-11.9,13.4c-9,7.5-23.3,7.7-30.4,17
	c-6.2,8-4.5,19.4-2.5,29.3c2.7,13.3,1.2,23.5,15.3,25.9C531.8,363.7,547.1,368.7,556.2,364z"/>
<path class="st11" d="M672.8,482.1c-11.4,1.4-22.6,2.1-30.8-5c-7.5-6.5-9.3-17.4-8.9-27.3c0.5-9.9,2.7-19.8,1.6-29.6
	c-1.2-9.8-7.1-20.2-16.9-22.2c-1.9-0.4-4.1-0.5-5.4-2c-1.5-1.6-1.4-4-1.3-6.2l0.3-3.7c1.4-18.2-11-34.5-28.9-38l-0.3-0.1
	c-2.7-0.5-5.6-1.1-8.3-0.5c-5.2,1.2-8.5,6.3-13.3,8.6c-9.2,4.6-24.5-0.4-34.1-2c-14.1-2.4-12.6-12.6-15.3-25.9
	c-1.5-7.4-2.8-15.6-0.8-22.6c-0.4,0.4-0.7,0.8-1.1,1.3c-6.2,8-4.5,19.4-2.5,29.3c2.7,13.3,1.2,23.5,15.3,25.9
	c9.6,1.6,24.9,6.6,34.1,2c4.8-2.4,8.1-7.5,13.3-8.6c2.7-0.6,5.6-0.1,8.3,0.5l0.3,0.1c17.9,3.5,30.3,19.9,28.9,38l-0.3,3.7
	c-0.2,2.2-0.2,4.6,1.3,6.2c1.3,1.4,3.5,1.6,5.4,2c9.7,2,15.6,12.4,16.9,22.2s-1.1,19.8-1.6,29.6s1.3,20.8,8.9,27.3
	c11.8,10.2,29.6,4.4,45.2,3.5C678.6,488.4,675,485.8,672.8,482.1z"/>
<path class="st16" d="M354.5,508.3l48.3-18c2.4-0.9,5,0.3,5.9,2.7l0,0c0.9,2.4-0.3,5-2.7,5.9l-48.3,18l-10.4-1L354.5,508.3z"/>
<path class="st17" d="M407.3,491.5L407.3,491.5c0.9,2.4-0.3,5-2.7,5.9l-48.4,18.1l-7.8-0.8l-1.1,1.2l10.4,1l48.3-18
	c2.4-0.9,3.6-3.5,2.7-5.9l0,0c-0.4-0.9-1-1.7-1.9-2.3C407,490.9,407.2,491.2,407.3,491.5z"/>
<polygon class="st18" points="354.5,508.3 357.7,516.9 349.2,516 347.4,515.9 349.9,513.1 "/>
<path class="st19" d="M349.9,513.1c0.2,0.2,0.4,0.3,0.5,0.5c0.2,0.2,0.2,0.5,0,0.9c-0.2,0.2-0.3,0.2-0.5,0.3
	c-0.4,0.2-0.6,0.7-0.7,1.2l-1.9-0.2L349.9,513.1z"/>
<path class="st10" d="M506.3,563.3c0,0,41.9-8.8,112.1,2.4l-27.5-20.2l-50-10.3l-35.4,9.4L506.3,563.3z"/>
<path class="st11" d="M506.3,563.3c0,0,41.9-8.8,112.1,2.4l-27.5-20.2l-50-10.3l-35.4,9.4L506.3,563.3z"/>
<path class="st10" d="M501.4,572.8c0,0,21.1-57,129.4,0.2l-38.9-25c0,0-93.2-25.7-103.9,3.9L501.4,572.8z"/>
<path class="st11" d="M501.4,572.8c0,0,21.1-61,129.4,1.1l-38.9-27.1c0,0-93.2-30.7-103.9,1.4L501.4,572.8z"/>
<path class="st10" d="M501.4,572.8c0,0,21.1-61.9,129.4,0.2l-38.9-27.1c0,0-93.2-29.9-103.9,2.4L501.4,572.8z"/>
<path class="st11" d="M501.4,572.8c0,0,21.1-68.8,129.4,1l-38.9-30.5c0,0-93.2-31.4-103.9,4.9L501.4,572.8z"/>
<path class="st10" d="M501.4,572.8c0,0,21.1-69.6,129.4,0.2l-38.9-30.5c0,0-93.2-31.4-103.9,4.9L501.4,572.8z"/>
<path class="st1" d="M826.3,566.2c0,0-26,27.8-2.6,41.4c0,0,3.1,3.7,7.5,1.7c0,0-1.5-1.3,1.5-3.8c1-0.9,2-2,2.7-3.1
	c1.1-1.5,1.6-3.4,1.6-5.3l0,0c0,0,3.4-11.1-7.5-25.4c0,0-1-4.8-1.8-5.3l-2,6.7c0,0,4.9,1.3,6.8,5c0,0-6.5-5.1-7.2-4.1
	c-0.2,0.2-0.9,3.6-0.9,3.6s8.6,2.2,11.3,8.2c0,0-7-7.1-11.6-6.9l-0.9,5.2c0,0,9.3,1.9,12.5,8.5c0,0-7.5-7.2-12.7-7.4l-0.2,5.2
	c0,0,8.9,2,11.7,7.6c0,0-9.6-7.5-11.7-6.4c0,0,0.2,4.8,0.8,6c0,0,6.4,1.6,7.7,4.9c0,0-6.9-4.3-7.5-3.7c0,0,1.9,6.2,4.5,8.8
	c0,0-4.1-3.6-5.4-8.5c0,0-1.7,3.1-1.3,6c0,0-2.6-2.8,0.9-7.5c0,0-1.3-4.9-0.9-5.6c0,0-4.1,4.2-5.1,7.8c0,0-0.8-4.6,5.1-9.2v-5.3
	c0,0-5.6,5.2-6.8,8.4c0,0-0.1-4.9,6.9-9.7l0.8-5.1c0,0-5.2,4.1-7.3,7.4c0,0,0.9-4.5,7.5-8.9l0.9-3.3c0,0-3.8,3.1-4.7,4
	c-0.9,0.9-1.3,0.8-1.3,0.8c1.5-2.7,3.8-4.8,6.4-6.2C824.4,573.2,826.8,566.5,826.3,566.2z"/>
<path class="st1" d="M942.5,113.1c0,0-34.7,15.7-18.4,37.2c0,0,1.4,4.6,6.2,4.5c0,0-0.9-1.8,2.8-3c1.3-0.4,2.6-1,3.8-1.7
	c1.6-1,2.8-2.4,3.5-4.2l0,0c0,0,7.4-8.9,3-26.3c0,0,0.9-4.8,0.4-5.6l-4.4,5.4c0,0,4.1,3.1,4.4,7.3c0,0-4.1-7.3-5-6.5
	c-0.2,0.2-2.2,3-2.2,3s7.1,5.4,7.3,11.9c0,0-3.7-9.3-8.1-10.8l-2.7,4.5c0,0,7.8,5.3,8.3,12.7c0,0-4.2-9.6-8.9-11.7l-2.1,4.7
	c0,0,7.5,5.3,7.8,11.5c0,0-6-10.6-8.3-10.4c0,0-1.7,4.5-1.6,5.9c0,0,5.3,3.9,5.2,7.5c0,0-4.7-6.7-5.5-6.3c0,0-0.7,6.4,0.7,9.8
	c0,0-2.4-4.9-1.7-9.9c0,0-2.8,2.1-3.5,5c0,0-1.3-3.6,3.7-6.6c0,0,0.7-4.9,1.3-5.6c0,0-5.3,2.3-7.7,5.3c0,0,1-4.5,8.2-6.5l2-4.8
	c0,0-7.2,2.6-9.5,5.1c0,0,1.8-4.5,10.1-6.3l2.7-4.4c0,0-6.4,1.8-9.6,4c0,0,2.6-3.8,10.4-5.3l2.1-2.7c0,0-4.6,1.4-6,1.9
	c-1.3,0.5-1.6,0.2-1.6,0.2c2.4-1.9,5.3-3,8.4-3.3C938.1,118.7,942.9,113.4,942.5,113.1z"/>
<path class="st1" d="M612.9,122.8c0,0-52.2,14.9-26.8,37.1c0,0,2.3,4.7,9.5,4.7c0,0-1.3-1.8,4.2-2.9c2-0.4,3.8-0.9,5.6-1.6
	c2.1-0.8,4-2.2,5.2-4.2l0,0c0,0,11-8.8,3.8-26.5c0,0,1.3-4.9,0.4-5.6l-6.4,5.3c0,0,6.3,3.2,6.8,7.5c0,0-6.4-7.5-7.8-6.7
	c-0.3,0.2-3.3,3-3.3,3s10.9,5.6,11.4,12.2c0,0-5.8-9.5-12.5-11.1l-4.1,4.4c0,0,11.9,5.6,12.9,13.1c0,0-6.6-9.8-13.7-12.1l-3.1,4.7
	c0,0,11.4,5.6,12.2,11.8c0,0-9.3-10.9-12.9-10.7c0,0-2.4,4.5-2.2,5.9c0,0,8.1,4.2,8.1,7.8c0,0-7.3-6.8-8.5-6.5c0,0-0.9,6.4,1.3,10
	c0,0-3.8-5-2.9-10c0,0-4.2,2-5.2,5c0,0-2-3.7,5.4-6.6c0,0,0.9-5,1.8-5.6c0,0-8,2.1-11.5,5.1c0,0,1.5-4.6,12.2-6.4l3-4.8
	c0,0-10.8,2.4-14.3,4.9c0,0,2.6-4.5,15.1-6.1l3.9-4.4c0,0-9.6,1.6-14.4,3.8c0,0,3.8-3.8,15.5-5l3.1-2.7c0,0-7,1.3-8.9,1.7
	s-2.4,0.2-2.4,0.2c3.9-1.9,8.2-3,12.5-3.1C606.2,128.4,613.3,123.1,612.9,122.8z"/>
<path class="st1" d="M766.8,704.2c0,0,26.3-27.6,3-41.3c0,0-3.1-3.7-7.5-1.8c0,0,1.5,1.3-1.5,3.8c-1,0.9-2,1.9-2.8,3.1
	c-1.1,1.5-1.7,3.4-1.6,5.2l0,0c0,0-3.5,11,7.1,25.5c0,0,0.9,4.8,1.7,5.3l2-6.7c0,0-4.9-1.3-6.8-5.1c0,0,6.5,5.2,7.1,4.2
	c0.2-0.2,0.9-3.6,0.9-3.6s-8.6-2.4-11.2-8.2c0,0,6.9,7.2,11.5,7l0.9-5.2c0,0-9.2-2-12.5-8.6c0,0,7.5,7.3,12.6,7.5l0.2-5.2
	c0,0-8.9-2.2-11.7-7.8c0,0,9.5,7.6,11.6,6.5c0,0-0.1-4.8-0.8-6c0,0-6.4-1.6-7.7-5c0,0,6.9,4.4,7.5,3.8c0,0-1.8-6.2-4.4-8.9
	c0,0,4.1,3.6,5.3,8.5c0,0,1.8-3,1.3-6c0,0,2.5,2.9-0.9,7.5c0,0,1.2,4.9,0.9,5.6c0,0,4.1-4.1,5.2-7.8c0,0,0.8,4.6-5.2,9.1l-0.1,5.3
	c0,0,5.6-5.1,6.9-8.3c0,0,0,4.9-7,9.6l-0.8,5.1c0,0,5.3-4.1,7.3-7.3c0,0-0.9,4.5-7.6,8.8l-0.9,3.3c0,0,3.8-3,4.8-4s1.3-0.8,1.3-0.8
	c-1.6,2.6-3.8,4.8-6.5,6.2C768.8,697.3,766.4,704.1,766.8,704.2z"/>
<path class="st1" d="M510.6,86.1c0,0,4.5,37.8,30,28.7c0,0,4.8,0.1,6.1-4.5c0,0-2,0.3-2-3.6c0-1.4-0.2-2.7-0.5-4.1
	c-0.5-1.8-1.5-3.5-3-4.6l0,0c0,0-6.3-9.7-24.2-10.7c0,0-4.3-2.4-5.3-2l3.8,5.8c0,0,4.2-3,8.2-2c0,0-8.2,1.6-7.7,2.8
	c0.1,0.2,2.2,3,2.2,3s7.3-5.2,13.6-3.5c0,0-10,0.7-12.8,4.5l3.4,4c0,0,7.5-5.8,14.7-4.1c0,0-10.4,1.1-13.9,4.9l3.9,3.5
	c0,0,7.4-5.6,13.3-4.1c0,0-11.9,2.5-12.4,4.8c0,0,3.8,3,5.1,3.3c0,0,5.3-3.8,8.8-2.7c0,0-7.8,2.5-7.7,3.4c0,0,5.9,2.6,9.6,2.3
	c0,0-5.4,0.8-10-1.3c0,0,1.2,3.3,3.8,4.9c0,0-3.8,0.2-5.2-5.5c0,0-4.5-2.2-4.9-2.9c0,0,0.5,5.7,2.7,8.9c0,0-4.1-2.4-3.8-9.8
	l-3.9-3.4c0,0,0.3,7.7,2,10.6c0,0-3.8-3.1-3-11.5l-3.4-3.8c0,0-0.2,6.6,0.9,10.3c0,0-2.9-3.6-1.9-11.4l-2-2.8c0,0-0.1,4.9,0,6.2
	c0.1,1.3-0.2,1.5-0.2,1.5c-1-2.9-1.3-6-0.6-8.9C514.7,92.1,511,86,510.6,86.1z"/>
<path class="st1" d="M700.8,618.4c0,0-36.7-10.2-37.9,16.8c0,0-1.9,4.4,1.9,7.4c0,0,0.5-1.9,4.1-0.5c1.3,0.5,2.7,0.9,4,1
	c1.9,0.2,3.8-0.1,5.4-1l0,0c0,0,11.4-2.1,19.1-18.3c0,0,3.8-3.1,3.9-4.1l-6.8,1.3c0,0,1.2,5-1.3,8.4c0,0,1.6-8.2,0.3-8.2
	c-0.2,0-3.6,0.9-3.6,0.9s2,8.7-2,13.8c0,0,3.1-9.5,0.7-13.5l-4.9,1.6c0,0,2.6,9.1-1.8,15.1c0,0,2.9-10,0.7-14.7l-4.6,2.3
	c0,0,2.4,8.9-1.3,13.9c0,0,2.2-11.9,0.2-13.3c0,0-4.2,2.4-4.9,3.5c0,0,1.6,6.4-0.9,9.1c0,0,0.6-8.2-0.2-8.4c0,0-4.6,4.5-5.7,8
	c0,0,1.3-5.3,5-8.7c0,0-3.5-0.2-6,1.6c0,0,1.3-3.6,7.1-2.7c0,0,3.8-3.4,4.5-3.5c0,0-5.5-1.6-9.3-0.9c0,0,3.8-2.8,10.5,0.2l4.6-2.4
	c0,0-7.2-2.6-10.6-2.1c0,0,4.3-2.4,11.8,1.6l4.9-1.6c0,0-6-2.7-9.9-3c0,0,4.5-1.3,11.3,2.6l3.4-0.7c0,0-4.5-1.9-5.7-2.4
	c-1.3-0.5-1.3-0.8-1.3-0.8c3.1,0.2,6,1.1,8.5,2.8C693.7,620,700.8,618.9,700.8,618.4z"/>
<g>
	<path class="st20" d="M184.5,532.1c-8.2-3.8-10.5,4.9-10.5,4.9s-5,0.2-7.3,4.2c-2.3,4.1-5.4,4.1-5.4,4.1s-3.6,1.9-3.8,2.3
		c-0.3,0.5-0.8,0.9-1.3,1.3c-0.1,0-4.2,3.1-3.8,3.2c0.2,0.1,0.5,0.2,0.7,0.2c-0.9,1-0.2,1.5-0.2,1.5l-7.9,3.8
		c-0.7,0.3-1.3,0.8-1.8,1.4c-0.9,0.2-1.5,0.9-1.6,1.8l1.9-0.2c-1.4,0.9-1.6,1.8-1.4,1.8s2.7-1.3,2.7-1.3c0,0.3,5-0.5,5-0.5
		s-2.4,1.7-2.6,2.4c-0.2,0.6-0.5,1.3-0.9,1.8c1.8,0.9,5.2-2.2,5.2-2.2s0.9-1.3,1.7-1.4c1.2-0.5,2.3-1.1,3.3-1.8
		c1.5,0.7,5.6-0.8,6.2-1.1c0.6-0.2,1-0.2,1.2,0.1c0.2,0.2-0.9,0.2-0.9,0.2v0.4c0,0-0.4,0.5-0.2,0.6c0.3,0.1,0.6,0.1,0.9,0.1
		c0,0-0.6,0.3-0.4,0.4c0.2,0.1,0.9-0.2,0.9-0.2v0.4l0.6-0.5l1.4,2.9c0,0,1.1,0.8,1.6,0.5l1.6-0.5l-2-0.1c0,0-1.6-3.1-1.4-3.1
		c0.2-0.1,0.4,0.2,0.6-0.1c0.2-0.1,0.3-0.2,0.5-0.2c0.3-0.2,0.6-0.4,1-0.5l2.7,4c1.3,0.1,2.7,0.2,3.9,0.1c-0.7-0.2-1.4-0.4-2.1-0.5
		l-3.5-4.4c0,0,0.2-0.9,3.3-1.6c3.1-0.7,6.4-4.7,6.4-4.7h0.5c0.8-0.4,3.1-5.6,3.1-5.6c0.7-1.2,1.1-2.5,1.2-3.9l0.2,0.2l0.2-2.2
		c0,0,0.5-0.5,0.4-0.7c-0.1-0.2,0.3-0.9,0.3-0.9s0.2,0.3,0.3,0c0.1-0.2,0.2-0.4,0.5-0.5l0.3-0.2l0.2-0.2l0.2-0.3
		c0.6-0.7,3.4,0.1,3.8,0.2s0.5,0,0.5,0c-0.5-1.1-5.7-2.7-5.7-2.7c1.6-1.3,6.3-0.5,6.3-0.5C190.3,532.8,184.6,532.2,184.5,532.1z"/>
</g>
</svg>
