

<svg version="1.1" id="Layer_1" xmlns="http://www.w3.org/2000/svg" xmlns:xlink="http://www.w3.org/1999/xlink" x="0px" y="0px"
	 viewBox="0 0 1014.8 700.9" style="enable-background:new 0 0 1014.8 700.9;" xml:space="preserve">
<style type="text/css">

@keyframes  crow{
		
		0%{
		    transform: rotateZ(-5deg) ;

		}
	100%{
		transform: rotateZ(5deg) translateY(3px);

	}
	
	
	}

	@keyframes  animateFlower1{
		
		0%{
			transform: rotateZ(-7deg);
		}
	100%{
	    transform:  rotateZ(7deg);
	}
	
	
	}

	@keyframes  leaf1{
		
		0%{
			transform: rotateZ(-15deg);
		}
	100%{
	    transform:  rotateZ(15deg);
	}
	
	
	}

	@keyframes  leaf2{
		
		0%{
			transform: rotateZ(15deg);
		}
	100%{
	    transform:  rotateZ(-15deg);
	}
	
	
	}
	@keyframes  leaf3{
		
		0%{
			transform: rotateZ(-15deg);
		}
	100%{
	    transform:  rotateZ(5deg);
	}
	
	
	}
	#crow{
	animation: crow 5s infinite alternate-reverse;
	transform-origin:center;
	transform-box:fill-box;
	}

	#flower1{
	animation-name:animateFlower1;
	animation-duration: 5s;
	animation-iteration-count: infinite;
    animation-direction: alternate-reverse;
	transform-box: fill-box;
	transform-origin: bottom;
	}

	.leaf1{
	animation-name:leaf1;
	animation-duration: 5s;
	animation-iteration-count: infinite;
    animation-direction: alternate-reverse;
	transform-box: fill-box;
	transform-origin: center;
	}

	.leaf2{
	animation-name:leaf2;
	animation-duration: 3s;
	animation-iteration-count: infinite;
    animation-direction: alternate-reverse;
	transform-box: fill-box;
	transform-origin: center;
	}

	.leaf3{
	animation-name:leaf3;
	animation-duration: 2s;
	animation-iteration-count: infinite;
    animation-direction: alternate-reverse;
	transform-box: fill-box;
	transform-origin: bottom;
	}
	

	.st0{fill:#6C63FF;}
	.st1{fill:#29293D;}
	.st2{fill:#3F3D56;}
	.st3{opacity:0.1;enable-background:new    ;}
	.st4{opacity:0.85;fill:#FFF800;enable-background:new    ;}
	.st5{fill:none;stroke:#3F3D56;stroke-width:2;stroke-miterlimit:10;}
	.st6{fill:none;}
	.st7{opacity:0.1;}
	.st8{fill:#171726;}
	.st9{fill:#FBBEBE;}
</style>
<title>farmer-alone depressed</title>
<g id="Layer_2">
	<g id="b3eb9a67-8d35-4413-b29d-d464657b13c9">
		<g>
			<path class="st0" d="M867.9,463.8c-8.5,22.2-7.6,46.8,2.4,68.3c0.6,1.3,1.2,2.6,1.9,3.9c7.8,15.3,18.7,31.3,12.8,47
				c-4.6,12.3-17.8,18.7-30,23.6c-47.2,18.7-96.8,30.7-147.3,35.7c-37.3,3.7-74.8,3.5-112.3,3.3c-81-0.4-162.1-0.8-242.8-7.2
				c-36.9-2.9-74-7.1-109.5-17.6c-48.8-14.4-93.4-40.3-130.2-75.4c-1.3-1.2-2.6-2.5-3.9-3.8c-7.8-7.8-14.8-16.4-18.4-26.8
				c-7.1-20.7,1.4-43.4,12.3-62.4s24.6-37.1,29.1-58.5c6.6-31.6-8.1-63.1-19.3-93.3c-11.3-30.2-18.7-66.5,0-92.8
				c9.1-12.8,23.1-21.2,37.2-28.2c41.7-20.5,87.3-31.6,133.7-32.6c27-0.6,55.1,2.2,80.3-7.4c14.2-5.4,27-14.6,41.8-18.2
				c25-6.1,50.9,4.7,73.4,17.4c12.9,7.3,25.5,15.2,39,21.5c9.8,4.5,21.1,9.6,31.5,12.4c10.2,2.8,20.8-2.8,29.7-7.3
				c19.5-9.8,37.8-24.5,60.3-26.8c28.4-2.9,56.5,15.4,84.5,9.5c11.9-2.5,22.5-9.2,34.1-12.9c30.3-9.7,63.1,2.2,91.8,16.1
				c17.8,8.6,35.8,18.7,46.9,35c8.5,12.5,12.1,27.7,15.5,42.4c13,56.2,24.9,118.3-2.7,169C897.4,420.5,877.4,439.3,867.9,463.8z"/>
			<path class="st1" d="M885,583c-4.6,12.3-17.8,18.7-30,23.6c-47.2,18.7-96.8,30.7-147.3,35.7c-37.3,3.7-74.8,3.5-112.3,3.3
				c-81-0.4-162.1-0.8-242.8-7.2c-36.9-2.9-74-7.1-109.5-17.6c-48.8-14.4-93.4-40.3-130.2-75.4c-1.3-1.2-2.6-2.5-3.9-3.8
				c11.1-1.4,22.2-1.7,33.4-0.9c31.2,2.1,61.6,10.8,92.7,14.6c120.3,14.5,243.5-44.9,361-15.2c36.2,9.2,70.6,26.7,107.8,30.2
				c55,5.2,107.5-20.5,161.3-32.7c2.3-0.5,4.6-1,6.9-1.4C879.9,551.3,890.9,567.2,885,583z"/>
		</g>
		<rect x="856.4" y="241" class="st2" width="5.7" height="311.9"/>
		<path class="st2" d="M867.4,611.3c-5.3,4.1-12.8,4.1-18.1,0c-2.5-16.7,3.9-49.5,5.4-56.9c0.2-1,0.3-1.5,0.3-1.5h7.3
			c0.5,0.5,0.8,1.1,1.1,1.7C868.4,565.3,867.4,611.3,867.4,611.3z"/>
		<path class="st3" d="M860.8,546.2v6.7h-3.1v-6.8c0.5-0.1,1-0.1,1.5-0.1C859.8,546.1,860.3,546.1,860.8,546.2z"/>
		<path class="st3" d="M863.4,554.6c-1.3,0.7-2.7,1-4.2,1c-1.6,0-3.1-0.4-4.5-1.2c0.2-1,0.3-1.5,0.3-1.5h7.3
			C862.8,553.4,863.2,554,863.4,554.6z"/>
		<ellipse class="st2" cx="859.2" cy="550.8" rx="6.1" ry="3.6"/>
		<polygon class="st2" points="832.4,190.8 853.5,181.8 885.6,188 861,169.4 		"/>
		<polygon class="st0" points="838.7,194 832.4,190.8 853.9,180.5 885.6,188 880,190.8 853.9,184.9 		"/>
		<polygon class="st2" points="838.7,194 832.4,190.8 854.5,179.5 885.6,188 880,190.8 853.9,184.9 		"/>
		<polygon class="st2" points="837.8,191.6 855.1,240.1 863.7,240.1 879.7,188.6 853.9,182.6 		"/>
		<polygon class="st2" points="868,226.4 864.5,237.4 863.7,240.1 855.1,240.1 854.5,238.3 850.5,227 857,223.1 		"/>
		<polygon class="st4" points="853.9,184.9 858,240.1 855.1,240.1 838.7,194 		"/>
		<polygon class="st3" points="861,169.4 853.9,180.5 832.4,190.8 		"/>
		<path class="st3" d="M864.5,237.4l-0.8,2.7h-8.6l-0.6-1.8c1.5-1.4,3.5-2.2,5.5-2.1C861.6,236.2,863.2,236.6,864.5,237.4z"/>
		<path class="st3" d="M860.8,241v4.7c-0.3,0-0.5,0-0.8,0c-0.7,0-1.5-0.1-2.2-0.3V241H860.8z"/>
		<ellipse class="st2" cx="860" cy="241" rx="6.1" ry="3.6"/>
		<g id="flower1">
			<path class="st5" d="M831.3,618.3c0,0-15.3-27-38.3-34.8c-9.6-3.2-18-9.5-23.8-17.8c-2.7-4-5.1-8.2-7-12.6"/>
			<path class="st2" d="M748.7,548.9c2.6,2.5,14.8,5.2,14.8,5.2s-3-12.1-5.6-14.6c-2.5-2.7-6.7-2.8-9.3-0.3s-2.8,6.7-0.3,9.3
				C748.4,548.6,748.5,548.8,748.7,548.9L748.7,548.9z"/>
			<path class="st2" d="M754.7,569.9c3.6,0.7,15.2-3.7,15.2-3.7s-9.1-8.5-12.7-9.2c-3.6-0.5-7,2-7.5,5.6
				C749.3,565.9,751.4,569.1,754.7,569.9L754.7,569.9z"/>
			<path class="st2" d="M779.8,593.6c3.5-1.2,11.3-10.9,11.3-10.9s-12.1-2.7-15.6-1.6c-3.4,1.3-5,5.2-3.7,8.6
				C773.1,592.9,776.6,594.6,779.8,593.6L779.8,593.6z"/>
			<path class="st2" d="M802.8,607.3c3.6-0.6,13-8.8,13-8.8s-11.5-4.8-15.1-4.2c-3.6,0.4-6.2,3.7-5.8,7.3c0.4,3.6,3.7,6.2,7.3,5.8
				c0,0,0.1,0,0.1,0L802.8,607.3L802.8,607.3z"/>
			<path class="st2" d="M780.1,556.8c0,3.7-6.6,14.2-6.6,14.2s-6.6-10.6-6.6-14.2c0-3.7,3-6.6,6.6-6.6
				C777.2,550.2,780.1,553.2,780.1,556.8L780.1,556.8z"/>
			<path class="st2" d="M806.8,573.1c-1.1,3.5-10.6,11.6-10.6,11.6s-3.1-12.1-2-15.5c1.2-3.4,5-5.2,8.4-4
				C806,566.3,807.8,569.7,806.8,573.1L806.8,573.1z"/>
			<path class="st2" d="M830.7,592.5c-0.5,3.6-8.4,13.2-8.4,13.2s-5.1-11.4-4.7-15c0.6-3.6,4.1-6,7.7-5.3
				C828.6,586,831,589.1,830.7,592.5L830.7,592.5z"/>
			<path class="st5" d="M830.4,617.7c0,0-3-30.8-20.8-47.3c-7.5-6.8-12.7-15.9-14.6-25.9c-0.9-4.7-1.3-9.6-1.3-14.4"/>
			<path class="st2" d="M782.6,521.4c1.4,3.4,11.5,10.7,11.5,10.7s2.2-12.3,0.8-15.7c-1.5-3.3-5.4-4.8-8.7-3.3
				C782.9,514.6,781.4,518.2,782.6,521.4z"/>
			<path class="st2" d="M780,542.5c3,2.1,15.4,2.8,15.4,2.8s-4.8-11.5-7.8-13.6c-3.1-2-7.2-1.1-9.1,2
				C776.6,536.6,777.3,540.4,780,542.5L780,542.5z"/>
			<path class="st2" d="M793.3,574.3c3.6,0.3,14.7-5.4,14.7-5.4s-10-7.5-13.6-7.8c-3.6-0.5-6.9,2.1-7.4,5.7
				c-0.5,3.6,2.1,6.9,5.7,7.4C792.9,574.3,793.1,574.3,793.3,574.3L793.3,574.3z"/>
			<path class="st2" d="M808.9,596.2c3.5,0.9,15.4-2.8,15.4-2.8s-8.6-9-12.1-9.9c-3.5-1.1-7.2,0.8-8.3,4.3c-1.1,3.5,0.8,7.2,4.3,8.3
				C808.4,596.1,808.6,596.2,808.9,596.2L808.9,596.2z"/>
			<path class="st2" d="M808.5,540.8c-1.5,3.3-11.8,10.3-11.8,10.3s-1.8-12.3-0.3-15.7c1.3-3.4,5.2-5.1,8.6-3.7
				c3.4,1.3,5.1,5.2,3.7,8.6C808.7,540.4,808.6,540.6,808.5,540.8L808.5,540.8z"/>
			<path class="st2" d="M826.4,566.5c-2.4,2.7-14.3,6.3-14.3,6.3s2-12.3,4.4-15c2.5-2.6,6.7-2.7,9.3-0.2
				C828.3,560,828.5,563.9,826.4,566.5L826.4,566.5z"/>
		</g>
		<path class="st2" d="M219,223.8c0,0,10.8-17.6,21.3-7.3c1.4,0.7,2.2,2.1,2,3.6c0,0-0.9-0.6-1.8,1.3c-0.3,0.7-0.7,1.3-1.2,1.9
			c-0.6,0.8-1.5,1.4-2.5,1.6l0,0c0,0-5.3,3.4-14.3-0.2c0,0-2.6,0.2-3-0.2l3.2-2c0.8,1.4,2.1,2.4,3.6,2.9c0,0-3.6-2.7-3.2-3.2
			c0.1-0.1,1.8-1,1.8-1s2.4,4.2,5.9,4.8c0,0-4.8-2.6-5.3-5.1l2.6-1.2c0,0,2.3,4.6,6.3,5.4c0,0-4.9-2.9-5.7-5.6l2.7-0.8
			c0,0,2.3,4.3,5.6,5c0,0-5.3-3.9-5-5.2c1.1-0.3,2.2-0.4,3.3-0.4c0,0,1.8,3.1,3.7,3.3c0,0-3.3-3-3-3.4c1.8,0,3.6,0.4,5.2,1.1
			c-1.6-1-3.4-1.5-5.2-1.6c0.8-0.8,1.9-1.3,3-1.6c0,0-1.9-0.9-3.8,1.6c-1,0-2.1,0.1-3.1,0.3c0.9-1.5,2-2.8,3.4-3.8
			c0,0-2.5,0.3-4.1,3.9l-2.7,0.8c0,0,1.8-3.7,3.4-4.7c0,0-2.6,0.7-4.1,5l-2.5,1.1c0.7-1.7,1.7-3.4,2.8-4.9c0,0-2.2,1.1-3.5,5.2
			l-1.6,1c0,0,1.1-2.4,1.4-3s0.2-0.8,0.2-0.8c-1.2,1.2-2,2.7-2.3,4.3C222.4,221.9,219.2,224,219,223.8z"/>
		<path class="st2" d="M303.3,258.3c0,0,4-20.3,17.4-14.2c1.5,0.1,2.8,1.2,3.1,2.7c0,0-1.1-0.3-1.2,1.9c-0.1,0.7-0.2,1.5-0.5,2.2
			c-0.3,1-0.9,1.8-1.8,2.4l0,0c0,0-3.8,5-13.5,4.8c0,0-2.4,1.1-2.9,0.9l2.3-3c1.2,1,2.8,1.5,4.4,1.4c0,0-4.3-1.3-4.1-1.9
			c0-0.1,1.3-1.5,1.3-1.5s3.7,3.1,7.2,2.4c0,0-5.4-0.8-6.7-2.9l2-2c0,0,3.8,3.5,7.7,2.8c0,0-5.6-1-7.3-3.2l2.2-1.7
			c0,0,3.8,3.3,7,2.8c0,0-6.4-1.9-6.5-3.1c0.9-0.6,1.9-1.1,2.9-1.5c0,0,2.7,2.3,4.6,1.8c0,0-4.1-1.7-4-2.2c1.7-0.6,3.5-0.9,5.3-0.8
			c-1.8-0.4-3.7-0.3-5.4,0.3c0.5-1,1.3-1.9,2.2-2.5c0,0-2.1-0.2-3,2.8c-1,0.3-1.9,0.8-2.8,1.4c0.3-1.7,0.9-3.3,1.8-4.7
			c0,0-2.3,1.1-2.5,5.1l-2.3,1.7c0,0,0.5-4.1,1.5-5.6c0,0-2.2,1.5-2.1,6.1l-2,1.9c0.1-1.9,0.4-3.7,1-5.5c0,0-1.7,1.8-1.5,6.1
			l-1.2,1.5c0,0,0.2-2.6,0.3-3.4s-0.1-0.8-0.1-0.8c-0.7,1.5-0.9,3.2-0.7,4.8C305,256.3,304.2,257.3,303.3,258.3z"/>
		<path class="st1" d="M547.2,566.2c0,0-73.5-3.1-81.2-146.9s68.8-168.1,68.8-168.1s24.2-13.5,35-14.1s46.7,2.8,46.7,2.8l-39.6-7.6
			c0,0,55.7-21.2,72.4-22.9l-60.2,12.7c0,0-0.8-33.4,13.6-44.4c0,0-12.3-0.9-18.8,23.1c-3.8,14.1-14,25.5-27.5,30.9
			c-22.4,8.7-53.3,22.5-60.3,34.3c0,0-13,13.6-11-21.8s11.3-65.6,14.7-66.5c0,0,26.6-28.3,63.9-30c0,0-21.8-8.8-58.6,18.7
			c0,0-3.1-13.9,10.8-30.3s35.4-50.9,58.8-54.6c0,0-32.8-2-58.8,40.5c0,0-9.6,6.2-10.5-9.6s-6.5-35.7-6.5-35.7s-7.9,36.5,8.8,52.9
			c0,0-32,41.6-30.5,88.3c0,0-9.9,21.2-13.6-3.7c0,0-2.1-34.3-6.4-63.4c-3.5-23.7,3.1-47.8,18.1-66.4c7.1-8.8,12-17.3,9.3-21.8
			l-37.1,44.1c0,0-31.2-72.1-53.8-87.7S368.1,0,368.1,0l36.5,42.7l-45.8-16.1l45.8,21.2c0,0,21.2,17.3,33.4,64.5
			s13.3,76.8,13.3,76.8S386,137.3,373.5,139l42.3,32c23.3,17.6,37.8,44.4,39.8,73.5l0,0c0,0-81.8-21-101.6-24.9l-37.3-38.2
			l28.3,36.2l-58.3-0.9L253.3,193c0,0,26.3,22,23.8,23.5s-41,3.1-41,3.1s97.9-0.6,108.6,6.5s34.8,9.6,34.8,9.6l-69.3,10.5l82.6-5.9
			c0,0,62.5,11.3,65.9,30.8c0,0-12.7,33.2-21.2,46.4c-7,10.9-21.2,46.4-24,77.5s-6.8,78.9,4,108.1s14.7,45.8,9.3,54.6
			s-10.5,20.1,7.1,22.3s94.5-1.1,94.5-1.1S551.8,583.6,547.2,566.2z"/>
		<path class="st3" d="M477.2,291.6c-1.5,0.7-7.8,16.6-6.6,21.3S477.2,291.6,477.2,291.6z"/>
		<path class="st3" d="M588.9,197.4c-1.8,2.3-2.7,5.2-2.7,8.1c-0.1,2.9,0.3,5.8,0.1,8.7c-0.2,3.1-1.7,6.6-4.7,7.1"/>
		<path class="st3" d="M536.7,101.7c-3.9,3.8-7.3,8.1-10.2,12.7c-0.8,1.5-1.8,2.8-2.9,4.1c-1.7,1.7-3.6,3.2-5.6,4.6
			c-4.4,3.6-7.5,8.5-9,14"/>
		<path class="st3" d="M388.8,19c0.9,1.8,2.2,3.5,3.6,4.9c1.4,1.1,2.7,2.3,3.9,3.6c0.9,1.2,1.8,2.4,2.5,3.7
			c3.1,4.7,6.6,9.1,10.5,13.3"/>
		<path class="st3" d="M457.2,100.9c-2.4,1.5-3.1,4.8-3,7.7s0.5,5.9-0.5,8.5c-0.5,1.2-1.3,2.3-1.8,3.5c-0.7,2.1-1,4.4-0.9,6.6
			c0,2.6,0.1,5.2,0.2,7.8c0.1,3.1,0.4,6.5,2.6,8.8"/>
		<path class="st6" d="M436.8,182c2.3,1.2,4.4,2.7,6.4,4.4c1.9,1.7,3.2,4.1,3.7,6.6c0.1,1.1,0.1,2.2,0.3,3.3c0.4,1.5,1.2,2.8,2.2,4
			c1.6,2.1,3.4,4.1,5.4,5.9"/>
		<path class="st3" d="M455.2,255.9c-1.6-1.3-3.3-2.5-5.1-3.6c-1.6-1-3.4-1.8-5.3-2.3c-2.8-0.8-5.8-0.6-8.7-0.9s-5.9-1.1-7.9-3.3"/>
		<path class="st3" d="M340.2,220.2c3.4,0.1,7,0.2,10.1,1.8c1.6,0.8,2.9,2,4.5,2.8c2,1.1,4.2,1.7,6.5,1.7"/>
		<path class="st3" d="M387.9,234.4c-0.8-0.5-1.9-0.2-2.5,0.6c-0.6,0.7-1,1.6-1.6,2.3c-1.3,1.4-3.3,1.5-5.2,1.6"/>
		<path class="st3" d="M407.6,161.3l3.4,1.7c3.4,1.7,6.7,3.7,9.8,6"/>
		<path class="st3" d="M445.4,193.6c2.2-0.5,4.1,1.8,4.4,4s-0.1,4.5,0.6,6.6c0.7,1.9,1.8,3.6,3.3,4.9"/>
		<path class="st3" d="M482.2,197.6c2,5.9-2.2,12.4-1,18.5c0.4,1.9,1.2,3.6,1.7,5.4c1.1,4.9-0.8,10-4,13.9"/>
		<path class="st2 leaf1" d="M301.5,171.6c0,0,20.6-1.3,18.2,13.2c0.3,1.5-0.5,3-1.8,3.7c0,0,0-1.1-2.1-0.7c-0.7,0.1-1.5,0.1-2.2,0.1
			c-1-0.1-2-0.4-2.7-1.1l0,0c0,0-5.8-2.4-8-11.9c0,0-1.7-2.1-1.6-2.6l3.5,1.5c-0.7,1.4-0.8,3.1-0.3,4.6c0,0,0.1-4.5,0.8-4.4
			c0.1,0,1.8,0.9,1.8,0.9s-2,4.4-0.5,7.6c0,0-0.6-5.4,1.1-7.2l2.5,1.4c0,0-2.4,4.5-0.8,8.2c0,0-0.4-5.6,1.3-7.9l2.2,1.7
			c0,0-2.2,4.4-0.9,7.5c0,0,0.2-6.6,1.4-7.1c0.8,0.7,1.6,1.5,2.2,2.4c0,0-1.5,3.2-0.6,4.9c0,0,0.6-4.4,1.1-4.4
			c1,1.5,1.7,3.1,2.1,4.9c-0.1-1.8-0.7-3.6-1.7-5.2c1.1,0.2,2.2,0.7,3,1.5c0,0-0.3-2-3.4-2.2c-0.6-0.9-1.3-1.6-2-2.4
			c1.7-0.1,3.4,0.1,5,0.6c0,0-1.7-1.9-5.6-1.1l-2.2-1.8c0,0,4.1-0.6,5.9,0.1c0,0-2-1.7-6.5-0.5l-2.4-1.4c1.8-0.4,3.7-0.6,5.6-0.5
			c0,0-2.2-1.2-6.3,0.1l-1.7-0.8c0,0,2.6-0.5,3.3-0.6s0.8-0.3,0.8-0.3c-1.6-0.3-3.3-0.1-4.8,0.5
			C303.9,172.7,302.7,172.2,301.5,171.6z"/>
		<path class="st2 leaf2" d="M361.6,124.7c0,0,20.6-1.3,18.2,13.2c0.2,1.5-0.5,3-1.8,3.7c0,0,0-1.1-2.1-0.7c-0.7,0.1-1.5,0.2-2.2,0.1
			c-1-0.1-2-0.4-2.7-1.1l0,0c0,0-5.8-2.4-8.1-11.9c0,0-1.7-2.1-1.6-2.6l3.4,1.4c-0.7,1.4-0.8,3.1-0.3,4.6c0,0,0.1-4.5,0.8-4.4
			c0.1,0,1.8,0.9,1.8,0.9s-2,4.4-0.5,7.5c0,0-0.6-5.4,1.1-7.2l2.5,1.4c0,0-2.4,4.5-0.8,8.2c0,0-0.4-5.6,1.3-7.9l2.2,1.7
			c0,0-2.2,4.4-0.9,7.5c0,0,0.2-6.6,1.4-7.1c0.8,0.7,1.6,1.5,2.2,2.4c0,0-1.5,3.2-0.6,4.9c0,0,0.6-4.4,1.1-4.4
			c1,1.5,1.7,3.1,2.1,4.9c-0.1-1.8-0.7-3.6-1.7-5.2c1.1,0.2,2.2,0.7,3,1.5c0,0-0.3-2.1-3.5-2.2c-0.6-0.9-1.2-1.6-2-2.3
			c1.7-0.1,3.4,0,5,0.6c0,0-1.7-1.9-5.6-1.1l-2.1-1.8c0,0,4.1-0.6,5.9,0c0,0-2-1.7-6.5-0.5l-2.4-1.4c1.8-0.4,3.7-0.6,5.6-0.5
			c0,0-2.2-1.2-6.3,0.1l-1.7-0.8c0,0,2.6-0.5,3.3-0.6s0.8-0.3,0.8-0.3c-1.6-0.3-3.3-0.1-4.8,0.5C365.2,126.2,361.6,125,361.6,124.7z
			"/>
		<path class="st2 leaf3" d="M491,44.5c0,0,7.3,19.3-7.2,21.3c-1.4,0.7-3,0.4-4.1-0.7c0,0,1-0.3,0-2.2c-0.3-0.7-0.6-1.4-0.8-2.1
			c-0.2-1-0.1-2,0.3-2.9l0,0c0,0,0.6-6.3,8.9-11.2c0,0,1.5-2.2,2-2.3l-0.4,3.8c-1.6-0.2-3.2,0.2-4.5,1.1c0,0,4.3-1.2,4.4-0.6
			c0,0.1-0.3,2-0.3,2s-4.8-0.7-7.4,1.8c0,0,5-2.2,7.3-1.1l-0.6,2.8c0,0-5-0.9-8.1,1.7c0,0,5.3-2.1,7.9-1.1l-1,2.6
			c0,0-4.9-0.8-7.4,1.4c0,0,6.3-1.8,7.2-0.8c-0.4,1-1,2-1.6,2.8c0,0-3.5-0.5-4.9,0.9c0,0,4.4-0.7,4.5-0.3c-1.1,1.4-2.5,2.6-4,3.5
			c1.7-0.6,3.2-1.7,4.4-3.1c0.1,1.1-0.1,2.3-0.6,3.3c0,0,1.9-0.9,1.1-3.9c0.6-0.8,1.2-1.7,1.6-2.6c0.6,1.6,1,3.3,0.9,5
			c0,0,1.4-2.2-0.6-5.7l1.1-2.6c0,0,1.8,3.8,1.7,5.6c0,0,1-2.4-1.5-6.3l0.7-2.7c0.9,1.6,1.6,3.3,2.1,5.1c0,0,0.5-2.5-2-6l0.2-1.9
			c0,0,1.3,2.3,1.5,3s0.5,0.7,0.5,0.7c-0.2-1.6-0.9-3.2-2-4.4C490.5,47.1,490.7,45.8,491,44.5z"/>
		<path  class="st2 leaf1" d="M628.8,253.2c0,0-20.3,3.7-19.6-11c-0.4-1.5,0.1-3,1.4-3.9c0,0,0.1,1.1,2.2,0.4c0.7-0.2,1.4-0.3,2.2-0.4
			c1-0.1,2,0.2,2.8,0.8l0,0c0,0,6,1.7,9.4,10.8c0,0,1.9,1.9,1.9,2.4l-3.6-1.1c0.5-1.5,0.4-3.2-0.3-4.6c0,0,0.4,4.5-0.3,4.5
			c-0.1,0-1.9-0.6-1.9-0.6s1.5-4.6-0.4-7.6c0,0,1.2,5.3-0.2,7.3l-2.6-1.1c0,0,1.8-4.8-0.2-8.2c0,0,1.1,5.6-0.4,8l-2.4-1.5
			c0,0,1.7-4.6,0-7.6c0,0,0.6,6.6-0.5,7.2c-0.9-0.6-1.7-1.3-2.5-2.1c0,0,1.1-3.4,0-5c0,0-0.1,4.4-0.6,4.5c-1.2-1.4-2.1-2.9-2.7-4.6
			c0.3,1.8,1.1,3.5,2.3,4.9c-1.1-0.1-2.2-0.5-3.1-1.2c0,0,0.5,2,3.7,1.8c0.7,0.8,1.4,1.5,2.3,2.1c-1.7,0.3-3.4,0.3-5.1,0
			c0,0,1.9,1.7,5.7,0.4l2.4,1.5c0,0-4,1-5.8,0.6c0,0,2.2,1.5,6.5-0.3l2.5,1.1c-1.8,0.6-3.6,1-5.5,1.1c0,0,2.3,0.9,6.2-0.8l1.8,0.6
			c0,0-2.5,0.8-3.2,1s-0.8,0.4-0.8,0.4c1.6,0.1,3.3-0.3,4.7-1.1C625.1,252,628.8,252.9,628.8,253.2z"/>
		<path class="st2 leaf2" d="M244.3,187.4c0,0,20.5-2.7,19.1,11.9c0.4,1.5-0.3,3-1.6,3.8c0,0-0.1-1.1-2.2-0.6c-0.7,0.2-1.5,0.3-2.2,0.3
			c-1,0-2-0.3-2.8-0.9l0,0c0,0-6-2-8.9-11.3c0,0-1.8-1.9-1.8-2.5l3.6,1.2c-0.6,1.5-0.5,3.1,0.1,4.6c0,0-0.2-4.5,0.5-4.4
			c0.1,0,1.9,0.7,1.9,0.7s-1.7,4.5,0,7.6c0,0-1-5.3,0.6-7.3l2.5,1.2c0,0-2.1,4.7-0.2,8.3c0,0-0.8-5.6,0.7-7.9l2.3,1.6
			c0,0-1.9,4.6-0.3,7.6c0,0-0.3-6.6,0.9-7.2c0.9,0.6,1.7,1.4,2.4,2.3c0,0-1.3,3.3-0.2,5c0,0,0.3-4.4,0.8-4.5c1.1,1.4,2,3,2.5,4.7
			c-0.2-1.8-0.9-3.5-2-5c1.1,0.1,2.2,0.6,3.1,1.3c0,0-0.5-2-3.6-2c-0.6-0.8-1.4-1.5-2.2-2.2c1.7-0.3,3.4-0.2,5,0.2
			c0,0-1.8-1.8-5.7-0.6l-2.3-1.6c0,0,4.1-0.9,5.9-0.4c0,0-2.1-1.6-6.4,0.1l-2.5-1.3c1.8-0.5,3.7-0.8,5.5-0.9c0,0-2.3-1-6.3,0.6
			l-1.8-0.6c0,0,2.5-0.7,3.3-0.8s0.8-0.4,0.8-0.4c-1.6-0.2-3.3,0.2-4.8,0.9C247.9,188.8,244.2,187.6,244.3,187.4z"/>
		<path class="st2 leaf3" d="M612,165.5c0,0,2.4,20.5-12.1,18.9c-1.5,0.3-3-0.3-3.8-1.6c0,0,1.1-0.1,0.6-2.2c-0.2-0.7-0.2-1.5-0.2-2.2
			c0-1,0.4-2,1-2.8l0,0c0,0,2.1-5.9,11.4-8.7c0,0,2-1.8,2.5-1.8l-1.3,3.6c-1.5-0.6-3.1-0.6-4.6,0c0,0,4.5-0.1,4.4,0.5
			c0,0.1-0.8,1.9-0.8,1.9s-4.5-1.8-7.6-0.1c0,0,5.4-0.9,7.3,0.7l-1.3,2.5c0,0-4.7-2.1-8.2-0.3c0,0,5.6-0.7,7.9,0.8l-1.6,2.3
			c0,0-4.6-2-7.5-0.4c0,0,6.6-0.2,7.1,0.9c-0.6,0.9-1.4,1.7-2.2,2.4c0,0-3.3-1.4-5-0.3c0,0,4.4,0.3,4.5,0.8c-1.4,1.1-3,1.9-4.8,2.4
			c1.8-0.2,3.6-0.9,5.1-2c-0.2,1.1-0.6,2.2-1.4,3.1c0,0,2-0.4,2-3.6c0,0,2.1-1.7,2.2-2.2c0.2,1.7,0.1,3.4-0.3,5c0,0,1.8-1.8,0.7-5.6
			l1.7-2.3c0,0,0.8,4.1,0.3,5.9c0,0,1.6-2.1,0.1-6.5l1.3-2.5c0.5,1.8,0.8,3.6,0.8,5.5c0,0,1.1-2.3-0.5-6.3l0.7-1.7
			c0,0,0.7,2.5,0.8,3.3s0.3,0.8,0.3,0.8c0.2-1.6-0.1-3.3-0.8-4.8C610.6,169,611.8,165.4,612,165.5z"/>
		<g>
			<polygon class="st2" points="282.8,605.3 284.8,609.6 284.8,577.7 282.8,577.7 			"/>
			<polygon class="st2" points="152.9,605.3 150.9,609.6 150.9,577.7 152.9,577.7 			"/>
			<rect x="161" y="519.1" class="st2" width="5.6" height="39.2"/>
			<rect x="273.2" y="519.1" class="st2" width="5.6" height="39.2"/>
			<g class="st7">
				<rect x="161" y="519.1" width="5.6" height="39.2"/>
				<rect x="273.2" y="519.1" width="5.6" height="39.2"/>
			</g>
			<rect x="161" y="519.1" class="st3" width="5.6" height="4.6"/>
			<rect x="273.2" y="519.1" class="st3" width="5.6" height="4.6"/>
			<rect x="152.4" y="517.5" class="st2" width="134.3" height="5.9"/>
			<rect x="161" y="525.8" class="st3" width="5.6" height="5.9"/>
			<rect x="273.2" y="525.8" class="st3" width="5.6" height="5.9"/>
			<rect x="152.4" y="525.5" class="st2" width="134.3" height="5.9"/>
			<rect x="161" y="533.8" class="st3" width="5.6" height="5.9"/>
			<rect x="273.2" y="533.8" class="st3" width="5.6" height="5.9"/>
			<rect x="152.4" y="533.4" class="st2" width="134.3" height="5.9"/>
			<rect x="161" y="541.7" class="st3" width="5.6" height="5.9"/>
			<rect x="273.2" y="541.7" class="st3" width="5.6" height="5.9"/>
			<rect x="152.4" y="541.4" class="st2" width="134.3" height="5.9"/>
			<rect x="161" y="549.7" class="st3" width="5.6" height="5.9"/>
			<rect x="273.2" y="549.7" class="st3" width="5.6" height="5.9"/>
			<rect x="152.4" y="549.3" class="st2" width="134.3" height="5.9"/>
			<g class="st7">
				<circle cx="163.8" cy="520.8" r="0.8"/>
				<circle cx="163.8" cy="528.7" r="0.8"/>
				<circle cx="163.8" cy="536.7" r="0.8"/>
				<circle cx="163.8" cy="544.6" r="0.8"/>
				<circle cx="163.8" cy="552.6" r="0.8"/>
				<circle cx="275.9" cy="520.8" r="0.8"/>
				<circle cx="275.9" cy="528.7" r="0.8"/>
				<circle cx="275.9" cy="536.7" r="0.8"/>
				<circle cx="275.9" cy="544.6" r="0.8"/>
				<circle cx="275.9" cy="552.6" r="0.8"/>
			</g>
			<circle class="st2" cx="163.8" cy="520.4" r="0.8"/>
			<circle class="st2" cx="163.8" cy="528.4" r="0.8"/>
			<circle class="st2" cx="163.8" cy="536.3" r="0.8"/>
			<circle class="st2" cx="163.8" cy="544.3" r="0.8"/>
			<circle class="st2" cx="163.8" cy="552.2" r="0.8"/>
			<circle class="st2" cx="163.8" cy="520.4" r="0.8"/>
			<circle class="st2" cx="163.8" cy="528.4" r="0.8"/>
			<circle class="st2" cx="163.8" cy="536.3" r="0.8"/>
			<circle class="st2" cx="163.8" cy="544.3" r="0.8"/>
			<circle class="st2" cx="163.8" cy="552.2" r="0.8"/>
			<circle class="st2" cx="275.9" cy="520.4" r="0.8"/>
			<circle class="st2" cx="275.9" cy="528.4" r="0.8"/>
			<circle class="st2" cx="275.9" cy="536.3" r="0.8"/>
			<circle class="st2" cx="275.9" cy="544.3" r="0.8"/>
			<circle class="st2" cx="275.9" cy="552.2" r="0.8"/>
			<g class="st7">
				<circle cx="163.8" cy="520.4" r="0.8"/>
				<circle cx="163.8" cy="528.4" r="0.8"/>
				<circle cx="163.8" cy="536.3" r="0.8"/>
				<circle cx="163.8" cy="544.3" r="0.8"/>
				<circle cx="163.8" cy="552.2" r="0.8"/>
				<circle cx="163.8" cy="520.4" r="0.8"/>
				<circle cx="163.8" cy="528.4" r="0.8"/>
				<circle cx="163.8" cy="536.3" r="0.8"/>
				<circle cx="163.8" cy="544.3" r="0.8"/>
				<circle cx="163.8" cy="552.2" r="0.8"/>
				<circle cx="275.9" cy="520.4" r="0.8"/>
				<circle cx="275.9" cy="528.4" r="0.8"/>
				<circle cx="275.9" cy="536.3" r="0.8"/>
				<circle cx="275.9" cy="544.3" r="0.8"/>
				<circle cx="275.9" cy="552.2" r="0.8"/>
			</g>
			<polygon class="st2" points="289.8,560.6 149.2,560.6 152.4,556.7 286.7,556.7 			"/>
			<polygon class="st2" points="294.7,566.8 143.9,566.4 149,561 290.3,561 			"/>
			<polygon class="st2" points="299.5,572.5 138.5,572.5 143.5,567 295.1,567.1 			"/>
			<polygon class="st2" points="163,577.7 163,589.2 161,593.1 160.4,579.4 160.3,577.7 			"/>
			<polygon class="st2" points="275.9,577.7 275.8,579.4 275.1,593.1 273.2,589.2 273.2,577.7 			"/>
			<rect x="155.9" y="576.8" class="st2" width="5.1" height="16.3"/>
			<rect x="275.2" y="576.8" class="st2" width="5.1" height="16.3"/>
			<polygon class="st3" points="161,577.7 163,577.7 163,579.4 155.9,579.4 155.9,576.8 161,576.8 			"/>
			<rect x="155.9" y="576.8" class="st3" width="5.1" height="16.3"/>
			<rect x="275.2" y="576.8" class="st3" width="5.1" height="16.3"/>
			<polygon class="st3" points="280.3,576.8 280.3,579.4 273.2,579.4 273.2,577.7 275.1,577.7 275.1,576.8 			"/>
			<rect x="149.2" y="575" class="st2" width="137.4" height="4"/>
			<rect x="149.2" y="575" class="st3" width="137.4" height="4"/>
			<rect x="145" y="574.3" class="st2" width="5.9" height="35.4"/>
			<rect x="284.8" y="574.3" class="st2" width="5.9" height="35.4"/>
			<rect x="145" y="574.3" class="st3" width="5.9" height="35.4"/>
			<rect x="284.8" y="574.3" class="st3" width="5.9" height="35.4"/>
			<rect x="149.2" y="575" class="st3" width="137.4" height="0.4"/>
			<circle class="st3" cx="147.6" cy="577.2" r="0.8"/>
			<circle class="st3" cx="288.3" cy="577.1" r="0.8"/>
			<polygon class="st2" points="139.8,571 138.5,572.5 138.5,573.8 299.5,573.8 299.5,572.5 298.3,571 			"/>
			<rect x="138.5" y="572.5" class="st2" width="160.9" height="2.5"/>
			<path id="crow" class="st8" d="M219,481.9c0,0,5.6-0.6,7.5,0.9c0,0-6.3,1.8-6.9,3.1c0,0,0.1,0.1,0.7,0s3.8-0.9,4.6-0.1l0.2,0.4l0.3,0.1
				l0.4,0.2c0.2,0.1,0.4,0.4,0.5,0.6c0.1,0.4,0.4,0,0.4,0s0.4,0.9,0.3,1.1c-0.1,0.2,0.4,0.8,0.4,0.8l0.1,2.6l0.2-0.2
				c0.1,1.6,0.6,3.2,1.3,4.7c0,0,2.7,6.3,3.5,6.7h0.5c0,0,3.9,4.9,7.5,5.9c3.6,1,3.9,2.1,3.9,2.1L240,516c-0.9,0.1-1.7,0.2-2.5,0.5
				c1.6,0.1,3.1,0.1,4.7,0.1l3.4-4.7c0.4,0.1,0.9,0.3,1.2,0.6c0.2,0.1,0.4,0.2,0.6,0.3c0.3,0.2,0.5,0,0.7,0.1
				c0.2,0.1-1.8,3.6-1.8,3.6l-2.3,0.1l1.9,0.6c0.7,0.2,2-0.6,2-0.6l1.8-3.4l0.8,0.6v-0.5c0,0,0.8,0.4,1.1,0.4
				c0.3-0.1-0.4-0.5-0.4-0.5c0.4,0.1,0.7,0.1,1.1,0c0.2-0.1-0.2-0.8-0.2-0.8v-0.5c0,0-1.2,0-1.1-0.2c0.1-0.2,0.6-0.4,1.4,0
				c0.8,0.4,5.6,2.3,7.4,1.5c1.2,0.9,2.5,1.6,3.8,2.2c0.9,0.2,2,1.7,2,1.7s3.9,3.8,6.1,2.8c-0.4-0.7-0.8-1.4-1.1-2.2
				c-0.1-0.7-3-2.9-3-2.9s5.9,1.2,5.9,0.8c0,0,3,1.6,3.2,1.6s0-1-1.7-2.2l2.2,0.3c-0.1-1.1-0.8-1.9-1.9-2.2
				c-0.6-0.7-1.3-1.3-2.1-1.8l-9.4-4.9c0,0,0.9-0.5-0.2-1.8c0.3-0.1,0.6-0.2,0.9-0.3c0.5-0.1-4.2-4-4.4-3.9
				c-0.6-0.4-1.1-0.9-1.5-1.6c-0.2-0.5-4.5-2.8-4.5-2.8s-3.6-0.2-6.3-5.1s-8.6-5.3-8.6-5.3s-2.4-10.5-12.4-6.2
				C226.9,479.5,220,480.1,219,481.9z"/>
		</g>
		<g id="girl">
			<path class="st2" d="M631,442c-0.8,1.2-3,0.5-3.7,1.7c-0.2,0.7-0.2,1.4,0,2.1c0.1,2.5-1.8,4.5-4.2,4.6c-0.5,0-0.9,0-1.4-0.2
				c-0.1,1.9-0.9,3.7-2.3,5c-1.7,1.1-4,1-5.6-0.3c-1.5-1.3-2.7-3-3.3-4.9c-0.8-2.3-1.4-4.8-3.4-6.3c-0.7-0.5-1.5-0.9-2.2-1.4
				c-1.5-1.3-2.5-3.1-2.9-5c-0.6-2.4-1.4-4.7-2.3-7c-1-2.3-2.7-4.2-4.9-5.3c-2.1-1-4.5-0.9-6.7-1.7c-1.6-0.6-3.1-1.5-4.5-2.5
				c-1.8-1.3-3.7-2.5-5.7-3.4c-1.2-0.5-2.3-1.1-3.3-1.9c-1.6-0.8-2.6-2.4-2.6-4.2c-0.3-1.6-1-3.2-1.9-4.6c-1-1.8-1.9-3.6-1.2-5.4
				s2.6-3,3.3-4.8c0.3-1.3,0.4-2.5,0.2-3.8c-0.1-1.3,0.4-2.6,1.4-3.4c1.7-1.1,3.7,0.3,5.8,0.9c0.7,0.2,1.5,0.3,2.2,0.1
				c0.6-0.2,1.3-0.5,1.9-0.8c3.2-1.3,6.7,1,8.5,3.9s2.5,6.3,4,9.3c0.5,1.2,1.3,2.2,2.3,3c1,0.8,2.4,1,3.6,0.4l1.7,3.9
				c0.9,2,1.8,4,2.7,5.9c1.1,2.5,2.5,5.3,5,6.4c1.1,0.5,2.4,0.6,3.6,1c2.6,0.9,4.5,3.1,5,5.8c0.1,0.9,0.2,1.7,0.5,2.6
				c1,2.6,4.3,3.2,6.8,4.6c1.4,0.8,2.6,2,3.5,3.4C631.3,440.4,631.4,441.3,631,442z"/>
			<path class="st3" d="M631,442c-0.8,1.2-3,0.5-3.7,1.7c-0.2,0.7-0.2,1.4,0,2.1c0.1,2.5-1.8,4.5-4.2,4.6c-0.5,0-0.9,0-1.4-0.2
				c-0.1,1.9-0.9,3.7-2.3,5c-1.7,1.1-4,1-5.6-0.3c-1.5-1.3-2.7-3-3.3-4.9c-0.8-2.3-1.4-4.8-3.4-6.3c-0.7-0.5-1.5-0.9-2.2-1.4
				c-1.5-1.3-2.5-3.1-2.9-5c-0.6-2.4-1.4-4.7-2.3-7c-1-2.3-2.7-4.2-4.9-5.3c-2.1-1-4.5-0.9-6.7-1.7c-1.6-0.6-3.1-1.5-4.5-2.5
				c-1.8-1.3-3.7-2.5-5.7-3.4c-1.2-0.5-2.3-1.1-3.3-1.9c-1.6-0.8-2.6-2.4-2.6-4.2c-0.3-1.6-1-3.2-1.9-4.6c-1-1.8-1.9-3.6-1.2-5.4
				s2.6-3,3.3-4.8c0.3-1.3,0.4-2.5,0.2-3.8c-0.1-1.3,0.4-2.6,1.4-3.4c1.7-1.1,3.7,0.3,5.8,0.9c0.7,0.2,1.5,0.3,2.2,0.1
				c0.6-0.2,1.3-0.5,1.9-0.8c3.2-1.3,6.7,1,8.5,3.9s2.5,6.3,4,9.3c0.5,1.2,1.3,2.2,2.3,3c1,0.8,2.4,1,3.6,0.4l1.7,3.9
				c0.9,2,1.8,4,2.7,5.9c1.1,2.5,2.5,5.3,5,6.4c1.1,0.5,2.4,0.6,3.6,1c2.6,0.9,4.5,3.1,5,5.8c0.1,0.9,0.2,1.7,0.5,2.6
				c1,2.6,4.3,3.2,6.8,4.6c1.4,0.8,2.6,2,3.5,3.4C631.3,440.4,631.4,441.3,631,442z"/>
			<path class="st9" d="M576.9,413.4c0,0,1.3,2.6-2.5,2.6s2.4,16.8,2.4,16.8l6.3,8l7.8-4.2l0.5-11.6l0.6-7c0,0-7.3-2.4-6-5.5
				S576.9,413.4,576.9,413.4z"/>
			<path class="st2" d="M599.6,481.6c0,0,4.6,4.5,10-1.4l-4.1-4.4h-5.2L599.6,481.6z"/>
			<path class="st2" d="M607.9,476.5c0.8,2.2,1.9,4.4,3.2,6.4c1.3,1.4,3.5,11.6,0.7,10.5s-8.2-9.7-8.5-11.2
				c-0.3-1.9-0.4-3.8-0.5-5.6H607.9z"/>
			<polygon class="st2" points="567.6,501.5 592.5,502.5 589.6,492 577,491.7 			"/>
			<path class="st2" d="M575.7,518.9c-0.6,1.1-0.4,4.9-0.1,7.7c0.2,1.8,0.4,3.2,0.4,3.2s-9.3,2.9-10.7,0.4c-0.4-1-0.6-2-0.6-3
				c0-3.1,0.1-6.3,0.6-9.4c0,0-0.4-8.5-0.6-9.4c0-0.3-0.2-1.4-0.3-2.5c-0.2-1.7-0.3-3.6-0.3-3.6l12.7-6.7v3.2
				C576.7,504.7,576.5,517.5,575.7,518.9z"/>
			<path class="st2" d="M576.3,578.2h-7.6l-0.3-0.3c-1.1-1.4-1.5-3.4-0.8-5.1c0.8-2.9,1.2-5.9,1.3-8.9c0.2-0.7,0.3-1.5,0.1-2.3
				c-0.2-0.7-0.3-1.4-0.1-2.1c-0.1-0.5-0.2-1-0.4-1.4c-0.2-0.7-0.2-1.5,0-2.2c-0.1-1.4-0.3-2.7-0.7-4c-0.6-1.7-4.8-21.5-3.8-23.8
				c0,0,9-1.5,12.4-0.4l-0.5,15.4c0,0-1.6,4.6-0.3,5.8s0,5,0,5s-0.2,0.7,1,3.1s0,3.5,0,3.5v4.5c-0.5,1.8-0.5,3.8,0.1,5.6
				C577.9,572.9,576.7,578.1,576.3,578.2z"/>
			<path class="st2" d="M593.9,518.9c-0.6,1.1-0.4,4.9-0.1,7.7c0.2,1.8,0.4,3.2,0.4,3.2s-9.3,2.9-10.7,0.4c-0.4-1-0.6-2-0.6-3
				c0-3.1,0.1-6.3,0.6-9.4c0,0-0.4-8.5-0.6-9.4c-0.1-0.5-0.3-4.7-0.4-8.6c-0.1-3.3-0.2-6.3-0.2-6.3l12.7,2c0,0,0,5.6-0.2,11.3
				S594.4,518,593.9,518.9z"/>
			<path class="st2" d="M594.5,578.2h-7.6l-0.3-0.3c-1.1-1.4-1.5-3.4-0.8-5.1c0.8-2.9,1.2-5.9,1.3-8.9c0.2-0.8,0.2-1.5,0-2.3
				c-0.2-0.7-0.3-1.4-0.1-2.1c-0.1-0.5-0.2-1-0.4-1.4c-0.2-0.7-0.2-1.5,0-2.2c-0.1-1.4-0.3-2.7-0.7-4c-0.6-1.7-4.8-21.5-3.8-23.8
				c0,0,9-1.5,12.4-0.4l-0.5,15.3c0,0-1.6,4.6-0.3,5.8s0,5,0,5s-0.2,0.7,1,3.1s0,3.5,0,3.5v4.5c-0.5,1.8-0.5,3.8,0.1,5.6
				C596.1,572.9,594.9,578.1,594.5,578.2z"/>
			<circle class="st3" cx="581.6" cy="407.3" r="9"/>
			<circle class="st9" cx="581.9" cy="407" r="9"/>
			<path class="st2" d="M592.6,446.5c-0.3,2.5-0.4,5-0.2,7.5c5.8,4.8,4.8,14.9,4.8,14.9s4.5,20.5,3.5,22.4s2.2,13.3,2.2,13.3
				c-2.7,0.5-5.4,0.8-8.1,0.9c-1,0-1.9,0-2.9-0.1c-1.3,0-2.6-0.5-3.5-1.4c-1.8-3.1-9.5-7.8-9.5-7.8s-4.9,3-9.5,5.6
				c-1.4,0.9-2.9,1.7-4.1,2.4c-1,0.5-2.1,0.8-3.2,0.9c-5.4,0.4-12.7-3-11.5-4.2c1.4-1.4,8.4-27.3,8.4-27.3s3.5-16,6.6-18.3
				c0.5-0.4,0.9-1,1.2-1.6c1-2.9-0.7-7.6-0.7-7.6s-9.9-12.2-9.5-13c0.3-1.5,0.5-3,0.5-4.5c0,0,1.2-6,1.9-8.9s5.8-3.6,7.2-3.3
				s5.1,0,6.5-1.1s3.8,0.5,3.8,0.5l5.5,2.8l5.3-3.1c0,0,5.3,0.3,5.8,1s7.4,2,7.4,2c3.5,2.4,3.4,13.6,3.4,13.6s-8.5,7.4-10.2,11.1
				C593,444.3,592.7,445.4,592.6,446.5z"/>
			<path class="st2" d="M601.8,430.5l1.9,1.5l2,17.9l2,18c0,0,0.8,1.8,1.4,1.6s0.6,10.6,0.6,10.6s-7.4-4.5-10,1.4l-2.1-14.5
				c0,0-2.6-14.8-2.6-16s-1.3-13.6-1.3-13.6L601.8,430.5z"/>
			<path class="st2" d="M557.9,431.3l-1.4,1.7c0,0,0.1,7.4-1,9.2s3,12.3,4.5,11.7s5-17,5-17.3S557.9,431.3,557.9,431.3z"/>
			<path class="st2" d="M560.3,440.1c0,0-4.5,4.5-4.2,6.7s6.9,17.7,14.7,11.1C570.8,458,572.6,441.5,560.3,440.1z"/>
			<path class="st3" d="M576.2,578.2h-7.5l-0.3-0.3C570,577.3,573.5,576.5,576.2,578.2z"/>
			<path class="st3" d="M594.3,578.2h-7.5l-0.3-0.3C588.2,577.3,591.7,576.5,594.3,578.2z"/>
			<path class="st2" d="M575.2,401.3c0.3,0,0.6,0,0.9,0.1c0.4,0.2,0.8,0.5,1.1,0.8c1,0.8,2.4,1.1,3.7,0.7c0.5-0.2,0.9-0.3,1.4-0.4
				c0.8,0.1,1.4,0.5,1.8,1.2c0.4,0.6,0.6,1.4,0.9,2c0.3,0.7,0.9,1.2,1.6,1.4c0.3,0,0.7,0.1,1,0.2c0.2,0.2,0.3,0.4,0.4,0.6
				c0.6,1.3,1.1,2.9,2.4,3.5c0.5,0.2,0.9,0.3,1.4,0.3c0.5,0,1.1-0.1,1.5-0.3c0.5-0.3,0.9-0.7,1.1-1.1c0.7-1.4,1-3,0.7-4.5
				c-0.2-1.9-0.9-3.8-2-5.4c-2.3-3.3-6.3-5.2-10.3-4.8c-0.7,0.1-1.4,0.2-2.1,0.4c-2.5,0.5-4.7,1.9-6.3,3.9c-0.4,0.5-0.8,1-1.2,1.4
				C573.8,401.3,574.5,401.3,575.2,401.3z"/>
			<path class="st3" d="M575.2,401.3c0.3,0,0.6,0,0.9,0.1c0.4,0.2,0.8,0.5,1.1,0.8c1,0.8,2.4,1.1,3.7,0.7c0.5-0.2,0.9-0.3,1.4-0.4
				c0.8,0.1,1.4,0.5,1.8,1.2c0.4,0.6,0.6,1.4,0.9,2c0.3,0.7,0.9,1.2,1.6,1.4c0.3,0,0.7,0.1,1,0.2c0.2,0.2,0.3,0.4,0.4,0.6
				c0.6,1.3,1.1,2.9,2.4,3.5c0.5,0.2,0.9,0.3,1.4,0.3c0.5,0,1.1-0.1,1.5-0.3c0.5-0.3,0.9-0.7,1.1-1.1c0.7-1.4,1-3,0.7-4.5
				c-0.2-1.9-0.9-3.8-2-5.4c-2.3-3.3-6.3-5.2-10.3-4.8c-0.7,0.1-1.4,0.2-2.1,0.4c-2.5,0.5-4.7,1.9-6.3,3.9c-0.4,0.5-0.8,1-1.2,1.4
				C573.8,401.3,574.5,401.3,575.2,401.3z"/>
			<path class="st3" d="M565.4,422.8c0,0,0.5,3.6-1.1,4.5S565.4,422.8,565.4,422.8z"/>
			<path class="st3" d="M573.4,418.6c0,0-5.4,0.4-5.5,1.1S573.4,418.6,573.4,418.6z"/>
			<path class="st2" d="M559.6,426.5h3.7c0.8,0,1.5,0.7,1.5,1.5v10.6c0,0.8-0.7,1.5-1.5,1.5h-3.7c-0.8,0-1.5-0.7-1.5-1.5V428
				C558.1,427.2,558.7,426.5,559.6,426.5z"/>
			<path class="st2" d="M558.2,447.7c0,0,1.1-5.3-0.4-7s-1-10.5,1.3-10.3s5.8,7.2,5.2,8.6s-2.8,9-2.8,9L558.2,447.7z"/>
		</g>
	</g>
</g>
</svg>
