
<!-- Generator: Adobe Illustrator 21.1.0, SVG Export Plug-In . SVG Version: 6.00 Build 0)  -->
<svg version="1.1" id="a11dcf94-02e4-448c-aa1e-cfae5c49b9a0"
	 xmlns="http://www.w3.org/2000/svg" xmlns:xlink="http://www.w3.org/1999/xlink" x="0px" y="0px" viewBox="0 0 1137 776.6"
	 style="enable-background:new 0 0 1137 776.6;" xml:space="preserve">
<style type="text/css">

@keyframes  timtimAnimation1{
		
		0%{
			opacity:0;
		}
	100%{
	    opacity:1;
	}
	
	
	}

	@keyframes  timtimAnimation2{
		
		0%{
			opacity:0;
		}
	100%{
	    opacity:1;
	}
	
	
	}

	@keyframes  timtimAnimation3{
		
		0%{
			opacity:1;
		}
	100%{
	    opacity:0;
	}
	
	
	}

	@keyframes  rotateZ{
		
		0%{
			transform:rotateZ(-10deg) scale(0.95);
		}
	100%{
	    transform:rotateZ(15deg) scale(1.05);
	}
	
	
	}

	
	@keyframes  op1{
		
		0%{
			opacity:0;
		}
	100%{
	    opacity:1;
	}
	
	
	}

	@keyframes  op2{
		
		0%{
			opacity:0;
		}
	100%{
	    opacity:1;
	}
	
	
	}

	@keyframes  op3{
		
		0%{
			opacity:0;
		}
	100%{
	    opacity:1;
	}
	
	
	}

	.timtim1{
	animation-name:timtimAnimation1;
	animation-duration: 3s;
	animation-iteration-count: infinite;
    animation-direction: alternate;
	
	}

	.timtim2{
	animation-name:timtimAnimation2;
	animation-duration: 5s;
	animation-iteration-count: infinite;
    animation-direction: alternate;
	
	}

	.timtim3{
	animation-name:timtimAnimation3;
	animation-duration: 1s;
	animation-iteration-count: infinite;
    animation-direction: alternate;
	
	}

	.op1{
	animation-name:op1;
	animation-duration: 3s;
	animation-iteration-count: 1;
   
	
	}

	.op2{
	
	animation-name:op2;
	animation-duration: 6s;
	animation-iteration-count: 1;
	
    
	
	}

	.op3{
	
	animation-name:op2;
	animation-duration: 4s;
	animation-iteration-count: 1;
	
    
	
	}

	#background{
	animation-name:rotateZ;
	animation-duration: 8s;
	animation-iteration-count: infinite;
    animation-direction: alternate-reverse;
	    transform-origin: center;
    transform-box: fill-box;transform-origin:
	
	}

	.st0{fill:#3F3D56;}
	.st1{fill:#F2F2F2;}
	.st2{fill:#6C63FF;}
	.st3{opacity:0.1;enable-background:new    ;}
	.st4{fill:#FFFFFF;}
	.st5{fill:#FF6584;}
	.st6{fill:#171726;}
</style>
<title>around the world</title>
<g >
	<path id="background" class="st0" d="M892.2,528.3c-5.1,43.5-15.6,78.4-30.1,106.3c-19.3,37.1-52.2,52.1-81.7,67.7c-8.5,4.5-17.4,8.4-26.5,11.5
		c-53.6,18.6-113.6,13.7-160.7,3.8c-33-6.9-66.6-11.1-100.3-12.7c-9.6-0.4-19.2-0.6-28.9-0.6c-14.9,0-282.4,5.1-347.6-126.8
		c-16.1-32.5-27.1-72.3-31.1-120.7c-11.2-137,50.4-226.9,129.8-285.7c150.3-111.2,356.3-106.6,504.4,7.6
		C818.3,254.7,910.7,369.8,892.2,528.3z"/>
	<path class="st1" d="M699.2,405c-41.7-31.2-107-60.7-179.2-80.9c-65.7-18.4-129.8-27.3-180.5-25l-0.3-5.9
		c51.3-2.3,116,6.7,182.3,25.3c72.8,20.4,138.9,50.2,181.1,81.8L699.2,405z"/>
	<path class="st2" d="M694.9,429c0,27.6-5.8,54.9-17,80.2c-0.9,2.1-1.9,4.2-2.9,6.3c-33,67.7-101.8,110.6-177.1,110.6
		c-108.8,0-197.1-88.2-197.1-197.1c0-4.6,0.2-9.1,0.5-13.6c0.1-2.3,0.3-4.6,0.6-6.8C312,309.4,395.9,232,497.9,232
		C606.7,232,694.9,320.2,694.9,429z"/>
	<path class="st3" d="M677.9,509.2c-0.9,2.1-1.9,4.2-2.9,6.3c-5.8,0.6-11.8,1.1-18.2,1.4c-5.3,0.2-10.7,0.4-16.2,0.4
		c-48.4,0-106.6-8.9-166.1-25.6C408.1,473,348.2,447,305.5,418.4c-1.5-1-2.9-1.9-4.3-2.9c0.1-2.3,0.3-4.6,0.6-6.8
		c2.3,1.6,4.6,3.2,7,4.8c42.1,28.3,101.5,54,167.2,72.4c59,16.5,116.7,25.4,164.5,25.4c5.5,0,10.8-0.1,16-0.3
		C664.1,510.6,671.2,510,677.9,509.2z"/>
	<g>
		<path class="st1" d="M640.6,512.5c-48.4,0-106.6-8.9-166.1-25.6c-66.3-18.6-126.3-44.6-168.9-73.2c-43.5-29.2-63.9-58-57.5-81.1
			c6.5-23.1,38.9-37,91.2-39.4l0.3,5.9c-24.5,1.1-44.4,4.7-59.2,10.8c-14.8,6.1-23.8,14.2-26.6,24.3c-2.8,10.1,0.6,21.7,10.1,34.6
			c9.5,12.9,24.7,26.4,45,40c42.1,28.3,101.5,54,167.2,72.4c59,16.5,116.7,25.4,164.5,25.4c5.5,0,10.8-0.1,16-0.3
			c24.5-1.1,44.4-4.7,59.2-10.8c14.8-6.1,23.8-14.2,26.6-24.3c5.1-18.1-10.2-41.5-43.1-66.1l3.5-4.7c16.9,12.6,29.4,25.1,37.2,37
			c8.3,12.8,11,24.7,8,35.4c-6.5,23.1-38.9,37-91.2,39.4C651.5,512.3,646.1,512.5,640.6,512.5z"/>
	</g>
	<circle class="st1 timtim1" cx="503.1" cy="194.2" r="2.3"/>
	<circle class="st1 timtim2" cx="203.5" cy="290.5" r="2.3"/>
	<circle class="st1 timtim3" cx="195.2" cy="442.6" r="2.3"/>
	<circle class="st1 timtim1" cx="655.9" cy="207.7" r="1.5"/>
	<circle class="st1 timtim3" cx="837.3" cy="420" r="1.5"/>
	<circle class="st1 timtim2" cx="754.5" cy="350.8" r="1.5"/>
	<circle class="st1 timtim1" cx="339.7" cy="241.6" r="1.5"/>
	<circle class="st1 timtim3" cx="749.2" cy="399.7" r="1.5"/>
	<circle class="st1 timtim2" cx="213.3" cy="551" r="1.5"/>
	<circle class="st1 timtim1" cx="302.9" cy="612.7" r="1.5"/>
	<polygon class="st1 timtim1" points="433.1,131.1 431,131.1 431,129.1 429.9,129.1 429.9,131.1 427.8,131.1 427.8,132.3 429.9,132.3 
		429.9,134.3 431,134.3 431,132.3 433.1,132.3 	"/>
	<polygon class="st1 timtim3" points="657.4,643 655.3,643 655.3,640.9 654.2,640.9 654.2,643 652.1,643 652.1,644.1 654.2,644.1 
		654.2,646.2 655.3,646.2 655.3,644.1 657.4,644.1 	"/>
	<polygon class="st1 timtim2" points="796.6,612.1 794.5,612.1 794.5,610 793.4,610 793.4,612.1 791.3,612.1 791.3,613.2 793.4,613.2 
		793.4,615.3 794.5,615.3 794.5,613.2 796.6,613.2 	"/>
	<g class="op1">
		<circle class="st0" cx="613" cy="452.3" r="7.1"/>
		<circle class="st4" cx="613" cy="422.2" r="9.4"/>
		<path class="st5" d="M613,408.6c-7.3,0-13.2,5.9-13.2,13.2c0,7.3,13.2,31.3,13.2,31.3s13.2-24,13.2-31.3
			C626.2,414.6,620.3,408.6,613,408.6z M613,428.4c-3.4,0-6.1-2.7-6.1-6.1s2.7-6.1,6.1-6.1c3.4,0,6.1,2.7,6.1,6.1
			S616.4,428.4,613,428.4L613,428.4z"/>
	</g>
	<g class="op2">
		<circle class="st0" cx="477.1" cy="305.4" r="4.8"/>
		<circle class="st4" cx="477.1" cy="285.3" r="6.3"/>
		<path class="st5" d="M477.1,276.2c-4.9,0-8.9,4-8.9,8.9c0,4.9,8.9,21,8.9,21s8.9-16.1,8.9-21C486,280.2,482,276.2,477.1,276.2z
			 M477.1,289.4c-2.3,0-4.1-1.8-4.1-4.1s1.8-4.1,4.1-4.1c2.3,0,4.1,1.8,4.1,4.1C481.2,287.6,479.4,289.4,477.1,289.4L477.1,289.4z"
			/>
	</g>
	<g class="op3">
		<circle class="st0" cx="568.5" cy="350.2" r="11.6"/>
		<circle class="st4" cx="568.5" cy="301.1" r="15.3"/>
		<path class="st5" d="M568.5,279c-11.9,0-21.6,9.7-21.6,21.6s21.6,51.1,21.6,51.1s21.6-39.2,21.6-51.1S580.4,279,568.5,279z
			 M568.5,311.2c-5.5,0-10-4.5-10-10c0-5.5,4.5-10,10-10c5.5,0,10,4.5,10,10C578.5,306.7,574,311.2,568.5,311.2L568.5,311.2z"/>
	</g>
	<g class="op1">
		<circle class="st0" cx="537.6" cy="566.2" r="8.9"/>
		<circle class="st4" cx="537.6" cy="528.6" r="11.7"/>
		<path class="st5" d="M537.6,511.7c-9.1,0-16.6,7.4-16.6,16.6c0,9.1,16.6,39.2,16.6,39.2s16.6-30,16.6-39.2
			C554.2,519.1,546.7,511.7,537.6,511.7z M537.6,536.3c-4.2,0-7.7-3.4-7.7-7.7s3.4-7.7,7.7-7.7c4.2,0,7.7,3.4,7.7,7.7
			C545.3,532.9,541.8,536.3,537.6,536.3L537.6,536.3z"/>
	</g>
	<g class="op2">
		<circle class="st0" cx="407" cy="409.9" r="11.4"/>
		<circle class="st4" cx="407" cy="361.7" r="15"/>
		<path class="st5" d="M407,340c-11.7,0-21.2,9.5-21.2,21.2c0,11.7,21.2,50.2,21.2,50.2s21.2-38.5,21.2-50.2
			C428.2,349.5,418.7,340,407,340z M407,371.6c-5.4,0-9.8-4.4-9.8-9.8c0-5.4,4.4-9.8,9.8-9.8c5.4,0,9.8,4.4,9.8,9.8
			C416.8,367.2,412.4,371.6,407,371.6L407,371.6z"/>
	</g>
	<g class="op3">
		<circle class="st0" cx="402.1" cy="556.5" r="6.3"/>
		<circle class="st4" cx="402.1" cy="529.9" r="8.3"/>
		<path class="st5" d="M402.1,517.9c-6.5,0-11.7,5.2-11.7,11.7c0,6.5,11.7,27.7,11.7,27.7s11.7-21.2,11.7-27.7
			C413.8,523.2,408.6,517.9,402.1,517.9z M402.1,535.3c-3,0-5.4-2.4-5.4-5.4c0-3,2.4-5.4,5.4-5.4c3,0,5.4,2.4,5.4,5.4
			C407.5,532.9,405.1,535.3,402.1,535.3L402.1,535.3z"/>
	</g>
	<g class="op1">
		<circle class="st0" cx="500.8" cy="445.2" r="6.3"/>
		<circle class="st4" cx="500.8" cy="418.6" r="8.3"/>
		<path class="st5" d="M500.8,406.6c-6.5,0-11.7,5.2-11.7,11.7c0,6.5,11.7,27.7,11.7,27.7s11.7-21.2,11.7-27.7
			C512.5,411.8,507.3,406.6,500.8,406.6z M500.8,424c-3,0-5.4-2.4-5.4-5.4c0-3,2.4-5.4,5.4-5.4c3,0,5.4,2.4,5.4,5.4
			S503.8,424,500.8,424L500.8,424z"/>
	</g>
	<g>
		<path class="st6" d="M671.2,365.9c0,0,5.9-0.8,8,0.7c0,0-6.6,2.1-7.3,3.5c0,0,0.1,0.1,0.7,0c0.6-0.2,4.1-1.1,4.9-0.3l0.3,0.4
			l0.3,0.2l0.4,0.2c0.2,0.1,0.4,0.4,0.6,0.6c0.1,0.4,0.4,0,0.4,0s0.5,0.9,0.4,1.2s0.5,0.9,0.5,0.9l0.2,2.8l0.2-0.2
			c0.2,1.8,0.7,3.5,1.5,5c0,0,3,6.6,4,7.1l0.6,0c0,0,4.3,5.1,8.2,6c3.9,0.9,4.2,2.1,4.2,2.1l-4.5,5.6c-0.9,0.1-1.8,0.3-2.7,0.6
			c1.7,0.1,3.4,0.1,5-0.1l3.5-5.1c0.5,0.1,0.9,0.3,1.3,0.6c0.2,0.1,0.5,0.1,0.7,0.3c0.3,0.2,0.5,0,0.8,0.1c0.3,0.1-1.8,4-1.8,4
			l-2.5,0.1l2.1,0.6c0.7,0.2,2.1-0.7,2.1-0.7l1.8-3.7l0.8,0.7l0-0.5c0,0,0.9,0.4,1.2,0.3c0.3-0.1-0.5-0.5-0.5-0.5
			c0.4,0,0.8,0,1.2-0.1c0.2-0.1-0.3-0.8-0.3-0.8l0-0.5c0,0-1.3,0.1-1.1-0.2c0.2-0.3,0.6-0.4,1.5-0.1c0.8,0.3,6,2.3,7.9,1.4
			c1.3,0.9,2.7,1.7,4.2,2.3c1,0.2,2.2,1.8,2.2,1.8s4.3,4,6.6,2.8c-0.5-0.7-0.9-1.5-1.2-2.3c-0.2-0.7-3.3-3-3.3-3s6.4,1.1,6.4,0.7
			c0,0,3.2,1.6,3.4,1.6c0.2,0-0.1-1.1-1.8-2.3l2.4,0.2c-0.2-1.1-1-2.1-2.1-2.3c-0.6-0.8-1.4-1.4-2.3-1.8l-10.1-4.9
			c0,0,0.9-0.5-0.2-1.9c0.3-0.1,0.6-0.2,0.9-0.3c0.6-0.2-4.7-4.1-4.8-4.1c-0.7-0.4-1.2-1-1.7-1.6c-0.2-0.5-4.9-2.9-4.9-2.9
			s-3.9-0.1-6.9-5.2c-3-5.2-9.3-5.4-9.3-5.4s-2.9-11.2-13.4-6.3C679.5,363.1,672.2,363.9,671.2,365.9z"/>
	</g>
</g>
</svg>
