
<!-- Generator: Adobe Illustrator 21.1.0, SVG Export Plug-In . SVG Version: 6.00 Build 0)  -->
<svg version="1.1" id="Layer_1" xmlns="http://www.w3.org/2000/svg" xmlns:xlink="http://www.w3.org/1999/xlink" x="0px" y="0px"
	 viewBox="0 0 1253.7 941.1" style="enable-background:new 0 0 1253.7 941.1;" xml:space="preserve">
<style type="text/css">
	@keyframes  animateGirFace{
		
		0%{
			transform: rotateZ(0deg) scale(1);
		}
	100%{
	    transform: rotateZ(-15deg) scale(0.98);
	}
	
	
	}

	@keyframes  animateFlower1{
		
		0%{
			transform: translateX(15px) rotateZ(-7deg);
		}
	100%{
	    transform: translateX(15px) rotateZ(7deg);
	}
	
	
	}
	
	@keyframes  animateFlower2{
		
		0%{
		    transform: rotateZ(-7deg);

		}
	100%{
		transform: rotateZ(7deg);

	}
	
	
	}
	@keyframes  animateHead{
		
		0%{
			transform: rotateZ(0deg) translateX(0px) translateY(0px);

		}
	100%{
		transform: rotateZ(10deg) translateX(-6px) translateY(5px);

	}
	
	
	}




	.st0{fill:#FAFAFC;}
	.st1{fill:none;stroke:#6C63FF;stroke-miterlimit:10;}
	.st2{fill:#6C63FF;}
	.st3{opacity:0.1;enable-background:new    ;}
	.st4{opacity:0.2;enable-background:new    ;}
	.st5{fill:#A8A8A8;}
	.st6{fill:#FFD037;}
	.st7{fill:#8C8296;}
	.st8{fill:#0F363F;}
	.st9{fill:#E7C4C3;}
	.st10{fill:#FFC7D1;}
	.st11{fill:#FF9999;}
	.st12{fill:#333333;}
	.st13{fill:#0C2C35;}
	.st14{opacity:0.1;}
	.st15{fill:#F7AAAA;}
	.st16{fill:#C589E0;}
	.st17{opacity:0.1;fill:#6C63FF;enable-background:new    ;}
	.st18{fill:#40243E;}
	.st19{fill:#EA1B39;}
	.st20{opacity:5.000000e-02;enable-background:new    ;}
	.st21{opacity:5.000000e-02;}

	#background{
	animation-name:animateGirFace;
	animation-duration: 8s;
	animation-iteration-count: infinite;
    animation-direction: alternate-reverse;
	transform-origin: center;
	}

	#flower1{
	animation-name:animateFlower1;
	animation-duration: 3s;
	animation-iteration-count: infinite;
    animation-direction: alternate-reverse;
	transform-box: fill-box;
	transform-origin: bottom;
	}
	#flower2{
		animation-name:animateFlower2;
		animation-duration: 5s;
		animation-iteration-count: infinite;
		animation-direction: alternate-reverse;
		transform-origin: bottom;
		transform-box: fill-box;
		}
		#girlFace path{
			animation-name:animateHead;
		animation-duration: 5s;
		animation-iteration-count: infinite;
		animation-direction: alternate-reverse;
		transform-box: fill-box;
		transform-origin: center;
		}

</style>
<title>farmer-feeling depressed_1</title>
<path id="background" class="st0" d="M549.8,156.3c-7.3,2.3-13.7,8.2-20,13.7c-50.4,43.6-113,63.3-171.5,67.6c-24.8,1.9-56.1,5.7-68.9,31.2
	c-6.9,13.7-5.1,28.5-6.2,42.9c-2.2,30.1-18.3,61.7-42.1,82.8c-27.1,24-65.2,37.4-79.7,70.7c-8.9,20.5-5.4,42-1.2,61.4
	c6.7,30.2,14.7,59.8,24,88.7c6.3,19.4,13.6,39.1,28.2,51.2c12.9,10.7,30.2,14.6,47,18.2c14.7,3.2,29.8,6.3,45.8,3.1
	c10.4-2.1,20.8-6.8,31.1-7.3c24.1-1.1,38.7,20.6,52.9,38.3c33.6,41.8,81.9,69,136.2,77c83.3,12.2,176-19.9,260.8-12.5
	c36.4,3.2,71.2,13.6,108.7,11.1c21.5-1.6,42.6-6.9,62.2-15.7c39.2-17.2,75.8-48.6,99.3-87.9c23.4-39.4,32.9-86.5,22.8-125.2
	c-10.8-41.3-41.5-69.2-62.3-104.1c-21.5-36-32.4-79.7-52.9-116.5c-33.6-60.3-93.1-100-161.8-108c-46.6-5.4-110.8,13.2-150.7-10
	C623.3,210.3,589.8,143.8,549.8,156.3z"/>
<g>
	<g id="flower2">
		<path class="st1" d="M1054.5,655.1c0,0,17.5,34.3,3.2,53.1s1.3,70,1.3,70"/>
		<path class="st2" d="M1059.7,644.4c0,6.6-4.9,12-4.9,12s-4.9-5.4-4.9-12s4.9-12,4.9-12S1059.7,637.8,1059.7,644.4z"/>
		<path class="st1" d="M1063.6,655.1c0,0-17.5,34.3-3.2,53.1s-1.3,70-1.3,70"/>
		<path class="st2" d="M1058.4,644.4c0,6.6,4.9,12,4.9,12s4.9-5.4,4.9-12s-4.9-12-4.9-12S1058.4,637.8,1058.4,644.4z"/>
		<path class="st3" d="M1058.4,644.4c0,6.6,4.9,12,4.9,12s4.9-5.4,4.9-12s-4.9-12-4.9-12S1058.4,637.8,1058.4,644.4z"/>
		<path class="st1" d="M1070.7,655.1c0,0,17.5,34.3,3.2,53.1s1.3,70,1.3,70"/>
		<path class="st2" d="M1075.9,644.4c0,6.6-4.9,12-4.9,12s-4.9-5.4-4.9-12s4.9-12,4.9-12S1075.9,637.8,1075.9,644.4z"/>
		<path class="st2" d="M1073.2,671.9c-4.6,4.8-11.8,5.3-11.8,5.3s0.2-7.2,4.8-12s11.8-5.3,11.8-5.3S1077.7,667.1,1073.2,671.9z"/>
		<path class="st2" d="M1073.6,695.6c-4.6,4.8-11.8,5.3-11.8,5.3s0.2-7.2,4.8-12s11.9-5.3,11.9-5.3S1078.2,690.8,1073.6,695.6z"/>
		<path class="st2" d="M1048.7,708.6c4.3,5,4.2,12.2,4.2,12.2s-7.2-0.9-11.5-5.9c-4.3-5-4.2-12.2-4.2-12.2
			S1044.4,703.6,1048.7,708.6z"/>
		<path class="st2" d="M1052.7,658.1c5.5,3.7,7.3,10.7,7.3,10.7s-7.2,1.1-12.7-2.6c-5.5-3.7-7.3-10.7-7.3-10.7
			S1047.2,654.5,1052.7,658.1z"/>
		<path class="st3" d="M1052.7,658.1c5.5,3.7,7.3,10.7,7.3,10.7s-7.2,1.1-12.7-2.6c-5.5-3.7-7.3-10.7-7.3-10.7
			S1047.2,654.5,1052.7,658.1z"/>
		<path class="st1" d="M1079.8,655.1c0,0-17.5,34.3-3.2,53.1s-1.3,70-1.3,70"/>
		<path class="st2" d="M1074.6,644.4c0,6.6,4.9,12,4.9,12s4.9-5.4,4.9-12s-4.9-12-4.9-12S1074.6,637.8,1074.6,644.4z"/>
		<path class="st3" d="M1074.6,644.4c0,6.6,4.9,12,4.9,12s4.9-5.4,4.9-12s-4.9-12-4.9-12S1074.6,637.8,1074.6,644.4z"/>
		<path class="st2" d="M1076,672.4c-4.7,4.7-5,12-5,12s7.2-0.4,11.9-5.1s5-12,5-12S1080.6,667.7,1076,672.4z"/>
		<path class="st3" d="M1076,672.4c-4.7,4.7-5,12-5,12s7.2-0.4,11.9-5.1s5-12,5-12S1080.6,667.7,1076,672.4z"/>
		<path class="st2" d="M1085.1,705.2c-4.7,4.7-5,12-5,12s7.2-0.4,11.9-5.1s5-12,5-12S1089.7,700.5,1085.1,705.2z"/>
		<path class="st1" d="M1071.7,698c0,0,10.5-16.6,25.3-17"/>
		<path class="st1" d="M1063.5,688c0,0-10.5-16.6-25.3-17"/>
		<path class="st1" d="M1062.1,711.7c0,0,10.5-16.6,25.3-17"/>
		<circle class="st2" cx="1096.5" cy="680.9" r="2.7"/>
		<circle class="st2" cx="1038.4" cy="671.1" r="2.7"/>
		<path class="st1" d="M1069.9,717.2c0,0-10.5-16.6-25.3-17"/>
		<circle class="st2" cx="1044.8" cy="700.3" r="2.7"/>
		<circle class="st2" cx="1087.7" cy="694.8" r="2.7"/>
		<path class="st4" d="M1038.4,775.4c28.8,5.1,67.7,6.8,76.1,3.4c6.4-2.6,10.9-15,12.7-20.7l0.8,0.2c0,0-5.1,20.3-13.5,23.7
			s-47.4,1.7-76.2-3.4c-8.3-1.5-10.7-4.9-9.8-9.3C1029.3,772.2,1032.2,774.4,1038.4,775.4z"/>
	</g>
	<path class="st5" d="M1128.3,759.7c0,0-25.4-5.1-32.2-11.8s-37.2-18.6-40.6-10.2s-45.7,37.2-16.9,42.3c28.8,5.1,67.7,6.8,76.1,3.4
		S1128.3,759.7,1128.3,759.7z"/>
</g>
<g>
	<path class="st2" d="M284.3,656.5c0,0,11.3,14.9-5.2,37.1c-16.5,22.3-30.2,41.2-24.7,55.2c0,0,25-41.5,45.3-42.1
		C320,706.2,306.6,681.5,284.3,656.5z"/>
	<path class="st3" d="M284.3,656.5c1,1.4,1.8,3,2.3,4.6c19.8,23.3,30.4,45,11.3,45.6c-17.8,0.5-39,32.2-44.1,40.3
		c0.2,0.6,0.4,1.2,0.6,1.8c0,0,25-41.5,45.3-42.1C320,706.1,306.6,681.5,284.3,656.5z"/>
	<path class="st6" d="M305.3,675.4c0,5.2-0.6,9.5-1.4,9.5c-0.8,0-1.4-4.2-1.4-9.5s0.7-2.7,1.4-2.7S305.3,670.2,305.3,675.4z"/>
	<path class="st6" d="M312.5,681.6c-4.6,2.5-8.6,4.1-8.9,3.4c-0.3-0.7,3.1-3.2,7.7-5.7c4.6-2.5,2.8-0.7,3.1,0
		C314.8,680,317.1,679.1,312.5,681.6z"/>
	<path class="st2" d="M224.5,656.5c0,0-11.3,14.9,5.2,37.1s30.2,41.2,24.7,55.2c0,0-25-41.5-45.3-42.1
		C188.8,706.2,202.1,681.5,224.5,656.5z"/>
	<path class="st3" d="M224.5,656.5c-1,1.4-1.7,3-2.2,4.6c-19.8,23.3-30.4,45-11.3,45.6c17.8,0.5,39,32.2,44.1,40.3
		c-0.2,0.6-0.4,1.2-0.6,1.8c0,0-25-41.5-45.3-42.1S202.1,681.5,224.5,656.5z"/>
	<path class="st6" d="M203.4,675.4c0,5.2,0.6,9.5,1.4,9.5c0.8,0,1.4-4.2,1.4-9.5s-0.7-2.7-1.4-2.7S203.4,670.2,203.4,675.4z"/>
	<path class="st6" d="M196.2,681.6c4.6,2.5,8.6,4.1,8.9,3.4c0.3-0.7-3.1-3.2-7.7-5.7c-4.6-2.5-2.8-0.7-3.1,0
		S191.6,679.1,196.2,681.6z"/>
	<path class="st5" d="M207,746.9c0,0,31.7-1,41.2-7.8c9.5-6.8,48.6-14.9,51-4.1c2.4,10.8,47.6,54.2,11.8,54.5s-83-5.6-92.5-11.4
		S207,746.9,207,746.9z"/>
	<path class="st4" d="M311.7,785.8c-35.7,0.3-83-5.6-92.5-11.4c-7.3-4.4-10.1-20.3-11.1-27.6H207c0,0,2,25.5,11.5,31.3
		c9.5,5.8,56.8,11.7,92.5,11.4c10.3-0.1,13.9-3.8,13.7-9.2C323.4,783.7,319.5,785.7,311.7,785.8z"/>
</g>
<g>
	<path class="st7" d="M844.3,728.6c-0.8,13-3.7,26.7-12.3,23.3c-2.4-1-4.7-2.4-6.8-4c-15.6-11.5-35.9-39.7-35.9-39.7
		s-0.5,14.7-1.4,19s-2.4,17.6-2.4,17.6h-17.6c0,0-1-17.1-5.2-54.1s29.9-22.8,29.9-22.8l31.9,24.6l19.9,15.3c0,0,0.2,2.9,0.3,7.3
		C844.6,718.8,844.6,723.6,844.3,728.6z"/>
	<path class="st8" d="M844.3,728.6c-0.8,13-3.7,26.7-12.3,23.3c-2.4-1-4.7-2.4-6.8-4c-15.6-11.5-35.9-39.7-35.9-39.7
		s-0.5,14.7-1.4,19c-0.7,3.1-1.6,10.7-2.1,14.8c-0.2,1.7-0.3,2.7-0.3,2.7h-17.6c0,0,0-0.7-0.1-2c-0.4-5.5-1.7-22.4-5.1-52.1
		c-4.3-37,29.9-22.8,29.9-22.8l31.9,24.6l19.9,15.3c0,0,0.2,2.9,0.3,7.3C844.6,718.8,844.6,723.6,844.3,728.6z"/>
	<path class="st3" d="M785.8,742c-0.2,1.7-0.3,2.7-0.3,2.7h-17.6c0,0,0-0.7-0.1-2l17.5-0.8C785.4,741.9,785.6,742,785.8,742z"/>
	<path class="st9" d="M787.3,765.2l-30.3,5.7c1.2-1.3,2.2-2.8,3-4.4c3.5-6.9,4.3-16.4,4.5-20.5c0-1.2,1-2.2,2.2-2.2l18.6-0.8
		c0.8,0,1.6,0.6,1.6,1.5c0,0,0,0,0,0.1l0.3,16.5L787.3,765.2z"/>
	<path class="st3" d="M787.3,765.2l-30.3,5.7c1.2-1.3,2.2-2.8,3-4.4c8.2-0.5,17.8-2.7,27.3-5.5L787.3,765.2z"/>
	<path class="st8" d="M867.6,801.7c0,0-44.6,9.5-78.3,6.7c-17.7-1.4-35.6,0.3-52.8,5.1c-7.3,2.1-15.2,0.9-21.7-3.2
		c-17.8-11.5-1.5-28.5-1.5-28.5s16.6-14.2,43.2-14.2c21.4,0,56-14.1,68.7-19.7c3.1-1.3,4.9-2.2,4.9-2.2l2-24.3l0.9-10.9l11.6,4.4
		l54.8,20.8l2.7,11.2l0.6,2.5C910.8,797,867.6,801.7,867.6,801.7z"/>
	<path class="st3" d="M902.7,749.5l-0.6-2.5l-2.7-11.3l-1.7-0.7l2.1,8.6l0.6,2.5c8.1,47.5-35.1,52.2-35.1,52.2s-44.6,9.5-78.3,6.7
		c-17.7-1.4-35.6,0.3-52.8,5.1c-7.3,2.1-15.2,0.9-21.7-3.2c-1.6-1-3.1-2.3-4.4-3.7c1.6,2.9,3.9,5.3,6.8,7c6.4,4.1,14.3,5.3,21.7,3.2
		c17.2-4.7,35-6.4,52.8-5.1c33.7,2.8,78.3-6.7,78.3-6.7S910.8,797,902.7,749.5z"/>
	<path class="st10" d="M815.8,661.7l-43.2-5.7c0,0-25.2,0.5-19.9,19.9c7.9-3.3,15.3-7.4,22.3-12.3l29.4,10.9L815.8,661.7z"/>
	<path class="st11" d="M815.8,661.7l-11.4,12.8l-15.2-5.7l-14.2-5.3c-2.5,1.8-4.9,3.3-7.2,4.7c-4.8,2.9-9.9,5.5-15.1,7.6
		c-3.8-14.4,9-18.4,15.9-19.5c1.4-0.2,2.7-0.4,4.1-0.4l17.4,2.3L815.8,661.7z"/>
	<path class="st3" d="M902.1,747c-9.8,6-36,17.4-56.8-17.5c0,0-0.3-0.4-1-1c-3.5-3.3-7.7-5.8-12.3-7.1c-2.8-0.8-5.7-1.1-8.6-0.9
		c0.8-6.1,1.2-12.2,1.3-18.4c0-3.1,0-6.4-0.3-9.7l19.9,15.3c0,0,0.2,2.9,0.3,7.3l54.8,20.8L902.1,747z"/>
	<path class="st10" d="M898.5,613.4h-0.2l-31.1-0.7l-15.6,3.5c0,0,0.8-1.6,1.9-4.4c4.2-10.3,13.5-36.2,8.8-53.6
		C856.3,536,888,563,888,563c-3.8,15-1.6,30.9,6.2,44.2c1.2,1.9,2.4,3.8,3.8,5.6L898.5,613.4z"/>
	<g id="girlFace">
		
			<ellipse transform="matrix(0.1922 -0.9814 0.9814 0.1922 172.4093 1297.9944)" class="st11" cx="874.6" cy="544.3" rx="28" ry="28"/>
		<path class="st12" d="M953.2,674.8c-0.6-2.8-2.2-5.2-3.4-7.8c-4.1-8.9-3.2-19.4-0.6-28.9c2.6-9.5,6.6-18.6,8.5-28.3
			c1.9-9.7,1.4-20.4-4.5-28.3c-4.7-6.3-12.1-10.1-17.3-15.9c-2.3-2.8-4.4-5.9-6.3-9c-3-4.6-6.4-9-10-13.1c0.1-1.2-0.2-2.4-0.9-3.4
			c-0.9-0.8-1.9-1.6-2.9-2.3c-2.1-1.8-2.3-4.9-2.7-7.6c-1.9-12.4-9.5-23.3-20.5-29.3c-6.1-3.3-13.4-5-20.2-3.4s-12.6,6.4-16.8,12.1
			c-2.9,4-9.6,13-9.2,18.2c0.4,4.6,5.6,7.1,10.2,8c1.2,1.7,2.5,3.4,3.5,5c1.5,2.1,2.7,4.5,3.5,6.9c2,6.3-0.2,13-1.7,19.4
			c-1.6,6.4-2.2,13.9,2,18.9c1.2,1.3,2.6,2.5,4,3.7c10,8.7,14,22.5,15.4,35.7c1.4,13.2,0.6,26.7,3.3,39.7c2.7,13,9.6,26.1,21.7,31.6
			c10.5,4.8,23.3,2.8,33.3-2.9C948.4,689.7,954.9,682.6,953.2,674.8z"/>
	</g>
	<path class="st3" d="M886.9,589.5l-30.7,3.8l-14.7,4.8c0,0,0.5-1.3,1.1-3.5l0.7-0.7c4.7-4.6,10.5-8.4,16.9-9c2-0.2,4-0.5,6-1
		c5.2-1.5,10.8-0.9,15.6,1.7c1.7,1,3.3,2.2,4.8,3.7L886.9,589.5z"/>
	<path class="st13" d="M906,728.1l1,14.2c0,0-34.6,29-60.8-14.7c0,0-8.5-10-21.8-9c0.8-6.1,1.2-12.2,1.3-18.4
		c0.1-6.2-0.3-12.5-1.3-18.6c-1.8-10.5,0.8-34.9,2.9-51.4c0.2-1.5,0.4-3.1,0.6-4.5c1.5-11.7,6.9-22.6,15.4-30.9
		c4.7-4.6,10.5-8.4,16.9-9c2-0.2,4-0.5,6-1c5.7-1.5,18.7-2.7,26.7,14.7c10.4,22.8,11.4,30.4,11.4,30.4s19.6,34.3,7.6,48.4
		C898.7,693.7,906,728.1,906,728.1z"/>
	<path class="st3" d="M790,658.3l-0.8,10.6l-14.2-5.2c-2.5,1.8-4.9,3.3-7.2,4.7c-0.5-3.1-0.4-6.3,0.1-9.5c0.1-0.8,0.4-1.6,0.7-2.4
		c1.4-0.2,2.7-0.4,4.1-0.4L790,658.3z"/>
	<path class="st11" d="M798.7,697.3l-9.2-4.5l-7.4-3.6l-9.5-8.5c0,0-8.1-7.6-5.7-21.8s22.3-2.8,22.3-2.8l-1.5,18.5
		c0.9,1.3,2.1,2.3,3.6,2.8c1.4,0.5,2.9,0.9,4.5,1L798.7,697.3z"/>
	<path class="st3" d="M858.1,662.6c-8.4,12.9-21.3,30.6-32.4,37.7c0.1-6.2-0.3-12.5-1.3-18.6c-1.8-10.5,0.8-34.9,2.9-51.4
		c4-8.5,7.5-15.1,7.5-15.1s16.4-12.8,26.2,8.3C866.9,636.1,865.8,650.9,858.1,662.6z"/>
	<path class="st3" d="M798.7,697.3l-9.2-4.5c-1.4-5-1.7-10.8,1.9-15.5c1.4,0.5,2.9,0.9,4.5,1L798.7,697.3z"/>
	<path class="st13" d="M859.2,621.5c5.8,12.7,4.7,27.5-3,39.1c-10,15.3-26.2,37.4-38.5,40.5c-19,4.8-21.4,3.8-21.4,3.8
		s-13.7-18.5-2.3-29.4c0,0,17.6-6.2,20.9-20.4s18-41.8,18-41.8S849.3,600.5,859.2,621.5z"/>
	<path class="st3" d="M829.8,745.5c0,0-1.4,4.8,10.4,9.5s19,19.9,19,19.9"/>
	<g class="st14">
		<polygon points="760,767.7 759.8,767.3 763.7,765.1 761.7,762.4 765.2,760.8 763.1,757.8 765.7,756.1 763.8,753.6 767,751.8 
			764.4,748.5 767.5,746.7 767.8,747.1 765.2,748.6 767.8,752 764.5,753.7 766.3,756.2 763.7,757.9 765.9,761 762.5,762.6 
			764.4,765.2 		"/>
		<polygon points="763.1,767.4 760.6,765.4 763.8,762.3 762.5,760.3 765.2,758 763.6,755 765.7,753.7 764.2,751.2 767.1,749 
			764.8,746.5 765.1,746.1 767.8,749.1 764.8,751.3 766.3,753.8 764.3,755.2 765.8,758.1 763.1,760.4 764.4,762.3 761.3,765.3 
			763.4,767 		"/>
	</g>
</g>
<g id="flower1">
	<path class="st2" d="M363.5,413.6c3.7,3.2,8.5,19.1,8.5,19.1s-16.4-2.6-20.1-5.9c-3.9-2.9-4.7-8.5-1.8-12.4
		c2.9-3.9,8.5-4.7,12.4-1.8C362.9,413,363.2,413.3,363.5,413.6L363.5,413.6z"/>
	<path class="st2" d="M398.4,423.8c1.3,4.7-3.3,20.7-3.3,20.7s-12.4-11.2-13.7-15.9c-1.5-4.6,1.1-9.6,5.7-11.1
		c4.6-1.5,9.6,1.1,11.1,5.7C398.3,423.4,398.3,423.6,398.4,423.8L398.4,423.8z"/>
	<path class="st2" d="M421,446c-1.2,4.7-13.2,16.2-13.2,16.2s-5-15.9-3.8-20.6c1.5-4.6,6.6-7.1,11.2-5.6
		C419.3,437.4,421.9,441.7,421,446L421,446z"/>
	<path class="st2" d="M380.4,462.1c4.8-0.4,18.2-10.4,18.2-10.4s-14.8-7.6-19.6-7.2c-4.9,0.1-8.7,4.2-8.6,9.1
		c0.1,4.9,4.2,8.7,9.1,8.6C379.8,462.1,380.1,462.1,380.4,462.1L380.4,462.1z"/>
	<path class="st2" d="M397.2,484.3c4.5-1.8,14.3-15.3,14.3-15.3s-16.4-2.9-20.9-1c-4.4,2.2-6.1,7.5-3.9,11.9
		C388.6,483.7,393.1,485.6,397.2,484.3L397.2,484.3z"/>
</g>
<g>
	<path class="st15" d="M553.6,554.3l-4.1,20.7l-5.5,28.2l-6.7,36.8c0,0-3.3,20.9,0,25.5s-7.1,67.7-7.1,67.7l-4,28.9l-0.6,4.5
		l-19.6,2.1c0,0,0.5-3.2,1.1-7.8c1.1-9.6,2.3-25.6-1.1-31.5c-3.5-6.1-2.1-36.8-1-54.8c0.7-10.2-0.2-20.5-2.6-30.5
		c-0.5-2-1-4-1.5-5.7c-1.5-5.4,0.9-34.8,3-56.5c1.3-13.5,2.5-24.2,2.5-24.2L553.6,554.3z"/>
	<path class="st16" d="M516.4,758.3c0,0,9.6,1.7,12.5,8.4c0,0,1.7,10,7.5,17.6l0.2,0.2c2.8,3.7,2.1,9-1.6,11.9
		c-1.5,1.1-3.3,1.7-5.2,1.7H514c-2.7,0-5.2-1.3-6.8-3.5l-3.9-5.3c-1.7-2.3-2.2-5.3-1.3-8c1.4-4.3,3.4-11.1,3.6-16.3
		c0.1-1.6,1-3.1,2.4-3.8C510.7,759.6,514.8,757.7,516.4,758.3z"/>
	<path class="st2" d="M457.7,484.1c-0.4,4.8-10.3,18.2-10.3,18.2s-7.6-14.8-7.2-19.6c0.8-4.8,5.3-8.1,10.1-7.3
		C454.6,476,457.8,479.7,457.7,484.1L457.7,484.1z"/>
	<path class="st2" d="M441.1,522.7c4.8-1,16.7-12.7,16.7-12.7s-15.7-5.6-20.4-4.5c-4.7,1.4-7.4,6.3-6,11
		C432.5,520.7,436.7,523.4,441.1,522.7L441.1,522.7z"/>
	<path class="st17" d="M457.7,484.1c-0.4,4.8-10.3,18.2-10.3,18.2s-7.6-14.8-7.2-19.6c0.8-4.8,5.3-8.1,10.1-7.3
		C454.6,476,457.8,479.7,457.7,484.1L457.7,484.1z"/>
	<path class="st17" d="M441.1,522.7c4.8-1,16.7-12.7,16.7-12.7s-15.7-5.6-20.4-4.5c-4.7,1.4-7.4,6.3-6,11
		C432.5,520.7,436.7,523.4,441.1,522.7L441.1,522.7z"/>
	<path class="st15" d="M493.4,638.7c-0.6,2.1-1.2,4.4-1.7,6.8c-2.2,9.5-3,19.2-2.4,28.9c1.2,18,2.6,49.2-0.9,55.4
		c-3.4,6-2.2,21.9-1,31.6c0.5,4.6,1,7.7,1,7.7l-19.6-2.1l-0.6-4.5l-4-28.9c0,0-10.5-63.1-7.1-67.7s0-25.5,0-25.5l-6.7-36.8
		l-4.5-22.7l-5.1-26.2l47.3,3.4c0,0,0.9,8.3,2,19.7C492.2,599.7,495.1,632.9,493.4,638.7z"/>
	<circle class="st18" cx="501.4" cy="255.9" r="18"/>
	<path class="st18" d="M513.7,239.5c-0.4-0.2-0.7-0.4-1.1-0.6c8.2,5.6,10.4,16.8,4.8,25c-4.9,7.3-14.4,9.9-22.4,6.3
		c0.4,0.2,0.7,0.5,1.1,0.7c8.2,5.6,19.4,3.5,25-4.8s3.5-19.4-4.8-25c-0.5-0.4-1.1-0.7-1.7-1C514.4,239.9,514,239.7,513.7,239.5
		L513.7,239.5z"/>
	<path class="st18" d="M543.4,317.6c0.3-0.3,0.7-0.5,1-0.8c-8.4,5.3-19.5,2.8-24.8-5.6c-4.7-7.5-3.3-17.3,3.4-23.1
		c-0.3,0.2-0.7,0.5-1,0.7c-8.3,5.5-10.5,16.7-5,25c5.5,8.3,16.7,10.5,25,5C542.5,318.3,543,318,543.4,317.6L543.4,317.6z"/>
	<path class="st18" d="M497,299.2c0.3-0.3,0.7-0.5,1-0.8c-8.5,5.1-19.6,2.4-24.7-6.1c-4.5-7.4-3.1-16.9,3.4-22.7
		c-0.4,0.2-0.7,0.5-1,0.7c-7.5,6.5-8.3,17.9-1.8,25.4C479.6,302.4,489.5,303.9,497,299.2L497,299.2z"/>
	<circle class="st18" cx="499.3" cy="296.4" r="33"/>
	<path class="st15" d="M564.5,544.3c-5.8,1.7-16.7-25.1-16.7-25.1l-20.9-63.5l0.7-22.1l1.4-48.1l-62.3,1.7c0,0-11.7,30.1-15.9,38.5
		c-0.9,2-1.4,4.1-1.7,6.3c-2.2,13.5-1.6,39.7-1.6,39.7l-4.6,44.7c0,0-0.4,22.2-7.9,18s-8.4-21.7-8.4-21.7l2.8-71.9
		c0,0,0-0.9-0.1-2.5c-0.3-8.8-1.1-39.2,1.4-61.9c0.2-1.8,0.4-3.4,0.6-5c2.7-22,5.8-23.7,30.4-27.6c14-2.2,19.5-9.8,21.6-16.4
		c1.1-3.5,1.4-7.2,1-10.8c0,0,28.4-22.1,25.1,4.6c-0.4,3.2-0.2,6.4,0.6,9.5c3.4,12.5,17.2,17.7,25.5,19.8
		c11,2.7,18.4,12.9,17.7,24.2v0.2c-0.2,2.8-0.7,5.5-1.5,8.2c0,0,0.4,15.5-0.8,25.1c-0.6,4.6-0.4,15.6-0.1,25.7
		c0.4,11,0.9,21.1,0.9,21.1l9.6,63.5C561.1,518.4,570.3,542.6,564.5,544.3z"/>
	<path class="st3" d="M509.9,330.5c-8.8,3.6-18.9,2.3-26.6-3.3c1.1-3.5,1.4-7.2,1-10.8c0,0,28.4-22.1,25.1,4.6
		C508.9,324.2,509.1,327.5,509.9,330.5z"/>
	<circle class="st15" cx="499.5" cy="304.1" r="27.6"/>
	<path class="st16" d="M478,758.7c0,0-9.6,1.7-12.5,8.4c0,0-1.7,10-7.5,17.6l-0.2,0.2c-2.8,3.7-2.1,9,1.7,11.9
		c1.5,1.1,3.3,1.7,5.1,1.7h15.9c2.7,0,5.2-1.3,6.8-3.5l4.4-6c1.4-1.9,1.8-4.3,1-6.5c-1.4-4.2-3.6-11.4-3.8-16.9
		c-0.1-1.8-1.1-3.3-2.6-4.2C483.5,760,479.5,758.1,478,758.7z"/>
	<path class="st19" d="M445.3,418.5c0,0,15.5,23,0,53.5s-28.8,94-28.8,94s14.2-1.3,18,8.4s33-0.8,36,0s21.3-1.3,31.8,4.2
		s30.9-0.4,35.1-4.2s29.3-0.8,29.3-0.8s-13.4-97.8-32.2-114.5c0,0-11.3-13.8,2.9-36.8S445.3,418.5,445.3,418.5z"/>
	<path class="st3" d="M551.5,382.9c0,0,0.4,15.5-0.8,25.1c-0.6,4.6-0.4,15.6-0.1,25.7c-5.8-0.7-11.7-0.7-17.5,0.2
		c-1.9,0.2-3.8,0-5.6-0.4c-6.9-1.3-17.3-4.7-20.3-8.4c-4.2-5-17.6,3.3-20.5,5.4s-20.5,2.9-25.1,0.8c-3.1-1.4-7.8-1.5-12.6,0.5
		c-2.4,1-4.7,2.4-6.7,4.1c-3.4,3-8.7,2.9-13.1,2.1c-0.3-8.8-1.1-39.2,1.4-61.9c0.2-1.8,0.4-3.4,0.6-5c17.6-2,65.1-1.3,65.1-1.3
		s41,0.9,56.7,4.8C552.9,377.5,552.4,380.3,551.5,382.9z"/>
	<ellipse class="st3" cx="501.1" cy="285.1" rx="25.3" ry="14.6"/>
	<ellipse class="st18" cx="501.1" cy="284.3" rx="25.3" ry="14.6"/>
	<path class="st3" d="M453.5,348c0.8,0,22.6,0,26.3-0.8"/>
	<path class="st3" d="M516.6,352.2c10.9,0,13.4,0,17.1-0.8"/>
	<path class="st20" d="M482.7,367.4c0,0,11,5.8,11.5,11.6c0,0,4.1-10.9,9.9-11.4"/>
	<path class="st3" d="M529.9,796.9H514c-2.7,0-5.2-1.3-6.8-3.5l-3.9-5.3c-1-1.4-1.6-3-1.7-4.6c-0.2,2.1,0.4,4.2,1.7,5.9l3.9,5.3
		c1.6,2.2,4.1,3.5,6.8,3.5h15.9c4.7,0,8.5-3.8,8.5-8.5c0,0,0,0,0,0c0-0.2,0-0.4,0-0.7C538,793.5,534.3,796.9,529.9,796.9z"/>
	<g class="st21">
		<path d="M534.4,459c0,0-11.3-13.8,2.9-36.8c3.8-6.1-1-9.2-9.9-10.5c1.5,1.7,1.7,3.9-0.1,6.8c-14.2,23-2.9,36.8-2.9,36.8
			c18.8,16.7,32.2,114.5,32.2,114.5s-25.1-2.9-29.3,0.8s-24.7,9.6-35.1,4.2s-28.8-3.3-31.8-4.2c-2-0.6-15.8,4-25.8,4.1
			c4.3,9,32.9-1.2,35.8-0.3s21.3-1.3,31.8,4.2s30.9-0.4,35.1-4.2s29.3-0.8,29.3-0.8S553.2,475.7,534.4,459z"/>
		<path d="M417,563.7c-0.3,1.5-0.5,2.3-0.5,2.3c1.6-0.1,3.1-0.1,4.7,0.1C420,565.1,418.5,564.3,417,563.7z"/>
	</g>
	<path class="st19" d="M496.3,370.8c0,0-58.9-0.8-69.8,2.1s-4.6,64-4.6,64s13.8,5.9,20.5,0s14.6-6.7,19.2-4.6s22.1,1.3,25.1-0.8
		S503,421,507.2,426s22.1,9.6,25.9,8.8s24.7-2.1,27.6,4.6c0,0,3.3-55.6-2.1-61.4S496.3,370.8,496.3,370.8z"/>
</g>
</svg>
