<?xml version="1.0" encoding="utf-8"?>
<!-- Generator: Adobe Illustrator 21.1.0, SVG Export Plug-In . SVG Version: 6.00 Build 0)  -->
<svg version="1.1" id="d000d172-d3f6-4067-9bff-b7a6a8e5b081"
	 xmlns="http://www.w3.org/2000/svg" xmlns:xlink="http://www.w3.org/1999/xlink" x="0px" y="0px" viewBox="0 0 1161.1 712.4"
	 style="enable-background:new 0 0 1161.1 712.4;" xml:space="preserve">
<style type="text/css">


@keyframes  animateGirFace{
		
		0%{
			transform: rotateZ(0deg) scale(1);
		}
	100%{
	    transform: rotateZ(-15deg) scale(0.98);
	}
	
	
	}


	@keyframes  flower1{
		
		0%{
			transform: rotateZ(-5deg) scale(1.05);
		}
	100%{
	    transform: rotateZ(10deg) scale(0.95);
	}
	
	
	}

	@keyframes  flower2{
		
		0%{
			transform: rotateZ(10deg) scale(1.05);
		}
	100%{
	    transform: rotateZ(-10deg) scale(0.95);
	}
	
	
	}
	.st0{fill:#FAFAFC;}
	.st1{opacity:0.1;fill:#6C63FF;enable-background:new    ;}
	.st2{fill:#FFFFFF;}
	.st3{fill:#D0D0DB;}
	.st4{fill:#95B6F0;}
	.st5{fill:#112D35;}
	.st6{fill:#5F546F;}
	.st7{opacity:5.000000e-02;enable-background:new    ;}
	.st8{fill:#CCCCD8;}
	.st9{opacity:0.1;enable-background:new    ;}
	.st10{opacity:0.1;fill:#FFFFFF;enable-background:new    ;}
	.st11{fill:#0B252E;}
	.st12{fill:#F7AAAA;}
	.st13{fill:#6C63FF;}
	.st14{fill:#5C5CF7;}
	.st15{opacity:0.1;}
	.st16{fill:#AEA4B2;}
	.st17{fill:#FFC4D0;}
	.st18{fill:#575989;}
	.st19{fill:#D62929;}
	.st20{fill:none;}
	.st21{fill:#EA3333;}
	.st22{fill:#D4DFEC;}
	.st23{fill:#444053;}
	.st24{fill:#171726;}


	#background{
	animation-name:animateGirFace;
	animation-duration: 8s;
	animation-iteration-count: infinite;
    animation-direction: alternate-reverse;
	transform-origin: center;
	}


	#flower1{
	animation-name:flower1;
	animation-duration: 8s;
	animation-iteration-count: infinite;
    animation-direction: alternate;
	transform-origin: bottom;
	    transform-box: fill-box;
	}

	#flower2{
	animation-name:flower2;
	animation-duration: 8s;
	animation-iteration-count: infinite;
    animation-direction: alternate;
	transform-origin: bottom;
	    transform-box: fill-box;
	}
</style>
<path id="background" class="st0" d="M515.1-4.1c-8.4-1.1-16.9,1.3-23.5,6.5c-3.4,2.7-6.6,5.6-9.9,8.5C424,61.8,352.8,85.2,286.4,91
	c-28.2,2.5-73.9,12.4-88.7,42c-8,15.9,4,27.8,2.6,44.3c-2.9,34.6-21.5,71.3-48.8,95.9c-31.1,28-74.4,43.9-91.4,82.5
	c-10.4,23.7-6.7,48.5-2.1,70.7c7.1,34.7,15.7,68.6,26,101.7c6.9,22.2,14.9,44.8,31.3,58.6c14.5,12.2,34,16.4,53.1,20.3
	c16.6,3.4,33.8,6.9,51.8,3c11.8-2.5,23.7-8.2,35.3-8.9c27.3-1.6,43.6,23.2,59.5,43.4c37.6,47.6,99.3,51.5,160.8,60
	c94.3,13,192.4,1.6,288.4,9c41.3,3.2,92.9-28.2,135.5-31.6c24.4-2.1,48.3-8.5,70.8-18.9c44.7-20.4,74.2-14,101.3-59.6
	c27.1-45.7,38.5-100.1,27.5-144.5c-11.7-47.5-46.1-79.2-69.2-119.1c-23.9-41.2-4.2-75.9-26.9-118.1c-37.3-69-99.3-108.5-177.1-116.8
	c-52.8-5.6-135.7,0.8-180.6-25.4C615.2,61.9,579.4,4.5,515.1-4.1z"/>
<title>conversation</title>
<g>
	<path class="st1" d="M618,464.2V337.4h34.9c-0.3-0.3-0.6-0.5-0.9-0.8l-0.3-0.2l-0.5-0.4c-0.3-0.2-0.4-0.4-0.7-0.5l-0.5-0.4
		l-0.6-0.4c-0.3-0.3-0.6-0.5-1-0.7c-0.1-0.1-0.2-0.1-0.3-0.2l0,0l0,0h-30.2v-7c-0.3,0.2-0.5,0.3-0.8,0.4l-0.9,0.5c0,0,0,0-0.1,0
		c-0.1,0.1-0.1,0.1-0.2,0.1l-0.5,0.4c-0.2,0.1-0.4,0.3-0.5,0.4c-0.5,0.4-1.1,0.9-1.6,1.3l-0.5,0.4l-1.1,0.9
		c-1.3,1.3-2.7,2.7-4.1,3.8c-0.4,0.4-0.7,0.6-1.1,0.9c-0.7,0.6-1.5,1.2-2.3,1.8c-0.4,0.3-0.6,0.4-1,0.6l-0.6,0.3l-0.5,0.3l0,0
		c-1.2,0.6-2.5,1.1-3.8,1.4v123.9h-52.5c0,0.2,0.1,0.3,0.1,0.4c0.3,1.1,0.6,2.4,0.9,3.5h51.5V604h0.4h0.4l0.9,0.1l1.7,0.2l2.7,0.3
		c0.4,0,0.8,0.1,1.2,0.2l1.4,0.2h0.2l2.4,0.4c0.2,0,0.4,0.1,0.5,0.1l1.1,0.2l1.6,0.4l0,0l3.9-0.2l0,0l0.5,0.1l0.7,0.2v-138H699v-0.3
		c0-0.1,0-0.2,0-0.3c0.1-1.1,0.2-2.1,0.3-3.3v-0.1L618,464.2z M739.1,464.2h-3.5v1.8v2.2h4.1L739.1,464.2z M699.3,464.2L699.3,464.2
		c-0.1,1.1-0.2,2.2-0.3,3.4c0,0.1,0,0.2,0,0.3v0.3h30.5V468l2.2-3.7L699.3,464.2z M150.6,96.8c-2.3,9.9-1.5,19.6,0.7,29.4V94
		C151.1,95,150.9,95.9,150.6,96.8z M652,336.6c-0.1-1-0.2-2-0.2-3.1h-8.4l0,0c0,0.2,0.1,0.4,0.1,0.5c0.1,0.6,0.2,1.1,0.3,1.8
		c0.1,0.4,0.1,0.8,0.2,1.2l0.1,0.4h8L652,336.6z M587,466.4L587,466.4c-0.6-0.4-1-0.5-1-0.5c1-0.6,1.9-1.1,2.8-1.6H400.6
		c0.1,0.3,0.2,0.6,0.4,0.9c0.1,0.2,0.2,0.4,0.3,0.5c0.1,0.2,0.2,0.4,0.4,0.6c0.2,0.2,0.4,0.7,0.6,1.1c0.3,0.4,0.4,0.5,0.5,0.9h187.4
		C588.7,467.3,587.7,466.7,587,466.4z M346,370.6l0.1,0.3L346,370.6L346,370.6z M345.9,351.6c-0.3,0.4-0.6,0.6-1,0.9
		c0,0,0.4,0.4,0.9,1.1c0,0.1-0.1,0.2-0.1,0.3c0,0.1-0.1,0.3-0.2,0.4l-0.1,0.2c-0.1,0.1-0.1,0.3-0.2,0.4c0,0.1-0.1,0.1-0.1,0.1
		c-0.1,0.2-0.2,0.3-0.3,0.4l-0.2,0.2c-0.1,0.1-0.3,0.3-0.4,0.4l-0.1,0.1H344l0.1,0.1l0.1,0.1c0.7,0.8,1.3,1.7,1.9,2.6v-7.3
		C346,351.4,345.9,351.5,345.9,351.6L345.9,351.6z M585.5,464.2h-27.3c7.2,2.7,18.8,1.8,26.5,0.7l1.5-0.3
		C586,464.5,585.7,464.3,585.5,464.2z M644.5,468.1c-0.1-0.1-0.1-0.2-0.2-0.3s-0.2-0.2-0.2-0.3c-0.3-0.3-0.5-0.5-0.7-0.9
		c-0.1-0.2-0.3-0.4-0.4-0.5c-0.2-0.4-0.4-0.8-0.7-1.3c0-0.1-0.1-0.1-0.1-0.2s-0.2-0.4-0.3-0.5h-24V337.4h26l-0.1-0.4
		c-0.1-0.4-0.1-0.8-0.2-1.2c-0.1-0.5-0.2-1.1-0.3-1.8c0-0.2-0.1-0.4-0.1-0.5l0,0h-25.4V236h-0.1c-0.1,0-0.3,0-0.4,0
		c-0.2,0-0.3,0.1-0.4,0.1l-0.3,0.1l-0.4,0.2l-0.3,0.1c-0.6,0.3-1.4,0.7-2.3,1.1c-1.2,0.6-2.6,1.1-3.9,1.7l-0.8,0.4l-1,0.4
		c-0.6,0.3-1.2,0.4-1.9,0.7c-0.4,0.2-0.8,0.3-1.2,0.4c-0.8,0.3-1.5,0.4-2.3,0.6c-0.4,0.1-0.8,0.2-1.1,0.3c-0.4,0.1-0.8,0.2-1.1,0.3
		c-0.4,0.1-0.8,0.1-1.1,0.2s-0.7,0.1-1.1,0.1v90.9h-252V222.1l-0.5,0.4c-3.2,1.8-7.3,1.4-10.1,3.8c-3.5,3-2.9,8.5-1.7,12.9
		c0.1,0.4,0.3,0.8,0.4,1.1c0,0.1,0.1,0.3,0.1,0.4s0,0,0,0l0,0c0,0.1,0,0.2,0.1,0.3c0.1,0.2,0.1,0.4,0.2,0.6l0.1,0.5l0.1,0.4
		c0,0.1,0,0.1,0,0.2c0,0.2,0,0.3,0.1,0.4c0,0.3,0.1,0.5,0.1,0.8v0.1c-0.3,3.2-2.4,5.9-5.4,7c-0.9,0.3-1.9,0.4-2.8,0.4v82.4h-16.1
		l0.4,3.9h15.6v126.6H298c-0.1,0.6-0.3,1.3-0.4,2c-0.1,0.3-0.2,0.6-0.3,0.9s-0.2,0.7-0.4,1.1h29.4v26.5c0.6,0,1.1,0,1.8,0h1.2
		l1.9-0.1h0.8c1.1-0.1,2.1-0.1,3-0.2l1.1-0.1l0.8-0.1l1.1-0.1h0.3h0.4l0.5,0.1h0.2c0.4,0.1,0.9,0.2,1.6,0.3l0.9,0.1l0.4,0.1l1.3,0.2
		h0.2l2,0.3v-27h252.3v5.7c0.7,0.5,1.4,1.1,2.1,1.7l1.1,0.9c1.3,1.1,2.6,2.2,3.8,3.4l1,1c0.4,0.4,0.8,0.9,1.2,1.2l0.2,0.2
		c0.4,0.4,0.6,0.7,0.9,1.1l0.6,0.7c0.4,0.4,0.7,0.9,1.1,1.3c0.4,0.4,0.7,0.9,1,1.3s0.6,0.9,0.9,1.3s0.6,1.1,0.9,1.7h1.9l0.2,0.4
		c0.1,0.2,0.2,0.3,0.2,0.4c0.3,0.6,0.4,1.1,0.6,1.7c0.1,0.3,0.2,0.4,0.2,0.7c0.1,0.3,0.1,0.4,0.2,0.7c0,0.2,0.1,0.4,0.1,0.6
		s0.1,0.4,0.1,0.6s0.1,0.4,0.1,0.5c0,0.2,0,0.3,0,0.4c0,0.5,0,1,0,1.5c0.4-0.1,0.9-0.2,1.2-0.3v-29L644.5,468.1L644.5,468.1z
		 M346.1,464.2V337.4h252.3v126.8H346.1z M588.8,464.2h-33.4c0.8,0.4,1.6,0.7,2.1,1c7,3.5,19.7,2.6,28,1.4l1.5-0.3
		c-0.6-0.4-1-0.5-1-0.5C587,465.2,587.9,464.7,588.8,464.2z M183.7,464.2c0.8,1.3,1.7,2.7,2.6,3.9h111c0.1-0.4,0.3-0.7,0.4-1.1
		s0.2-0.6,0.3-0.9c0.2-0.7,0.3-1.3,0.4-2L183.7,464.2z M585.5,464.2h-27.3c7.2,2.7,18.8,1.8,26.5,0.7l1.5-0.3
		C586,464.5,585.7,464.3,585.5,464.2z M183.7,464.2c0.8,1.3,1.7,2.7,2.6,3.9h111c0.1-0.4,0.3-0.7,0.4-1.1s0.2-0.6,0.3-0.9
		c0.2-0.7,0.3-1.3,0.4-2L183.7,464.2z M644.5,468.1c-0.1-0.1-0.1-0.2-0.2-0.3s-0.2-0.2-0.2-0.3c-0.3-0.3-0.5-0.5-0.7-0.9
		c-0.1-0.2-0.3-0.4-0.4-0.5c-0.2-0.4-0.4-0.8-0.7-1.3c0-0.1-0.1-0.1-0.1-0.2s-0.2-0.4-0.3-0.5h-24V337.4h26l-0.1-0.4
		c-0.1-0.4-0.1-0.8-0.2-1.2c-0.1-0.5-0.2-1.1-0.3-1.8c0-0.2-0.1-0.4-0.1-0.5l0,0h-25.4V236h-0.1c-0.1,0-0.3,0-0.4,0
		c-0.2,0-0.3,0.1-0.4,0.1l-0.3,0.1l-0.4,0.2l-0.3,0.1c-0.6,0.3-1.4,0.7-2.3,1.1c-1.2,0.6-2.6,1.1-3.9,1.7l-0.8,0.4l-1,0.4
		c-0.6,0.3-1.2,0.4-1.9,0.7c-0.4,0.2-0.8,0.3-1.2,0.4c-0.8,0.3-1.5,0.4-2.3,0.6c-0.4,0.1-0.8,0.2-1.1,0.3c-0.4,0.1-0.8,0.2-1.1,0.3
		c-0.4,0.1-0.8,0.1-1.1,0.2s-0.7,0.1-1.1,0.1v90.9h-252V222.1l-0.5,0.4c-3.2,1.8-7.3,1.4-10.1,3.8c-3.5,3-2.9,8.5-1.7,12.9
		c0.1,0.4,0.3,0.8,0.4,1.1c0,0.1,0.1,0.3,0.1,0.4s0,0,0,0l0,0c0,0,0,0.2,0.1,0.3c0.1,0.2,0.1,0.4,0.2,0.6l0.1,0.5l0.1,0.4
		c0,0.1,0,0.2,0,0.3s0,0.2,0,0.3c0,0.3,0.1,0.5,0.1,0.8v0.1c-0.3,3.2-2.4,5.9-5.4,7c-0.9,0.3-1.9,0.4-2.8,0.4v82.4h-16.1l0.4,3.9
		h15.6v126.7H298c-0.1,0.6-0.3,1.3-0.4,2c-0.1,0.3-0.2,0.6-0.3,0.9s-0.2,0.7-0.4,1.1h29.4v26.5c0.6,0,1.1,0,1.8,0h1.2l1.9-0.1h0.8
		c1.1-0.1,2.1-0.1,3-0.2l1.1-0.1l0.8-0.1l1.1-0.1h0.3h0.4l0.5,0.1h0.2c0.4,0.1,0.9,0.2,1.6,0.3l0.9,0.1l0.4,0.1l1.3,0.2h0.2l2,0.3
		v-27H405c-1-1.3-1.9-2.7-2.5-3.9h-56.7V337.4h252.3v126.8h-9.5c-0.9,0.4-1.9,1-2.8,1.6c0,0,0.4,0.2,1,0.5l0,0c0.7,0.4,1.7,1,3,1.8
		h8.4v5.7c0.7,0.5,1.4,1.1,2.1,1.7l1.1,0.9c1.3,1.1,2.6,2.2,3.8,3.4l1,1c0.4,0.4,0.8,0.9,1.2,1.2l0.2,0.2c0.4,0.4,0.6,0.7,0.9,1.1
		l0.6,0.7c0.4,0.4,0.7,0.9,1.1,1.3c0.4,0.4,0.7,0.9,1,1.3s0.6,0.9,0.9,1.3s0.6,1.1,0.9,1.7h1.9l0.2,0.4c0.1,0.2,0.2,0.3,0.2,0.4
		c0.3,0.6,0.4,1.1,0.6,1.7c0.1,0.3,0.2,0.4,0.2,0.7c0.1,0.3,0.1,0.4,0.2,0.7c0,0.2,0.1,0.4,0.1,0.6s0.1,0.4,0.1,0.6s0.1,0.4,0.1,0.5
		c0,0.2,0,0.3,0,0.4c0,0.5,0,1,0,1.5c0.4-0.1,0.9-0.2,1.2-0.3V468L644.5,468.1L644.5,468.1z M585.5,464.2h-27.3
		c7.2,2.7,18.8,1.8,26.5,0.7l1.5-0.3C586,464.5,585.7,464.3,585.5,464.2z M652,336.6c-0.1-1-0.2-2-0.2-3.1h-8.4l0,0
		c0,0.2,0.1,0.4,0.1,0.5c0.1,0.6,0.2,1.1,0.3,1.8c0.1,0.4,0.1,0.8,0.2,1.2l0.1,0.4h8L652,336.6z M183.7,464.2
		c0.8,1.3,1.7,2.7,2.6,3.9h110.9c0.1-0.4,0.3-0.7,0.4-1.1s0.2-0.6,0.3-0.9c0.2-0.7,0.3-1.3,0.4-2L183.7,464.2z M644.5,468.1
		c-0.1-0.1-0.1-0.2-0.2-0.3s-0.2-0.2-0.2-0.3c-0.3-0.3-0.5-0.5-0.7-0.9c-0.1-0.2-0.3-0.4-0.4-0.5c-0.2-0.4-0.4-0.8-0.7-1.3
		c0-0.1-0.1-0.1-0.1-0.2s-0.2-0.4-0.3-0.5h-24V337.4h26l-0.1-0.4c-0.1-0.4-0.1-0.8-0.2-1.2c-0.1-0.5-0.2-1.1-0.3-1.8
		c0-0.2-0.1-0.4-0.1-0.5l0,0h-25.4V236h-0.1c-0.1,0-0.3,0-0.4,0c-0.2,0-0.3,0.1-0.4,0.1l-0.3,0.1l-0.4,0.2l-0.3,0.1
		c-0.6,0.3-1.4,0.7-2.3,1.1c-1.2,0.6-2.6,1.1-3.9,1.7l-0.8,0.4l-1,0.4c-0.6,0.3-1.2,0.4-1.9,0.7c-0.4,0.2-0.8,0.3-1.2,0.4
		c-0.8,0.3-1.5,0.4-2.3,0.6c-0.4,0.1-0.8,0.2-1.1,0.3c-0.4,0.1-0.8,0.2-1.1,0.3c-0.4,0.1-0.8,0.1-1.1,0.2s-0.7,0.1-1.1,0.1v90.9
		h-252V222.1l-0.5,0.4c-3.2,1.8-7.3,1.4-10.1,3.8c-3.5,3-2.9,8.5-1.7,12.9c0.1,0.4,0.3,0.8,0.4,1.1c0,0.1,0.1,0.3,0.1,0.4s0,0,0,0
		l0,0c0,0.1,0,0.2,0.1,0.3c0.1,0.2,0.1,0.4,0.2,0.6l0.1,0.5l0.1,0.4c0,0.1,0,0.2,0,0.3s0,0.2,0,0.3c0,0.3,0.1,0.5,0.1,0.8v0.1
		c-0.3,3.2-2.4,5.9-5.4,7c-0.9,0.3-1.9,0.4-2.8,0.4v82.4h-16.1l0.4,3.9h15.6v126.7H298c-0.1,0.6-0.3,1.3-0.4,2
		c-0.1,0.3-0.2,0.6-0.3,0.9s-0.2,0.7-0.4,1.1h29.4v26.5c0.6,0,1.1,0,1.8,0h1.2l1.9-0.1h0.8c1.1-0.1,2.1-0.1,3-0.2l1.1-0.1l0.8-0.1
		l1.1-0.1h0.3h0.4l0.5,0.1h0.2c0.4,0.1,0.9,0.2,1.6,0.3l0.9,0.1l0.4,0.1l1.3,0.2h0.2l2,0.3v-27H405c-1-1.3-1.9-2.7-2.5-3.9h-56.7
		V337.4h252.3v126.8h-9.5c-0.9,0.4-1.9,1-2.8,1.6c0,0,0.4,0.2,1,0.5l0,0c0.7,0.4,1.7,1,3,1.8h8.4v5.7c0.7,0.5,1.4,1.1,2.1,1.7
		l1.1,0.9c1.3,1.1,2.6,2.2,3.8,3.4l1,1c0.4,0.4,0.8,0.9,1.2,1.2l0.2,0.2c0.4,0.4,0.6,0.7,0.9,1.1l0.6,0.7c0.4,0.4,0.7,0.9,1.1,1.3
		c0.4,0.4,0.7,0.9,1,1.3s0.6,0.9,0.9,1.3s0.6,1.1,0.9,1.7h1.9l0.2,0.4c0.1,0.2,0.2,0.3,0.2,0.4c0.3,0.6,0.4,1.1,0.6,1.7
		c0.1,0.3,0.2,0.4,0.2,0.7c0.1,0.3,0.1,0.4,0.2,0.7c0,0.2,0.1,0.4,0.1,0.6s0.1,0.4,0.1,0.6s0.1,0.4,0.1,0.5c0,0.2,0,0.3,0,0.4
		c0,0.5,0,1,0,1.5c0.4-0.1,0.9-0.2,1.2-0.3V468L644.5,468.1L644.5,468.1z M652,336.6c-0.1-1-0.2-2-0.2-3.1h-8.5l0,0
		c0,0.2,0.1,0.4,0.1,0.5c0.1,0.6,0.2,1.1,0.3,1.8c0.1,0.4,0.1,0.8,0.2,1.2l0.1,0.4h8L652,336.6z M183.7,464.2
		c0.8,1.3,1.7,2.7,2.6,3.9h110.9c0.1-0.4,0.3-0.7,0.4-1.1s0.2-0.6,0.3-0.9c0.2-0.7,0.3-1.3,0.4-2L183.7,464.2z M644.5,468.1
		c-0.1-0.1-0.1-0.2-0.2-0.3s-0.2-0.2-0.2-0.3c-0.3-0.3-0.5-0.5-0.7-0.9c-0.1-0.2-0.3-0.4-0.4-0.5c-0.2-0.4-0.4-0.8-0.7-1.3
		c0-0.1-0.1-0.1-0.1-0.2s-0.2-0.4-0.3-0.5h-24V337.4h26l-0.1-0.4c-0.1-0.4-0.1-0.8-0.2-1.2c-0.1-0.5-0.2-1.1-0.3-1.8
		c0-0.2-0.1-0.4-0.1-0.5l0,0h-25.4V236h-0.1c-0.1,0-0.3,0-0.4,0c-0.2,0-0.3,0.1-0.4,0.1l-0.3,0.1l-0.4,0.2l-0.3,0.1
		c-0.6,0.3-1.4,0.7-2.3,1.1c-1.2,0.6-2.6,1.1-3.9,1.7l-0.8,0.4l-1,0.4c-0.6,0.3-1.2,0.4-1.9,0.7c-0.4,0.2-0.8,0.3-1.2,0.4
		c-0.8,0.3-1.5,0.4-2.3,0.6c-0.4,0.1-0.8,0.2-1.1,0.3c-0.4,0.1-0.8,0.2-1.1,0.3c-0.4,0.1-0.8,0.1-1.1,0.2s-0.7,0.1-1.1,0.1v90.9
		h-252V222.1l-0.5,0.4c-3.2,1.8-7.3,1.4-10.1,3.8c-3.5,3-2.9,8.5-1.7,12.9c0.1,0.4,0.3,0.8,0.4,1.1c0,0.1,0.1,0.3,0.1,0.4s0,0,0,0
		l0,0c0,0.1,0,0.2,0.1,0.3c0.1,0.2,0.1,0.4,0.2,0.6l0.1,0.5l0.1,0.4c0,0.1,0,0.2,0,0.3s0,0.2,0,0.3c0,0.3,0.1,0.5,0.1,0.8v0.1
		c-0.3,3.2-2.4,5.9-5.4,7c-0.9,0.3-1.9,0.4-2.8,0.4v82.4h-16.1l0.4,3.9h15.6v126.7H298c-0.1,0.6-0.3,1.3-0.4,2
		c-0.1,0.3-0.2,0.6-0.3,0.9s-0.2,0.7-0.4,1.1h29.4v26.5c0.6,0,1.1,0,1.8,0h1.2l1.9-0.1h0.8c1.1-0.1,2.1-0.1,3-0.2l1.1-0.1l0.8-0.1
		l1.1-0.1h0.3h0.4l0.5,0.1h0.2c0.4,0.1,0.9,0.2,1.6,0.3l0.9,0.1l0.4,0.1l1.3,0.2h0.2l2,0.3v-27H405c-1-1.3-1.9-2.7-2.5-3.9h-56.7
		V337.4h252.3v126.8h-9.5c-0.9,0.4-1.9,1-2.8,1.6c0,0,0.4,0.2,1,0.5l0,0c0.7,0.4,1.7,1,3,1.8h8.4v5.7c0.7,0.5,1.4,1.1,2.1,1.7
		l1.1,0.9c1.3,1.1,2.6,2.2,3.8,3.4l1,1c0.4,0.4,0.8,0.9,1.2,1.2l0.2,0.2c0.4,0.4,0.6,0.7,0.9,1.1l0.6,0.7c0.4,0.4,0.7,0.9,1.1,1.3
		c0.4,0.4,0.7,0.9,1,1.3s0.6,0.9,0.9,1.3s0.6,1.1,0.9,1.7h1.9l0.2,0.4c0.1,0.2,0.2,0.3,0.2,0.4c0.3,0.6,0.4,1.1,0.6,1.7
		c0.1,0.3,0.2,0.4,0.2,0.7c0.1,0.3,0.1,0.4,0.2,0.7c0,0.2,0.1,0.4,0.1,0.6s0.1,0.4,0.1,0.6s0.1,0.4,0.1,0.5c0,0.2,0,0.3,0,0.4
		c0,0.5,0,1,0,1.5c0.4-0.1,0.9-0.2,1.2-0.3V468H644L644.5,468.1L644.5,468.1z M652,336.6c-0.1-1-0.2-2-0.2-3.1h-8.5l0,0
		c0,0.2,0.1,0.4,0.1,0.5c0.1,0.6,0.2,1.1,0.3,1.8c0.1,0.4,0.1,0.8,0.2,1.2l0.1,0.4h8L652,336.6z M183.7,464.2
		c0.8,1.3,1.7,2.7,2.6,3.9h110.9c0.1-0.4,0.3-0.7,0.4-1.1s0.2-0.6,0.3-0.9c0.2-0.7,0.3-1.3,0.4-2L183.7,464.2z M644.6,468.1
		c-0.1-0.1-0.1-0.2-0.2-0.3c-0.1-0.1-0.2-0.2-0.2-0.3c-0.3-0.3-0.5-0.5-0.7-0.9c-0.1-0.2-0.3-0.4-0.4-0.5c-0.2-0.4-0.4-0.8-0.7-1.3
		c0-0.1-0.1-0.1-0.1-0.2s-0.2-0.4-0.3-0.5h-24V337.4h26l-0.1-0.4c-0.1-0.4-0.1-0.8-0.2-1.2c-0.1-0.5-0.2-1.1-0.3-1.8
		c0-0.2-0.1-0.4-0.1-0.5l0,0H618V236h-0.1c-0.1,0-0.3,0-0.4,0c-0.2,0-0.3,0.1-0.4,0.1l-0.3,0.1l-0.4,0.2l-0.3,0.1
		c-0.6,0.3-1.4,0.7-2.3,1.1c-1.2,0.6-2.6,1.1-3.9,1.7l-0.8,0.4l-1,0.4c-0.6,0.3-1.2,0.4-1.9,0.7c-0.4,0.2-0.8,0.3-1.2,0.4
		c-0.8,0.3-1.5,0.4-2.3,0.6c-0.4,0.1-0.8,0.2-1.1,0.3c-0.4,0.1-0.8,0.2-1.1,0.3c-0.4,0.1-0.8,0.1-1.1,0.2c-0.4,0.1-0.7,0.1-1.1,0.1
		v90.9H346.1V222.1l-0.5,0.4c-3.2,1.8-7.3,1.4-10.1,3.8c-3.5,3-2.9,8.5-1.7,12.9c0.1,0.4,0.3,0.8,0.4,1.1c0,0.1,0.1,0.3,0.1,0.4
		s0,0,0,0l0,0c0,0.1,0,0.2,0.1,0.3c0.1,0.2,0.1,0.4,0.2,0.6l0.1,0.5l0.1,0.4c0,0.1,0,0.2,0,0.3s0,0.2,0,0.3c0,0.3,0.1,0.5,0.1,0.8
		v0.1c-0.3,3.2-2.4,5.9-5.4,7c-0.9,0.3-1.9,0.4-2.8,0.4v82.4h-16.1l0.4,3.9h15.6v126.7H298c-0.1,0.6-0.3,1.3-0.4,2
		c-0.1,0.3-0.2,0.6-0.3,0.9s-0.2,0.7-0.4,1.1h29.4v26.5c0.6,0,1.1,0,1.8,0h1.2l1.9-0.1h0.8c1.1-0.1,2.1-0.1,3-0.2l1.1-0.1l0.8-0.1
		l1.1-0.1h0.3h0.4l0.5,0.1h0.2c0.4,0.1,0.9,0.2,1.6,0.3l0.9,0.1l0.4,0.1l1.3,0.2h0.2l2,0.3v-27H405c-1-1.3-1.9-2.7-2.5-3.9h-56.7
		V337.4h252.3v126.8h-9.5c-0.9,0.4-1.9,1-2.8,1.6c0,0,0.4,0.2,1,0.5l0,0c0.7,0.4,1.7,1,3,1.8h8.4v5.7c0.7,0.5,1.4,1.1,2.1,1.7
		l1.1,0.9c1.3,1.1,2.6,2.2,3.8,3.4l1,1c0.4,0.4,0.8,0.9,1.2,1.2l0.2,0.2c0.4,0.4,0.6,0.7,0.9,1.1l0.6,0.7c0.4,0.4,0.7,0.9,1.1,1.3
		c0.4,0.4,0.7,0.9,1,1.3s0.6,0.9,0.9,1.3s0.6,1.1,0.9,1.7h1.9l0.2,0.4c0.1,0.2,0.2,0.3,0.2,0.4c0.3,0.6,0.4,1.1,0.6,1.7
		c0.1,0.3,0.2,0.4,0.2,0.7c0.1,0.3,0.1,0.4,0.2,0.7c0,0.2,0.1,0.4,0.1,0.6s0.1,0.4,0.1,0.6s0.1,0.4,0.1,0.5c0,0.2,0,0.3,0,0.4
		c0,0.5,0,1,0,1.5c0.4-0.1,0.9-0.2,1.2-0.3V468H644L644.6,468.1L644.6,468.1z M652.1,336.6c-0.1-1-0.2-2-0.2-3.1h-8.5l0,0
		c0,0.2,0.1,0.4,0.1,0.5c0.1,0.6,0.2,1.1,0.3,1.8c0.1,0.4,0.1,0.8,0.2,1.2l0.1,0.4h8L652.1,336.6z M183.8,464.2
		c0.8,1.3,1.7,2.7,2.6,3.9h110.9c0.1-0.4,0.3-0.7,0.4-1.1s0.2-0.6,0.3-0.9c0.2-0.7,0.3-1.3,0.4-2L183.8,464.2z M644.6,468.1
		c-0.1-0.1-0.1-0.2-0.2-0.3c-0.1-0.1-0.2-0.2-0.2-0.3c-0.3-0.3-0.5-0.5-0.7-0.9c-0.1-0.2-0.3-0.4-0.4-0.5c-0.2-0.4-0.4-0.8-0.7-1.3
		c0-0.1-0.1-0.1-0.1-0.2s-0.2-0.4-0.3-0.5h-24V337.4h26l-0.1-0.4c-0.1-0.4-0.1-0.8-0.2-1.2c-0.1-0.5-0.2-1.1-0.3-1.8
		c0-0.2-0.1-0.4-0.1-0.5l0,0h-25.4V236h-0.1c-0.1,0-0.3,0-0.4,0c-0.2,0-0.3,0.1-0.4,0.1l-0.3,0.1l-0.4,0.2l-0.3,0.1
		c-0.6,0.3-1.4,0.7-2.3,1.1c-1.2,0.6-2.6,1.1-3.9,1.7l-0.8,0.4l-1,0.4c-0.6,0.3-1.2,0.4-1.9,0.7c-0.4,0.2-0.8,0.3-1.2,0.4
		c-0.8,0.3-1.5,0.4-2.3,0.6c-0.4,0.1-0.8,0.2-1.1,0.3c-0.4,0.1-0.8,0.2-1.1,0.3c-0.4,0.1-0.8,0.1-1.1,0.2s-0.7,0.1-1.1,0.1v90.9
		h-252V222.1l-0.5,0.4c-3.2,1.8-7.3,1.4-10.1,3.8c-3.5,3-2.9,8.5-1.7,12.9c0.1,0.4,0.3,0.8,0.4,1.1c0,0.1,0.1,0.3,0.1,0.4s0,0,0,0
		l0,0c0,0.1,0,0.2,0.1,0.3c0.1,0.2,0.1,0.4,0.2,0.6l0.1,0.5l0.1,0.4c0,0.1,0,0.2,0,0.3s0,0.2,0,0.3c0,0.3,0.1,0.5,0.1,0.8v0.1
		c-0.3,3.2-2.4,5.9-5.4,7c-0.9,0.3-1.9,0.4-2.8,0.4v82.4h-16.1l0.4,3.9h15.6v126.7H298c-0.1,0.6-0.3,1.3-0.4,2
		c-0.1,0.3-0.2,0.6-0.3,0.9s-0.2,0.7-0.4,1.1h29.4v26.5c0.6,0,1.1,0,1.8,0h1.2l1.9-0.1h0.8c1.1-0.1,2.1-0.1,3-0.2l1.1-0.1l0.8-0.1
		l1.1-0.1h0.3h0.4l0.5,0.1h0.2c0.4,0.1,0.9,0.2,1.6,0.3l0.9,0.1l0.4,0.1l1.3,0.2h0.2l2,0.3v-27H405c-1-1.3-1.9-2.7-2.5-3.9h-56.7
		V337.4h252.3v126.8h-9.5c-0.9,0.4-1.9,1-2.8,1.6c0,0,0.4,0.2,1,0.5l0,0c0.7,0.4,1.7,1,3,1.8h8.4v5.7c0.7,0.5,1.4,1.1,2.1,1.7
		l1.1,0.9c1.3,1.1,2.6,2.2,3.8,3.4l1,1c0.4,0.4,0.8,0.9,1.2,1.2l0.2,0.2c0.4,0.4,0.6,0.7,0.9,1.1l0.6,0.7c0.4,0.4,0.7,0.9,1.1,1.3
		c0.4,0.4,0.7,0.9,1,1.3s0.6,0.9,0.9,1.3s0.6,1.1,0.9,1.7h1.9l0.2,0.4c0.1,0.2,0.2,0.3,0.2,0.4c0.3,0.6,0.4,1.1,0.6,1.7
		c0.1,0.3,0.2,0.4,0.2,0.7c0.1,0.3,0.1,0.4,0.2,0.7c0,0.2,0.1,0.4,0.1,0.6s0.1,0.4,0.1,0.6s0.1,0.4,0.1,0.5c0,0.2,0,0.3,0,0.4
		c0,0.5,0,1,0,1.5c0.4-0.1,0.9-0.2,1.2-0.3V468H644L644.6,468.1L644.6,468.1z M652.1,336.6c-0.1-1-0.2-2-0.2-3.1h-8.5l0,0
		c0,0.2,0.1,0.4,0.1,0.5c0.1,0.6,0.2,1.1,0.3,1.8c0.1,0.4,0.1,0.8,0.2,1.2l0.1,0.4h8L652.1,336.6z M183.8,464.2
		c0.8,1.3,1.7,2.7,2.6,3.9h110.8c0.1-0.4,0.3-0.7,0.4-1.1s0.2-0.6,0.3-0.9c0.2-0.7,0.3-1.3,0.4-2L183.8,464.2z M644.6,468.1
		c-0.1-0.1-0.1-0.2-0.2-0.3c-0.1-0.1-0.2-0.2-0.2-0.3c-0.3-0.3-0.5-0.5-0.7-0.9c-0.1-0.2-0.3-0.4-0.4-0.5c-0.2-0.4-0.4-0.8-0.7-1.3
		c0-0.1-0.1-0.1-0.1-0.2s-0.2-0.4-0.3-0.5h-24V337.4h26l-0.1-0.4c-0.1-0.4-0.1-0.8-0.2-1.2c-0.1-0.5-0.2-1.1-0.3-1.8
		c0-0.2-0.1-0.4-0.1-0.5l0,0h-25.4V236h-0.1c-0.1,0-0.3,0-0.4,0c-0.2,0-0.3,0.1-0.4,0.1l-0.3,0.1l-0.4,0.2l-0.3,0.1
		c-0.6,0.3-1.4,0.7-2.3,1.1c-1.2,0.6-2.6,1.1-3.9,1.7l-0.8,0.4l-1,0.4c-0.6,0.3-1.2,0.4-1.9,0.7c-0.4,0.2-0.8,0.3-1.2,0.4
		c-0.8,0.3-1.5,0.4-2.3,0.6c-0.4,0.1-0.8,0.2-1.1,0.3c-0.4,0.1-0.8,0.2-1.1,0.3c-0.4,0.1-0.8,0.1-1.1,0.2s-0.7,0.1-1.1,0.1v90.9
		h-252V222.1l-0.5,0.4c-3.2,1.8-7.3,1.4-10.1,3.8c-3.5,3-2.9,8.5-1.7,12.9c0.1,0.4,0.3,0.8,0.4,1.1c0,0.1,0.1,0.3,0.1,0.4s0,0,0,0
		l0,0c0,0.1,0,0.2,0.1,0.3c0.1,0.2,0.1,0.4,0.2,0.6l0.1,0.5l0.1,0.4c0,0.1,0,0.2,0,0.3s0,0.2,0,0.3c0,0.3,0.1,0.5,0.1,0.8v0.1
		c-0.3,3.2-2.4,5.9-5.4,7c-0.9,0.3-1.9,0.4-2.8,0.4v82.4h-16.1l0.4,3.9h15.6v126.7H298c-0.1,0.6-0.3,1.3-0.4,2
		c-0.1,0.3-0.2,0.6-0.3,0.9s-0.2,0.7-0.4,1.1h29.4v26.5c0.6,0,1.1,0,1.8,0h1.2l1.9-0.1h0.8c1.1-0.1,2.1-0.1,3-0.2l1.1-0.1l0.8-0.1
		l1.1-0.1h0.3h0.4l0.5,0.1h0.2c0.4,0.1,0.9,0.2,1.6,0.3l0.9,0.1l0.4,0.1l1.3,0.2h0.2l2,0.3v-27H405c-1-1.3-1.9-2.7-2.5-3.9h-56.7
		V337.4h252.3v126.8h-9.5c-0.9,0.4-1.9,1-2.8,1.6c0,0,0.4,0.2,1,0.5l0,0c0.7,0.4,1.7,1,3,1.8h8.4v5.7c0.7,0.5,1.4,1.1,2.1,1.7
		l1.1,0.9c1.3,1.1,2.6,2.2,3.8,3.4l1,1c0.4,0.4,0.8,0.9,1.2,1.2l0.2,0.2c0.4,0.4,0.6,0.7,0.9,1.1l0.6,0.7c0.4,0.4,0.7,0.9,1.1,1.3
		c0.4,0.4,0.7,0.9,1,1.3s0.6,0.9,0.9,1.3s0.6,1.1,0.9,1.7h1.9l0.2,0.4c0.1,0.2,0.2,0.3,0.2,0.4c0.3,0.6,0.4,1.1,0.6,1.7
		c0.1,0.3,0.2,0.4,0.2,0.7c0.1,0.3,0.1,0.4,0.2,0.7c0,0.2,0.1,0.4,0.1,0.6s0.1,0.4,0.1,0.6s0.1,0.4,0.1,0.5c0,0.2,0,0.3,0,0.4
		c0,0.5,0,1,0,1.5c0.4-0.1,0.9-0.2,1.2-0.3V468H644L644.6,468.1L644.6,468.1z M652.1,336.6c-0.1-1-0.2-2-0.2-3.1h-8.5l0,0
		c0,0.2,0.1,0.4,0.1,0.5c0.1,0.6,0.2,1.1,0.3,1.8c0.1,0.4,0.1,0.8,0.2,1.2l0.1,0.4h8L652.1,336.6z M183.8,464.2
		c0.8,1.3,1.7,2.7,2.6,3.9h110.8c0.1-0.4,0.3-0.7,0.4-1.1s0.2-0.6,0.3-0.9c0.2-0.7,0.3-1.3,0.4-2L183.8,464.2z M644.6,468.1
		c-0.1-0.1-0.1-0.2-0.2-0.3c-0.1-0.1-0.2-0.2-0.2-0.3c-0.3-0.3-0.5-0.5-0.7-0.9c-0.1-0.2-0.3-0.4-0.4-0.5c-0.2-0.4-0.4-0.8-0.7-1.3
		c0-0.1-0.1-0.1-0.1-0.2s-0.2-0.4-0.3-0.5h-24V337.4h26l-0.1-0.4c-0.1-0.4-0.1-0.8-0.2-1.2c-0.1-0.5-0.2-1.1-0.3-1.8
		c0-0.2-0.1-0.4-0.1-0.5l0,0h-25.4V236h-0.1c-0.1,0-0.3,0-0.4,0c-0.2,0-0.3,0.1-0.4,0.1l-0.3,0.1l-0.4,0.2l-0.3,0.1
		c-0.6,0.3-1.4,0.7-2.3,1.1c-1.2,0.6-2.6,1.1-3.9,1.7l-0.8,0.4l-1,0.4c-0.6,0.3-1.2,0.4-1.9,0.7c-0.4,0.2-0.8,0.3-1.2,0.4
		c-0.8,0.3-1.5,0.4-2.3,0.6c-0.4,0.1-0.8,0.2-1.1,0.3c-0.4,0.1-0.8,0.2-1.1,0.3c-0.4,0.1-0.8,0.1-1.1,0.2s-0.7,0.1-1.1,0.1v90.9
		h-252V222.1l-0.5,0.4c-3.2,1.8-7.3,1.4-10.1,3.8c-3.5,3-2.9,8.5-1.7,12.9c0.1,0.4,0.3,0.8,0.4,1.1c0,0.1,0.1,0.3,0.1,0.4s0,0,0,0
		l0,0c0,0.1,0,0.2,0.1,0.3c0.1,0.2,0.1,0.4,0.2,0.6l0.1,0.5l0.1,0.4c0,0.1,0,0.2,0,0.3s0,0.2,0,0.3c0,0.3,0.1,0.5,0.1,0.8v0.1
		c-0.3,3.2-2.4,5.9-5.4,7c-0.9,0.3-1.9,0.4-2.8,0.4v82.4h-16.1l0.4,3.9h15.6v126.7H298c-0.1,0.6-0.3,1.3-0.4,2
		c-0.1,0.3-0.2,0.6-0.3,0.9s-0.2,0.7-0.4,1.1h29.4v26.5c0.6,0,1.1,0,1.8,0h1.2l1.9-0.1h0.8c1.1-0.1,2.1-0.1,3-0.2l1.1-0.1l0.8-0.1
		l1.1-0.1h0.3h0.4l0.5,0.1h0.2c0.4,0.1,0.9,0.2,1.6,0.3l0.9,0.1l0.4,0.1l1.3,0.2h0.2l2,0.3v-27H405c-1-1.3-1.9-2.7-2.5-3.9h-56.7
		V337.4h252.3v126.8h-9.5c-0.9,0.4-1.9,1-2.8,1.6c0,0,0.4,0.2,1,0.5l0,0c0.7,0.4,1.7,1,3,1.8h8.4v5.7c0.7,0.5,1.4,1.1,2.1,1.7
		l1.1,0.9c1.3,1.1,2.6,2.2,3.8,3.4l1,1c0.4,0.4,0.8,0.9,1.2,1.2l0.2,0.2c0.4,0.4,0.6,0.7,0.9,1.1l0.6,0.7c0.4,0.4,0.7,0.9,1.1,1.3
		c0.4,0.4,0.7,0.9,1,1.3s0.6,0.9,0.9,1.3s0.6,1.1,0.9,1.7h1.9l0.2,0.4c0.1,0.2,0.2,0.3,0.2,0.4c0.3,0.6,0.4,1.1,0.6,1.7
		c0.1,0.3,0.2,0.4,0.2,0.7c0.1,0.3,0.1,0.4,0.2,0.7c0,0.2,0.1,0.4,0.1,0.6s0.1,0.4,0.1,0.6s0.1,0.4,0.1,0.5c0,0.2,0,0.3,0,0.4
		c0,0.5,0,1,0,1.5c0.4-0.1,0.9-0.2,1.2-0.3V468H644L644.6,468.1L644.6,468.1z M652.1,336.6c-0.1-1-0.2-2-0.2-3.1h-8.6l0,0
		c0,0.2,0.1,0.4,0.1,0.5c0.1,0.6,0.2,1.1,0.3,1.8c0.1,0.4,0.1,0.8,0.2,1.2l0.1,0.4h8L652.1,336.6z M183.8,464.2
		c0.8,1.3,1.7,2.7,2.6,3.9h110.8c0.1-0.4,0.3-0.7,0.4-1.1s0.2-0.6,0.3-0.9c0.2-0.7,0.3-1.3,0.4-2L183.8,464.2z M644.6,468.1
		c-0.1-0.1-0.1-0.2-0.2-0.3c-0.1-0.1-0.2-0.2-0.2-0.3c-0.3-0.3-0.5-0.5-0.7-0.9c-0.1-0.2-0.3-0.4-0.4-0.5c-0.2-0.4-0.4-0.8-0.7-1.3
		c0-0.1-0.1-0.1-0.1-0.2s-0.2-0.4-0.3-0.5h-24V337.4h26l-0.1-0.4c-0.1-0.4-0.1-0.8-0.2-1.2c-0.1-0.5-0.2-1.1-0.3-1.8
		c0-0.2-0.1-0.4-0.1-0.5l0,0h-25.4V236h-0.1c-0.1,0-0.3,0-0.4,0c-0.2,0-0.3,0.1-0.4,0.1l-0.3,0.1l-0.4,0.2l-0.3,0.1
		c-0.6,0.3-1.4,0.7-2.3,1.1c-1.2,0.6-2.6,1.1-3.9,1.7c-0.3,0.1-0.5,0.3-0.8,0.4c-0.3,0.1-0.6,0.3-1,0.4c-0.6,0.3-1.2,0.4-1.9,0.7
		c-0.4,0.2-0.8,0.3-1.2,0.4c-0.8,0.3-1.5,0.4-2.3,0.6c-0.4,0.1-0.8,0.2-1.1,0.3c-0.4,0.1-0.8,0.2-1.1,0.3c-0.4,0.1-0.8,0.1-1.1,0.2
		s-0.7,0.1-1.1,0.1v90.9h-252V222.1l-0.5,0.4c-3.2,1.8-7.3,1.4-10.1,3.8c-3.5,3-2.9,8.5-1.7,12.9c0.1,0.4,0.3,0.8,0.4,1.1
		c0,0.1,0.1,0.3,0.1,0.4l0,0c0,0.1,0,0.2,0.1,0.3c0.1,0.2,0.1,0.4,0.2,0.6l0.1,0.5l0.1,0.4c0,0.1,0,0.2,0,0.3s0,0.2,0,0.3
		c0,0.3,0.1,0.5,0.1,0.8v0.1c-0.3,3.2-2.4,5.9-5.4,7c-0.9,0.3-1.9,0.4-2.8,0.4v82.4h-16.1l0.4,3.9h15.6v126.7H298
		c-0.1,0.6-0.3,1.3-0.4,2c-0.1,0.3-0.2,0.6-0.3,0.9s-0.2,0.7-0.4,1.1h29.4v26.5c0.6,0,1.1,0,1.8,0h1.2l1.9-0.1h0.8
		c1.1-0.1,2.1-0.1,3-0.2l1.1-0.1l0.8-0.1l1.1-0.1h0.3h0.4l0.5,0.1h0.2c0.4,0.1,0.9,0.2,1.6,0.3l0.9,0.1l0.4,0.1l1.3,0.2h0.2l2,0.3
		v-27H405c-1-1.3-1.9-2.7-2.5-3.9h-56.7V337.4h252.3v126.8h-9.5c-0.9,0.4-1.9,1-2.8,1.6c0,0,0.4,0.2,1,0.5l0,0c0.7,0.4,1.7,1,3,1.8
		h8.4v5.7c0.7,0.5,1.4,1.1,2.1,1.7l1.1,0.9c1.3,1.1,2.6,2.2,3.8,3.4c0.4,0.4,0.7,0.6,1,1s0.8,0.9,1.2,1.2l0.2,0.2
		c0.4,0.4,0.6,0.7,0.9,1.1l0.6,0.7c0.4,0.4,0.7,0.9,1.1,1.3c0.4,0.4,0.7,0.9,1,1.3s0.6,0.9,0.9,1.3s0.6,1.1,0.9,1.7h1.9l0.2,0.4
		c0.1,0.2,0.2,0.3,0.2,0.4c0.3,0.6,0.4,1.1,0.6,1.7c0.1,0.3,0.2,0.4,0.2,0.7c0.1,0.3,0.1,0.4,0.2,0.7c0,0.2,0.1,0.4,0.1,0.6
		s0.1,0.4,0.1,0.6s0.1,0.4,0.1,0.5c0,0.2,0,0.3,0,0.4c0,0.5,0,1,0,1.5c0.4-0.1,0.9-0.2,1.2-0.3V468H644L644.6,468.1L644.6,468.1z
		 M652.1,336.6c-0.1-1-0.2-2-0.2-3.1h-8.6l0,0c0,0.2,0.1,0.4,0.1,0.5c0.1,0.6,0.2,1.1,0.3,1.8c0.1,0.4,0.1,0.8,0.2,1.2l0.1,0.4h8
		L652.1,336.6z M883,196.3v-138c-5.9,0-11.8,0.3-17.8,0.9l-1.8,0.2v137H623.8l-0.6-0.7l0.9-1.1l0,0l3.9-4.9l3.9-4.9l0,0l72-89.6
		c-8-0.5-15.9-1.7-23.8-3.4L618,169.1V75.9c-6.5-1.2-13.1-2.7-19.6-4.2v93.2L509.4,54c-8.7-0.2-17.4,0-26.1,0.5l109.9,136.8l2.8,3.5
		l0.6,0.8l-0.6,0.7H346V49.8c-6.5-1.3-13-2.7-19.6-3.7v150.2H168.8c-0.1,1.3-0.1,2.7-0.3,3.9h157.9v133.3h-175v-90.7
		c-6,8.4-12.5,16.3-19.6,23.9v66.8H80c-0.5,1.3-1.1,2.6-1.7,3.9h53.5v126.8H68.1c0,1.3-0.1,2.7-0.1,3.9h63.8V622
		c6.1,6.5,12.6,12.4,19.6,17.8V468.1h175v168.2c5.7-0.4,11.3-0.5,17-0.1c0.9,0.1,1.8,0.2,2.7,0.3V468.1h252.3v149.3
		c2.6,0.1,5.1,0.3,7.7,0.5c4,0.4,8,0.9,11.8,1.5V468.1h245.4V590c6.7-3,13.4-5.9,19.6-9.3V472.5c-6.8-13.3-11.7-27-9.9-41.1
		c1.1-8.9,4.8-17.1,9.9-24.4v-69.5h93.8l6.5-3.9H883V200.3h210.1c0.1-1.3,0.3-2.7,0.3-3.9L883,196.3L883,196.3z M863.3,200.3v133.2
		H618V203.8l0.2-0.2l3.3-3.4L863.3,200.3L863.3,200.3z M346.1,200.3h252.4v133.2H346.1V200.3z M151.4,464.2V337.4h175v126.8H151.4z
		 M346.1,464.2V337.4h252.3v126.8H346.1z M618,464.2V337.4h245.4v126.8H618z M652,336.6c-0.1-1-0.2-2-0.2-3.1h-8.4l0,0
		c0,0.2,0.1,0.4,0.1,0.5c0.1,0.6,0.2,1.1,0.3,1.8c0.1,0.4,0.1,0.8,0.2,1.2l0.1,0.4h8L652,336.6z M644.5,468.1
		c-0.1-0.1-0.1-0.2-0.2-0.3s-0.2-0.2-0.2-0.3c-0.3-0.3-0.5-0.5-0.7-0.9c-0.1-0.2-0.3-0.4-0.4-0.5c-0.2-0.4-0.4-0.8-0.7-1.3
		c0-0.1-0.1-0.1-0.1-0.2s-0.2-0.4-0.3-0.5h-24V337.4h26l-0.1-0.4c-0.1-0.4-0.1-0.8-0.2-1.2c-0.1-0.5-0.2-1.1-0.3-1.8
		c0-0.2-0.1-0.4-0.1-0.5l0,0h-25.4V236h-0.1c-0.1,0-0.3,0-0.4,0c-0.2,0-0.3,0.1-0.4,0.1l-0.3,0.1l-0.4,0.2l-0.3,0.1
		c-0.6,0.3-1.4,0.7-2.3,1.1c-1.2,0.6-2.6,1.1-3.9,1.7l-0.8,0.4l-1,0.4c-0.6,0.3-1.2,0.4-1.9,0.7c-0.4,0.2-0.8,0.3-1.2,0.4
		c-0.8,0.3-1.5,0.4-2.3,0.6c-0.4,0.1-0.8,0.2-1.1,0.3c-0.4,0.1-0.8,0.2-1.1,0.3c-0.4,0.1-0.8,0.1-1.1,0.2s-0.7,0.1-1.1,0.1v90.9
		h-252V222.1l-0.5,0.4c-3.2,1.8-7.3,1.4-10.1,3.8c-3.5,3-2.9,8.5-1.7,12.9c0.1,0.4,0.3,0.8,0.4,1.1c0,0.1,0.1,0.3,0.1,0.4s0,0,0,0
		l0,0c0,0.1,0,0.2,0.1,0.3c0.1,0.2,0.1,0.4,0.2,0.6l0.1,0.5l0.1,0.4c0,0.1,0,0.2,0,0.3s0,0.2,0,0.3c0,0.3,0.1,0.5,0.1,0.8v0.1
		c-0.3,3.2-2.4,5.9-5.4,7c-0.9,0.3-1.9,0.4-2.8,0.4v82.4h-16.1l0.4,3.9h15.6v126.7H298c-0.1,0.6-0.3,1.3-0.4,2
		c-0.1,0.3-0.2,0.6-0.3,0.9s-0.2,0.7-0.4,1.1h29.4v26.5c0.6,0,1.1,0,1.8,0h1.2l1.9-0.1h0.8c1.1-0.1,2.1-0.1,3-0.2l1.1-0.1l0.8-0.1
		l1.1-0.1h0.3h0.4l0.5,0.1h0.2c0.4,0.1,0.9,0.2,1.6,0.3l0.9,0.1l0.4,0.1l1.3,0.2h0.2l2,0.3v-27H405c-1-1.3-1.9-2.7-2.5-3.9h-56.7
		V337.4h252.3v126.8h-9.5c-0.9,0.4-1.9,1-2.8,1.6c0,0,0.4,0.2,1,0.5l0,0c0.7,0.4,1.7,1,3,1.8h8.4v5.7c0.7,0.5,1.4,1.1,2.1,1.7
		l1.1,0.9c1.3,1.1,2.6,2.2,3.8,3.4l1,1c0.4,0.4,0.8,0.9,1.2,1.2l0.2,0.2c0.4,0.4,0.6,0.7,0.9,1.1l0.6,0.7c0.4,0.4,0.7,0.9,1.1,1.3
		c0.4,0.4,0.7,0.9,1,1.3s0.6,0.9,0.9,1.3s0.6,1.1,0.9,1.7h1.9l0.2,0.4c0.1,0.2,0.2,0.3,0.2,0.4c0.3,0.6,0.4,1.1,0.6,1.7
		c0.1,0.3,0.2,0.4,0.2,0.7c0.1,0.3,0.1,0.4,0.2,0.7c0,0.2,0.1,0.4,0.1,0.6s0.1,0.4,0.1,0.6s0.1,0.4,0.1,0.5c0,0.2,0,0.3,0,0.4
		c0,0.5,0,1,0,1.5c0.4-0.1,0.9-0.2,1.2-0.3V468L644.5,468.1L644.5,468.1z M183.7,464.2c0.8,1.3,1.7,2.7,2.6,3.9h111
		c0.1-0.4,0.3-0.7,0.4-1.1s0.2-0.6,0.3-0.9c0.2-0.7,0.3-1.3,0.4-2L183.7,464.2z M652,336.6c-0.1-1-0.2-2-0.2-3.1h-8.4l0,0
		c0,0.2,0.1,0.4,0.1,0.5c0.1,0.6,0.2,1.1,0.3,1.8c0.1,0.4,0.1,0.8,0.2,1.2l0.1,0.4h8L652,336.6z M644.5,468.1
		c-0.1-0.1-0.1-0.2-0.2-0.3s-0.2-0.2-0.2-0.3c-0.3-0.3-0.5-0.5-0.7-0.9c-0.1-0.2-0.3-0.4-0.4-0.5c-0.2-0.4-0.4-0.8-0.7-1.3
		c0-0.1-0.1-0.1-0.1-0.2s-0.2-0.4-0.3-0.5h-24V337.4h26l-0.1-0.4c-0.1-0.4-0.1-0.8-0.2-1.2c-0.1-0.5-0.2-1.1-0.3-1.8
		c0-0.2-0.1-0.4-0.1-0.5l0,0h-25.4V236h-0.1c-0.1,0-0.3,0-0.4,0c-0.2,0-0.3,0.1-0.4,0.1l-0.3,0.1l-0.4,0.2l-0.3,0.1
		c-0.6,0.3-1.4,0.7-2.3,1.1c-1.2,0.6-2.6,1.1-3.9,1.7l-0.8,0.4l-1,0.4c-0.6,0.3-1.2,0.4-1.9,0.7c-0.4,0.2-0.8,0.3-1.2,0.4
		c-0.8,0.3-1.5,0.4-2.3,0.6c-0.4,0.1-0.8,0.2-1.1,0.3c-0.4,0.1-0.8,0.2-1.1,0.3c-0.4,0.1-0.8,0.1-1.1,0.2s-0.7,0.1-1.1,0.1v90.9
		h-252V222.1l-0.5,0.4c-3.2,1.8-7.3,1.4-10.1,3.8c-3.5,3-2.9,8.5-1.7,12.9c0.1,0.4,0.3,0.8,0.4,1.1c0,0.1,0.1,0.3,0.1,0.4s0,0,0,0
		l0,0c0,0.1,0,0.2,0.1,0.3c0.1,0.2,0.1,0.4,0.2,0.6l0.1,0.5l0.1,0.4c0,0.1,0,0.2,0,0.3s0,0.2,0,0.3c0,0.3,0.1,0.5,0.1,0.8v0.1
		c-0.3,3.2-2.4,5.9-5.4,7c-0.9,0.3-1.9,0.4-2.8,0.4v82.4h-16.1l0.4,3.9h15.6v126.7H298c-0.1,0.6-0.3,1.3-0.4,2
		c-0.1,0.3-0.2,0.6-0.3,0.9s-0.2,0.7-0.4,1.1h29.4v26.5c0.6,0,1.1,0,1.8,0h1.2l1.9-0.1h0.8c1.1-0.1,2.1-0.1,3-0.2l1.1-0.1l0.8-0.1
		l1.1-0.1h0.3h0.4l0.5,0.1h0.2c0.4,0.1,0.9,0.2,1.6,0.3l0.9,0.1l0.4,0.1l1.3,0.2h0.2l2,0.3v-27H405c-1-1.3-1.9-2.7-2.5-3.9h-56.7
		V337.4h252.3v126.8h-9.5c-0.9,0.4-1.9,1-2.8,1.6c0,0,0.4,0.2,1,0.5l0,0c0.7,0.4,1.7,1,3,1.8h8.4v5.7c0.7,0.5,1.4,1.1,2.1,1.7
		l1.1,0.9c1.3,1.1,2.6,2.2,3.8,3.4l1,1c0.4,0.4,0.8,0.9,1.2,1.2l0.2,0.2c0.4,0.4,0.6,0.7,0.9,1.1l0.6,0.7c0.4,0.4,0.7,0.9,1.1,1.3
		c0.4,0.4,0.7,0.9,1,1.3s0.6,0.9,0.9,1.3s0.6,1.1,0.9,1.7h1.9l0.2,0.4c0.1,0.2,0.2,0.3,0.2,0.4c0.3,0.6,0.4,1.1,0.6,1.7
		c0.1,0.3,0.2,0.4,0.2,0.7c0.1,0.3,0.1,0.4,0.2,0.7c0,0.2,0.1,0.4,0.1,0.6s0.1,0.4,0.1,0.6s0.1,0.4,0.1,0.5c0,0.2,0,0.3,0,0.4
		c0,0.5,0,1,0,1.5c0.4-0.1,0.9-0.2,1.2-0.3V468L644.5,468.1L644.5,468.1z M183.7,464.2c0.8,1.3,1.7,2.7,2.6,3.9h111
		c0.1-0.4,0.3-0.7,0.4-1.1s0.2-0.6,0.3-0.9c0.2-0.7,0.3-1.3,0.4-2L183.7,464.2z M652,336.6c-0.1-1-0.2-2-0.2-3.1h-8.4l0,0
		c0,0.2,0.1,0.4,0.1,0.5c0.1,0.6,0.2,1.1,0.3,1.8c0.1,0.4,0.1,0.8,0.2,1.2l0.1,0.4h8L652,336.6z M644.5,468.1
		c-0.1-0.1-0.1-0.2-0.2-0.3s-0.2-0.2-0.2-0.3c-0.3-0.3-0.5-0.5-0.7-0.9c-0.1-0.2-0.3-0.4-0.4-0.5c-0.2-0.4-0.4-0.8-0.7-1.3
		c0-0.1-0.1-0.1-0.1-0.2s-0.2-0.4-0.3-0.5h-24V337.4h26l-0.1-0.4c-0.1-0.4-0.1-0.8-0.2-1.2c-0.1-0.5-0.2-1.1-0.3-1.8
		c0-0.2-0.1-0.4-0.1-0.5l0,0h-25.4V236h-0.1c-0.1,0-0.3,0-0.4,0c-0.2,0-0.3,0.1-0.4,0.1l-0.3,0.1l-0.4,0.2l-0.3,0.1
		c-0.6,0.3-1.4,0.7-2.3,1.1c-1.2,0.6-2.6,1.1-3.9,1.7l-0.8,0.4l-1,0.4c-0.6,0.3-1.2,0.4-1.9,0.7c-0.4,0.2-0.8,0.3-1.2,0.4
		c-0.8,0.3-1.5,0.4-2.3,0.6c-0.4,0.1-0.8,0.2-1.1,0.3c-0.4,0.1-0.8,0.2-1.1,0.3c-0.4,0.1-0.8,0.1-1.1,0.2s-0.7,0.1-1.1,0.1v90.9
		h-252V222.1l-0.5,0.4c-3.2,1.8-7.3,1.4-10.1,3.8c-3.5,3-2.9,8.5-1.7,12.9c0.1,0.4,0.3,0.8,0.4,1.1c0,0.1,0.1,0.3,0.1,0.4s0,0,0,0
		l0,0c0,0.1,0,0.2,0.1,0.3c0.1,0.2,0.1,0.4,0.2,0.6l0.1,0.5l0.1,0.4c0,0.1,0,0.2,0,0.3s0,0.2,0,0.3c0,0.3,0.1,0.5,0.1,0.8v0.1
		c-0.3,3.2-2.4,5.9-5.4,7c-0.9,0.3-1.9,0.4-2.8,0.4v82.4h-16.1l0.4,3.9h15.6v126.7H298c-0.1,0.6-0.3,1.3-0.4,2
		c-0.1,0.3-0.2,0.6-0.3,0.9s-0.2,0.7-0.4,1.1h29.4v26.5c0.6,0,1.1,0,1.8,0h1.2l1.9-0.1h0.8c1.1-0.1,2.1-0.1,3-0.2l1.1-0.1l0.8-0.1
		l1.1-0.1h0.3h0.4l0.5,0.1h0.2c0.4,0.1,0.9,0.2,1.6,0.3l0.9,0.1l0.4,0.1l1.3,0.2h0.2l2,0.3v-27H405c-1-1.3-1.9-2.7-2.5-3.9h-56.7
		V337.4h252.3v126.8h-9.5c-0.9,0.4-1.9,1-2.8,1.6c0,0,0.4,0.2,1,0.5l0,0c0.7,0.4,1.7,1,3,1.8h8.4v5.7c0.7,0.5,1.4,1.1,2.1,1.7
		l1.1,0.9c1.3,1.1,2.6,2.2,3.8,3.4l1,1c0.4,0.4,0.8,0.9,1.2,1.2l0.2,0.2c0.4,0.4,0.6,0.7,0.9,1.1l0.6,0.7c0.4,0.4,0.7,0.9,1.1,1.3
		c0.4,0.4,0.7,0.9,1,1.3s0.6,0.9,0.9,1.3s0.6,1.1,0.9,1.7h1.9l0.2,0.4c0.1,0.2,0.2,0.3,0.2,0.4c0.3,0.6,0.4,1.1,0.6,1.7
		c0.1,0.3,0.2,0.4,0.2,0.7c0.1,0.3,0.1,0.4,0.2,0.7c0,0.2,0.1,0.4,0.1,0.6s0.1,0.4,0.1,0.6s0.1,0.4,0.1,0.5c0,0.2,0,0.3,0,0.4
		c0,0.5,0,1,0,1.5c0.4-0.1,0.9-0.2,1.2-0.3V468L644.5,468.1L644.5,468.1z M183.7,464.2c0.8,1.3,1.7,2.7,2.6,3.9h111
		c0.1-0.4,0.3-0.7,0.4-1.1s0.2-0.6,0.3-0.9c0.2-0.7,0.3-1.3,0.4-2L183.7,464.2z M652,336.6c-0.1-1-0.2-2-0.2-3.1h-8.4l0,0
		c0,0.2,0.1,0.4,0.1,0.5c0.1,0.6,0.2,1.1,0.3,1.8c0.1,0.4,0.1,0.8,0.2,1.2l0.1,0.4h8L652,336.6z M644.5,468.1
		c-0.1-0.1-0.1-0.2-0.2-0.3s-0.2-0.2-0.2-0.3c-0.3-0.3-0.5-0.5-0.7-0.9c-0.1-0.2-0.3-0.4-0.4-0.5c-0.2-0.4-0.4-0.8-0.7-1.3
		c0-0.1-0.1-0.1-0.1-0.2s-0.2-0.4-0.3-0.5h-24V337.4h26l-0.1-0.4c-0.1-0.4-0.1-0.8-0.2-1.2c-0.1-0.5-0.2-1.1-0.3-1.8
		c0-0.2-0.1-0.4-0.1-0.5l0,0h-25.4V236h-0.1c-0.1,0-0.3,0-0.4,0c-0.2,0-0.3,0.1-0.4,0.1l-0.3,0.1l-0.4,0.2l-0.3,0.1
		c-0.6,0.3-1.4,0.7-2.3,1.1c-1.2,0.6-2.6,1.1-3.9,1.7l-0.8,0.4l-1,0.4c-0.6,0.3-1.2,0.4-1.9,0.7c-0.4,0.2-0.8,0.3-1.2,0.4
		c-0.8,0.3-1.5,0.4-2.3,0.6c-0.4,0.1-0.8,0.2-1.1,0.3c-0.4,0.1-0.8,0.2-1.1,0.3c-0.4,0.1-0.8,0.1-1.1,0.2s-0.7,0.1-1.1,0.1v90.9
		h-252V222.1l-0.5,0.4c-3.2,1.8-7.3,1.4-10.1,3.8c-3.5,3-2.9,8.5-1.7,12.9c0.1,0.4,0.3,0.8,0.4,1.1c0,0.1,0.1,0.3,0.1,0.4s0,0,0,0
		l0,0c0,0.1,0,0.2,0.1,0.3c0.1,0.2,0.1,0.4,0.2,0.6l0.1,0.5l0.1,0.4c0,0.1,0,0.2,0,0.3s0,0.2,0,0.3c0,0.3,0.1,0.5,0.1,0.8v0.1
		c-0.3,3.2-2.4,5.9-5.4,7c-0.9,0.3-1.9,0.4-2.8,0.4v82.4h-16.1l0.4,3.9h15.6v126.7H298c-0.1,0.6-0.3,1.3-0.4,2
		c-0.1,0.3-0.2,0.6-0.3,0.9s-0.2,0.7-0.4,1.1h29.4v26.5c0.6,0,1.1,0,1.8,0h1.2l1.9-0.1h0.8c1.1-0.1,2.1-0.1,3-0.2l1.1-0.1l0.8-0.1
		l1.1-0.1h0.3h0.4l0.5,0.1h0.2c0.4,0.1,0.9,0.2,1.6,0.3l0.9,0.1l0.4,0.1l1.3,0.2h0.2l2,0.3v-27H405c-1-1.3-1.9-2.7-2.5-3.9h-56.7
		V337.4h252.3v126.8h-9.5c-0.9,0.4-1.9,1-2.8,1.6c0,0,0.4,0.2,1,0.5l0,0c0.7,0.4,1.7,1,3,1.8h8.4v5.7c0.7,0.5,1.4,1.1,2.1,1.7
		l1.1,0.9c1.3,1.1,2.6,2.2,3.8,3.4l1,1c0.4,0.4,0.8,0.9,1.2,1.2l0.2,0.2c0.4,0.4,0.6,0.7,0.9,1.1l0.6,0.7c0.4,0.4,0.7,0.9,1.1,1.3
		c0.4,0.4,0.7,0.9,1,1.3s0.6,0.9,0.9,1.3s0.6,1.1,0.9,1.7h1.9l0.2,0.4c0.1,0.2,0.2,0.3,0.2,0.4c0.3,0.6,0.4,1.1,0.6,1.7
		c0.1,0.3,0.2,0.4,0.2,0.7c0.1,0.3,0.1,0.4,0.2,0.7c0,0.2,0.1,0.4,0.1,0.6s0.1,0.4,0.1,0.6s0.1,0.4,0.1,0.5c0,0.2,0,0.3,0,0.4
		c0,0.5,0,1,0,1.5c0.4-0.1,0.9-0.2,1.2-0.3V468L644.5,468.1L644.5,468.1z M183.7,464.2c0.8,1.3,1.7,2.7,2.6,3.9h111
		c0.1-0.4,0.3-0.7,0.4-1.1s0.2-0.6,0.3-0.9c0.2-0.7,0.3-1.3,0.4-2L183.7,464.2z M652,336.6c-0.1-1-0.2-2-0.2-3.1h-8.4l0,0
		c0,0.2,0.1,0.4,0.1,0.5c0.1,0.6,0.2,1.1,0.3,1.8c0.1,0.4,0.1,0.8,0.2,1.2l0.1,0.4h8L652,336.6z M644.5,468.1
		c-0.1-0.1-0.1-0.2-0.2-0.3s-0.2-0.2-0.2-0.3c-0.3-0.3-0.5-0.5-0.7-0.9c-0.1-0.2-0.3-0.4-0.4-0.5c-0.2-0.4-0.4-0.8-0.7-1.3
		c0-0.1-0.1-0.1-0.1-0.2s-0.2-0.4-0.3-0.5h-24V337.4h26l-0.1-0.4c-0.1-0.4-0.1-0.8-0.2-1.2c-0.1-0.5-0.2-1.1-0.3-1.8
		c0-0.2-0.1-0.4-0.1-0.5l0,0h-25.4V236h-0.1c-0.1,0-0.3,0-0.4,0c-0.2,0-0.3,0.1-0.4,0.1l-0.3,0.1l-0.4,0.2l-0.3,0.1
		c-0.6,0.3-1.4,0.7-2.3,1.1c-1.2,0.6-2.6,1.1-3.9,1.7l-0.8,0.4l-1,0.4c-0.6,0.3-1.2,0.4-1.9,0.7c-0.4,0.2-0.8,0.3-1.2,0.4
		c-0.8,0.3-1.5,0.4-2.3,0.6c-0.4,0.1-0.8,0.2-1.1,0.3c-0.4,0.1-0.8,0.2-1.1,0.3c-0.4,0.1-0.8,0.1-1.1,0.2s-0.7,0.1-1.1,0.1v90.9
		h-252V222.1l-0.5,0.4c-3.2,1.8-7.3,1.4-10.1,3.8c-3.5,3-2.9,8.5-1.7,12.9c0.1,0.4,0.3,0.8,0.4,1.1c0,0.1,0.1,0.3,0.1,0.4s0,0,0,0
		l0,0c0,0.1,0,0.2,0.1,0.3c0.1,0.2,0.1,0.4,0.2,0.6l0.1,0.5l0.1,0.4c0,0.1,0,0.2,0,0.3s0,0.2,0,0.3c0,0.3,0.1,0.5,0.1,0.8v0.1
		c-0.3,3.2-2.4,5.9-5.4,7c-0.9,0.3-1.9,0.4-2.8,0.4v82.4h-16.1l0.4,3.9h15.6v126.7H298c-0.1,0.6-0.3,1.3-0.4,2
		c-0.1,0.3-0.2,0.6-0.3,0.9s-0.2,0.7-0.4,1.1h29.4v26.5c0.6,0,1.1,0,1.8,0h1.2l1.9-0.1h0.8c1.1-0.1,2.1-0.1,3-0.2l1.1-0.1l0.8-0.1
		l1.1-0.1h0.3h0.4l0.5,0.1h0.2c0.4,0.1,0.9,0.2,1.6,0.3l0.9,0.1l0.4,0.1l1.3,0.2h0.2l2,0.3v-27H405c-1-1.3-1.9-2.7-2.5-3.9h-56.7
		V337.4h252.3v126.8h-9.5c-0.9,0.4-1.9,1-2.8,1.6c0,0,0.4,0.2,1,0.5l0,0c0.7,0.4,1.7,1,3,1.8h8.4v5.7c0.7,0.5,1.4,1.1,2.1,1.7
		l1.1,0.9c1.3,1.1,2.6,2.2,3.8,3.4l1,1c0.4,0.4,0.8,0.9,1.2,1.2l0.2,0.2c0.4,0.4,0.6,0.7,0.9,1.1l0.6,0.7c0.4,0.4,0.7,0.9,1.1,1.3
		c0.4,0.4,0.7,0.9,1,1.3s0.6,0.9,0.9,1.3s0.6,1.1,0.9,1.7h1.9l0.2,0.4c0.1,0.2,0.2,0.3,0.2,0.4c0.3,0.6,0.4,1.1,0.6,1.7
		c0.1,0.3,0.2,0.4,0.2,0.7c0.1,0.3,0.1,0.4,0.2,0.7c0,0.2,0.1,0.4,0.1,0.6s0.1,0.4,0.1,0.6s0.1,0.4,0.1,0.5c0,0.2,0,0.3,0,0.4
		c0,0.5,0,1,0,1.5c0.4-0.1,0.9-0.2,1.2-0.3V468L644.5,468.1L644.5,468.1z M183.7,464.2c0.8,1.3,1.7,2.7,2.6,3.9h111
		c0.1-0.4,0.3-0.7,0.4-1.1s0.2-0.6,0.3-0.9c0.2-0.7,0.3-1.3,0.4-2L183.7,464.2z M652,336.6c-0.1-1-0.2-2-0.2-3.1h-8.4l0,0
		c0,0.2,0.1,0.4,0.1,0.5c0.1,0.6,0.2,1.1,0.3,1.8c0.1,0.4,0.1,0.8,0.2,1.2l0.1,0.4h8L652,336.6z M644.5,468.1
		c-0.1-0.1-0.1-0.2-0.2-0.3s-0.2-0.2-0.2-0.3c-0.3-0.3-0.5-0.5-0.7-0.9c-0.1-0.2-0.3-0.4-0.4-0.5c-0.2-0.4-0.4-0.8-0.7-1.3
		c0-0.1-0.1-0.1-0.1-0.2s-0.2-0.4-0.3-0.5h-24V337.4h26l-0.1-0.4c-0.1-0.4-0.1-0.8-0.2-1.2c-0.1-0.5-0.2-1.1-0.3-1.8
		c0-0.2-0.1-0.4-0.1-0.5l0,0h-25.4V236h-0.1c-0.1,0-0.3,0-0.4,0c-0.2,0-0.3,0.1-0.4,0.1l-0.3,0.1l-0.4,0.2l-0.3,0.1
		c-0.6,0.3-1.4,0.7-2.3,1.1c-1.2,0.6-2.6,1.1-3.9,1.7l-0.8,0.4l-1,0.4c-0.6,0.3-1.2,0.4-1.9,0.7c-0.4,0.2-0.8,0.3-1.2,0.4
		c-0.8,0.3-1.5,0.4-2.3,0.6c-0.4,0.1-0.8,0.2-1.1,0.3c-0.4,0.1-0.8,0.2-1.1,0.3c-0.4,0.1-0.8,0.1-1.1,0.2s-0.7,0.1-1.1,0.1v90.9
		h-252V222.1l-0.5,0.4c-3.2,1.8-7.3,1.4-10.1,3.8c-3.5,3-2.9,8.5-1.7,12.9c0.1,0.4,0.3,0.8,0.4,1.1c0,0.1,0.1,0.3,0.1,0.4s0,0,0,0
		l0,0c0,0.1,0,0.2,0.1,0.3c0.1,0.2,0.1,0.4,0.2,0.6l0.1,0.5l0.1,0.4c0,0.1,0,0.2,0,0.3s0,0.2,0,0.3c0,0.3,0.1,0.5,0.1,0.8v0.1
		c-0.3,3.2-2.4,5.9-5.4,7c-0.9,0.3-1.9,0.4-2.8,0.4v82.4h-16.1l0.4,3.9h15.6v126.7H298c-0.1,0.6-0.3,1.3-0.4,2
		c-0.1,0.3-0.2,0.6-0.3,0.9s-0.2,0.7-0.4,1.1h29.4v26.5c0.6,0,1.1,0,1.8,0h1.2l1.9-0.1h0.8c1.1-0.1,2.1-0.1,3-0.2l1.1-0.1l0.8-0.1
		l1.1-0.1h0.3h0.4l0.5,0.1h0.2c0.4,0.1,0.9,0.2,1.6,0.3l0.9,0.1l0.4,0.1l1.3,0.2h0.2l2,0.3v-27H405c-1-1.3-1.9-2.7-2.5-3.9h-56.7
		V337.4h252.3v126.8h-9.5c-0.9,0.4-1.9,1-2.8,1.6c0,0,0.4,0.2,1,0.5l0,0c0.7,0.4,1.7,1,3,1.8h8.4v5.7c0.7,0.5,1.4,1.1,2.1,1.7
		l1.1,0.9c1.3,1.1,2.6,2.2,3.8,3.4l1,1c0.4,0.4,0.8,0.9,1.2,1.2l0.2,0.2c0.4,0.4,0.6,0.7,0.9,1.1l0.6,0.7c0.4,0.4,0.7,0.9,1.1,1.3
		c0.4,0.4,0.7,0.9,1,1.3s0.6,0.9,0.9,1.3s0.6,1.1,0.9,1.7h1.9l0.2,0.4c0.1,0.2,0.2,0.3,0.2,0.4c0.3,0.6,0.4,1.1,0.6,1.7
		c0.1,0.3,0.2,0.4,0.2,0.7c0.1,0.3,0.1,0.4,0.2,0.7c0,0.2,0.1,0.4,0.1,0.6s0.1,0.4,0.1,0.6s0.1,0.4,0.1,0.5c0,0.2,0,0.3,0,0.4
		c0,0.5,0,1,0,1.5c0.4-0.1,0.9-0.2,1.2-0.3V468L644.5,468.1L644.5,468.1z M183.7,464.2c0.8,1.3,1.7,2.7,2.6,3.9h111
		c0.1-0.4,0.3-0.7,0.4-1.1s0.2-0.6,0.3-0.9c0.2-0.7,0.3-1.3,0.4-2L183.7,464.2z M652,336.6c-0.1-1-0.2-2-0.2-3.1h-8.4l0,0
		c0,0.2,0.1,0.4,0.1,0.5c0.1,0.6,0.2,1.1,0.3,1.8c0.1,0.4,0.1,0.8,0.2,1.2l0.1,0.4h8L652,336.6z M644.5,468.1
		c-0.1-0.1-0.1-0.2-0.2-0.3s-0.2-0.2-0.2-0.3c-0.3-0.3-0.5-0.5-0.7-0.9c-0.1-0.2-0.3-0.4-0.4-0.5c-0.2-0.4-0.4-0.8-0.7-1.3
		c0-0.1-0.1-0.1-0.1-0.2s-0.2-0.4-0.3-0.5h-24V337.4h26l-0.1-0.4c-0.1-0.4-0.1-0.8-0.2-1.2c-0.1-0.5-0.2-1.1-0.3-1.8
		c0-0.2-0.1-0.4-0.1-0.5l0,0h-25.4V236h-0.1c-0.1,0-0.3,0-0.4,0c-0.2,0-0.3,0.1-0.4,0.1l-0.3,0.1l-0.4,0.2l-0.3,0.1
		c-0.6,0.3-1.4,0.7-2.3,1.1c-1.2,0.6-2.6,1.1-3.9,1.7l-0.8,0.4l-1,0.4c-0.6,0.3-1.2,0.4-1.9,0.7c-0.4,0.2-0.8,0.3-1.2,0.4
		c-0.8,0.3-1.5,0.4-2.3,0.6c-0.4,0.1-0.8,0.2-1.1,0.3c-0.4,0.1-0.8,0.2-1.1,0.3c-0.4,0.1-0.8,0.1-1.1,0.2s-0.7,0.1-1.1,0.1v90.9
		h-252V222.1l-0.5,0.4c-3.2,1.8-7.3,1.4-10.1,3.8c-3.5,3-2.9,8.5-1.7,12.9c0.1,0.4,0.3,0.8,0.4,1.1c0,0.1,0.1,0.3,0.1,0.4s0,0,0,0
		l0,0c0,0.1,0,0.2,0.1,0.3c0.1,0.2,0.1,0.4,0.2,0.6l0.1,0.5l0.1,0.4c0,0.1,0,0.2,0,0.3s0,0.2,0,0.3c0,0.3,0.1,0.5,0.1,0.8v0.1
		c-0.3,3.2-2.4,5.9-5.4,7c-0.9,0.3-1.9,0.4-2.8,0.4v82.4h-16.1l0.4,3.9h15.6v126.7H298c-0.1,0.6-0.3,1.3-0.4,2
		c-0.1,0.3-0.2,0.6-0.3,0.9s-0.2,0.7-0.4,1.1h29.4v26.5c0.6,0,1.1,0,1.8,0h1.2l1.9-0.1h0.8c1.1-0.1,2.1-0.1,3-0.2l1.1-0.1l0.8-0.1
		l1.1-0.1h0.3h0.4l0.5,0.1h0.2c0.4,0.1,0.9,0.2,1.6,0.3l0.9,0.1l0.4,0.1l1.3,0.2h0.2l2,0.3v-27H405c-1-1.3-1.9-2.7-2.5-3.9h-56.7
		V337.4h252.3v126.8h-9.5c-0.9,0.4-1.9,1-2.8,1.6c0,0,0.4,0.2,1,0.5l0,0c0.7,0.4,1.7,1,3,1.8h8.4v5.7c0.7,0.5,1.4,1.1,2.1,1.7
		l1.1,0.9c1.3,1.1,2.6,2.2,3.8,3.4l1,1c0.4,0.4,0.8,0.9,1.2,1.2l0.2,0.2c0.4,0.4,0.6,0.7,0.9,1.1l0.6,0.7c0.4,0.4,0.7,0.9,1.1,1.3
		c0.4,0.4,0.7,0.9,1,1.3s0.6,0.9,0.9,1.3s0.6,1.1,0.9,1.7h1.9l0.2,0.4c0.1,0.2,0.2,0.3,0.2,0.4c0.3,0.6,0.4,1.1,0.6,1.7
		c0.1,0.3,0.2,0.4,0.2,0.7c0.1,0.3,0.1,0.4,0.2,0.7c0,0.2,0.1,0.4,0.1,0.6s0.1,0.4,0.1,0.6s0.1,0.4,0.1,0.5c0,0.2,0,0.3,0,0.4
		c0,0.5,0,1,0,1.5c0.4-0.1,0.9-0.2,1.2-0.3V468L644.5,468.1L644.5,468.1z M183.7,464.2c0.8,1.3,1.7,2.7,2.6,3.9h111
		c0.1-0.4,0.3-0.7,0.4-1.1s0.2-0.6,0.3-0.9c0.2-0.7,0.3-1.3,0.4-2L183.7,464.2z M652,336.6c-0.1-1-0.2-2-0.2-3.1h-8.4l0,0
		c0,0.2,0.1,0.4,0.1,0.5c0.1,0.6,0.2,1.1,0.3,1.8c0.1,0.4,0.1,0.8,0.2,1.2l0.1,0.4h8L652,336.6z M644.5,468.1
		c-0.1-0.1-0.1-0.2-0.2-0.3s-0.2-0.2-0.2-0.3c-0.3-0.3-0.5-0.5-0.7-0.9c-0.1-0.2-0.3-0.4-0.4-0.5c-0.2-0.4-0.4-0.8-0.7-1.3
		c0-0.1-0.1-0.1-0.1-0.2s-0.2-0.4-0.3-0.5h-24V337.4h26l-0.1-0.4c-0.1-0.4-0.1-0.8-0.2-1.2c-0.1-0.5-0.2-1.1-0.3-1.8
		c0-0.2-0.1-0.4-0.1-0.5l0,0h-25.4V236h-0.1c-0.1,0-0.3,0-0.4,0c-0.2,0-0.3,0.1-0.4,0.1l-0.3,0.1l-0.4,0.2l-0.3,0.1
		c-0.6,0.3-1.4,0.7-2.3,1.1c-1.2,0.6-2.6,1.1-3.9,1.7l-0.8,0.4l-1,0.4c-0.6,0.3-1.2,0.4-1.9,0.7c-0.4,0.2-0.8,0.3-1.2,0.4
		c-0.8,0.3-1.5,0.4-2.3,0.6c-0.4,0.1-0.8,0.2-1.1,0.3c-0.4,0.1-0.8,0.2-1.1,0.3c-0.4,0.1-0.8,0.1-1.1,0.2s-0.7,0.1-1.1,0.1v90.9
		h-252V222.1l-0.5,0.4c-3.2,1.8-7.3,1.4-10.1,3.8c-3.5,3-2.9,8.5-1.7,12.9c0.1,0.4,0.3,0.8,0.4,1.1c0,0.1,0.1,0.3,0.1,0.4s0,0,0,0
		l0,0c0,0.1,0,0.2,0.1,0.3c0.1,0.2,0.1,0.4,0.2,0.6l0.1,0.5l0.1,0.4c0,0.1,0,0.2,0,0.3s0,0.2,0,0.3c0,0.3,0.1,0.5,0.1,0.8v0.1
		c-0.3,3.2-2.4,5.9-5.4,7c-0.9,0.3-1.9,0.4-2.8,0.4v82.4h-16.1l0.4,3.9h15.6v126.7H298c-0.1,0.6-0.3,1.3-0.4,2
		c-0.1,0.3-0.2,0.6-0.3,0.9s-0.2,0.7-0.4,1.1h29.4v26.5c0.6,0,1.1,0,1.8,0h1.2l1.9-0.1h0.8c1.1-0.1,2.1-0.1,3-0.2l1.1-0.1l0.8-0.1
		l1.1-0.1h0.3h0.4l0.5,0.1h0.2c0.4,0.1,0.9,0.2,1.6,0.3l0.9,0.1l0.4,0.1l1.3,0.2h0.2l2,0.3v-27H405c-1-1.3-1.9-2.7-2.5-3.9h-56.7
		V337.4h252.3v126.8h-42.9c0.8,0.4,1.6,0.7,2.1,1c7,3.5,19.7,2.6,28,1.4l1.5-0.3l0,0c0.7,0.4,1.7,1,3,1.8h8.4v5.7
		c0.7,0.5,1.4,1.1,2.1,1.7l1.1,0.9c1.3,1.1,2.6,2.2,3.8,3.4l1,1c0.4,0.4,0.8,0.9,1.2,1.2l0.2,0.2c0.4,0.4,0.6,0.7,0.9,1.1l0.6,0.7
		c0.4,0.4,0.7,0.9,1.1,1.3c0.4,0.4,0.7,0.9,1,1.3s0.6,0.9,0.9,1.3c0.3,0.4,0.6,1.1,0.9,1.7h1.9l0.2,0.4c0.1,0.2,0.2,0.3,0.2,0.4
		c0.3,0.6,0.4,1.1,0.6,1.7c0.1,0.3,0.2,0.4,0.2,0.7c0.1,0.3,0.1,0.4,0.2,0.7c0,0.2,0.1,0.4,0.1,0.6s0.1,0.4,0.1,0.6s0.1,0.4,0.1,0.5
		c0,0.2,0,0.3,0,0.4c0,0.5,0,1,0,1.5c0.4-0.1,0.9-0.2,1.2-0.3V468L644.5,468.1L644.5,468.1z M183.7,464.2c0.8,1.3,1.7,2.7,2.6,3.9
		h111c0.1-0.4,0.3-0.7,0.4-1.1s0.2-0.6,0.3-0.9c0.2-0.7,0.3-1.3,0.4-2L183.7,464.2z M588.8,464.2h-33.4c0.8,0.4,1.6,0.7,2.1,1
		c7,3.5,19.7,2.6,28,1.4l1.5-0.3c-0.6-0.4-1-0.5-1-0.5C587,465.2,587.9,464.7,588.8,464.2z M618,464.2V337.4h34.9
		c-0.3-0.3-0.6-0.5-0.9-0.8l-0.3-0.2l-0.5-0.4c-0.3-0.2-0.4-0.4-0.7-0.5l-0.5-0.4l-0.6-0.4c-0.3-0.3-0.6-0.5-1-0.7
		c-0.1-0.1-0.2-0.1-0.3-0.2l0,0l0,0h-30.3v-7c-0.3,0.2-0.5,0.3-0.8,0.4l-0.9,0.5c0,0,0,0-0.1,0c-0.1,0.1-0.1,0.1-0.2,0.1l-0.5,0.4
		c-0.2,0.1-0.4,0.3-0.5,0.4c-0.5,0.4-1.1,0.9-1.6,1.3l-0.5,0.4l-1.1,0.9c-1.3,1.3-2.7,2.7-4.1,3.8c-0.4,0.4-0.7,0.6-1.1,0.9
		c-0.7,0.6-1.5,1.2-2.3,1.8c-0.4,0.3-0.6,0.4-1,0.6l-0.6,0.3l-0.5,0.3l0,0c-1.2,0.6-2.5,1.1-3.8,1.4v123.9h-52.5
		c0,0.2,0.1,0.3,0.1,0.4c0.3,1.1,0.6,2.4,0.9,3.5h51.5V604c0.2,0,0.3,0,0.4,0h0.4l0.9,0.1l1.7,0.2l2.7,0.3c0.4,0,0.8,0.1,1.2,0.2
		l1.4,0.2h0.2l2.4,0.4c0.2,0,0.4,0.1,0.5,0.1l1.1,0.2l1.6,0.4l0,0l3.9-0.2l0,0l0.5,0.1l0.7,0.2v-138h78.8c0.1-1.3,0.3-2.7,0.4-3.9
		L618,464.2z M697.2,464.2c-0.1,1.3-0.3,2.7-0.4,3.9h33.8l2.3-3.9H697.2z M739.1,464.2h-3.5v1.8v2.2h4L739.1,464.2z M618,464.2
		V337.4h34.9c-0.3-0.3-0.6-0.5-0.9-0.8l-0.3-0.2l-0.5-0.4c-0.3-0.2-0.4-0.4-0.7-0.5l-0.5-0.4l-0.6-0.4c-0.3-0.3-0.6-0.5-1-0.7
		c-0.1-0.1-0.2-0.1-0.3-0.2l0,0l0,0h-30.3v-7c-0.3,0.2-0.5,0.3-0.8,0.4l-0.9,0.5c0,0,0,0-0.1,0c-0.1,0.1-0.1,0.1-0.2,0.1l-0.5,0.4
		c-0.2,0.1-0.4,0.3-0.5,0.4c-0.5,0.4-1.1,0.9-1.6,1.3l-0.5,0.4l-1.1,0.9c-1.3,1.3-2.7,2.7-4.1,3.8c-0.4,0.4-0.7,0.6-1.1,0.9
		c-0.7,0.6-1.5,1.2-2.3,1.8c-0.4,0.3-0.6,0.4-1,0.6l-0.6,0.3l-0.5,0.3l0,0c-1.2,0.6-2.5,1.1-3.8,1.4v123.9h-52.5
		c0,0.2,0.1,0.3,0.1,0.4c0.3,1.1,0.6,2.4,0.9,3.5h51.5V604h0.4h0.4l0.9,0.1l1.7,0.2l2.7,0.3c0.4,0,0.8,0.1,1.2,0.2l1.4,0.2h0.2
		l2.4,0.4c0.2,0,0.4,0.1,0.5,0.1l1.1,0.2l1.6,0.4l0,0l3.9-0.2l0,0l0.5,0.1l0.7,0.2v-138h80.9v-0.3c0-0.1,0-0.2,0-0.3
		c0.1-1.1,0.2-2.1,0.3-3.3v-0.1L618,464.2z M699.3,464.2L699.3,464.2c-0.1,1.1-0.2,2.2-0.3,3.4c0,0.1,0,0.2,0,0.3v0.3h30.5V468
		l2.2-3.7L699.3,464.2z M739.1,464.2h-3.5v1.8v2.2h4L739.1,464.2z"/>
	<path class="st2" d="M908.3,521l-25.4-0.4l-19.6-0.4l-40.1-0.7h-1.8l-33.8-0.5l0,0l-67.5-1.1l-36.6-0.6H679h-1.8l0,0l-3.4-0.1H673
		h-1l-19-0.4l-10.9-0.2l-2.9-0.1l0,0h-1H638l-20-0.4l-19.6-0.4L440.6,513h-2.1l-59.9-1l-3.7-0.1l0,0l-28.7-0.4l-19.6-0.4l-17.7-0.3
		h-1.5l-69.7-1.1l0,0l-23.2-0.4l-63.1-1.1l-6.4-0.1l0,0l-13.1-0.3L68.2,507c-0.4-5.7-0.6-11.6-0.6-17.5c0-3.9,0.1-7.8,0.2-11.7
		l64.1,1.4l12.4,0.3h0.3l7,0.2l29.4,0.6l15.8,0.4l93.7,2l6.5,0.2l29.7,0.6l3.7,0.1l6.5,0.2l8.7,0.2h0.7l28,0.6l40.2,0.9l2.5,0.1
		l96,2.1h1.6l83.9,1.9l12.9,0.3h1.9h1.9l2.9,0.1l3.7,0.1l0,0l16.6,0.4l0,0h1.9l5.2,0.1h2.1h2l11.5,0.3l41,0.9h1.9l2.7,0.1l113,2.5
		h1.7l42,0.9l17.5,0.4l2.1,0.3l14.3,2c1.6,2.7,3.1,5.5,4.4,8.2C904.2,510.8,906.5,515.8,908.3,521z"/>
	<path class="st3" d="M908.3,521l-25.4-0.4l-19.6-0.4l-40.1-0.7h-1.8l-33.8-0.5l0,0l-67.5-1.1l-36.6-0.6H679h-1.8l0,0l-3.4-0.1H673
		h-1l-19-0.4l-10.9-0.2l-2.9-0.1l0,0h-1H638l-20-0.4l-19.6-0.4L440.6,513h-2.1l-59.9-1l-3.7-0.1l0,0l-28.7-0.4l-19.6-0.4l-17.7-0.3
		h-1.5l-69.7-1.1l0,0l-23.2-0.4l-63.1-1.1l-6.4-0.1l0,0l-13.1-0.3L68.2,507c-0.4-5.7-0.6-11.6-0.6-17.5l64.2,1.3l13.3,0.3h0.3
		l6.1,0.1l37.2,0.7l21,0.4l35.4,0.7l35.2,0.7l0,0l20.2,0.4h0.4l22.2,0.4h0.8l2.7,0.1l19.6,0.4h0.4l10.2,0.2l3.4,0.1l6.3,0.1l0,0
		l57.6,1.1h2.3l172,3.4l19.6,0.4l16.7,0.4h0.3h0.9h1.1l13.7,0.3l2.6,0.1l0,0h2l41.4,0.8h1.9l2.9,0.1l49.1,1l0,0l53.8,1.1l0,0
		l15.2,0.3h1.4l42.6,0.9l19.6,0.4l18.7,0.4C904.2,510.8,906.5,515.8,908.3,521z"/>
	<path class="st4" d="M723.1,547.4l-3,2.5l-14.4,11.8l-2.9,2.4l-12.6,10.3c0,0-35.5,20.7-72.3,38.2c-4,1.9-8,3.7-11.8,5.5
		c-2.6-0.3-5.1-0.4-7.7-0.5c-20.9-1.1-41.9,1.5-61.9,7.5c-0.4-2.7-0.4-5.5-0.2-8.2c1.8-21.5,19.7-38.6,19.7-38.6l42.4-18.4l0,0l0,0
		l19.5-8.5l29.5-12.8l9.4,1.1l17,2L723.1,547.4z"/>
	<path class="st5" d="M723.1,547.4l-3,2.5l-14.4,11.8l-2.9,2.4l-12.6,10.3c0,0-35.5,20.7-72.3,38.2c-4,1.9-8,3.7-11.8,5.5
		c-2.6-0.3-5.1-0.4-7.7-0.5c-20.9-1.1-41.9,1.5-61.9,7.5c-0.4-2.7-0.4-5.5-0.2-8.2c1.8-21.5,19.7-38.6,19.7-38.6l42.4-18.4l0,0l0,0
		l19.5-8.5l29.5-12.8l9.4,1.1l17,2L723.1,547.4z"/>
	<path class="st6" d="M685.3,633.6l-0.1,0.9l-0.5,4.2l-0.1,0.7v0.3l-0.2,1.6l-0.3,2.4l-0.6-0.4c-3.4-1.9-6.7-3.8-10-5.6
		c-2-1.1-4.1-2-6.1-3c-6.7-3.3-13.7-6-20.9-8.4l1.9-3.5l11.8,3.4l16.9,4.9l3.1,0.9l2.5,0.7L685.3,633.6z"/>
	<path class="st7" d="M685.3,633.6l-0.1,0.9l-0.5,4.2l-0.1,0.7v0.3l-0.2,1.6l-0.3,2.4l-0.6-0.4c-3.4-1.9-6.7-3.8-10-5.6
		c-2-1.1-4.1-2-6.1-3c-6.7-3.3-13.7-6-20.9-8.4l1.9-3.5l11.8,3.4l16.9,4.9l3.1,0.9l2.5,0.7L685.3,633.6z"/>
	<polygon class="st8" points="658.6,620.3 681.6,629.6 685,639.8 661.4,630.5 	"/>
	<polygon class="st7" points="658.6,620.3 681.6,629.6 685,639.8 661.4,630.5 	"/>
	<path class="st6" d="M808.6,630.6c-1.8,2.2-3.5,4.4-5.2,6.6c-0.5,0.6-1.1,1.2-1.5,1.9c-2.9,3.5-5.7,7.1-8.8,10.3l-0.4,0.4
		l-97.5,0.2l0,0l-0.6-0.4l-0.3-0.2l0,0l-2-1.1l-1-0.5c-2.4-1.4-4.8-2.8-7.2-4.2l-0.6-0.4l0.1-2.1l0.1-1.9l0,0l0.2-3.4l0,0l0.1-1.4
		l1.4-0.1L808.6,630.6z"/>
	<path class="st9" d="M715.7,649.7h-0.9l-8.7-0.1h-0.3l-11.6-0.2l-2-1.1l-0.2-7.2v-1.9l-0.1-3.2l22-1.1h1l0.3,4l0.1,1.9L715.7,649.7
		L715.7,649.7z"/>
	<path class="st6" d="M714.8,649.7L714.8,649.7l-9.5-0.1l-11-0.2l0,0l-2-1.1l-1-0.5l-0.2-6.6v-1.9l-0.1-3.2l23-1.2v0.1l0.3,4
		l0.1,1.9L714.8,649.7L714.8,649.7z"/>
	<path class="st10" d="M714.8,649.7L714.8,649.7l-9.5-0.1l-11-0.2l0,0l-2-1.1l-1-0.5l-0.2-6.6v-1.9l-0.1-3.2l23-1.2v0.1l0.3,4
		l0.1,1.9L714.8,649.7L714.8,649.7z"/>
	<path class="st9" d="M685.2,634.5l123.4-3.9c-1.8,2.2-3.5,4.4-5.2,6.6c-0.5,0.6-1.1,1.2-1.5,1.9l-86.6,1.6h-0.9l-22.3,0.4h-0.9l0,0
		l-6.3,0.1c-0.1,0-0.3,0-0.4,0c-0.3,0-0.5-0.1-0.8-0.1l0.1-1.9l0,0l0.2-3.4l0,0l0.1-1.4L685.2,634.5z"/>
	<path class="st8" d="M816.2,621.3l-1.1,1.2c-1,1.1-1.9,2.3-2.9,3.4c-1.2,1.5-2.5,3.1-3.7,4.6c-1.8,2.2-3.5,4.4-5.2,6.6l-88.3,1.6
		h-0.9l-22.3,0.4h-0.9l-6.2,0.1h-0.3c-0.3,0-0.5,0-0.8-0.1h-0.2c-2.4-0.5-4-2.8-3.6-5.2l0.3-1.9l0.3-1.9l0.2-1.1l0.3-2.1l0.1-0.6
		L816.2,621.3z"/>
	<path class="st6" d="M821.1,610.4l4.2,1.5c-1,0.9-1.9,1.8-2.8,2.7c-0.7,0.7-1.5,1.5-2.2,2.2c-1.4,1.5-2.7,2.9-4.1,4.5l-1.1,1.2
		c-1,1.1-1.9,2.3-2.9,3.4l-129,3.5l0,0h-1.6l-0.6-2.5l-5.2-20.1l124.8,2.9l0,0l7.2,0.2L821.1,610.4z"/>
	<path class="st11" d="M830.5,607.6c-1.8,1.3-3.4,2.7-5.1,4.2c-1,0.9-1.9,1.8-2.8,2.7c-0.7,0.7-1.5,1.5-2.2,2.2
		c-1.4,1.5-2.7,2.9-4.1,4.5l-1.1,1.2c-21.5,2.5-59.3,5.7-93.6,3.6c-12.9-0.8-25.9,0.3-38.4,3.4l0,0l-1.5,0.4l-1.2,0.4
		c-1.1,0.3-2.3,0.6-3.4,1c-2.7,0.8-5.1,1.7-7.4,2.6l-2.4,0.9c-6.7-3.3-13.7-6-20.9-8.4c-9.3-3.1-18.8-5.4-28.5-6.9
		c-4-0.6-7.9-1.1-11.8-1.5c-2.6-0.3-5.1-0.4-7.7-0.5c-20.9-1.1-41.9,1.5-61.9,7.5c-2.7,0.8-5.5,1.8-8.1,2.7l0.1-0.3
		c0.7-3.4,3.7-7.1,8-10.7c13.6-11.9,39.6-23.7,39.6-23.7l13.9-5.8l0,0l8.7-3.7l19.6-8.3l41.4-17.6l0.4-0.2l9.5-4.1l8.7-3.7
		c6.1-1.6,12.4-2.4,18.6-2.3c0.8,0,1.6,0,2.4,0c0.6,0,1.2,0,1.9,0.1h0.3h0.9c1.5,0.1,3,0.2,4.5,0.4c0.5,0,1.1,0.1,1.6,0.2h0.3
		l1.1,0.2c0.5,0.1,1,0.1,1.5,0.2l1.5,0.2c1,0.2,1.9,0.3,3,0.4c1.5,0.3,3,0.5,4.5,0.9l2.2,0.4c2.3,0.5,4.5,1.1,6.8,1.7l2.1,0.6
		l1.4,0.4l1.8,0.5c4.2,1.2,8.3,2.7,12.5,4.2l2.2,0.8l2.1,0.8h0.1c1.2,0.4,2.6,1,3.8,1.5c7.2,2.9,14.1,6.1,20.8,9.4l2.3,1.1l1.1,0.6
		c0.8,0.4,1.6,0.8,2.3,1.2l2.3,1.2l1.1,0.6l1.1,0.6l1.1,0.6c2.7,1.4,5.1,2.8,7.6,4.3c0.7,0.4,1.4,0.8,2,1.2l1.1,0.6
		c1.3,0.8,2.7,1.6,4,2.5c0.6,0.4,1.2,0.8,1.9,1.1c0.9,0.6,1.9,1.1,2.7,1.8c0.6,0.4,1.1,0.8,1.8,1.1l0.9,0.6c0.5,0.4,1.1,0.7,1.7,1.1
		l1,0.6c0.6,0.4,1.2,0.9,1.9,1.3c0.3,0.2,0.6,0.4,0.9,0.6l0.3,0.2l2.2,1.6l0,0l1.3,1l1.3,1c0.9,0.6,1.7,1.3,2.4,1.9
		c0.4,0.3,0.7,0.6,1.1,0.9l0.5,0.4l0.5,0.4l0.9,0.8l0.6,0.6c0.3,0.2,0.4,0.4,0.6,0.6c0.8,0.8,1.5,1.6,2.2,2.4c0.5,0.7,1,1.3,1.4,1.9
		L830.5,607.6z"/>
	<path class="st12" d="M620.5,496.2c-2.4,1-4.9,1.5-7.5,1.6c-17.9,1.3-54.2-5.6-54.2-5.6s-45.6,10.2-58-18.3
		c-12.4-28.5,45.9-14.3,56.7-8.7c6.9,3.5,19.7,2.6,28,1.4c4.7-0.7,8-1.4,8-1.4S631.9,490.7,620.5,496.2z"/>
	<path class="st13" d="M670.4,445.3l-10.2,49.9l-30.4,2.7l-15.2,1.3c3.7-15.6-28.5-33.2-28.5-33.2c16.4-9.9,26.1-5.3,29.4-5.6
		l0.7-0.1c3.2-0.4,6.5-2.4,5.6-6.7c-0.5-2.9-0.3-5.9,0.9-8.7c0,0,5.9,1.6,3.1-7.8s0.9-20.5,0.9-20.5l2.2-2.8l3.4-10.5l14,14.3
		L670.4,445.3z"/>
	<path class="st9" d="M636,494.6c-1.5,1.1-2.9,2-4.3,3l-15.2,1.3c3.7-15.5-28.5-33.2-28.5-33.2c16.4-9.9,26.1-5.3,29.4-5.6
		c0.3,0,0.4,0,0.7-0.1c4.2,5.2,9.4,11.3,12.4,12.8C636,475.7,648.1,486,636,494.6z"/>
	<path class="st9" d="M620.5,496.2c-2.4,1-4.9,1.5-7.5,1.6c1.6-13.3-21.6-27.7-27.4-31.2c4.7-0.7,8-1.4,8-1.4
		S631.9,490.7,620.5,496.2z"/>
	<path class="st14" d="M634.1,495.2c-1.5,1.1-2.9,2.1-4.3,3l-15.2,1.3c3.7-15.6-28.5-33.2-28.5-33.2c16.4-9.9,26.1-5.3,29.4-5.6
		c0.3,0,0.4-0.1,0.7-0.1c4.2,5.2,9.4,11.3,12.4,12.8C634.1,476.3,646.2,486.6,634.1,495.2z"/>
	<path class="st12" d="M697.4,282.2c0,0-58.3,81.6-53.6,66.7c3.1-9.8-5.4-37.8-11.6-55.9c-3.2-9.4-5.7-16.1-5.7-16.1
		s33.5-28.8,32.9-22.4c-0.2,1.7,2.4,4.4,6.2,7.4C676.2,270.6,697.4,282.2,697.4,282.2z"/>
	<path class="st9" d="M665.4,262.1c-4.6,15.6-17.3,27.5-33.2,30.9c-3.2-9.4-5.7-16.1-5.7-16.1s33.5-28.8,32.9-22.4
		C659,256.3,661.6,259,665.4,262.1z"/>
	<path class="st12" d="M667.2,247.7c0,24.5-19.9,44.4-44.4,44.4s-44.4-19.9-44.4-44.4s19.9-44.4,44.4-44.4l0,0
		c24.4-0.1,44.3,19.5,44.4,43.9C667.2,247.5,667.2,247.7,667.2,247.7z"/>
	<path class="st9" d="M830.5,607.6c-1.8,1.3-3.4,2.7-5.1,4.2c-1,0.9-1.9,1.8-2.8,2.7c-0.7,0.7-1.5,1.5-2.2,2.2
		c-6.8-1.8-13.4-4.1-19.9-6.9l0,0c-5.1-2.3-9.5-4.9-11.8-7.6c-8-8.7-34.1-31.5-85.7-38.3c-12.5-1.6-24.9-2.2-37.5-1.9
		c-1.8,0-3.4,0.1-5.3,0.2l-0.8-4.8l0.4-0.2l9.5-4.1l8.7-3.7c6.1-1.6,12.4-2.4,18.6-2.3c0.8,0,1.6,0,2.4,0c0.6,0,1.2,0,1.9,0.1h0.3
		h0.9c1.5,0.1,3,0.2,4.5,0.4c0.5,0,1.1,0.1,1.6,0.2h0.3l1.1,0.2c0.5,0.1,1,0.1,1.5,0.2l1.5,0.2c1,0.2,1.9,0.3,3,0.4
		c1.5,0.3,3,0.5,4.5,0.9l2.2,0.4c2.3,0.5,4.5,1.1,6.8,1.7l2.1,0.6l1.4,0.4l1.8,0.5c4.2,1.2,8.3,2.7,12.5,4.2l2.2,0.8l2.1,0.8h0.1
		c1.2,0.4,2.6,1,3.8,1.5c7.2,2.9,14.1,6.1,20.8,9.4l2.3,1.1l1.1,0.6c0.8,0.4,1.6,0.8,2.3,1.2l2.3,1.2l1.1,0.6l1.1,0.6l1.1,0.6
		c2.7,1.4,5.1,2.8,7.6,4.3c0.7,0.4,1.4,0.8,2,1.2l1.1,0.6c1.3,0.8,2.7,1.6,4,2.5c0.6,0.4,1.2,0.8,1.9,1.1c0.9,0.6,1.9,1.1,2.7,1.8
		c0.6,0.4,1.1,0.8,1.8,1.1l0.9,0.6c0.5,0.4,1.1,0.7,1.7,1.1l1,0.6l1.9,1.4c0.3,0.2,0.6,0.4,0.9,0.6l0.3,0.2l2.2,1.6l0,0l1.3,1l1.3,1
		c0.9,0.6,1.7,1.3,2.4,1.9c0.4,0.3,0.7,0.6,1.1,0.9l0.5,0.4l0.5,0.4l0.9,0.8l0.6,0.6c0.3,0.2,0.4,0.4,0.6,0.6
		c0.8,0.8,1.5,1.6,2.2,2.4c0.5,0.7,1,1.3,1.4,1.9L830.5,607.6z"/>
	<path class="st13" d="M825.5,561.3c0,0,4.4,28.5,8.3,43.8c-1.1,0.7-2.2,1.5-3.3,2.4l0,0c-1.8,1.3-3.4,2.7-5.1,4.2
		c-1,0.9-1.9,1.8-2.8,2.7c-5-1.2-10-2.7-14.9-4.5c-8-3-15.6-6.8-19-10.5c-7.8-8.6-33.1-30.6-82.8-37.9c-12.8-1.9-25.8-2.7-38.7-2.4
		c-2.3,0-4.6,0.1-6.9,0.2l-0.4-2.1l-3.1-17.8l-2.8-16.7v-0.1l-0.3-1.9v-0.1l-0.1-0.8l-0.5-3.2l-1.4-8.6l-0.7-4.1c0,0,0-0.4-0.1-1.3
		c0-0.2,0-0.3,0-0.4s0-0.3,0-0.4s0-0.2,0-0.4c0-0.2,0-0.4-0.1-0.7c-0.1-0.3,0-0.4,0-0.5l-0.1-0.5c0-0.1,0-0.2,0-0.2
		c0-0.3-0.1-0.6-0.1-0.9c0,0,0,0,0-0.1c-0.1-0.6-0.1-1.1-0.2-1.9c0-0.4-0.1-0.8-0.2-1.2c-0.2-1.6-0.4-3.4-0.6-5.3
		c-0.2-1.6-0.4-3.2-0.6-4.9c-0.1-0.4-0.1-0.9-0.2-1.3c0-0.3-0.1-0.5-0.1-0.8l0,0c0-0.2-0.1-0.4-0.1-0.6c-0.2-0.9-0.3-1.7-0.4-2.5
		c0-0.2-0.1-0.4-0.1-0.5c-0.1-0.4-0.2-0.9-0.3-1.2c-0.1-0.4-0.2-1-0.3-1.5v-0.1c0-0.2-0.1-0.4-0.2-0.6c-0.1-0.2-0.2-0.6-0.2-0.9
		c-0.1-0.5-0.3-1.1-0.4-1.5l-0.2-0.6c-0.1-0.4-0.2-0.7-0.3-1c-0.4-1.6-1-3-1.8-4.4l0,0c-0.1-0.1-0.1-0.2-0.2-0.3
		c-0.1-0.1-0.2-0.2-0.2-0.3c-0.3-0.3-0.5-0.5-0.7-0.9c-0.1-0.2-0.3-0.4-0.4-0.5c-0.2-0.4-0.4-0.8-0.7-1.3c0-0.1-0.1-0.1-0.1-0.2
		s-0.2-0.4-0.3-0.5c-4.3-9.6-9.7-34.1-9.7-34.1l-3.5-17l0,0l-0.4-1.9l-1.1-5.7v-0.7l0,0l-0.6-20.1c0,0-0.4-32.6,10.2-37.2l-0.4-4.1
		c0,0-8.2-2.5-9.1-6.1c-0.2-0.5-0.1-1.1,0.1-1.7l0,0c0.3-0.7,0.7-1.3,1.3-1.8c0.2-0.2,0.3-0.3,0.4-0.4c3.3-3.3,5.5-7.4,6.4-11.9
		c0,0,1.3-2.1,3.4-5.5c6.5-10.3,20.7-31.9,27-34.2c5.3-2,10.2-4.9,14.6-8.7l1.4,0.4l0,0c4.2,0.9,16.6,3.4,21.5,3.7
		c1.5,0.1,3.9,1.1,6.7,2.5c12.1,6.2,21.7,16.2,27.4,28.5c4.2,8.8,8.9,18.3,11.5,20.2c1.8,1.5,3.2,3.2,4.4,5.1
		c0.8,1.2,1.6,2.7,2.3,3.9c2.1,3.9,3.5,7.3,3.5,7.3s20.1,13.6,17.7,27c0,0,4.3,14.9,8.7,19.3s14.3,39.1,14.3,39.1s3.7,6.5,3.4,11.5
		s3.7,15.6,3.7,15.6s0.6,3.3,1.6,7.1c0.4,1.3,0.7,2.7,1.1,3.9c1,3.3,2,6.1,2.9,7c2.5,2.2,1.2,6.8,1.2,6.8s3.1,8,4.7,10.2
		c0.4,0.6,0.6,1.3,0.7,2.1c0.3,2.5,0.3,5-0.1,7.5c0,0-0.2,1.1-0.3,2.7c-0.3,3.8-0.5,10.4,1.2,12.8c0.4,0.7,0.7,1.5,0.9,2.4
		c1.1,5,0.2,14.5,2.5,16.6C826.8,538.7,825.5,561.3,825.5,561.3z"/>
	<path class="st12" d="M689.6,502.8c0,0-1.8,4.2-4.3,10.3c-5.1,12.2-13.3,32.2-16.8,42.7c-5.3,15.8-26.7,25.1-26.7,25.1
		s-42.5,14.6-57.3,3.7s27.9-34.7,35.7-36.3s14.6-7.8,20.1-11.1c2.7-1.6,2.9-7.8,2.5-13.8c-0.4-4.5-1-9-1.9-13.5L689.6,502.8z"/>
	<path class="st14" d="M747.7,357c0,0,16.2-7.2,23,4.1S747.7,357,747.7,357z"/>
	<path class="st14" d="M807.1,500.5c0,0-111.3,0.9-90.2,15.2c21.1,14.3,24.2,21.1,48.7,14.2C790.1,523.1,807.1,500.5,807.1,500.5z"
		/>
	<path class="st9" d="M667.2,247.7c0,7.8-2,15.5-5.9,22.2c-1.7-0.6-3.3-1.7-4.6-2.9c-1.5-1.6-2.3-3.8-3.3-5.8
		c-1.9-4.2-4.4-8.2-7.4-11.8c-2.1-2.5-4.8-4.9-7.9-4.6c-5.1,0.5-8.8,8.4-13.8,6.7c-1.5-0.5-3.7-10.1-4.6-11.8
		c-2-4.2-3.1-2.9-6.8-1.2c-7,3.3-14.5,6.2-22.2,4.7c-2.7-0.4-5.1-1.7-7-3.6c-0.7-1.1-1.5-1.9-2.4-2.9c-0.4-0.4-0.9-0.6-1.4-0.8
		c6.5-23.6,31-37.5,54.6-30.8C653.8,210.4,667.2,227.9,667.2,247.7z"/>
	<path class="st11" d="M625.3,250.7c4.9,1.7,8.7-6.3,13.8-6.7c3.1-0.3,5.7,2.1,7.9,4.6c3,3.5,5.5,7.5,7.4,11.8c1,2,1.8,4.2,3.3,5.8
		c1.4,1.3,3.1,2.4,4.9,3.1l6.7,3c3.9,1.8,8.8,3.3,11.8,0c2.4-2.7,2-7.1,1-10.6c-1.1-3.5-2.8-7.1-2.7-10.8c0.1-4.1,2.3-7.7,3-11.7
		c1.2-6.7-1.9-13.5-6.1-18.5s-9.4-8.7-13.6-13.6c-2.5-2.7-4.6-5.8-7.1-8.6c-3.1-3.4-6.8-6.2-11-8.2c-2.8-1.4-5.9-2.2-9.1-2.3
		c-3.9,0.1-7.6,1.6-11.3,3c-5.6,2.1-11.3,3.9-17.1,4.2c-7.1,0.3-14.8-1.8-20.9,2.1c-4.4,2.7-7.1,7.9-9.5,12.8l-5.3,10.4
		c-2,4-4.1,8-6.9,11.2c-2.8,3.3-6.6,5.7-10.7,5.8c4.6,3.5,10.8,4.1,15.9,1.5c2.1-1.1,4-2.7,6.2-3.6c2.2-1,4.9-1.1,6.7,0.4
		c0.9,0.9,1.7,1.9,2.4,2.9c1.9,1.9,4.2,3.3,7,3.6c7.7,1.4,15.2-1.4,22.2-4.7c3.7-1.8,4.8-2.9,6.8,1.2
		C621.6,240.6,623.8,250.1,625.3,250.7z"/>
	<path class="st9" d="M689.6,502.8c0,0-1.8,4.2-4.3,10.3c-2,1.1-4.2,2.1-6.4,3.3c-5.7,2.9-10.7,5.7-10.7,5.7l-25.4,1.4
		c-0.4-4.5-1-9-1.9-13.5L689.6,502.8z"/>
	<path class="st9" d="M727.8,378.3l-6.2,21.7c0,0-6.2,13.1-3.1,25.4c3.1,12.4-1.9,31.4-1.9,31.4l-9.6,24.8c0,0-12.1,25.4-14.2,25.4
		c-1.1,0-8.9,3.9-15.7,7.4c-5.7,2.9-10.7,5.7-10.7,5.7l-12.7,0.7l-2.8-16.5c0,0-1.6-21.5-4.6-31.7l3-19.2v-24.2
		c0,0,1.9-23.2,5.9-30.7c2.6-4.9,4.5-10.2,5.9-15.6c0,0-3.7-7.2-4.7-11.8c-0.6-3.3-1.1-6.6-1.2-9.9c0,0-4.3,0.6-5.6-34.7
		c-1.2-35.3,25.1-45,25.1-45c31.6-9.6,49.9,17.1,62.6,36.3C750.1,337.3,727.8,378.3,727.8,378.3z"/>
	<path class="st14" d="M729.6,378.3l-6.2,21.7c0,0-6.2,13.1-3.1,25.4c3.1,12.4-1.9,31.4-1.9,31.4l-9.6,24.8c0,0-12.1,25.4-14.3,25.4
		c-1.1,0-8.9,3.9-15.7,7.4c-5.7,2.9-10.7,5.7-10.7,5.7l-28.5,1.6c-9.4-24.7-2.9-29.1,1.8-29.5c1.1-0.1,2.4,0,3.5,0.4l6.2-39.1v-24.2
		c0,0,1.9-23.2,5.9-30.7c2.6-4.9,4.5-10.2,5.9-15.6c0,0-3.7-7.2-4.7-11.8c-0.6-3.3-1.1-6.6-1.2-9.9c0,0-4.3,0.6-5.6-34.7
		c-1.2-35.3,25.1-45,25.1-45c31.6-9.6,49.9,17.1,62.6,36.3C751.9,337.3,729.6,378.3,729.6,378.3z"/>
	<path class="st9" d="M679.8,513.5c-5.7,2.9-10.7,5.7-10.7,5.7l-28.5,1.6c-9.5-24.7-2.9-29.1,1.7-29.5c6.8,4.9,15.7,11.8,16.3,14
		C659,507.4,670.7,511,679.8,513.5z"/>
	<path class="st13" d="M678.9,514.4c-5.7,2.9-10.7,5.7-10.7,5.7l-28.5,1.6c-9.4-24.7-2.9-29.1,1.8-29.5c6.8,4.9,15.7,11.8,16.3,14
		C658.3,508.3,669.8,511.9,678.9,514.4z"/>
	<g class="st15">
		<path d="M682.6,266.3c-3,3.4-8,1.8-11.8,0l-6.7-3c-1.9-0.7-3.5-1.8-4.9-3.1c-1.5-1.6-2.4-3.8-3.3-5.8c-1.9-4.2-4.4-8.2-7.4-11.8
			c-2.1-2.5-4.9-4.9-7.9-4.6c-5.1,0.5-8.8,8.4-13.8,6.7c-1.5-0.5-3.7-10.1-4.5-11.8c-2-4.2-3.1-2.9-6.8-1.2
			c-7,3.3-14.5,6.2-22.2,4.7c-2.7-0.4-5.1-1.7-7-3.6c-0.7-1.1-1.5-2-2.4-2.9c-1.9-1.6-4.5-1.3-6.7-0.4c-2.2,0.9-4.1,2.6-6.2,3.6
			c-3,1.5-6.4,1.9-9.6,1.3c-2.2,1.9-4.9,2.9-7.9,3.1c4.6,3.5,10.8,4.1,15.9,1.5c2.1-1.1,4-2.7,6.2-3.6c2.2-1,4.9-1.1,6.7,0.4
			c0.9,0.9,1.7,1.9,2.4,2.9c1.9,1.9,4.2,3.3,7,3.6c7.7,1.4,15.2-1.4,22.2-4.7c3.7-1.8,4.8-2.9,6.8,1.2c0.9,1.8,3.1,11.3,4.6,11.8
			c4.9,1.7,8.7-6.3,13.8-6.7c3.1-0.3,5.7,2.1,7.9,4.6c3,3.5,5.5,7.5,7.4,11.8c1,2,1.8,4.2,3.3,5.8c1.4,1.3,3.1,2.4,4.9,3.1l6.7,3
			c3.9,1.8,8.8,3.3,11.8,0c1.4-1.8,2-4,1.8-6.2C682.8,266.1,682.7,266.2,682.6,266.3z"/>
		<path d="M682.5,237.9c-0.8,1.9-1.2,3.9-1.6,5.9c0.6-1.6,1.1-3.2,1.4-4.8C682.4,238.7,682.5,238.3,682.5,237.9z"/>
	</g>
	<path class="st9" d="M508.2,621.2c0,0-5.6,14.8-16.4,15.2L508.2,621.2z"/>
	<polygon class="st16" points="377,540.6 457.1,538.7 485,554.2 489.3,590.5 415.8,569.4 	"/>
	<polygon class="st7" points="377,540.6 457.1,538.7 485,554.2 489.3,590.5 415.8,569.4 	"/>
	<path class="st17" d="M330.5,484.7c0.9,0,8.4,9.3,8.4,9.3s28.2,4.9,35.1-1.2c6.9-6.2-13.3-27-13.3-27l-18,1l-14.6,8.7L330.5,484.7z
		"/>
	<path class="st18" d="M289.3,455.2l13.7,6.2c0,0,8.7,2.2,11.8,2.2S331,462,331,462l11.8,4.7c0,0-10.5,19.9-3.7,27.3
		c0,0-21.4,2.2-29.5-1.6s-18.9-4.9-18.9-4.9L289.3,455.2z"/>
	<path class="st19" d="M291.1,455.6l13.6,6.2c0,0,8.7,2.2,11.8,2.2s16.2-1.6,16.2-1.6l11.8,4.7c0,0-10.5,19.9-3.7,27.3
		c0,0-21.4,2.2-29.4-1.6c-8-3.8-18.9-4.9-18.9-4.9L291.1,455.6z"/>
	<path class="st17" d="M320.5,308.5c0,0-90-20.5-73.8-23.2c10.2-1.8,19.7-25,25.2-41.6c3.1-9.5,4.9-16.7,4.9-16.7s51.8,24.2,40,32.3
		c-4.5,3.1-5,11-3.9,19.7C314.6,292.9,320.5,308.5,320.5,308.5z"/>
	<path class="st6" d="M408.3,629.3l-0.1,1.6l0,0l-0.2,4l-0.1,1.9l-0.5,13.3v0.4v0.7v0.3l0,0h-2.8h-0.1l0,0h-2.6l0,0H401v-1.1
		l-1.2-0.4c-17.7-5.4-35.3-11.8-53.6-13.6c-0.9-0.1-1.8-0.2-2.7-0.3c-5.7-0.4-11.3-0.4-17,0.1c-17,1.3-33.8,5.9-50.5,10.7l-1.1,0.3
		c-0.9,0.3-1.9,0.5-2.7,0.8l0.3-13.5v-1.9v-2.4h4.9h0.9l48.2-0.4l19.6-0.2L408.3,629.3z"/>
	<path class="st9" d="M279,625.8l-0.6,4.3l0,0l-0.4,2.6l-0.3,1.9l0,0L276,647l-1.1,0.3c-0.9,0.3-1.9,0.5-2.7,0.8v0.6h-1.9l-3.8,1.1
		h-15l0.2-1.4l1.9-14.1l0,0l0.3-1.9l0.5-3.7l23.9-2.7L279,625.8z"/>
	<path class="st6" d="M278,625.8L278,625.8l-0.6,4.3l-0.4,2.6l-0.3,1.9l-1.9,12.7c-0.9,0.3-1.9,0.5-2.7,0.8v0.6h-1.9l-3.8,1.1
		l-0.9,0.3l0,0l-15-0.3l2-15.6l0.3-1.9l0.2-1.6l0,0l0.3-2.1L278,625.8z"/>
	<polygon class="st9" points="426.7,631.8 426.6,635.2 426.6,637.1 426.6,637.1 426.3,650.1 426.3,650.3 407.4,651.1 403.9,651.2 
		401.9,651.3 400.9,651.4 400.9,650.3 400.9,650 400.5,636.6 400.5,636.6 400.4,634.8 400.2,630.5 401.2,630.5 407.3,630.8 
		408.3,630.9 	"/>
	<polygon class="st6" points="427.5,631.8 427.5,635.2 427.5,637.1 427.1,650.2 427.1,651.6 407.4,651.4 404.5,651.4 404.5,651.4 
		401.9,651.4 401.9,651.3 401.8,650.6 401.8,650 401.4,636.6 401.3,634.8 401.2,630.5 401.2,630.5 408.3,630.8 	"/>
	<path class="st10" d="M278,625.8L278,625.8l-0.6,4.3l-0.4,2.6l-0.3,1.9l-1.9,12.7c-0.9,0.3-1.9,0.5-2.7,0.8v0.6h-1.9l-3.8,1.1
		l-0.9,0.3l0,0l-15-0.3l2-15.6l0.3-1.9l0.2-1.6l0,0l0.3-2.1L278,625.8z"/>
	<polygon class="st10" points="427.5,631.8 427.5,635.2 427.5,637.1 427.1,650.2 427.1,651.6 407.4,651.4 404.5,651.4 404.5,651.4 
		401.9,651.4 401.9,651.3 401.8,650.6 401.8,650 401.4,636.6 401.3,634.8 401.2,630.5 401.2,630.5 408.3,630.8 	"/>
	<path class="st9" d="M316.8,259.2c-4.5,3.1-5,11-3.9,19.7c-19.5-2.6-35.6-16.4-41-35.3c3.1-9.5,4.9-16.7,4.9-16.7
		S328.6,251.2,316.8,259.2z"/>
	<path class="st17" d="M368.6,228.2c0,27.2-22.1,49.2-49.3,49.2c-27.2,0-49.2-22.1-49.2-49.3s22.1-49.2,49.3-49.2
		c21.7,0,40.9,14.3,47.1,35.1C367.9,218.6,368.6,223.4,368.6,228.2z"/>
	<path class="st9" d="M366.6,214c-4-1-7.9-2.4-11.9-2.4c-1-0.1-1.9,0.1-2.7,0.7c-1.1,1-1,2.7-1.1,4.2c-0.3,2.8-1.9,5.4-4.4,6.8
		c-3.2,1.8-7.3,1.4-10.1,3.8c-3.5,3-2.9,8.5-1.7,12.9c0.6,1.8,0.9,3.5,0.9,5.4c-0.3,4.2-3.9,7.5-8.2,7.3c-2.2-0.1-4.3-1.2-5.7-3
		c-2.5-3.2-2.1-7.6-2.8-11.6c-0.7-4.5-2.9-8.7-6.1-11.8c-1.5-1.6-3.4-2.7-5.4-3.3c-2.1-0.5-4.3,0-5.9,1.5c-1.9,2.2-1.6,5.5-1.9,8.4
		c-0.5,5.4-3.3,10.2-7.7,13.4c-4.2,2.9-9.3,4.1-14,5.7c-0.4,0.2-1,0.4-1.3,0.7c-13.5-23.6-5.4-53.8,18.2-67.3s53.8-5.4,67.3,18.2
		C364,206.9,365.4,210.5,366.6,214z"/>
	<path class="st11" d="M277,251.2c4.8-1.8,9.9-2.8,14-5.7c4.4-3.2,7.2-8,7.7-13.4c0.3-2.9-0.1-6.2,1.9-8.4c1.6-1.5,3.8-2.1,5.9-1.5
		c2,0.6,4,1.7,5.4,3.3c3.3,3.2,5.4,7.3,6.1,11.8c0.7,4,0.4,8.4,2.8,11.6c2.7,3.4,7.5,4,10.9,1.3c1.8-1.4,2.8-3.4,2.9-5.7
		c0-1.9-0.3-3.6-0.9-5.4c-1.2-4.4-1.8-9.9,1.7-12.9c2.7-2.3,6.9-2,10.1-3.8c2.5-1.4,4.2-4,4.4-6.8c0.1-1.5,0-3.3,1.1-4.2
		c0.8-0.5,1.7-0.8,2.7-0.7c6.6,0.1,13,3.7,19.7,3.4c0.8,0,1.7-0.2,2.3-0.7c0.6-0.5,1.1-1.2,1.3-2c1.8-4.1,3.2-8.8,1.2-12.9
		c-2.5-5.1-9.7-7.2-11.1-12.7c-0.7-2.7-0.1-6-2.2-7.8c-1-0.6-2-1.1-3.2-1.3c-4.6-1.4-8.2-4.9-12.2-7.7s-9.2-4.7-13.6-2.7
		c-0.9,0.4-1.6,0.9-2.5,1.3c-4,1.9-8.6,0.9-12.9,0.2s-9.4-0.6-12.3,2.7c-1.1,1.2-1.8,2.8-3.1,3.8c-2.4,1.9-5.7,1-8.7,0.4
		s-6.8-0.4-8,2.5c-0.3,0.9-0.4,1.8-0.6,2.7c-0.7,2.4-2.9,4-5.3,4.8s-4.9,0.9-7.3,1.3c-4,0.7-7.7,2.3-11,4.6
		c-2.3,1.7-4.5,4.2-3.9,6.9c0.2,1,0.8,1.9,1,2.7c0.6,2.8-1.8,5.3-3.7,7.5c-1.9,2.2-3.5,5.6-1.6,7.8c0.8,0.9,1.9,1.2,2.8,1.9
		c2.6,1.9,3.1,5.4,3.3,8.6c0.2,4.7,0,9.5-0.7,14.1c-0.6,4-3.4,15.6,1.9,17.9C266.5,259.4,273.8,252.3,277,251.2z"/>
	<path class="st20" d="M310.9,467.9c0,0-11.5,0.6-10.5,4.9S310.9,467.9,310.9,467.9z"/>
	<path class="st16" d="M518.6,631.5L518.6,631.5c0,0-0.1,0.1-0.2,0.1c-12.5,5.4-24.7,12.3-37.3,17.7c-1.1,0.4-2.2,1-3.4,1.4
		c-7.8,3.3-16,5.6-24.4,6.8c-8.7,1.1-17.4,0.8-26-0.6c0.3-3.4,1-8.4,2.6-10.2l0,0c1.4-1.7,3.9-3.8,8.1-6.7c1.9-1.2,3.5-2.8,4.8-4.7
		l0,0c1.6-2.6,1.7-5.7,0.4-8.4c-0.3-0.5-0.5-1.1-0.9-1.6c-0.5-0.9-1.1-1.7-1.9-2.4H288.3c0,0-36-0.3-50.9-0.3h-4.9
		c-9,0-30.1-3.4-31.4-6.8c-1.2-3.4-16.4-11.1-22-12.7c-2.8-0.8-7.3-8.7-11.1-16.6c-0.6-1.2-1.2-2.5-1.8-3.7
		c-0.3-0.6-0.5-1.1-0.8-1.8v-0.1c-1.1-2.4-2-4.6-2.8-6.4l-0.4-0.9c-0.1-0.2-0.2-0.4-0.2-0.4c0-0.1-0.2-0.4-0.3-0.5l0,0l-0.2-0.5
		c-0.4-0.7-0.5-1.1-0.5-1.1l138.6-53c0,0,4.4,1.1,11,2.8c0.5,0.2,1.1,0.3,1.7,0.4l14,3.6c6.6,1.7,13.6,3.5,19.6,5.1
		c8.3,2.2,14.8,4,16.3,4.5c3.2,1.2,15.9,4.1,24.4,6l0,0c4.7,1.1,8.1,1.8,8.1,1.8s11,2.1,25.3,5l2.7,0.5l3.7,0.7
		c0.7,0.2,1.5,0.3,2.2,0.4l0,0c2.6,0.5,5.1,1.1,7.8,1.6l5.7,1.1c6,1.2,11.9,2.5,17.5,3.7l4.2,1l1.7,0.4l1.7,0.4
		c6.4,1.4,11.7,2.7,15,3.6c1.1,0.4,2.3,0.7,3.4,1.2c7.5,3.4,13.8,10.4,18.5,17.1c3.1,4.4,5.8,9.1,8.2,14
		C522.3,604.6,521.2,623.8,518.6,631.5z"/>
	<path class="st9" d="M283.7,554.5c0,0-5.9,26.1-24.2,35.3S283.7,554.5,283.7,554.5z"/>
	<path class="st9" d="M322.7,570.6c0,0-19.9,11.5-17.1,19.9L322.7,570.6z"/>
	<path class="st9" d="M501.7,603.5c0,0-5.6,23.6-17.7,23.9L501.7,603.5z"/>
	<polygon class="st9" points="427.5,631.8 427.5,637.1 408,636.8 401.4,636.6 276.8,634.6 272.4,634.5 252.5,634.2 253.2,628.7 
		278,625.8 277.4,630.2 408.4,629.3 408.3,630.8 	"/>
	<path class="st8" d="M433.4,635.3l-187.7-3.1c-4.8-0.1-8.7-3.9-8.7-8.7l-0.1-4.2h205.6v7.1c0,4.9-4,8.9-8.9,8.9
		C433.5,635.3,433.5,635.3,433.4,635.3z"/>
	<path class="st9" d="M299.5,530.7c0,0-7.2,5.6-10.5,10.2s-22.1,13-22.1,13c-23.6,24.7-78.7,30.9-98.9,32.4
		c-0.6-1.2-1.2-2.5-1.8-3.7c-2.9-6.4-5.1-11.7-5.1-11.7l138.6-53l11,2.8c0.6,1.1,1.2,2.1,2,3.1c0.3,0.3,0.4,0.6,0.5,1.1
		C314.3,529,299.5,530.7,299.5,530.7z"/>
	<path class="st21" d="M312.4,521.1c1.1,4.2-13.9,5.7-13.9,5.7s-7.2,5.6-10.5,10.2c-3.4,4.7-22,13-22,13
		c-23.9,24.9-80.3,31.1-99.7,32.5c-4.2,0.3-6.7,0.4-6.7,0.4s-5.3-13-7.2-12.7s-9.3-21.1-9.3-21.1s3.1-55.8,1.6-62.4
		c-1.5-6.5,0.6-52.4,0.4-56.7s5.6-41.5,10.9-54c5.3-12.5,23.6-38.1,23.6-38.1l33.5-33.5c0,0,22.6-18.9,28.8-20.5s8-15.8,8-15.8
		c14.9-6.2,32.6,6.8,32.6,6.8c15.5-0.4,14,2.5,14,2.5l9,1.9l0.3,2.5L317,403.3l-13.3,33.6l-6.4,16.1c1.6,5.4,1.4,11.2-0.6,16.4
		c-3.4,8.7,2.5,18.9,2.5,18.9s3.7,7.8-1.2,12.4c-4.9,4.6,8.4,6.2,8.4,6.2s1.6,8,5.6,13.1C312.1,520.3,312.3,520.7,312.4,521.1z"/>
	<path class="st9" d="M246.8,485.7c0,0-6.2,11.8,4.9,13.6c11.1,1.9,40-1.2,43.7-1.2C299.2,498.1,246.8,485.7,246.8,485.7z"/>
	<path class="st9" d="M245.5,446.3c1.6,2.8,35.1,31,46.5,36L245.5,446.3z"/>
	<path class="st9" d="M269.4,426.4c0,0,16.8,30,22.4,34.7s0.9-16.8,0.9-16.8L269.4,426.4z"/>
	<path class="st9" d="M222.3,340.8c0,0,42.5,27.6,40.6,47.2C261.1,407.6,222.3,340.8,222.3,340.8z"/>
	<path class="st9" d="M172,429.9c0,0-10.9,85.9,75.4,84.4C247.4,514.2,176.9,488.2,172,429.9z"/>
	<path class="st17" d="M505.1,579c-12.4-0.4-47.5-13.1-47.5-13.1l0.2-1l5.7-27.3l7.1,0.3c6.9,0.3,17.1,0.6,22.4,1
		C501.4,539.6,517.5,579.4,505.1,579z"/>
	<path class="st9" d="M305.6,281.9l11.2,121.5L303.6,437c-10.3-15.1-22-32.1-25.3-36.7c-6.2-8.7-18.9-51.2-18.9-51.2
		s-3.7-37.6,21.4-57.3C291.7,283.3,299.9,281.3,305.6,281.9z"/>
	<path class="st9" d="M464.1,556.3c-2.1,4.5-5.3,8.5-9.3,11.5c0,0-16.2-9.4-34.5-20.7C434,549.9,450.9,553.4,464.1,556.3z"/>
	<path class="st9" d="M459.5,566l-1.7-1l5.7-27.3l7.1,0.3C474.4,555.6,459.5,566,459.5,566z"/>
	<path class="st21" d="M319.3,285.9c0,0-10.5-15.8-35.7,4.1s-21.4,57.3-21.4,57.3s12.7,42.5,18.9,51.2s42.8,62.4,42.8,62.4
		s38.4,43.7,63.6,61.4c25.2,17.7,70.1,43.7,70.1,43.7s15.5-10.9,10.9-29.2c0,0-8.7-2.2-13-6.8s-9.6-10.2-9.6-10.2s-7.4-3.1-7.4-6.5
		c0-3.4-13.6-14.6-13.6-14.6s-1-4.7-4.3-5.6s-8.4-12.4-8.4-12.4s-11.5-13.3-11.8-17.7s-5.3-4.7-5.3-4.7s-4.3-8.7-4.3-10.9
		s-6.5-6.5-6.5-6.5l-10.2-11.5c0,0,2.8-8-7.2-14.2s-11.1-23.9-11.1-23.9l-9.6-20.8c2.3-1.3,3.4-4.1,2.5-6.5c-0.9-3-2.4-5.7-4.3-8
		c0,0,3.7-2.2,0.6-7.2c-3.1-4.9-3.7-16.8-3.7-16.8l-7.4-20.8C333.5,311.5,332,291.5,319.3,285.9z"/>
	<path class="st9" d="M345.4,424.9c0,0,32.3-8.4,22.6-1.6C358.4,430.1,345.4,424.9,345.4,424.9z"/>
	<path class="st9" d="M341,459.9c0,0,24.5-4.3,18.9,1.2C354.4,466.7,341,459.9,341,459.9z"/>
	<path class="st9" d="M292.6,314.7c0,0,32.9,8.7,40.6,27L292.6,314.7z"/>
	<g class="st15">
		<path d="M262,221c-0.2-3.2-0.7-6.7-3.3-8.6c-0.9-0.7-2-1.1-2.8-1.9l-0.1-0.2c-0.6,1.6-0.7,3.3,0.4,4.5c0.8,0.9,1.9,1.2,2.8,1.9
			c1.9,1.3,2.7,3.5,3,5.8C262,222,262,221.5,262,221z"/>
		<path d="M260.5,196.9c0.1,0.4,0.3,0.8,0.4,1.1c0.4-0.9,0.4-1.8,0.3-2.7c-0.1-0.4-0.2-0.8-0.4-1.1
			C260.4,195,260.4,195.9,260.5,196.9z"/>
		<path d="M378.9,199.2c-0.4,2.5-1.1,4.9-2,7.2c-0.3,0.8-0.7,1.5-1.3,2c-0.7,0.4-1.5,0.7-2.3,0.6c-6.6,0.4-13-3.3-19.7-3.4
			c-1-0.1-1.9,0.2-2.7,0.7c-1.1,1-1,2.7-1.1,4.2c-0.3,2.8-1.9,5.4-4.4,6.8c-3.2,1.8-7.3,1.4-10.1,3.8s-3,6.5-2.3,10.2
			c0-2.3,1-4.4,2.7-5.9c2.7-2.3,6.9-2,10.1-3.8c2.5-1.4,4.2-4,4.4-6.8c0.1-1.5,0-3.3,1.1-4.2c0.8-0.5,1.7-0.8,2.7-0.7
			c6.6,0.1,13,3.7,19.7,3.4c0.8,0,1.7-0.2,2.3-0.7c0.6-0.5,1.1-1.2,1.3-2C378.6,207.1,379.9,202.9,378.9,199.2z"/>
		<path d="M329,246.5c-3.1,0.9-6.5-0.2-8.4-2.7c-2.5-3.2-2.1-7.6-2.8-11.6c-0.8-4.5-2.9-8.7-6.1-11.8c-1.5-1.6-3.4-2.7-5.4-3.3
			c-2.1-0.5-4.3,0-5.9,1.5c-1.9,2.1-1.7,5.4-1.9,8.3c-0.5,5.4-3.3,10.2-7.7,13.4c-4.2,2.9-9.3,4.1-14,5.8
			c-3.2,1.1-10.4,8.2-13.5,6.8c-1.6-0.7-2.4-2.2-2.8-4.1c-0.1,3.7,0.4,7.2,3.1,8.4c3.1,1.4,10.3-5.7,13.5-6.8
			c4.8-1.8,9.9-2.8,14-5.8c4.4-3.2,7.2-8,7.7-13.4c0.3-2.9-0.1-6.2,1.9-8.4c1.6-1.5,3.8-2.1,5.9-1.5c2,0.6,3.9,1.7,5.4,3.3
			c3.3,3.2,5.4,7.3,6.1,11.8c0.7,4,0.4,8.4,2.8,11.6c2.7,3.4,7.5,4,10.9,1.3c1.8-1.4,2.8-3.4,3-5.7c0-1.1-0.1-2.4-0.4-3.5
			C333.8,243.2,331.8,245.5,329,246.5z"/>
	</g>
	<path class="st13" d="M118.6,429.7c-0.4,0.6-0.8,1.3-1.1,2c-0.1,0.2-0.2,0.4-0.2,0.6c-0.1-0.1-0.3-0.1-0.4-0.2
		c-0.6-0.2-1.1-0.2-1.8-0.2c0-0.3,0-0.4,0-0.7c0.1-2.6-0.3-6.1-2.7-4.6c-2.4,1.5-0.7,3.8,0.8,5.4l0.4,0.4c-1.4,1-1.6,3.3-1.9,5.6
		c-0.3,2.3-2.2,4.9-3.5,6.5l-0.4,0.4c-1.1-0.9-2.5-1.2-3.9-1c-0.1-0.2-0.1-0.4-0.2-0.6c-1.1-3.9-3.4-10.6-6.2-12.1l0.4-0.4
		c1.2-1.6,2.6-4,0.5-4.6c-2-0.6-2.2,2-2.1,4.1c0,0.3,0,0.4,0.1,0.7c-0.8,0-1.6,0.4-2.1,1.1l-0.3-0.4c-1.6-1.9-4.7-5-5.6-2.7
		c-0.9,2.1,1.8,4.9,3.6,6.6l0.1,0.1c-1.2,5,4.2,9.2,7.2,11l0.4,0.3c-4.1,4.8-6.5,13.7-6.5,13.7l11.3,2c0,0,7.5-6.5,6.5-12.5h0.1
		c7.5-1.5,9.2-9.5,8-14.2l0.2-0.1c1.4-0.5,2.6-1.5,3.4-2.7C125.2,430.1,120.7,426.9,118.6,429.7z"/>
	<path class="st9" d="M118.6,429.7c-0.4,0.6-0.8,1.3-1.1,2c-0.1,0.2-0.2,0.4-0.2,0.6c-0.1-0.1-0.3-0.1-0.4-0.2
		c-0.6-0.2-1.1-0.2-1.8-0.2c0-0.3,0-0.4,0-0.7c0.1-2.6-0.3-6.1-2.7-4.6c-2.4,1.5-0.7,3.8,0.8,5.4l0.4,0.4c-1.4,1-1.6,3.3-1.9,5.6
		c-0.3,2.3-2.2,4.9-3.5,6.5l-0.4,0.4c-1.1-0.9-2.5-1.2-3.9-1c-0.1-0.2-0.1-0.4-0.2-0.6c-1.1-3.9-3.4-10.6-6.2-12.1l0.4-0.4
		c1.2-1.6,2.6-4,0.5-4.6c-2-0.6-2.2,2-2.1,4.1c0,0.3,0,0.4,0.1,0.7c-0.8,0-1.6,0.4-2.1,1.1l-0.3-0.4c-1.6-1.9-4.7-5-5.6-2.7
		c-0.9,2.1,1.8,4.9,3.6,6.6l0.1,0.1c-1.2,5,4.2,9.2,7.2,11l0.4,0.3c-4.1,4.8-6.5,13.7-6.5,13.7l11.3,2c0,0,7.5-6.5,6.5-12.5h0.1
		c7.5-1.5,9.2-9.5,8-14.2l0.2-0.1c1.4-0.5,2.6-1.5,3.4-2.7C125.2,430.1,120.7,426.9,118.6,429.7z"/>
	<path class="st13" d="M96,433l-1.3,3.9c-0.6-0.4-1.1-0.9-1.7-1.3c-1.9-1.6-4.5-4.4-3.6-6.6c0.9-2.3,3.9,0.7,5.6,2.7
		C95.6,432.4,96,433,96,433z"/>
	<path class="st13" d="M98.8,430.7c-0.7,0.9-1.3,1.5-1.3,1.5c-0.1-0.7-0.2-1.3-0.3-2c-0.1-1.9,0.1-4.6,2.1-4.1
		C101.4,426.7,100.1,429.2,98.8,430.7z"/>
	<path class="st13" d="M115.9,431.4c0,1.3-0.2,2.3-0.2,2.3c-0.6-0.4-1.1-1-1.7-1.5c-1.5-1.6-3.2-4-0.8-5.4S116,428.9,115.9,431.4z"
		/>
	<path class="st13" d="M123.8,433c-0.9,1.1-2.1,2.1-3.4,2.7c-0.4,0.2-0.8,0.3-1.1,0.4l-1.6-2.2c0.2-0.7,0.4-1.4,0.6-2.1
		c0.3-0.7,0.6-1.4,1.1-2C121.5,426.9,125.9,430.1,123.8,433z"/>
	<path class="st9" d="M94.9,431.6c0.7,0.8,1.1,1.3,1.1,1.3l-1.3,3.9c-0.6-0.4-1.1-0.9-1.7-1.3c0.2-1.2,0.7-2.4,1.5-3.4
		C94.7,432,94.9,431.8,94.9,431.6z"/>
	<path class="st9" d="M98.8,430.7c-0.7,0.9-1.3,1.5-1.3,1.5c-0.1-0.7-0.2-1.3-0.3-2C97.9,430.3,98.4,430.5,98.8,430.7z"/>
	<path class="st13" d="M105.4,446.1l-3.3,1.4c-0.6-0.3-1.2-0.6-1.8-1c-3.4-2.1-10.4-7.5-5.7-13.8s8.6,5,10.1,10.6
		C105.1,445.1,105.4,446.1,105.4,446.1z"/>
	<path class="st9" d="M114.1,432.2c0.4-0.5,1.1-0.8,1.9-0.8c0,1.3-0.2,2.3-0.2,2.3C115.2,433.2,114.7,432.8,114.1,432.2z"/>
	<path class="st9" d="M120.3,435.7c-0.4,0.2-0.8,0.3-1.1,0.4l-1.6-2.2c0.2-0.7,0.4-1.4,0.6-2.1C119.2,432.3,120,433.8,120.3,435.7z"
		/>
	<path class="st13" d="M112.1,450l-0.5,0.1c-11,1.7-3.6-4.2-3.6-4.2s0.5-0.4,1.1-1.2c1.3-1.5,3.4-4.1,3.5-6.5
		c0.4-3.5,0.7-6.9,4.9-5.9S122.5,447.9,112.1,450z"/>
	<rect x="90.8" y="477.5" class="st22" width="21.1" height="5.6"/>
	<rect x="87.4" y="459.5" class="st22" width="27.6" height="19.4"/>
	<rect x="90.8" y="477.5" class="st9" width="21.1" height="5.6"/>
	<rect x="87.4" y="459.5" class="st9" width="27.6" height="19.4"/>
	<rect x="92.2" y="477.5" class="st22" width="21.1" height="5.6"/>
	<path class="st9" d="M104.7,443.4c0.4,1.7,0.7,2.8,0.7,2.8l-3.3,1.4c-0.6-0.3-1.2-0.6-1.8-1C101.3,445.1,102.9,443.9,104.7,443.4z"
		/>
	<path class="st9" d="M112.1,450l-0.5,0.1c-11,1.7-3.6-4.2-3.6-4.2s0.5-0.4,1.1-1.2C110.9,445.9,111.9,447.9,112.1,450z"/>
	<path class="st13" d="M94.2,460.5c0,0,6.2-22.1,14.8-15.3c8.7,6.8-3.5,17.3-3.5,17.3L94.2,460.5z"/>
	<circle class="st9" cx="97.2" cy="436.3" r="0.7"/>
	<circle class="st9" cx="97.2" cy="439.5" r="0.7"/>
	<circle class="st9" cx="117.3" cy="436.9" r="0.7"/>
	<circle class="st9" cx="101.1" cy="453.5" r="0.7"/>
	<circle class="st9" cx="115.9" cy="442.3" r="0.7"/>
	<circle class="st9" cx="108.7" cy="449.5" r="0.7"/>
	<circle class="st9" cx="99.6" cy="437.6" r="0.7"/>
	<circle class="st9" cx="115.4" cy="439" r="0.7"/>
	<circle class="st9" cx="113.1" cy="444.4" r="0.7"/>
	<circle class="st9" cx="105.7" cy="453" r="0.7"/>
	<circle class="st9" cx="104.2" cy="449.6" r="0.7"/>
	<circle class="st9" cx="100.7" cy="441.9" r="0.7"/>
	<rect x="92.2" y="477.5" class="st9" width="21.1" height="2"/>
	<rect x="88.9" y="459.5" class="st22" width="27.6" height="19.4"/>
	<circle class="st9" cx="106.7" cy="456.1" r="0.7"/>
	<circle class="st9" cx="102.5" cy="457" r="0.7"/>
	<g id="flower1">
		<path class="st13" d="M921.5,357.3c0,0,6.9-20.7,25.2-13.1c0,0-8.5,18.5-24.2,16.3L921.5,357.3z"/>
		<path class="st13" d="M918.7,336.6c0,0,7.7-20.8,25.9-11.6c0,0-10.6,19.1-25,14.8L918.7,336.6z"/>
		<path class="st13" d="M917.8,317.6c0,0,10.2-20.3,25-17.5c0,0-10.6,21.6-24.5,22L917.8,317.6z"/>
		<path class="st13" d="M918.2,299.2c0,0,11.6-24.7,23.3-20.8c0,0-8.3,18.9-23.5,24.8L918.2,299.2z"/>
		<path class="st13" d="M920.2,277.4c0,0,10.4-20.4,22.4-19.4c0,0-8.1,20.4-23.1,25L920.2,277.4z"/>
		<path class="st13" d="M921.8,257.2c0,0,12.2-20.1,20.1-19.4c0,0-7.1,20.6-19.9,23.1L921.8,257.2z"/>
		<path class="st13" d="M923.8,238.4c0,0,9-22.5,17.2-23.2c0,0-4,18.9-16.7,25.1L923.8,238.4z"/>
		<path class="st13" d="M924.5,213.6c0,0,8.6-17.8,15.4-19.6c0,0-4.6,21.7-14.7,24.4L924.5,213.6z"/>
		<path class="st13" d="M924.5,197.1l3.9-33c0,0,8.1,26.6-3.9,39V197.1z"/>
		<path class="st13" d="M920.3,163.1c0,0-4.9-25.3-6.7-27c0,0,14.4,18.1,9.7,37.9L920.3,163.1z"/>
		<path class="st13" d="M920.5,372.8c-4.3,3-8.6,6.2-12.8,9.5c-0.8,0.6-1.7,1.2-2.5,1.9c-2.7-0.4-5.3-1.2-7.8-2.5
			C905.8,370.2,915.2,371,920.5,372.8z"/>
		<path class="st13" d="M921.7,357.8c0,0-13.3-17.3-28.1-4.2c0,0,14,14.7,28.3,7.5L921.7,357.8z"/>
		<path class="st13" d="M919.6,336.2c0,0-13.3-17.7-28.1-3.6c0,0,15.7,15.2,28.2,6.9L919.6,336.2z"/>
		<path class="st13" d="M919.5,317.2c0,0-9.2-20.9-24-18.8c0,0,9.5,22.1,23.2,23.2L919.5,317.2z"/>
		<path class="st13" d="M918.7,299.2c0,0-8.5-25.8-20.7-23.4c0,0,5.9,19.8,20.3,27.5L918.7,299.2z"/>
		<path class="st13" d="M921.3,276.4c0,0-9.6-20.8-21.7-20.3c0,0,7.3,20.7,22.1,25.9L921.3,276.4z"/>
		<path class="st13" d="M923.2,257c0,0-6.5-22.6-14.3-24c0,0,1.4,21.7,13.1,27.5L923.2,257z"/>
		<path class="st13" d="M924.2,238c0,0-7.5-23.1-15.6-24.4c0,0,2.7,19.2,14.9,26.2L924.2,238z"/>
		<path class="st13" d="M926.1,215.1c0,0-5.3-19-11.8-22c0,0,0.7,22.2,10.1,26.6L926.1,215.1z"/>
		<path class="st13" d="M923.7,196.4l-13.8-30.2c0,0,0.4,27.7,15.6,35.9L923.7,196.4z"/>
		<path class="st13" d="M915.8,164.7c0,0-18.7-17.7-19.2-20.1c0,0,7.6,21.9,26.8,28.5L915.8,164.7z"/>
		<path class="st13" d="M915.6,158c0,0-20.5-26.8-26.7-27.7c0,0,19.7,4,27.4,26.6L915.6,158z"/>
		<path class="st23" d="M925.3,218.5h-0.9c0.9-36.1-2.5-58-9.5-61.8l0.4-0.8C922.7,159.9,926.3,181.6,925.3,218.5z"/>
		<path class="st23" d="M919,304.1l-1.3-0.1c0.3-3.4,0.5-6.8,0.9-10.2c3.3-29.5,5.4-56.6,5.9-77.2l0.9-0.8
			c-0.5,20.6-2.2,48.7-5.5,78.2C919.4,297.4,919.2,300.8,919,304.1z"/>
		<path class="st23" d="M922.8,360.7c0.6,3.1,1.3,6.2,2,9.1L923,371c-0.7-3.1-1.4-6.2-2-9.4c-0.4-1.9-0.6-3.7-1-5.6
			c-0.8-5.1-1.4-10.4-1.9-15.7c-0.1-1-0.2-1.9-0.3-2.9c-0.1-1.1-0.2-2.2-0.3-3.4v-0.5c-0.3-4-0.4-8-0.4-12.1c0-2.8,0-5.7,0-8.4
			c0.1-3,0.2-6,0.4-9c0-0.4,0-0.8,0.1-1.1c0.1-0.4,0-0.8,0.1-1.2c0-0.1,0-0.2,0-0.3l0.4,0.3l0.3,0.2l0.7,0.4v0.1v0.5
			c-0.3,4.2-0.4,8.4-0.4,12.5c0,0.3,0,0.5,0,0.8c0,1.9,0,3.7,0,5.5c0,0.1,0,0.3,0,0.4c0.1,3.9,0.3,7.8,0.5,11.5
			c0,0.5,0.1,1.1,0.1,1.7c0,0.2,0,0.4,0,0.6c0.1,0.5,0.1,1.1,0.2,1.7l0.2,2c0,0.1,0,0.2,0,0.3c0.5,5.7,1.3,11.1,2.3,16.4
			C922.2,357.8,922.5,359.3,922.8,360.7z"/>
	</g>
	<g id="flower2">
		<path class="st13" d="M1008.4,317.4l-2,1.3c-5.7,3.9-11.6,7.6-17.5,11.2c0,0.6,0,1.2,0,1.8c-0.1,0-0.3-0.1-0.4-0.1l-0.1-1.4
			l-0.1-1.5l0,0l0,0v-0.5c0,0,0.3-0.4,0.7-1.1C991.2,324.2,998.4,315.3,1008.4,317.4z"/>
		<path class="st13" d="M989.9,307.3c0,0,11.8-18.7,27.7-6c0,0-14.3,16.5-27.5,9.3L989.9,307.3z"/>
		<path class="st13" d="M993,288.6c0,0,14.2-17.8,28.1-11.9c0,0-14.8,18.9-28.5,16.4L993,288.6z"/>
		<path class="st13" d="M997.2,270.6c0,0,16.3-21.7,27.1-15.6c0,0-12,16.8-28.1,19.4L997.2,270.6z"/>
		<path class="st13" d="M1003.6,249.9c0,0,14.4-17.8,26-14.4c0,0-12.1,18.3-27.7,19.8L1003.6,249.9z"/>
		<path class="st13" d="M1009.4,230.3c0,0,16.1-17.2,23.7-14.8c0,0-11.2,18.6-24.2,18.5L1009.4,230.3z"/>
		<path class="st13" d="M1015.1,212.3c0,0,13.5-20.1,21.6-19.2c0,0-7.8,17.7-21.5,21.1L1015.1,212.3z"/>
		<path class="st13" d="M1021,188.1c0,0,12.1-15.6,19.1-16c0,0-9,20.3-19.4,20.9L1021,188.1z"/>
		<path class="st13" d="M1024.3,172.1l10.6-31.5c0,0,2.5,27.7-11.8,37.3L1024.3,172.1z"/>
		<path class="st13" d="M1027.3,137.9c0,0,0.4-25.7-1.1-27.7c0,0,10.4,20.7,1.7,39.1L1027.3,137.9z"/>
		<path class="st13" d="M959.9,347.2c4-3.6,7.7-5.5,11.1-6.3c-3.6,2.1-7.2,4.3-10.8,6.5L959.9,347.2z"/>
		<path class="st13" d="M988.5,328.7L988.5,328.7L988.5,328.7l-0.3,1.7l-0.3,1.7c-0.3,0.1-0.6,0.2-0.9,0.2c-0.8,0.2-1.7,0.3-2.5,0.4
			c-13.6,1-22.8-13.8-22.8-13.8c13.7-7.9,22.4,3.1,25.4,7.8C988,327.9,988.4,328.6,988.5,328.7z"/>
		<path class="st13" d="M990.8,307.2c0,0-9.5-20-26.8-9.3c0,0,12.2,18.1,26.2,12.5L990.8,307.2z"/>
		<path class="st13" d="M994.7,288.6c0,0-4.7-22.4-19.7-23.3c0,0,4.7,23.5,17.9,27.6L994.7,288.6z"/>
		<path class="st13" d="M997.6,270.7c0,0-3-27-15.4-27.2c0,0,1.8,20.6,14.2,31.1L997.6,270.7z"/>
		<path class="st13" d="M1004.8,249c0,0-5.1-22.4-17.1-24.3c0,0,2.9,21.7,16.3,29.9L1004.8,249z"/>
		<path class="st13" d="M1010.8,230.4c0,0-1.7-23.5-9.1-26.5c0,0-3.1,21.6,7.2,29.6L1010.8,230.4z"/>
		<path class="st13" d="M1015.6,212c0,0-2.6-24.1-10.2-27c0,0-1.3,19.4,9.2,28.7L1015.6,212z"/>
		<path class="st13" d="M1022.1,190c0,0-1.3-19.7-6.9-23.9c0,0-3.9,21.9,4.4,28.1L1022.1,190z"/>
		<path class="st13" d="M1023.6,171.1l-7.3-32.4c0,0-5.3,27.3,8,38.3L1023.6,171.1z"/>
		<path class="st13" d="M1022.6,138.5c0,0-14.7-21.1-14.6-23.7c0,0,2.9,23,20.3,33.4L1022.6,138.5z"/>
		<path class="st13" d="M1023.6,131.9c0,0-14.6-30.5-20.4-32.6c0,0,18.5,8,21.4,31.6L1023.6,131.9z"/>
		<path class="st23" d="M1020.7,193.1l-0.9-0.2c8.3-35.1,9.5-57.3,3.4-62.4l0.6-0.7C1030.3,135.4,1029.2,157.2,1020.7,193.1z"/>
		<path class="st23" d="M996.9,275.7l-1.3-0.4c0.9-3.3,1.9-6.5,3-9.7c9.2-28.2,17-54.3,21.6-74.3l1.1-0.6
			c-4.8,20.1-12.2,47.2-21.5,75.4C998.8,269.2,997.7,272.4,996.9,275.7z"/>
		<path class="st23" d="M997.4,273.8c-0.1,0.2-0.1,0.4-0.2,0.6c-1.1,4.1-2.2,8.1-3,12.1c-0.1,0.3-0.1,0.5-0.2,0.9
			c-0.4,1.8-0.7,3.5-1.1,5.3c0,0.1-0.1,0.3-0.1,0.4c-0.9,4.4-1.5,8.7-2.1,13c0,0.2-0.1,0.4-0.1,0.6l0,0c-0.2,1.2-0.3,2.5-0.4,3.7
			v0.3c-0.6,5.7-1,11.1-1.1,16.5c0,0.9,0,1.9-0.1,2.7c0,0.6,0,1.2,0,1.8c-0.1,0-0.3-0.1-0.4-0.1l-0.1-1.4l-0.4,0.3l-0.3,1.7
			c-0.3,0.1-0.6,0.2-0.9,0.2v-1.2c0-1.4,0.1-2.9,0.2-4.4c0.3-5.2,0.7-10.5,1.3-15.8c0.3-2,0.5-4.2,0.8-6.3l0,0
			c0.6-4.2,1.3-8.3,2.2-12.5c0.5-2.7,1.1-5.5,1.8-8.2l0,0c0.7-2.9,1.4-5.8,2.2-8.7c0.1-0.4,0.2-0.8,0.3-1.1l0,0
			c0.1-0.4,0.3-0.9,0.4-1.3l0.1-0.2l0.3,0.3l0.3,0.3L997.4,273.8z"/>
	</g>
</g>
<g>
	<path class="st24" d="M117.6,445.4c-10.5-4.9-13.4,6.3-13.4,6.3s-6.4,0.2-9.3,5.4c-2.9,5.2-6.9,5.2-6.9,5.2s-4.6,2.4-4.9,2.9
		c-0.4,0.7-1,1.2-1.7,1.6c-0.1,0-5.3,3.9-4.8,4.1c0.3,0.1,0.6,0.2,0.9,0.3c-1.2,1.3-0.2,1.9-0.2,1.9L67.2,478
		c-0.9,0.4-1.7,1-2.3,1.8c-1.1,0.3-1.9,1.2-2.1,2.3l2.4-0.2c-1.8,1.2-2,2.3-1.8,2.3s3.4-1.6,3.4-1.6c0,0.4,6.4-0.7,6.4-0.7
		s-3.1,2.2-3.3,3c-0.3,0.8-0.7,1.6-1.2,2.3c2.3,1.2,6.6-2.8,6.6-2.8s1.2-1.6,2.2-1.8c1.5-0.6,2.9-1.4,4.2-2.3c1.9,0.9,7.1-1,7.9-1.4
		c0.8-0.3,1.3-0.2,1.5,0.1s-1.1,0.2-1.1,0.2v0.5c0,0-0.5,0.7-0.3,0.8c0.4,0.1,0.8,0.1,1.2,0.1c0,0-0.8,0.4-0.5,0.5s1.2-0.3,1.2-0.3
		v0.5l0.8-0.7l1.8,3.7c0,0,1.4,1,2.1,0.7l2.1-0.6l-2.5-0.1c0,0-2-3.9-1.8-4c0.3-0.1,0.5,0.2,0.8-0.1c0.2-0.1,0.4-0.2,0.7-0.3
		c0.4-0.3,0.8-0.5,1.3-0.6l3.5,5.1c1.7,0.1,3.4,0.2,5,0.1c-0.9-0.3-1.8-0.5-2.7-0.6l-4.5-5.6c0,0,0.3-1.2,4.2-2.1
		c3.9-0.9,8.2-6,8.2-6h0.6c1-0.5,4-7.1,4-7.1c0.9-1.5,1.4-3.2,1.5-5l0.2,0.2l0.2-2.8c0,0,0.6-0.6,0.5-0.9s0.4-1.2,0.4-1.2
		s0.3,0.4,0.4,0c0.1-0.3,0.3-0.5,0.6-0.6l0.4-0.2l0.3-0.2l0.3-0.4c0.8-0.9,4.3,0.1,4.9,0.3c0.6,0.2,0.7,0,0.7,0
		c-0.6-1.4-7.3-3.5-7.3-3.5c2.1-1.6,8-0.7,8-0.7C125,446.3,117.7,445.5,117.6,445.4z"/>
</g>
</svg>
