<svg xmlns="http://www.w3.org/2000/svg" viewBox="0 0 1014.85 700.86"><defs><style>.cls-1{fill:#6c63ff;}.cls-2{fill:#29293d;}.cls-3{fill:#3f3d56;}.cls-4,.cls-8{opacity:0.1;}.cls-4,.cls-5{isolation:isolate;}.cls-5{fill:#fff800;opacity:0.85;}.cls-6,.cls-7{fill:none;}.cls-6{stroke:#3f3d56;stroke-miterlimit:10;stroke-width:2px;}.cls-9{fill:#171726;}.cls-10{fill:#fbbebe;}</style></defs><title>farmer-alone depressed</title><g id="Layer_2" data-name="Layer 2"><g id="b3eb9a67-8d35-4413-b29d-d464657b13c9"><path class="cls-1" d="M943.61,480.82a106.23,106.23,0,0,0,2.85,82.69c.73,1.55,1.5,3.11,2.3,4.68,9.46,18.55,22.66,37.82,15.52,56.89-5.55,14.86-21.51,22.67-36.25,28.5a660.92,660.92,0,0,1-178.29,43.17c-45.1,4.45-90.52,4.23-135.84,4-98-.48-196.13-1-293.84-8.74-44.67-3.5-89.49-8.63-132.47-21.31A387.5,387.5,0,0,1,30.09,579.49c-1.59-1.51-3.15-3.05-4.71-4.61C16,565.43,7.46,555,3.14,542.46c-8.56-25,1.7-52.57,14.91-75.52s29.78-44.84,35.17-70.79c8-38.2-9.75-76.38-23.37-112.94s-22.57-80.47,0-112.33c11-15.54,28-25.69,45.05-34.08a386.18,386.18,0,0,1,161.8-39.44c32.73-.68,66.62,2.62,97.22-9,17.23-6.57,32.71-17.69,50.63-22.08,30.28-7.39,61.63,5.67,88.79,21,15.63,8.81,30.85,18.44,47.19,26,11.88,5.48,25.54,11.61,38.17,15,12.38,3.33,25.14-3.35,36-8.83,23.6-11.9,45.78-29.64,72.92-32.44C702,83.46,736,105.63,769.87,98.52c14.42-3,27.22-11.18,41.26-15.66,36.71-11.75,76.41,2.62,111.12,19.45,21.51,10.42,43.37,22.58,56.81,42.36,10.3,15.18,14.67,33.5,18.8,51.36,15.73,68,30.09,143.19-3.27,204.51C979.35,428.44,955.13,451.21,943.61,480.82Z"/><path class="cls-2" d="M964.28,625.09c-5.55,14.86-21.51,22.67-36.25,28.5a660.92,660.92,0,0,1-178.29,43.17c-45.1,4.45-90.52,4.23-135.84,4-98-.48-196.13-1-293.84-8.74-44.67-3.5-89.49-8.63-132.47-21.31A387.5,387.5,0,0,1,30.09,579.49c-1.59-1.51-3.15-3.05-4.71-4.61a201.77,201.77,0,0,1,40.37-1.07c37.76,2.58,74.56,13.07,112.15,17.62C323.42,609,472.62,537.09,614.75,573c43.86,11.1,85.4,32.27,130.46,36.51,66.5,6.28,130.06-24.81,195.21-39.63,2.74-.63,5.53-1.21,8.35-1.75C958.22,586.73,971.42,606,964.28,625.09Z"/><rect class="cls-3" x="856.41" y="241" width="5.65" height="311.93"/><path class="cls-3" d="M867.44,611.28a14.78,14.78,0,0,1-18.12,0c-2.52-16.69,3.89-49.51,5.4-56.86.21-1,.32-1.49.32-1.49h7.25a5.27,5.27,0,0,1,1.1,1.7C868.43,565.29,867.44,611.28,867.44,611.28Z"/><path class="cls-4" d="M860.81,546.19v6.74h-3.06v-6.75a9.45,9.45,0,0,1,1.49-.11A10.49,10.49,0,0,1,860.81,546.19Z"/><path class="cls-4" d="M863.42,554.63a8.65,8.65,0,0,1-4.19,1,8.43,8.43,0,0,1-4.51-1.19c.21-1,.32-1.49.32-1.49h7.25A5.27,5.27,0,0,1,863.42,554.63Z"/><ellipse class="cls-3" cx="859.24" cy="550.84" rx="6.1" ry="3.63"/><polygon class="cls-3" points="832.4 190.75 853.54 181.81 885.6 188.04 861 169.44 832.4 190.75"/><polygon class="cls-1" points="838.69 194.04 832.4 190.75 853.9 180.46 885.6 188.04 880.02 190.75 853.9 184.89 838.69 194.04"/><polygon class="cls-3" points="838.69 194.04 832.4 190.75 854.52 179.49 885.6 188.04 880.02 190.75 853.9 184.89 838.69 194.04"/><polygon class="cls-3" points="837.84 191.61 855.14 240.09 863.72 240.09 879.74 188.61 853.9 182.6 837.84 191.61"/><polygon class="cls-3" points="867.97 226.44 864.54 237.44 863.72 240.09 855.14 240.09 854.5 238.3 850.46 226.97 856.95 223.07 867.97 226.44"/><polygon class="cls-5" points="853.9 184.89 858 240.09 855.14 240.09 838.69 194.04 853.9 184.89"/><polygon class="cls-4" points="861 169.44 853.9 180.46 832.4 190.75 861 169.44"/><path class="cls-4" d="M864.54,237.44l-.83,2.66h-8.57l-.64-1.8a7.15,7.15,0,0,1,5.51-2.07A8.28,8.28,0,0,1,864.54,237.44Z"/><path class="cls-4" d="M860.81,241v4.72a6.45,6.45,0,0,1-.8,0,9.84,9.84,0,0,1-2.2-.26V241Z"/><ellipse class="cls-3" cx="860" cy="241" rx="6.1" ry="3.63"/><path class="cls-6" d="M831.31,618.27s-15.25-27-38.25-34.8a47,47,0,0,1-23.78-17.8,78.51,78.51,0,0,1-7-12.63"/><path class="cls-3" d="M748.68,548.89c2.61,2.55,14.8,5.17,14.8,5.17s-3-12.12-5.61-14.64a6.61,6.61,0,1,0-9.19,9.48Z"/><path class="cls-3" d="M754.71,569.94c3.58.72,15.24-3.71,15.24-3.71s-9.09-8.53-12.67-9.23a6.61,6.61,0,0,0-2.57,12.95Z"/><path class="cls-3" d="M779.84,593.64c3.45-1.19,11.28-10.9,11.28-10.9S779,580,775.52,581.16a6.61,6.61,0,0,0,4.32,12.48Z"/><path class="cls-3" d="M802.85,607.3c3.6-.6,13-8.82,13-8.82s-11.5-4.79-15.11-4.2a6.61,6.61,0,1,0,1.62,13.12l.58-.1Z"/><path class="cls-3" d="M780.11,556.77c0,3.65-6.61,14.23-6.61,14.23s-6.61-10.57-6.61-14.21a6.61,6.61,0,0,1,13.22,0Z"/><path class="cls-3" d="M806.85,573.08c-1.1,3.48-10.56,11.6-10.56,11.6s-3.14-12.12-2-15.55a6.61,6.61,0,0,1,12.61,3.94Z"/><path class="cls-3" d="M830.66,592.51c-.5,3.61-8.44,13.22-8.44,13.22s-5.13-11.36-4.65-15a6.61,6.61,0,0,1,13.09,1.76Z"/><path class="cls-6" d="M830.43,617.74s-3-30.85-20.84-47.31A47,47,0,0,1,795,544.51a78.9,78.9,0,0,1-1.3-14.39"/><path class="cls-3" d="M782.56,521.4c1.37,3.38,11.45,10.73,11.45,10.73s2.2-12.29.8-15.67a6.61,6.61,0,0,0-12.25,4.94Z"/><path class="cls-3" d="M780,542.54c3,2.09,15.43,2.78,15.43,2.78s-4.85-11.48-7.82-13.58a6.61,6.61,0,0,0-7.6,10.8Z"/><path class="cls-3" d="M793.34,574.35c3.64.31,14.73-5.39,14.73-5.39s-10-7.46-13.62-7.77a6.61,6.61,0,1,0-1.1,13.16Z"/><path class="cls-3" d="M808.86,596.17c3.53.91,15.43-2.82,15.43-2.82s-8.58-9-12.12-9.92a6.61,6.61,0,1,0-3.31,12.78Z"/><path class="cls-3" d="M808.54,540.77c-1.48,3.31-11.79,10.33-11.79,10.33s-1.75-12.34-.28-15.68a6.61,6.61,0,1,1,12.07,5.36Z"/><path class="cls-3" d="M826.38,566.51c-2.41,2.74-14.32,6.33-14.32,6.33s2-12.3,4.41-15a6.61,6.61,0,0,1,9.92,8.72Z"/><path class="cls-3" d="M219,223.77s10.83-17.6,21.27-7.3a3.54,3.54,0,0,1,2,3.64s-.9-.63-1.8,1.32a9.32,9.32,0,0,1-1.18,1.87,4.63,4.63,0,0,1-2.48,1.61h0s-5.29,3.37-14.34-.22c0,0-2.65.17-3-.19l3.22-2a6.27,6.27,0,0,0,3.61,2.85s-3.62-2.69-3.16-3.17c.08-.12,1.76-1,1.76-1s2.43,4.21,5.89,4.75c0,0-4.75-2.62-5.29-5.05l2.57-1.19s2.33,4.56,6.28,5.35c0,0-4.87-2.9-5.69-5.57l2.68-.81s2.34,4.34,5.65,5c0,0-5.31-3.94-5-5.18a13.65,13.65,0,0,1,3.25-.41s1.76,3.12,3.71,3.31c0,0-3.27-3-3-3.43a14.77,14.77,0,0,1,5.24,1.07,10.6,10.6,0,0,0-5.2-1.6,5.82,5.82,0,0,1,3-1.55s-1.85-.93-3.78,1.55a13.33,13.33,0,0,0-3.08.32,12.57,12.57,0,0,1,3.36-3.77s-2.54.25-4.11,3.94l-2.74.77S230.48,215,232,214c0,0-2.57.66-4.09,5l-2.54,1.14a21.47,21.47,0,0,1,2.82-4.86s-2.24,1.12-3.54,5.22l-1.61,1s1.07-2.4,1.42-3,.22-.81.22-.81a9,9,0,0,0-2.33,4.26S219.17,224,219,223.77Z"/><path class="cls-3" d="M303.33,258.27s4-20.26,17.42-14.23a3.53,3.53,0,0,1,3.13,2.71s-1.07-.28-1.22,1.87a10,10,0,0,1-.47,2.16,4.65,4.65,0,0,1-1.76,2.36h0s-3.8,5-13.54,4.76c0,0-2.43,1.09-2.92.89l2.33-3a6.24,6.24,0,0,0,4.38,1.42s-4.33-1.25-4.06-1.88c0-.13,1.3-1.53,1.3-1.53s3.74,3.09,7.18,2.4c0,0-5.36-.81-6.72-2.91l2-2s3.76,3.46,7.73,2.83c0,0-5.57-1-7.27-3.24l2.23-1.69s3.75,3.27,7,2.77c0,0-6.35-1.87-6.5-3.13a13.65,13.65,0,0,1,2.91-1.51s2.73,2.31,4.63,1.82c0,0-4.11-1.69-4-2.19a14.77,14.77,0,0,1,5.29-.82,10.6,10.6,0,0,0-5.43.3,5.82,5.82,0,0,1,2.24-2.48s-2.06-.23-3,2.76a13.33,13.33,0,0,0-2.78,1.37,12.8,12.8,0,0,1,1.84-4.7s-2.3,1.12-2.49,5.12l-2.3,1.67s.5-4.12,1.55-5.64c0,0-2.17,1.5-2.09,6.12l-2,1.94a21.42,21.42,0,0,1,1-5.53s-1.71,1.83-1.51,6.11l-1.17,1.46s.16-2.61.28-3.35-.07-.84-.07-.84a8.9,8.9,0,0,0-.72,4.8A22.16,22.16,0,0,1,303.33,258.27Z"/><path class="cls-2" d="M547.22,566.24s-73.45-3.1-81.17-146.85,68.79-168.11,68.79-168.11,24.24-13.54,35-14.1S616.51,240,616.51,240l-39.6-7.65s55.74-21.21,72.42-22.91l-60.24,12.69s-.85-33.38,13.58-44.42c0,0-12.3-.91-18.85,23.14a46,46,0,0,1-27.55,30.85C533.89,240.44,503,254.2,496,266c0,0-13,13.59-11-21.77s11.32-65.64,14.71-66.49c0,0,26.6-28.29,63.91-30,0,0-21.77-8.82-58.56,18.68,0,0-3.11-13.86,10.75-30.27s35.36-50.93,58.84-54.6c0,0-32.82-2-58.84,40.45,0,0-9.62,6.23-10.47-9.62s-6.51-35.65-6.51-35.65-7.92,36.5,8.82,52.89c0,0-32,41.59-30.55,88.26,0,0-9.92,21.22-13.59-3.68,0,0-2.13-34.28-6.38-63.36a86.13,86.13,0,0,1,18.06-66.43c7.06-8.82,12-17.34,9.26-21.83l-37.06,44.08S416.23,34.51,393.6,19,368.13,0,368.13,0l36.5,42.71L358.8,26.59l45.83,21.22s21.22,17.26,33.39,64.5,13.29,76.78,13.29,76.78S386,137.3,373.51,139l42.29,32a100.72,100.72,0,0,1,39.75,73.53h0S373.8,223.57,354,219.61l-37.34-38.19,28.29,36.21-58.27-.85L253.28,193s26.31,22,23.77,23.48-41,3.11-41,3.11,97.88-.56,108.64,6.51,34.79,9.61,34.79,9.61L310.14,246.2l82.64-5.94s62.52,11.32,65.92,30.85c0,0-12.74,33.21-21.22,46.39-7,10.94-21.21,46.39-24,77.51s-6.79,78.93,4,108.07,14.7,45.83,9.33,54.6-10.47,20.09,7.07,22.35,94.48-1.1,94.48-1.1S551.75,583.58,547.22,566.24Z"/><path class="cls-4" d="M477.24,291.57c-1.49.67-7.82,16.59-6.56,21.31S477.24,291.57,477.24,291.57Z"/><path class="cls-4" d="M588.89,197.44a12.9,12.9,0,0,0-2.66,8.14c-.1,2.91.29,5.83.09,8.73-.2,3.06-1.65,6.61-4.68,7.05"/><path class="cls-4" d="M536.65,101.71a73.83,73.83,0,0,0-10.24,12.71,29.33,29.33,0,0,1-2.91,4.13,47,47,0,0,1-5.61,4.6,26.45,26.45,0,0,0-8.95,14"/><path class="cls-4" d="M388.77,19a18.24,18.24,0,0,0,3.63,4.86,48,48,0,0,1,3.91,3.58,30.15,30.15,0,0,1,2.5,3.69A101.24,101.24,0,0,0,409.27,44.4"/><path class="cls-4" d="M457.23,100.94c-2.44,1.52-3.07,4.78-3,7.71s.54,5.86-.53,8.53c-.48,1.22-1.27,2.29-1.77,3.49a16.29,16.29,0,0,0-.85,6.61q.07,3.92.24,7.81c.13,3.14.43,6.53,2.56,8.82"/><path class="cls-7" d="M436.76,182a33.62,33.62,0,0,1,6.35,4.41,11.42,11.42,0,0,1,3.69,6.61c.14,1.1.07,2.2.31,3.31a10.36,10.36,0,0,0,2.2,4,54.65,54.65,0,0,0,5.36,5.93"/><path class="cls-4" d="M455.24,255.9a40,40,0,0,0-5.12-3.55,21.4,21.4,0,0,0-5.27-2.31c-2.82-.75-5.79-.64-8.68-.94s-5.94-1.1-7.92-3.25"/><path class="cls-4" d="M340.21,220.16c3.44.1,7,.22,10.07,1.8,1.56.8,2.92,2,4.46,2.81a13.51,13.51,0,0,0,6.49,1.7"/><path class="cls-4" d="M387.93,234.37a1.92,1.92,0,0,0-2.47.57c-.62.71-1,1.62-1.59,2.31-1.26,1.36-3.31,1.51-5.16,1.58"/><path class="cls-4" d="M407.65,161.26,411,163a58,58,0,0,1,9.75,6"/><path class="cls-4" d="M445.41,193.6c2.2-.52,4.06,1.81,4.41,4s-.07,4.52.56,6.61a12.4,12.4,0,0,0,3.31,4.89"/><path class="cls-4" d="M482.21,197.64c2,5.91-2.2,12.35-1,18.46.37,1.86,1.23,3.59,1.67,5.43,1.1,4.86-.83,10-4,13.9"/><path class="cls-3" d="M301.55,171.55s20.64-1.25,18.2,13.22a3.53,3.53,0,0,1-1.83,3.71s0-1.1-2.12-.71a10,10,0,0,1-2.2.1,4.68,4.68,0,0,1-2.74-1.1h0s-5.8-2.4-8-11.88c0,0-1.67-2.06-1.61-2.6l3.48,1.49a6.26,6.26,0,0,0-.25,4.61s.11-4.51.78-4.41c.13,0,1.81.87,1.81.87s-2,4.41-.5,7.56c0,0-.6-5.39,1.1-7.24l2.46,1.43s-2.39,4.52-.77,8.2c0,0-.42-5.65,1.28-7.86l2.2,1.74s-2.2,4.41-.88,7.5c0,0,.19-6.61,1.37-7.07a13.5,13.5,0,0,1,2.2,2.41s-1.54,3.23-.58,4.94c0,0,.58-4.41,1.1-4.41a14.52,14.52,0,0,1,2.14,4.9,10.52,10.52,0,0,0-1.66-5.18,5.82,5.82,0,0,1,3,1.53s-.3-2-3.44-2.2a14.32,14.32,0,0,0-2-2.35,12.8,12.8,0,0,1,5,.58s-1.66-1.94-5.59-1.1l-2.2-1.79s4.11-.57,5.85.06c0,0-2-1.72-6.45-.46l-2.39-1.43a22,22,0,0,1,5.6-.48s-2.2-1.19-6.29.1l-1.71-.76s2.57-.51,3.31-.58.79-.29.79-.29a8.9,8.9,0,0,0-4.83.53A22.6,22.6,0,0,1,301.55,171.55Z"/><path class="cls-3" d="M361.62,124.73s20.63-1.25,18.2,13.22a3.54,3.54,0,0,1-1.84,3.71s0-1.1-2.12-.71a9.32,9.32,0,0,1-2.2.11,4.69,4.69,0,0,1-2.74-1.1h0s-5.8-2.39-8.06-11.87c0,0-1.66-2.07-1.6-2.6l3.4,1.44a6.24,6.24,0,0,0-.25,4.6s.11-4.51.78-4.41c.13,0,1.81.87,1.81.87s-2,4.41-.51,7.55c0,0-.58-5.39,1.1-7.24l2.45,1.43s-2.39,4.52-.77,8.21c0,0-.41-5.65,1.29-7.86l2.2,1.73s-2.2,4.41-.88,7.52c0,0,.18-6.61,1.36-7.09a13.1,13.1,0,0,1,2.2,2.41s-1.53,3.24-.58,4.95c0,0,.6-4.41,1.1-4.41a14.43,14.43,0,0,1,2.14,4.89,10.52,10.52,0,0,0-1.66-5.18,5.79,5.79,0,0,1,3,1.54s-.31-2.06-3.45-2.2a13.33,13.33,0,0,0-2-2.34,12.76,12.76,0,0,1,5,.57s-1.67-1.94-5.6-1.1l-2.07-1.81s4.12-.56,5.86,0c0,0-2-1.71-6.45-.46l-2.39-1.43a21.65,21.65,0,0,1,5.6-.47s-2.2-1.19-6.29.1l-1.71-.77s2.57-.51,3.31-.58.79-.29.79-.29a8.82,8.82,0,0,0-4.83.54S361.56,125,361.62,124.73Z"/><path class="cls-3" d="M491,44.54s7.33,19.33-7.21,21.31a3.54,3.54,0,0,1-4.09-.65s1-.35,0-2.2a9.14,9.14,0,0,1-.76-2.12,4.62,4.62,0,0,1,.29-2.92h0s.56-6.25,8.94-11.22c0,0,1.48-2.2,2-2.3l-.39,3.77a6.26,6.26,0,0,0-4.46,1.1s4.34-1.23,4.41-.56c0,.13-.29,2-.29,2s-4.78-.65-7.36,1.76c0,0,5-2.2,7.25-1.1l-.64,2.77s-5-.94-8.07,1.71c0,0,5.28-2.08,7.88-1.1l-1,2.63s-4.91-.82-7.43,1.4c0,0,6.34-1.79,7.16-.8a13.63,13.63,0,0,1-1.64,2.85s-3.55-.51-4.89.9c0,0,4.41-.74,4.53-.29a14.6,14.6,0,0,1-4,3.49,10.56,10.56,0,0,0,4.41-3.13,5.84,5.84,0,0,1-.6,3.31s1.87-.89,1.1-3.94a13.38,13.38,0,0,0,1.63-2.63,12.68,12.68,0,0,1,.94,5s1.36-2.2-.65-5.65l1.1-2.62s1.76,3.76,1.69,5.61c0,0,1-2.42-1.48-6.29l.66-2.7A21.36,21.36,0,0,1,492.16,57s.48-2.46-2-6l.22-1.86s1.25,2.3,1.55,3,.51.67.51.67a8.88,8.88,0,0,0-2-4.41A22.16,22.16,0,0,1,491,44.54Z"/><path class="cls-3" d="M628.78,253.19s-20.34,3.66-19.62-11a3.53,3.53,0,0,1,1.38-3.9s.13,1.09,2.18.45a9.32,9.32,0,0,1,2.18-.37,4.69,4.69,0,0,1,2.85.77h0s6,1.69,9.39,10.84c0,0,1.9,1.86,1.89,2.39l-3.63-1.07a6.24,6.24,0,0,0-.29-4.59s.42,4.49-.26,4.47c-.13,0-1.9-.65-1.9-.65s1.52-4.62-.38-7.56c0,0,1.21,5.28-.24,7.32l-2.6-1.14s1.84-4.77-.2-8.24c0,0,1.08,5.56-.36,8l-2.39-1.46s1.67-4.64,0-7.57c0,0,.6,6.59-.51,7.2a13.5,13.5,0,0,1-2.47-2.14s1.14-3.4,0-5c0,0-.06,4.45-.58,4.51a14.44,14.44,0,0,1-2.7-4.61,10.66,10.66,0,0,0,2.26,4.95,5.92,5.92,0,0,1-3.12-1.18s.55,2,3.68,1.78a13.33,13.33,0,0,0,2.29,2.08,12.76,12.76,0,0,1-5.06,0s1.89,1.73,5.69.44l2.4,1.51s-4,1-5.83.63c0,0,2.19,1.46,6.46-.3l2.54,1.14a21.65,21.65,0,0,1-5.5,1.13s2.33.92,6.24-.84l1.79.57s-2.49.8-3.21,1-.75.38-.75.38a8.82,8.82,0,0,0,4.73-1.1S628.82,252.95,628.78,253.19Z"/><path class="cls-3" d="M244.25,187.42s20.49-2.74,19.11,11.85a3.53,3.53,0,0,1-1.56,3.84s-.11-1.06-2.16-.55a9.92,9.92,0,0,1-2.23.27,4.67,4.67,0,0,1-2.82-.93h0s-6-2-8.89-11.26c0,0-1.81-1.94-1.79-2.47l3.59,1.23a6.28,6.28,0,0,0,.07,4.61s-.21-4.51.47-4.44c.14,0,1.87.73,1.87.73s-1.73,4.52,0,7.57c0,0-1-5.33.62-7.31l2.54,1.24s-2.06,4.68-.18,8.25c0,0-.83-5.6.72-7.93l2.34,1.56s-1.92,4.61-.33,7.55c0,0-.3-6.57.85-7.17a13.12,13.12,0,0,1,2.41,2.25s-1.3,3.33-.23,5c0,0,.27-4.41.75-4.46a14.62,14.62,0,0,1,2.49,4.72,10.59,10.59,0,0,0-2-5,5.87,5.87,0,0,1,3.06,1.32s-.45-2-3.6-2a13.51,13.51,0,0,0-2.19-2.19,12.73,12.73,0,0,1,5,.19s-1.81-1.81-5.66-.64l-2.31-1.63s4.06-.86,5.86-.39c0,0-2.12-1.57-6.43.05L251.13,190a21.88,21.88,0,0,1,5.55-.89s-2.29-1-6.28.56l-1.75-.65s2.53-.69,3.27-.81.77-.35.77-.35a8.9,8.9,0,0,0-4.77.89S244.2,187.65,244.25,187.42Z"/><path class="cls-3" d="M612,165.48s2.42,20.53-12.12,18.92a3.53,3.53,0,0,1-3.81-1.62s1.1-.09.6-2.2a9.85,9.85,0,0,1-.24-2.2,4.68,4.68,0,0,1,1-2.81h0s2.06-5.92,11.39-8.72c0,0,2-1.79,2.51-1.75L610,168.67a6.26,6.26,0,0,0-4.61,0s4.51-.14,4.41.53c0,.14-.77,1.86-.77,1.86s-4.48-1.8-7.57-.08c0,0,5.36-.89,7.29.73l-1.29,2.53s-4.65-2.13-8.23-.3c0,0,5.62-.74,7.91.83l-1.6,2.31s-4.57-2-7.55-.44c0,0,6.61-.2,7.14.95A13.77,13.77,0,0,1,602.9,180s-3.31-1.36-5-.31c0,0,4.41.34,4.46.82a14.4,14.4,0,0,1-4.77,2.41,10.61,10.61,0,0,0,5.08-2,5.92,5.92,0,0,1-1.37,3.05s2-.42,2-3.57c0,0,2.1-1.72,2.2-2.2a12.77,12.77,0,0,1-.29,5s1.84-1.77.73-5.64l1.66-2.29s.79,4.08.28,5.85c0,0,1.6-2.1.1-6.47l1.29-2.46a22,22,0,0,1,.8,5.51s1.1-2.27-.46-6.28l.67-1.74s.65,2.53.77,3.31.33.77.33.77a8.82,8.82,0,0,0-.82-4.78S611.76,165.43,612,165.48Z"/><polygon class="cls-3" points="238.93 614.27 241.08 618.86 241.08 584.77 238.93 584.77 238.93 614.27"/><polygon class="cls-3" points="99.96 614.27 97.81 618.86 97.81 584.77 99.96 584.77 99.96 614.27"/><rect class="cls-3" x="108.65" y="522.11" width="5.96" height="41.92"/><rect class="cls-3" x="228.58" y="522.11" width="5.96" height="41.92"/><g class="cls-8"><rect x="108.65" y="522.11" width="5.96" height="41.92"/><rect x="228.58" y="522.11" width="5.96" height="41.92"/></g><rect class="cls-4" x="108.65" y="522.11" width="5.96" height="4.89"/><rect class="cls-4" x="228.58" y="522.11" width="5.96" height="4.89"/><rect class="cls-3" x="99.47" y="520.35" width="143.57" height="6.26"/><rect class="cls-4" x="108.65" y="529.25" width="5.96" height="6.26"/><rect class="cls-4" x="228.58" y="529.25" width="5.96" height="6.26"/><rect class="cls-3" x="99.47" y="528.86" width="143.57" height="6.26"/><rect class="cls-4" x="108.65" y="537.75" width="5.96" height="6.26"/><rect class="cls-4" x="228.58" y="537.75" width="5.96" height="6.26"/><rect class="cls-3" x="99.47" y="537.36" width="143.57" height="6.26"/><rect class="cls-4" x="108.65" y="546.26" width="5.96" height="6.26"/><rect class="cls-4" x="228.58" y="546.26" width="5.96" height="6.26"/><rect class="cls-3" x="99.47" y="545.87" width="143.57" height="6.26"/><rect class="cls-4" x="108.65" y="554.76" width="5.96" height="6.26"/><rect class="cls-4" x="228.58" y="554.76" width="5.96" height="6.26"/><rect class="cls-3" x="99.47" y="554.36" width="143.57" height="6.26"/><g class="cls-8"><circle cx="111.64" cy="523.88" r="0.87"/><circle cx="111.64" cy="532.37" r="0.87"/><circle cx="111.64" cy="540.88" r="0.87"/><circle cx="111.64" cy="549.38" r="0.87"/><circle cx="111.64" cy="557.89" r="0.87"/><circle cx="231.56" cy="523.88" r="0.87"/><circle cx="231.56" cy="532.37" r="0.87"/><circle cx="231.56" cy="540.88" r="0.87"/><circle cx="231.56" cy="549.38" r="0.87"/><circle cx="231.56" cy="557.89" r="0.87"/></g><circle class="cls-3" cx="111.64" cy="523.49" r="0.87"/><circle class="cls-3" cx="111.64" cy="531.98" r="0.87"/><circle class="cls-3" cx="111.64" cy="540.49" r="0.87"/><circle class="cls-3" cx="111.64" cy="548.99" r="0.87"/><circle class="cls-3" cx="111.64" cy="557.5" r="0.87"/><circle class="cls-3" cx="111.64" cy="523.49" r="0.87"/><circle class="cls-3" cx="111.64" cy="531.98" r="0.87"/><circle class="cls-3" cx="111.64" cy="540.49" r="0.87"/><circle class="cls-3" cx="111.64" cy="548.99" r="0.87"/><circle class="cls-3" cx="111.64" cy="557.5" r="0.87"/><circle class="cls-3" cx="231.56" cy="523.49" r="0.87"/><circle class="cls-3" cx="231.56" cy="531.98" r="0.87"/><circle class="cls-3" cx="231.56" cy="540.49" r="0.87"/><circle class="cls-3" cx="231.56" cy="548.99" r="0.87"/><circle class="cls-3" cx="231.56" cy="557.5" r="0.87"/><g class="cls-8"><circle cx="111.64" cy="523.49" r="0.87"/><circle cx="111.64" cy="531.98" r="0.87"/><circle cx="111.64" cy="540.49" r="0.87"/><circle cx="111.64" cy="548.99" r="0.87"/><circle cx="111.64" cy="557.5" r="0.87"/><circle cx="111.64" cy="523.49" r="0.87"/><circle cx="111.64" cy="531.98" r="0.87"/><circle cx="111.64" cy="540.49" r="0.87"/><circle cx="111.64" cy="548.99" r="0.87"/><circle cx="111.64" cy="557.5" r="0.87"/><circle cx="231.56" cy="523.49" r="0.87"/><circle cx="231.56" cy="531.98" r="0.87"/><circle cx="231.56" cy="540.49" r="0.87"/><circle cx="231.56" cy="548.99" r="0.87"/><circle cx="231.56" cy="557.5" r="0.87"/></g><polygon class="cls-3" points="246.36 566.49 96.04 566.49 99.47 562.29 243.03 562.29 246.36 566.49"/><polygon class="cls-3" points="251.64 573.04 90.37 572.64 95.85 566.88 246.95 566.88 251.64 573.04"/><polygon class="cls-3" points="256.72 579.2 84.61 579.2 89.88 573.23 252.03 573.43 256.72 579.2"/><polygon class="cls-3" points="110.77 584.77 110.77 597.07 108.65 601.18 107.95 586.52 107.87 584.77 110.77 584.77"/><polygon class="cls-3" points="231.49 584.77 231.41 586.52 230.71 601.18 228.6 597.07 228.6 584.77 231.49 584.77"/><rect class="cls-3" x="103.18" y="583.79" width="5.47" height="17.4"/><rect class="cls-3" x="230.72" y="583.79" width="5.47" height="17.4"/><polygon class="cls-4" points="108.65 584.77 110.77 584.77 110.77 586.52 103.18 586.52 103.18 583.79 108.65 583.79 108.65 584.77"/><rect class="cls-4" x="103.18" y="583.79" width="5.47" height="17.4"/><rect class="cls-4" x="230.72" y="583.79" width="5.47" height="17.4"/><polygon class="cls-4" points="236.2 583.79 236.2 586.52 228.6 586.52 228.6 584.77 230.71 584.77 230.71 583.79 236.2 583.79"/><rect class="cls-3" x="96.04" y="581.83" width="146.98" height="4.3"/><rect class="cls-4" x="96.04" y="581.83" width="146.98" height="4.3"/><rect class="cls-3" x="91.55" y="581.04" width="6.26" height="37.82"/><rect class="cls-3" x="241.08" y="581.04" width="6.26" height="37.82"/><rect class="cls-4" x="91.55" y="581.04" width="6.26" height="37.82"/><rect class="cls-4" x="241.08" y="581.04" width="6.26" height="37.82"/><rect class="cls-4" x="96.04" y="581.83" width="146.98" height="0.39"/><circle class="cls-4" cx="94.31" cy="584.18" r="0.87"/><circle class="cls-4" cx="244.72" cy="584.05" r="0.87"/><polygon class="cls-3" points="86.02 577.6 84.61 579.2 84.61 580.51 256.72 580.51 256.72 579.2 255.43 577.6 86.02 577.6"/><rect class="cls-3" x="84.61" y="579.2" width="172.1" height="2.65"/><path class="cls-9" d="M170.66,482.3s5.95-.67,8,.95c0,0-6.7,1.92-7.37,3.34,0,0,.14.14.7,0s4.09-1,4.87-.12l.26.43.27.16.4.26a1.4,1.4,0,0,1,.55.64c.14.39.43,0,.43,0s.47.91.34,1.17.46.87.46.87l.07,2.8.22-.22a12.49,12.49,0,0,0,1.4,5s2.84,6.72,3.78,7.21h.56s4.16,5.24,8.05,6.28,4.13,2.22,4.13,2.22l-4.69,5.47a17.14,17.14,0,0,0-2.7.5,35.54,35.54,0,0,0,5,.06l3.6-5a2.88,2.88,0,0,1,1.29.63,2.53,2.53,0,0,1,.67.29c.31.22.53,0,.79.08s-1.88,3.9-1.88,3.9l-2.48.06,2.08.69c.71.25,2.13-.67,2.13-.67l1.88-3.63.82.68v-.49s.84.47,1.19.38-.45-.56-.45-.56a3.43,3.43,0,0,0,1.18,0c.22-.13-.23-.83-.23-.83v-.52s-1.3,0-1.14-.24.63-.41,1.47,0,6,2.44,7.87,1.6a23,23,0,0,0,4.09,2.4c1,.2,2.1,1.82,2.1,1.82s4.18,4.1,6.56,3a10.46,10.46,0,0,1-1.15-2.3c-.16-.74-3.2-3.07-3.2-3.07s6.35,1.33,6.34.89c0,0,3.19,1.71,3.38,1.71s0-1.09-1.77-2.32l2.39.29a2.8,2.8,0,0,0-2-2.4,6.62,6.62,0,0,0-2.23-1.88l-10-5.22s1-.51-.17-1.89a8.19,8.19,0,0,1,.92-.28c.56-.15-4.53-4.23-4.67-4.21a5.33,5.33,0,0,1-1.61-1.68c-.2-.53-4.77-3-4.77-3s-3.9-.17-6.7-5.43-9.17-5.69-9.17-5.69-2.56-11.24-13.23-6.67C179.11,479.72,171.75,480.3,170.66,482.3Z"/><path class="cls-3" d="M631,442c-.75,1.21-3,.49-3.73,1.71a3.34,3.34,0,0,0,0,2.09,4.45,4.45,0,0,1-5.63,4.49,7.55,7.55,0,0,1-2.26,5,4.82,4.82,0,0,1-5.57-.3,10.45,10.45,0,0,1-3.29-4.89c-.85-2.26-1.44-4.82-3.41-6.27-.71-.53-1.53-.86-2.22-1.44a9.3,9.3,0,0,1-2.88-5,51.52,51.52,0,0,0-2.32-7,10.43,10.43,0,0,0-4.91-5.27c-2.09-1-4.5-.91-6.68-1.67a19.26,19.26,0,0,1-4.52-2.5,30,30,0,0,0-5.67-3.41,16.26,16.26,0,0,1-3.34-1.9,4.73,4.73,0,0,1-2.59-4.19,13.18,13.18,0,0,0-1.86-4.58c-1-1.81-1.86-3.57-1.22-5.42s2.59-3,3.25-4.79a11,11,0,0,0,.24-3.83,4,4,0,0,1,1.44-3.44c1.68-1.12,3.73.29,5.76.85a4.43,4.43,0,0,0,2.2.14,18.33,18.33,0,0,0,1.9-.81c3.15-1.27,6.71,1,8.46,3.9s2.45,6.3,4,9.32a7.53,7.53,0,0,0,2.35,3,3.54,3.54,0,0,0,3.6.42l1.73,3.87c.88,2,1.78,4,2.68,5.94,1.14,2.53,2.46,5.27,5,6.39,1.14.49,2.4.59,3.57,1a7.73,7.73,0,0,1,5,5.76,14.15,14.15,0,0,0,.46,2.59c1,2.63,4.32,3.22,6.81,4.6a9.57,9.57,0,0,1,3.45,3.37A2.14,2.14,0,0,1,631,442Z"/><path class="cls-4" d="M631,442c-.75,1.21-3,.49-3.73,1.71a3.34,3.34,0,0,0,0,2.09,4.45,4.45,0,0,1-5.63,4.49,7.55,7.55,0,0,1-2.26,5,4.82,4.82,0,0,1-5.57-.3,10.45,10.45,0,0,1-3.29-4.89c-.85-2.26-1.44-4.82-3.41-6.27-.71-.53-1.53-.86-2.22-1.44a9.3,9.3,0,0,1-2.88-5,51.52,51.52,0,0,0-2.32-7,10.43,10.43,0,0,0-4.91-5.27c-2.09-1-4.5-.91-6.68-1.67a19.26,19.26,0,0,1-4.52-2.5,30,30,0,0,0-5.67-3.41,16.26,16.26,0,0,1-3.34-1.9,4.73,4.73,0,0,1-2.59-4.19,13.18,13.18,0,0,0-1.86-4.58c-1-1.81-1.86-3.57-1.22-5.42s2.59-3,3.25-4.79a11,11,0,0,0,.24-3.83,4,4,0,0,1,1.44-3.44c1.68-1.12,3.73.29,5.76.85a4.43,4.43,0,0,0,2.2.14,18.33,18.33,0,0,0,1.9-.81c3.15-1.27,6.71,1,8.46,3.9s2.45,6.3,4,9.32a7.53,7.53,0,0,0,2.35,3,3.54,3.54,0,0,0,3.6.42l1.73,3.87c.88,2,1.78,4,2.68,5.94,1.14,2.53,2.46,5.27,5,6.39,1.14.49,2.4.59,3.57,1a7.73,7.73,0,0,1,5,5.76,14.15,14.15,0,0,0,.46,2.59c1,2.63,4.32,3.22,6.81,4.6a9.57,9.57,0,0,1,3.45,3.37A2.14,2.14,0,0,1,631,442Z"/><path class="cls-10" d="M576.94,413.36s1.28,2.58-2.5,2.63,2.43,16.78,2.43,16.78l6.29,8,7.81-4.23.45-11.65.59-7.05s-7.31-2.37-6-5.53S576.94,413.36,576.94,413.36Z"/><path class="cls-3" d="M599.63,481.56s4.6,4.55,10-1.44l-4.14-4.39h-5.22Z"/><path class="cls-3" d="M607.89,476.51a30.86,30.86,0,0,0,3.21,6.35c1.35,1.44,3.47,11.65.65,10.5s-8.22-9.74-8.53-11.21a51.6,51.6,0,0,1-.45-5.64Z"/><polygon class="cls-3" points="567.59 501.49 592.45 502.46 589.56 491.95 577.04 491.69 567.59 501.49"/><path class="cls-3" d="M575.72,518.86c-.59,1.09-.36,4.89-.1,7.68.17,1.78.36,3.15.36,3.15s-9.3,2.88-10.71.39a7.5,7.5,0,0,1-.59-3.05,60.61,60.61,0,0,1,.59-9.4s-.39-8.52-.58-9.35c0-.33-.2-1.44-.32-2.55-.16-1.7-.33-3.6-.33-3.6l12.69-6.73v3.19C576.66,504.7,576.45,517.51,575.72,518.86Z"/><path class="cls-3" d="M576.3,578.16h-7.63l-.26-.3a5.27,5.27,0,0,1-.83-5.08,35.64,35.64,0,0,0,1.28-8.92,4.06,4.06,0,0,0,.07-2.3,4.12,4.12,0,0,1-.13-2.12,5.18,5.18,0,0,0-.39-1.44,4.42,4.42,0,0,1,0-2.19,16.57,16.57,0,0,0-.65-4c-.58-1.65-4.81-21.47-3.78-23.84,0,0,9-1.54,12.37-.37l-.45,15.38s-1.61,4.6-.26,5.83,0,5,0,5-.2.71.95,3.06,0,3.47,0,3.47v4.55a9.77,9.77,0,0,0,.13,5.58C577.91,572.92,576.74,578.08,576.3,578.16Z"/><path class="cls-3" d="M593.91,518.86c-.59,1.09-.36,4.89-.1,7.68.17,1.78.36,3.15.36,3.15s-9.3,2.88-10.71.39a7.5,7.5,0,0,1-.59-3.05,60.61,60.61,0,0,1,.59-9.4s-.39-8.52-.58-9.35c-.1-.45-.29-4.73-.43-8.63-.12-3.28-.22-6.26-.22-6.26l12.69,2s0,5.58-.16,11.31S594.38,518,593.91,518.86Z"/><path class="cls-3" d="M594.48,578.16h-7.63l-.26-.3a5.27,5.27,0,0,1-.83-5.08,35.64,35.64,0,0,0,1.28-8.92,4.06,4.06,0,0,0,0-2.3,4.12,4.12,0,0,1-.13-2.12,5.18,5.18,0,0,0-.39-1.44,4.42,4.42,0,0,1,0-2.19,16.57,16.57,0,0,0-.65-4c-.58-1.65-4.81-21.47-3.78-23.84,0,0,9-1.54,12.37-.37L594,542.93s-1.61,4.6-.26,5.83,0,5,0,5-.2.71.95,3.06,0,3.47,0,3.47v4.55a9.77,9.77,0,0,0,.13,5.58C596.09,572.92,594.93,578.08,594.48,578.16Z"/><circle class="cls-4" cx="581.62" cy="407.25" r="9.04"/><circle class="cls-10" cx="581.94" cy="406.96" r="9.04"/><path class="cls-3" d="M592.57,446.51a37.41,37.41,0,0,0-.19,7.54c5.84,4.82,4.75,14.94,4.75,14.94s4.49,20.48,3.48,22.37,2.17,13.27,2.17,13.27a55.78,55.78,0,0,1-8.1.94,22.7,22.7,0,0,1-2.88-.09,4.55,4.55,0,0,1-3.48-1.44c-1.8-3.14-9.55-7.83-9.55-7.83s-4.89,2.95-9.47,5.63c-1.44.86-2.88,1.7-4.12,2.39a7.57,7.57,0,0,1-3.21.88c-5.44.4-12.69-3-11.51-4.2,1.44-1.44,8.4-27.34,8.4-27.34s3.53-16,6.6-18.26a3.34,3.34,0,0,0,1.15-1.61c1.05-2.88-.71-7.63-.71-7.63s-9.93-12.24-9.48-12.95a17.83,17.83,0,0,0,.45-4.47s1.22-6,1.91-8.85,5.76-3.6,7.19-3.34,5.12,0,6.53-1.15,3.78.45,3.78.45l5.51,2.76,5.25-3.09s5.27.27,5.76,1,7.37,2,7.37,2c3.53,2.37,3.4,13.65,3.4,13.65s-8.46,7.37-10.19,11.15A13.26,13.26,0,0,0,592.57,446.51Z"/><path class="cls-3" d="M601.75,430.47l1.91,1.54,2,17.89,2,18s.76,1.8,1.44,1.61.58,10.63.58,10.63-7.37-4.53-10,1.44l-2.06-14.49s-2.63-14.81-2.56-16-1.35-13.65-1.35-13.65Z"/><path class="cls-3" d="M557.91,431.3,556.47,433s.13,7.44-1,9.24,3,12.3,4.55,11.67,5-17.05,5-17.27S557.91,431.3,557.91,431.3Z"/><path class="cls-3" d="M560.33,440.13s-4.49,4.55-4.17,6.73,6.9,17.71,14.67,11.15C570.82,458,572.63,441.48,560.33,440.13Z"/><path class="cls-4" d="M576.15,578.17h-7.48l-.26-.3C570,577.31,573.55,576.47,576.15,578.17Z"/><path class="cls-4" d="M594.34,578.17h-7.48l-.26-.3C588.22,577.31,591.73,576.47,594.34,578.17Z"/><path class="cls-3" d="M575.2,401.26a2.19,2.19,0,0,1,.86.09,3.47,3.47,0,0,1,1.08.82,3.9,3.9,0,0,0,3.67.71,4.88,4.88,0,0,1,1.44-.4,2.16,2.16,0,0,1,1.76,1.17c.37.63.58,1.35.91,2a2.56,2.56,0,0,0,1.57,1.44,2.7,2.7,0,0,1,1,.23,1.31,1.31,0,0,1,.43.6c.6,1.3,1.08,2.88,2.36,3.47a3.61,3.61,0,0,0,1.44.33,3.11,3.11,0,0,0,1.53-.29,3,3,0,0,0,1.14-1.12,7,7,0,0,0,.69-4.5,12.27,12.27,0,0,0-2-5.42,11.28,11.28,0,0,0-10.32-4.78,16.26,16.26,0,0,0-2.06.4,11.19,11.19,0,0,0-6.35,3.93,13,13,0,0,1-1.18,1.44C573.85,401.33,574.53,401.28,575.2,401.26Z"/><path class="cls-4" d="M575.2,401.26a2.19,2.19,0,0,1,.86.09,3.47,3.47,0,0,1,1.08.82,3.9,3.9,0,0,0,3.67.71,4.88,4.88,0,0,1,1.44-.4,2.16,2.16,0,0,1,1.76,1.17c.37.63.58,1.35.91,2a2.56,2.56,0,0,0,1.57,1.44,2.7,2.7,0,0,1,1,.23,1.31,1.31,0,0,1,.43.6c.6,1.3,1.08,2.88,2.36,3.47a3.61,3.61,0,0,0,1.44.33,3.11,3.11,0,0,0,1.53-.29,3,3,0,0,0,1.14-1.12,7,7,0,0,0,.69-4.5,12.27,12.27,0,0,0-2-5.42,11.28,11.28,0,0,0-10.32-4.78,16.26,16.26,0,0,0-2.06.4,11.19,11.19,0,0,0-6.35,3.93,13,13,0,0,1-1.18,1.44C573.85,401.33,574.53,401.28,575.2,401.26Z"/><path class="cls-4" d="M565.4,422.79s.45,3.58-1.09,4.47S565.4,422.79,565.4,422.79Z"/><path class="cls-4" d="M573.42,418.59s-5.42.35-5.45,1.12S573.42,418.59,573.42,418.59Z"/><rect class="cls-3" x="558.06" y="426.47" width="6.81" height="13.65" rx="1.53" ry="1.53"/><path class="cls-3" d="M558.15,447.74s1.14-5.31-.37-7-1-10.5,1.28-10.32,5.76,7.19,5.19,8.63-2.76,9.05-2.76,9.05Z"/></g></g></svg>