<svg xmlns="http://www.w3.org/2000/svg" viewBox="0 0 1253.69 941.1"><defs><style>.cls-1{fill:#fafafc;}.cls-1,.cls-18,.cls-21,.cls-4,.cls-6{isolation:isolate;}.cls-2{fill:none;stroke:#6c63ff;stroke-miterlimit:10;}.cls-18,.cls-3{fill:#6c63ff;}.cls-15,.cls-18,.cls-4{opacity:0.1;}.cls-5{fill:#a8a8a8;}.cls-6{opacity:0.2;}.cls-7{fill:#ffd037;}.cls-8{fill:#8c8296;}.cls-9{fill:#0f363f;}.cls-10{fill:#e7c4c3;}.cls-11{fill:#ffc7d1;}.cls-12{fill:#f99;}.cls-13{fill:#333;}.cls-14{fill:#0c2c35;}.cls-16{fill:#f7aaaa;}.cls-17{fill:#c589e0;}.cls-19{fill:#40243e;}.cls-20{fill:#ea1b39;}.cls-21,.cls-22{opacity:0.05;}.cls-23{fill:#171726;}</style></defs><title>farmer-feeling depressed_1</title><g id="Layer_2" data-name="Layer 2"><g id="_3e90e3bd-4737-44d7-adc0-e2bfcead9cc9" data-name="3e90e3bd-4737-44d7-adc0-e2bfcead9cc9"><path class="cls-1" d="M276.14,88c-7.52,7.63-11.47,19.18-15.62,30-33.49,87-97.73,152.48-167.12,196.34C64,333,27.89,358.29,28.93,398.17c.56,21.43,12.47,38.61,20.62,57,17.11,38.53,18.1,88.16,2.58,129.87C34.46,632.5-3.73,674.11.29,724.77c2.49,31.19,21,55.43,39,76.53q42.18,49.35,88.07,93.57c20.51,19.76,42.51,39.24,68.57,44.62,22.95,4.75,46.82-1.91,70-8.53,20.23-5.79,41-11.85,58.52-26.28,11.44-9.42,21.21-22.18,33.54-29.52,29-17.24,61.34-.09,90.58,12.4,69,29.37,146.53,31.25,218.83,5.31,110.9-39.79,204.07-140.5,313.51-187.24,47.06-20.1,96.78-30.06,141.48-57.9a261,261,0,0,0,66.47-60.35c37-47.07,61.57-109.86,64.56-173.91S1237,285,1199.1,244c-40.53-43.9-96.79-58.07-145.44-87.41-50.23-30.3-92.51-77-142-109C830.46-4.67,730.91-14.44,640.83,21c-61.1,24-128.06,89.31-192.54,86.93C402.37,106.21,317.3,46.23,276.14,88Z"/><path class="cls-2" d="M1027,666.45s17.5,34.35,3.24,53.14,1.3,70,1.3,70"/><path class="cls-3" d="M1032.25,655.75c0,6.62-4.86,12-4.86,12s-4.86-5.37-4.86-12,4.86-12,4.86-12S1032.25,649.13,1032.25,655.75Z"/><path class="cls-2" d="M1036.1,666.45s-17.5,34.35-3.24,53.14-1.3,70-1.3,70"/><path class="cls-3" d="M1030.92,655.75c0,6.62,4.86,12,4.86,12s4.86-5.37,4.86-12-4.86-12-4.86-12S1030.92,649.13,1030.92,655.75Z"/><path class="cls-4" d="M1030.92,655.75c0,6.62,4.86,12,4.86,12s4.86-5.37,4.86-12-4.86-12-4.86-12S1030.92,649.13,1030.92,655.75Z"/><path class="cls-2" d="M1043.25,666.45s17.5,34.35,3.24,53.14,1.3,70,1.3,70"/><path class="cls-3" d="M1048.42,655.75c0,6.62-4.86,12-4.86,12s-4.86-5.37-4.86-12,4.86-12,4.86-12S1048.42,649.13,1048.42,655.75Z"/><path class="cls-3" d="M1045.69,683.25c-4.59,4.77-11.82,5.27-11.82,5.27s.22-7.24,4.81-12,11.82-5.27,11.82-5.27S1050.25,678.5,1045.69,683.25Z"/><path class="cls-3" d="M1046.15,707c-4.59,4.77-11.82,5.27-11.82,5.27s.22-7.24,4.81-12S1051,695,1051,695,1050.74,702.2,1046.15,707Z"/><path class="cls-3" d="M1021.25,720c4.34,5,4.19,12.24,4.19,12.24s-7.19-.87-11.53-5.87-4.19-12.24-4.19-12.24S1016.91,715,1021.25,720Z"/><path class="cls-3" d="M1025.25,669.47c5.52,3.66,7.31,10.68,7.31,10.68s-7.16,1.09-12.68-2.57-7.31-10.68-7.31-10.68S1019.76,665.81,1025.25,669.47Z"/><path class="cls-4" d="M1025.25,669.47c5.52,3.66,7.31,10.68,7.31,10.68s-7.16,1.09-12.68-2.57-7.31-10.68-7.31-10.68S1019.76,665.81,1025.25,669.47Z"/><path class="cls-2" d="M1052.3,666.45s-17.5,34.35-3.24,53.14-1.3,70-1.3,70"/><path class="cls-3" d="M1047.12,655.75c0,6.62,4.86,12,4.86,12s4.86-5.37,4.86-12-4.86-12-4.86-12S1047.12,649.13,1047.12,655.75Z"/><path class="cls-4" d="M1047.12,655.75c0,6.62,4.86,12,4.86,12s4.86-5.37,4.86-12-4.86-12-4.86-12S1047.12,649.13,1047.12,655.75Z"/><path class="cls-3" d="M1048.52,683.78c-4.65,4.72-5,12-5,12s7.23-.41,11.88-5.13,5-12,5-12S1053.17,679.07,1048.52,683.78Z"/><path class="cls-4" d="M1048.52,683.78c-4.65,4.72-5,12-5,12s7.23-.41,11.88-5.13,5-12,5-12S1053.17,679.07,1048.52,683.78Z"/><path class="cls-3" d="M1057.63,716.59c-4.65,4.72-5,12-5,12s7.23-.41,11.88-5.13,5-12,5-12S1062.25,711.88,1057.63,716.59Z"/><path class="cls-2" d="M1044.25,709.38s10.53-16.6,25.32-17"/><path class="cls-2" d="M1036,699.36s-10.53-16.6-25.32-17"/><path class="cls-2" d="M1034.65,723.05s10.53-16.6,25.32-17"/><circle class="cls-3" cx="1069.06" cy="692.3" r="2.73"/><circle class="cls-3" cx="1010.96" cy="682.5" r="2.73"/><path class="cls-2" d="M1042.4,728.52s-10.53-16.6-25.32-17"/><circle class="cls-3" cx="1017.34" cy="711.66" r="2.73"/><circle class="cls-3" cx="1060.18" cy="706.2" r="2.73"/><path class="cls-5" d="M1100.63,769.64s-25.38-5.08-32.15-11.85-37.23-18.61-40.62-10.15-45.69,37.23-16.92,42.31,67.69,6.77,76.15,3.38S1100.63,769.64,1100.63,769.64Z"/><path class="cls-6" d="M1010.94,786.8c28.77,5.08,67.69,6.77,76.15,3.38,6.44-2.58,10.92-15,12.69-20.72l.85.18s-5.08,20.31-13.54,23.69-47.38,1.69-76.15-3.38c-8.3-1.47-10.68-4.91-9.78-9.26C1001.86,783.53,1004.76,785.71,1010.94,786.8Z"/><path class="cls-3" d="M114.92,707.5s8.38,11-3.87,27.5-22.34,30.5-18.26,40.85c0,0,18.48-30.73,33.52-31.16S131.47,726,114.92,707.5Z"/><path class="cls-4" d="M114.92,707.5a13.57,13.57,0,0,1,1.71,3.44c14.68,17.24,22.49,33.33,8.39,33.74-13.14.38-28.9,23.87-32.68,29.81a12.74,12.74,0,0,0,.45,1.35s18.48-30.73,33.52-31.16S131.47,726,114.92,707.5Z"/><path class="cls-7" d="M130.5,721.5c0,3.86-.43,7-1,7s-1-3.13-1-7,.54-2,1.07-2S130.5,717.63,130.5,721.5Z"/><path class="cls-7" d="M135.85,726.09c-3.39,1.85-6.34,3-6.59,2.49s2.28-2.35,5.67-4.19,2.05-.5,2.31,0S139.23,724.24,135.85,726.09Z"/><path class="cls-3" d="M70.66,707.5s-8.38,11,3.87,27.5,22.34,30.5,18.26,40.85c0,0-18.48-30.73-33.52-31.16S54.11,726,70.66,707.5Z"/><path class="cls-4" d="M70.66,707.5A13.57,13.57,0,0,0,69,710.94c-14.68,17.24-22.49,33.33-8.39,33.74,13.14.38,28.9,23.87,32.68,29.81a12.74,12.74,0,0,1-.45,1.35s-18.48-30.73-33.52-31.16S54.11,726,70.66,707.5Z"/><path class="cls-7" d="M55.08,721.5c0,3.86.43,7,1,7s1-3.13,1-7-.54-2-1.07-2S55.08,717.63,55.08,721.5Z"/><path class="cls-7" d="M49.73,726.09c3.39,1.85,6.34,3,6.59,2.49s-2.28-2.35-5.67-4.19-2.05-.5-2.31,0S46.34,724.24,49.73,726.09Z"/><path class="cls-5" d="M57.75,774.42s23.43-.72,30.49-5.75,36-11,37.79-3,35.21,40.11,8.76,40.32-61.46-4.12-68.51-8.41S57.75,774.42,57.75,774.42Z"/><path class="cls-6" d="M135.26,803.21c-26.45.21-61.46-4.12-68.51-8.41-5.37-3.27-7.51-15-8.22-20.41h-.78s1.48,18.9,8.53,23.19,42.06,8.63,68.51,8.41c7.64-.06,10.27-2.78,10.13-6.8C143.86,801.65,141,803.17,135.26,803.21Z"/><path class="cls-8" d="M844.3,728.56c-.84,13-3.72,26.7-12.31,23.31a31.12,31.12,0,0,1-6.8-4c-15.61-11.54-35.93-39.68-35.93-39.68s-.48,14.72-1.42,19-2.38,17.56-2.38,17.56H767.88s-.95-17.09-5.22-54.12,29.9-22.79,29.9-22.79l31.87,24.56,19.87,15.31s.19,2.92.27,7.26C844.64,718.76,844.61,723.61,844.3,728.56Z"/><path class="cls-9" d="M844.3,728.56c-.84,13-3.72,26.7-12.31,23.31a31.12,31.12,0,0,1-6.8-4c-15.61-11.54-35.93-39.68-35.93-39.68s-.48,14.72-1.42,19c-.68,3.08-1.6,10.72-2.07,14.83-.19,1.65-.3,2.73-.3,2.73H767.88s0-.67-.13-2c-.38-5.52-1.67-22.39-5.09-52.08-4.27-37,29.9-22.79,29.9-22.79l31.87,24.56,19.87,15.31s.19,2.92.27,7.26C844.64,718.76,844.61,723.61,844.3,728.56Z"/><path class="cls-4" d="M785.75,742c-.19,1.65-.3,2.73-.3,2.73H767.88s0-.67-.13-2l17.53-.77A1.48,1.48,0,0,1,785.75,742Z"/><path class="cls-10" d="M787.34,765.15,757,770.84a18.7,18.7,0,0,0,3-4.39c3.49-6.89,4.33-16.36,4.54-20.55a2.31,2.31,0,0,1,2.24-2.22l18.56-.77a1.54,1.54,0,0,1,1.61,1.46s0,.05,0,.08l.35,16.53Z"/><path class="cls-4" d="M787.34,765.15,757,770.84a18.7,18.7,0,0,0,3-4.39c8.17-.51,17.82-2.7,27.3-5.51Z"/><path class="cls-9" d="M867.57,801.72s-44.62,9.49-78.33,6.65a154.31,154.31,0,0,0-52.75,5.06,26.7,26.7,0,0,1-21.67-3.19c-17.76-11.54-1.54-28.47-1.54-28.47s16.62-14.24,43.2-14.24c21.37,0,56-14.12,68.68-19.65,3.08-1.35,4.9-2.18,4.9-2.18l2-24.26.88-10.86L844.57,715l54.8,20.77L902.09,747l.6,2.49C910.77,797,867.57,801.72,867.57,801.72Z"/><path class="cls-4" d="M902.7,749.5l-.6-2.49-2.74-11.28-1.73-.65,2.08,8.61.6,2.49c8.07,47.47-35.13,52.21-35.13,52.21s-44.62,9.49-78.33,6.65a154.32,154.32,0,0,0-52.75,5.06,26.7,26.7,0,0,1-21.67-3.19,22.78,22.78,0,0,1-4.39-3.65,19.09,19.09,0,0,0,6.76,7,26.7,26.7,0,0,0,21.67,3.19,154.32,154.32,0,0,1,52.75-5.06c33.7,2.85,78.33-6.65,78.33-6.65S910.77,797,902.7,749.5Z"/><path class="cls-11" d="M815.82,661.68,772.63,656s-25.16.48-19.93,19.93A117.18,117.18,0,0,0,775,663.61l29.43,10.92Z"/><path class="cls-12" d="M815.82,661.68,804.43,674.5l-15.23-5.65L775,663.6c-2.46,1.75-4.9,3.32-7.22,4.7a112.83,112.83,0,0,1-15.09,7.61c-3.85-14.43,9-18.43,15.86-19.52a32.71,32.71,0,0,1,4.09-.42L790,658.28Z"/><path class="cls-4" d="M902.09,747c-9.79,6-36,17.36-56.83-17.45,0,0-.33-.38-1-1A29.85,29.85,0,0,0,832,721.44a25,25,0,0,0-8.61-.91,161,161,0,0,0,1.26-18.4c0-3.08,0-6.42-.25-9.73l19.87,15.31s.19,2.92.27,7.26l54.8,20.77Z"/><path class="cls-11" d="M898.52,613.42l-.17,0-31.08-.66-15.61,3.5s.76-1.64,1.9-4.43c4.24-10.26,13.55-36.16,8.81-53.59C856.3,536,888,562.95,888,562.95a58.91,58.91,0,0,0,6.2,44.23,57.54,57.54,0,0,0,3.8,5.61Z"/><circle class="cls-12" cx="874.05" cy="544.59" r="28" transform="translate(179.81 1305.23) rotate(-79.54)"/><path class="cls-13" d="M954,674.29c-.64-2.78-2.27-5.2-3.49-7.78-4.22-8.9-3.38-19.4-.91-28.94s6.37-18.71,8.15-28.4,1.13-20.45-4.83-28.27c-4.75-6.27-12.25-9.93-17.49-15.75a76.37,76.37,0,0,1-6.41-8.93,119.15,119.15,0,0,0-10.12-13,5.39,5.39,0,0,0-.93-3.41,24.1,24.1,0,0,0-2.94-2.24c-2.09-1.8-2.38-4.87-2.81-7.61a40.48,40.48,0,0,0-20.81-29.09c-6.17-3.24-13.43-4.83-20.2-3.14S858.66,504.3,854.54,510c-2.87,4-9.46,13.08-9,18.26.44,4.62,5.67,7.06,10.28,7.89,1.19,1.69,2.54,3.42,3.57,5A30.82,30.82,0,0,1,863,548c2.05,6.26-.05,13-1.54,19.42s-2.08,13.89,2.22,18.88a36,36,0,0,0,4,3.63c10.09,8.63,14.27,22.37,15.79,35.56s.89,26.66,3.7,39.64,9.91,26,22.06,31.39c10.59,4.65,23.28,2.53,33.26-3.3C949.39,689.2,955.79,682,954,674.29Z"/><path class="cls-4" d="M886.86,589.55l-30.68,3.78-14.72,4.75s.45-1.32,1.07-3.55l.66-.66c4.74-4.62,10.49-8.42,16.93-9a36.16,36.16,0,0,0,6-1,20.89,20.89,0,0,1,15.64,1.67,21.54,21.54,0,0,1,4.75,3.65Z"/><path class="cls-14" d="M906,728.14l.95,14.24s-34.62,29-60.78-14.72c0,0-8.55-10-21.83-9a161,161,0,0,0,1.26-18.4,106.17,106.17,0,0,0-1.26-18.63c-1.8-10.52.77-34.91,2.9-51.4.21-1.54.4-3.08.59-4.49A53,53,0,0,1,843.2,594.8c4.74-4.62,10.49-8.42,16.93-9a36.16,36.16,0,0,0,6-1c5.65-1.54,18.66-2.73,26.67,14.73,10.44,22.79,11.39,30.38,11.39,30.38s19.56,34.28,7.59,48.42C898.66,693.73,906,728.14,906,728.14Z"/><path class="cls-4" d="M790,658.27l-.82,10.57L775,663.6c-2.46,1.75-4.9,3.32-7.22,4.7a29.33,29.33,0,0,1,.1-9.45,11.43,11.43,0,0,1,.66-2.43,32.71,32.71,0,0,1,4.09-.42Z"/><path class="cls-12" d="M798.74,697.28l-9.23-4.49-7.38-3.59-9.49-8.55s-8.07-7.59-5.69-21.83S789.25,656,789.25,656L787.8,674.5a6.92,6.92,0,0,0,3.62,2.75,17.27,17.27,0,0,0,4.45,1Z"/><path class="cls-4" d="M858.06,662.59c-8.39,12.86-21.26,30.59-32.44,37.66a106.17,106.17,0,0,0-1.26-18.63c-1.8-10.52.77-34.91,2.9-51.4,4-8.46,7.54-15.06,7.54-15.06s16.36-12.79,26.24,8.25A40.39,40.39,0,0,1,858.06,662.59Z"/><path class="cls-4" d="M798.74,697.28l-9.23-4.49c-1.43-5-1.67-10.77,1.93-15.55a17.27,17.27,0,0,0,4.45,1Z"/><path class="cls-14" d="M859.16,621.52a40.33,40.33,0,0,1-3,39.11c-9.95,15.26-26.2,37.38-38.47,40.45-19,4.75-21.36,3.8-21.36,3.8S782.6,686.36,794,675.45c0,0,17.56-6.15,20.89-20.41s18-41.77,18-41.77S849.27,600.47,859.16,621.52Z"/><path class="cls-4" d="M829.83,745.46s-1.42,4.75,10.44,9.49,19,19.93,19,19.93"/><g class="cls-15"><polygon points="760.02 767.67 759.79 767.25 763.73 765.09 761.72 762.41 765.15 760.8 763.07 757.75 765.65 756.09 763.85 753.56 767.05 751.8 764.44 748.49 767.52 746.69 767.76 747.09 765.15 748.62 767.77 751.95 764.54 753.73 766.33 756.21 763.74 757.88 765.86 760.99 762.46 762.6 764.44 765.24 760.02 767.67"/><polygon points="763.09 767.37 760.62 765.36 763.78 762.29 762.46 760.27 765.21 757.99 763.63 755.04 765.66 753.7 764.21 751.22 767.06 749 764.78 746.45 765.13 746.13 767.76 749.06 764.83 751.33 766.3 753.85 764.25 755.2 765.81 758.1 763.09 760.37 764.39 762.35 761.33 765.33 763.39 767 763.09 767.37"/></g><path class="cls-16" d="M553.6,554.29l-4.06,20.66L544,603.19,537.3,640s-3.34,20.89,0,25.49-7.1,67.71-7.1,67.71l-4,28.92-.63,4.55L506,768.73s.52-3.21,1.06-7.78c1.13-9.64,2.34-25.57-1.06-31.51-3.5-6.12-2.12-36.81-1-54.84a103.79,103.79,0,0,0-2.58-30.53c-.48-2-1-4-1.48-5.72-1.54-5.41.88-34.76,3-56.5,1.3-13.55,2.47-24.16,2.47-24.16Z"/><path class="cls-17" d="M516.4,758.25s9.64,1.67,12.54,8.36c0,0,1.67,10,7.52,17.56l.17.22A8.47,8.47,0,0,1,529.86,798H514a8.47,8.47,0,0,1-6.83-3.46l-3.88-5.27a8.84,8.84,0,0,1-1.28-8c1.43-4.32,3.4-11.11,3.58-16.29a4.52,4.52,0,0,1,2.41-3.84C510.67,759.63,514.77,757.71,516.4,758.25Z"/><path class="cls-3" d="M371.16,410.89c3.66,3.21,8.49,19.13,8.49,19.13s-16.43-2.65-20.09-5.86a8.84,8.84,0,1,1,11.6-13.27Z"/><path class="cls-3" d="M406,421.1c1.33,4.68-3.27,20.68-3.27,20.68S390.35,430.62,389,425.93a8.84,8.84,0,1,1,17-4.82Z"/><path class="cls-3" d="M428.67,443.27c-1.17,4.72-13.23,16.2-13.23,16.2s-5-15.87-3.82-20.58a8.84,8.84,0,0,1,17.08,4.39Z"/><path class="cls-3" d="M457.72,484.08c-.39,4.82-10.33,18.21-10.33,18.21s-7.64-14.79-7.23-19.64a8.84,8.84,0,0,1,17.57,1.44Z"/><path class="cls-3" d="M388,459.36C392.83,459,406.22,449,406.22,449s-14.79-7.63-19.64-7.23A8.84,8.84,0,1,0,388,459.37Z"/><path class="cls-3" d="M404.84,481.61c4.52-1.83,14.28-15.31,14.28-15.31s-16.4-2.86-20.89-1a8.84,8.84,0,0,0,6.63,16.33Z"/><path class="cls-3" d="M441.08,522.7c4.76-1,16.66-12.68,16.66-12.68s-15.68-5.62-20.43-4.55a8.84,8.84,0,0,0,3.78,17.23Z"/><path class="cls-18" d="M457.72,484.08c-.39,4.82-10.33,18.21-10.33,18.21s-7.64-14.79-7.23-19.64a8.84,8.84,0,0,1,17.57,1.44Z"/><path class="cls-18" d="M441.08,522.7c4.76-1,16.66-12.68,16.66-12.68s-15.68-5.62-20.43-4.55a8.84,8.84,0,0,0,3.78,17.23Z"/><path class="cls-16" d="M493.41,638.72c-.59,2.06-1.18,4.42-1.74,6.82a99.73,99.73,0,0,0-2.35,28.92c1.17,18,2.6,49.2-.92,55.38-3.41,6-2.19,21.94-1.05,31.59.54,4.56,1.05,7.7,1.05,7.7L468.75,767l-.63-4.55-4-28.92s-10.45-63.11-7.1-67.71,0-25.49,0-25.49l-6.69-36.75-4.47-22.7-5.15-26.2L488,558.06s.92,8.34,2,19.68C492.17,599.7,495.06,632.93,493.41,638.72Z"/><circle class="cls-19" cx="501.35" cy="255.88" r="17.97"/><path class="cls-19" d="M513.72,239.46c-.37-.21-.74-.39-1.12-.57a18,18,0,0,1-17.53,31.3c.35.22.7.45,1.07.66a18,18,0,1,0,18.55-30.79q-.48-.29-1-.55Z"/><path class="cls-19" d="M543.43,317.59c.34-.25.66-.51,1-.8A18,18,0,0,1,523,288c-.35.22-.7.46-1,.71a18,18,0,1,0,21.42,28.88Z"/><path class="cls-19" d="M497,299.18c.34-.25.66-.51,1-.8a18,18,0,0,1-21.36-28.78c-.35.22-.7.46-1,.71A18,18,0,0,0,497,299.16Z"/><circle class="cls-19" cx="499.27" cy="296.42" r="33.01"/><path class="cls-16" d="M564.46,544.26c-5.85,1.67-16.72-25.08-16.72-25.08l-20.89-63.53.66-22.14,1.43-48.07-62.28,1.67s-11.7,30.11-15.88,38.45a24,24,0,0,0-1.7,6.3c-2.23,13.54-1.61,39.68-1.61,39.68l-4.6,44.72s-.42,22.15-7.94,18-8.36-21.69-8.36-21.69l2.84-71.93s0-.88-.1-2.46c-.31-8.77-1.12-39.24,1.35-61.87q.29-2.64.57-5c2.68-22,5.76-23.73,30.36-27.63,14-2.23,19.52-9.79,21.57-16.37a25.81,25.81,0,0,0,1-10.8s28.42-22.15,25.08,4.6a24.2,24.2,0,0,0,.56,9.46c3.41,12.48,17.19,17.74,25.53,19.81A23.3,23.3,0,0,1,553,374.56v.22a35.63,35.63,0,0,1-1.54,8.19s.42,15.47-.8,25.08c-.6,4.61-.43,15.57-.1,25.71.37,11,.93,21.08.93,21.08l9.64,63.53S570.32,542.56,564.46,544.26Z"/><path class="cls-4" d="M509.86,330.54a27.6,27.6,0,0,1-26.59-3.26,25.81,25.81,0,0,0,1-10.8s28.42-22.15,25.08,4.6A24.2,24.2,0,0,0,509.86,330.54Z"/><circle class="cls-16" cx="499.47" cy="304.15" r="27.58"/><path class="cls-17" d="M477.95,758.69s-9.64,1.67-12.54,8.36c0,0-1.67,10-7.52,17.56l-.17.22a8.47,8.47,0,0,0,6.77,13.57h15.87a8.47,8.47,0,0,0,6.83-3.46l4.4-6a7.16,7.16,0,0,0,1-6.53c-1.42-4.19-3.58-11.37-3.83-16.87a4.93,4.93,0,0,0-2.61-4.17C483.47,760,479.53,758.14,477.95,758.69Z"/><path class="cls-20" d="M445.34,418.45s15.47,23,0,53.49-28.84,94-28.84,94,14.21-1.25,18,8.36,33-.8,35.95,0,21.32-1.25,31.76,4.18,30.93-.42,35.11-4.18,29.25-.8,29.25-.8S553.16,475.72,534.37,459c0,0-11.25-13.8,2.92-36.78S445.34,418.45,445.34,418.45Z"/><path class="cls-4" d="M551.51,382.93s.42,15.47-.8,25.08c-.6,4.61-.43,15.57-.1,25.71a65,65,0,0,0-17.46.18,17.5,17.5,0,0,1-5.62-.41c-6.86-1.27-17.25-4.7-20.3-8.36-4.18-5-17.56,3.34-20.48,5.43s-20.48,2.92-25.08.8c-3.13-1.42-7.79-1.49-12.57.45a23.62,23.62,0,0,0-6.66,4.15c-3.42,3-8.71,2.92-13.06,2.14-.31-8.77-1.12-39.24,1.35-61.87q.29-2.64.57-5c17.59-2,65.08-1.3,65.08-1.3s41,.91,56.71,4.77A35.63,35.63,0,0,1,551.51,382.93Z"/><ellipse class="cls-4" cx="501.15" cy="285.13" rx="25.29" ry="14.63"/><ellipse class="cls-19" cx="501.15" cy="284.3" rx="25.29" ry="14.63"/><path class="cls-4" d="M453.53,348c.8,0,22.57,0,26.33-.8"/><path class="cls-4" d="M516.6,352.22c10.86,0,13.38,0,17.14-.8"/><path class="cls-21" d="M482.67,367.4s11,5.76,11.5,11.59c0,0,4.09-10.85,9.92-11.35"/><path class="cls-4" d="M529.86,796.91H514a8.47,8.47,0,0,1-6.83-3.46l-3.88-5.29a8.84,8.84,0,0,1-1.7-4.64,8.84,8.84,0,0,0,1.7,5.9l3.88,5.29a8.47,8.47,0,0,0,6.83,3.46h15.86a8.48,8.48,0,0,0,8.49-8.48q0-.33,0-.65A8.47,8.47,0,0,1,529.86,796.91Z"/><g class="cls-22"><path d="M534.37,459s-11.25-13.8,2.92-36.78c3.78-6.11-.95-9.23-9.91-10.53,1.55,1.68,1.66,3.9-.12,6.77-14.21,23-2.92,36.78-2.92,36.78,18.81,16.72,32.18,114.52,32.18,114.52s-25.08-2.92-29.25.8-24.66,9.64-35.11,4.18-28.84-3.34-31.76-4.18c-2-.56-15.76,4-25.77,4.09,4.3,9,32.94-1.16,35.79-.33s21.32-1.25,31.76,4.18,30.93-.42,35.11-4.18,29.25-.8,29.25-.8S553.16,475.72,534.37,459Z"/><path d="M417,563.69c-.33,1.49-.5,2.31-.5,2.31a26.89,26.89,0,0,1,4.71.11A14.6,14.6,0,0,0,417,563.69Z"/></g><path class="cls-20" d="M496.34,370.81s-58.93-.8-69.8,2.09-4.6,63.95-4.6,63.95,13.8,5.85,20.48,0,14.63-6.68,19.23-4.6,22.15,1.25,25.08-.8S503,421,507.21,426s22.15,9.64,25.91,8.77,24.66-2.09,27.58,4.6c0,0,3.34-55.58-2.09-61.44S496.34,370.81,496.34,370.81Z"/><path class="cls-23" d="M855.75,463.45s5.95-.67,8,.95c0,0-6.7,1.92-7.37,3.34,0,0,.14.14.7,0s4.09-1,4.87-.12l.26.43.27.16.4.26a1.4,1.4,0,0,1,.55.64c.14.39.43,0,.43,0s.47.91.34,1.17.46.87.46.87l.07,2.8.22-.22a12.49,12.49,0,0,0,1.4,5s2.84,6.72,3.78,7.21h.56s4.16,5.24,8.05,6.28,4.13,2.22,4.13,2.22l-4.69,5.47a17.14,17.14,0,0,0-2.7.5,35.54,35.54,0,0,0,5,.06l3.6-5a2.88,2.88,0,0,1,1.29.63,2.53,2.53,0,0,1,.67.29c.31.22.53,0,.79.08s-1.88,3.9-1.88,3.9l-2.48.06,2.08.69c.71.25,2.13-.67,2.13-.67l1.88-3.63.82.68V497s.84.47,1.19.38-.45-.56-.45-.56a3.43,3.43,0,0,0,1.18,0c.22-.13-.23-.83-.23-.83v-.52s-1.3,0-1.14-.24.63-.41,1.47,0,6,2.44,7.87,1.6a23,23,0,0,0,4.09,2.4c1,.2,2.1,1.82,2.1,1.82s4.18,4.1,6.56,3a10.46,10.46,0,0,1-1.15-2.3c-.16-.74-3.2-3.07-3.2-3.07s6.35,1.33,6.34.89c0,0,3.19,1.71,3.38,1.71s0-1.09-1.77-2.32l2.39.29a2.8,2.8,0,0,0-2-2.4,6.62,6.62,0,0,0-2.23-1.88l-10-5.22s1-.51-.17-1.89a8.19,8.19,0,0,1,.92-.28c.56-.15-4.53-4.23-4.67-4.21a5.33,5.33,0,0,1-1.61-1.68c-.2-.53-4.77-3-4.77-3s-3.9-.17-6.7-5.43-9.17-5.69-9.17-5.69-2.56-11.24-13.23-6.67C864.2,460.87,856.84,461.45,855.75,463.45Z"/></g></g></svg>